<?xml version="1.0" encoding="utf-8"?>
<!-- Generator: Adobe Illustrator 22.1.0, SVG Export Plug-In . SVG Version: 6.00 Build 0)  -->
<svg version="1.1" id="Layer_1" xmlns="http://www.w3.org/2000/svg" xmlns:xlink="http://www.w3.org/1999/xlink" x="0px" y="0px"
	 width="97.1px" height="90.5px" viewBox="0 0 97.1 90.5" style="enable-background:new 0 0 97.1 90.5;" xml:space="preserve">
<style type="text/css">
	.st0{fill-rule:evenodd;clip-rule:evenodd;fill:#99EBFA;}
	.st1{fill-rule:evenodd;clip-rule:evenodd;fill:#FF7B79;}
	.st2{fill-rule:evenodd;clip-rule:evenodd;fill:#FFDCD5;}
	.st3{fill-rule:evenodd;clip-rule:evenodd;fill:#FFFFFF;}
	.st4{fill-rule:evenodd;clip-rule:evenodd;fill:#EBDDD9;}
	.st5{fill:#4D4D4D;}
</style>
<g>
	<path class="st0" d="M66.8,28.4V70H14.8V28.4H66.8z M10.8,79h78.4c1.1,0,2-0.9,2-2V21.5c0-1.1-0.9-2-2-2H7.8C7,19.5,6.3,20,6,20.7
		v57C6.3,78.5,7,79,7.8,79H10.8z M79.1,61.4c2.4,0,4.3,1.9,4.3,4.3c0,2.4-1.9,4.3-4.3,4.3c-2.4,0-4.3-1.9-4.3-4.3
		C74.7,63.3,76.7,61.4,79.1,61.4L79.1,61.4z M79.1,61.4"/>
	<path class="st1" d="M21.2,70h39.2c-3-7.9-10.6-13.5-19.6-13.5C31.9,56.5,24.2,62.1,21.2,70L21.2,70z M21.2,70"/>
	<path class="st2" d="M31.4,47.1c0,5.2,4.2,9.4,9.4,9.4c5.2,0,9.4-4.2,9.4-9.4c0-5.2-4.2-9.4-9.4-9.4C35.6,37.7,31.4,41.9,31.4,47.1
		L31.4,47.1z M31.4,47.1"/>
	<path class="st3" d="M40.8,56.5c-5.2,0-9.4-4.2-9.4-9.4c0-5.2,4.2-9.4,9.4-9.4c5.2,0,9.4,4.2,9.4,9.4C50.2,52.3,46,56.5,40.8,56.5
		L40.8,56.5z M14.8,70h6.4c3-7.9,10.6-13.5,19.6-13.5c9,0,16.6,5.6,19.6,13.5h6.4V28.4H14.8V70z M14.8,70"/>
	<path class="st4" d="M15.3,88h67.6c2.5,0,4.5-2,4.5-4.5V79H10.8v4.5C10.8,85.9,12.9,88,15.3,88L15.3,88z M15.3,88"/>
	<path class="st1" d="M74.7,65.7c0,2.4,1.9,4.3,4.3,4.3c2.4,0,4.3-1.9,4.3-4.3c0-2.4-1.9-4.3-4.3-4.3C76.7,61.4,74.7,63.3,74.7,65.7
		L74.7,65.7z M74.7,65.7"/>
	<path class="st5" d="M89.3,17.8H52.9l14.9-14c0.7-0.7,0.7-1.8,0.1-2.5c-0.7-0.7-1.8-0.7-2.5-0.1L48.5,17.1L31.6,1.3
		c-0.7-0.7-1.8-0.6-2.5,0.1c-0.7,0.7-0.6,1.8,0.1,2.5l14.9,14H7.8c-2.1,0-3.7,1.7-3.7,3.7V77c0,2.1,1.7,3.7,3.7,3.7h1.3v2.7
		c0,3.4,2.8,6.2,6.2,6.2h67.6c3.4,0,6.2-2.8,6.2-6.2v-2.7h0.1c2.1,0,3.7-1.7,3.7-3.7V21.5C93,19.4,91.3,17.8,89.3,17.8L89.3,17.8z
		 M89.5,77c0,0.1-0.1,0.3-0.3,0.3H58.7c-1,0-1.7,0.8-1.7,1.7c0,1,0.8,1.7,1.7,1.7h27v2.7c0,1.5-1.2,2.8-2.7,2.8H15.3
		c-1.5,0-2.7-1.2-2.7-2.8v-2.7h30.5c1,0,1.7-0.8,1.7-1.7c0-1-0.8-1.7-1.7-1.7H7.8c-0.1,0-0.3-0.1-0.3-0.3V21.5
		c0-0.1,0.1-0.3,0.3-0.3h81.4c0.1,0,0.3,0.1,0.3,0.3V77z M89.5,77"/>
	<path class="st5" d="M66.8,26.7H14.8c-1,0-1.7,0.8-1.7,1.7V70c0,1,0.8,1.7,1.7,1.7h45.6c0,0,0,0,0,0c0,0,0,0,0,0h6.4
		c1,0,1.7-0.8,1.7-1.7V28.4C68.6,27.5,67.8,26.7,66.8,26.7L66.8,26.7z M33.1,47.1c0-4.2,3.4-7.7,7.7-7.7s7.7,3.4,7.7,7.7
		c0,4.2-3.4,7.7-7.7,7.7S33.1,51.3,33.1,47.1L33.1,47.1z M23.9,68.3c3.3-6.1,9.8-10,16.9-10c7.1,0,13.6,3.9,16.9,10H23.9z
		 M65.1,68.3h-3.5c-1.7-3.8-4.3-7-7.7-9.4c-1.9-1.3-4-2.4-6.1-3c2.6-2,4.2-5.2,4.2-8.7C52,41,47,36,40.8,36c-6.1,0-11.2,5-11.2,11.2
		c0,3.5,1.7,6.7,4.2,8.7c-2.2,0.7-4.2,1.7-6.1,3c-3.4,2.4-6.1,5.6-7.7,9.4h-3.5V30.2h48.6V68.3z M65.1,68.3"/>
	<path class="st5" d="M79.1,59.6c-3.3,0-6.1,2.7-6.1,6.1c0,3.3,2.7,6.1,6.1,6.1c3.4,0,6.1-2.7,6.1-6.1
		C85.1,62.4,82.4,59.6,79.1,59.6L79.1,59.6z M79.1,68.3c-1.4,0-2.6-1.2-2.6-2.6c0-1.4,1.2-2.6,2.6-2.6c1.4,0,2.6,1.2,2.6,2.6
		C81.7,67.1,80.5,68.3,79.1,68.3L79.1,68.3z M79.1,68.3"/>
	<path class="st5" d="M75.1,30.2H83c1,0,1.7-0.8,1.7-1.7c0-1-0.8-1.7-1.7-1.7h-7.9c-1,0-1.7,0.8-1.7,1.7
		C73.4,29.4,74.2,30.2,75.1,30.2L75.1,30.2z M75.1,30.2"/>
	<path class="st5" d="M75.1,38.1H83c1,0,1.7-0.8,1.7-1.7c0-1-0.8-1.7-1.7-1.7h-7.9c-1,0-1.7,0.8-1.7,1.7
		C73.4,37.4,74.2,38.1,75.1,38.1L75.1,38.1z M75.1,38.1"/>
	<path class="st5" d="M75.1,46.1H83c1,0,1.7-0.8,1.7-1.7c0-1-0.8-1.7-1.7-1.7h-7.9c-1,0-1.7,0.8-1.7,1.7
		C73.4,45.3,74.2,46.1,75.1,46.1L75.1,46.1z M75.1,46.1"/>
	<path class="st5" d="M50.9,77.3c-1,0-1.7,0.8-1.7,1.7c0,1,0.8,1.7,1.7,1.7h0c1,0,1.7-0.8,1.7-1.7C52.6,78,51.8,77.3,50.9,77.3
		L50.9,77.3z M50.9,77.3"/>
</g>
</svg>
