<?xml version="1.0" encoding="utf-8"?>
<!-- Generator: Adobe Illustrator 22.1.0, SVG Export Plug-In . SVG Version: 6.00 Build 0)  -->
<svg version="1.1" id="Layer_1" xmlns="http://www.w3.org/2000/svg" xmlns:xlink="http://www.w3.org/1999/xlink" x="0px" y="0px"
	 width="341.3px" height="159.2px" viewBox="0 0 341.3 159.2" style="enable-background:new 0 0 341.3 159.2;" xml:space="preserve"
	>
<style type="text/css">
	.st0{fill:#EFF0F5;}
	.st1{fill:#71D9E6;stroke:#3A9CA8;stroke-width:3;stroke-miterlimit:10;}
	.st2{enable-background:new    ;}
	.st3{fill:#FFFFFF;}
	.st4{fill:#F0746A;}
</style>
<g>
	<rect x="-0.3" class="st0" width="341.3" height="159.2"/>
	<ellipse class="st1" cx="42.6" cy="40.4" rx="20.7" ry="20.7"/>
	<g class="st2">
		<path class="st3" d="M49.7,45.9v3.7H35.6v-2.9l7.2-7.1c1.7-1.7,1.9-2.7,1.9-3.6c0-1.5-1-2.4-3-2.4c-1.6,0-3,0.6-3.9,2l-3.2-2.1
			c1.4-2.2,4.1-3.6,7.4-3.6c4.2,0,6.9,2.2,6.9,5.8c0,1.9-0.5,3.6-3.1,6.2l-4.3,4.3H49.7z"/>
	</g>
	<g>
		<path class="st4" d="M166.5,30.1c0.9,0,1.7-0.8,1.7-1.7v-3.7c0-1.6-1.3-2.8-2.8-2.8h-36.7c-1.6,0-2.8,1.3-2.8,2.8v14.4
			c0,1.6,1.3,2.8,2.8,2.8h13.2c0.2,0,0.6,0.2,0.7,0.3l2.7,2.7c0.5,0.5,1.3,0.8,2,0.8s1.4-0.3,2-0.8l2.7-2.7c0.1-0.1,0.5-0.3,0.7-0.3
			h12.7c1.6,0,2.8-1.3,2.8-2.8v-3.2c0-0.9-0.8-1.7-1.7-1.7s-1.7,0.8-1.7,1.7v2.7h-12.1c-1.1,0-2.4,0.5-3.1,1.3l-2.3,2.3l-2.3-2.3
			c-0.8-0.8-2-1.3-3.1-1.3h-12.6V25.3h35.6v3.2C164.8,29.4,165.6,30.1,166.5,30.1L166.5,30.1z"/>
		<path class="st4" d="M147,76.3c-0.9,0-1.7,0.8-1.7,1.7v3.1h-0.6c-0.9,0-1.7,0.8-1.7,1.7c0,0.9,0.8,1.7,1.7,1.7h1.2
			c1.6,0,2.8-1.3,2.8-2.8V78C148.7,77.1,147.9,76.3,147,76.3L147,76.3z"/>
		<path class="st4" d="M155.3,74.1c-0.9,0-1.7,0.8-1.7,1.7v3.3c0,0.9,0.8,1.7,1.7,1.7s1.7-0.8,1.7-1.7v-3.3
			C157,74.9,156.2,74.1,155.3,74.1L155.3,74.1z"/>
		<path class="st4" d="M136.5,74.1c-0.9,0-1.7,0.8-1.7,1.7v3.3c0,0.9,0.8,1.7,1.7,1.7s1.7-0.8,1.7-1.7v-3.3
			C138.1,74.9,137.4,74.1,136.5,74.1L136.5,74.1z"/>
		<path class="st4" d="M150.9,86.4h-10.4c-1.5,0-2.7,1.2-2.7,2.6c0,4.3,3.5,7.8,7.8,7.8s7.8-3.5,7.8-7.8
			C153.5,87.6,152.3,86.4,150.9,86.4L150.9,86.4z M145.7,93.5c-2.2,0-4.1-1.6-4.4-3.7h8.8C149.7,91.9,147.9,93.5,145.7,93.5
			L145.7,93.5z"/>
		<path class="st4" d="M209.7,101h-1.1c2.4-2.1,4.3-4.9,5.5-8c3.4,0,6.2-2.8,6.2-6.2c0-2-1-3.8-2.5-5c1-0.9,1.6-2.2,1.6-3.7v-1
			c0-2-1.1-3.7-2.7-4.5c-1.2-8-6.1-14.5-12.7-17.4c0.8-1.4,1.2-3,1.2-4.8c0-1.4-1.1-2.6-2.6-2.6h-12.1c-1.4,0-2.6,1.1-2.6,2.6
			c0,1.7,0.4,3.4,1.2,4.8c-6.5,2.9-11.4,9.5-12.7,17.4c-1.6,0.8-2.7,2.5-2.7,4.5v1c0,1.4,0.6,2.7,1.6,3.7c-1.5,1.1-2.5,2.9-2.5,5
			c0,3.4,2.8,6.2,6.2,6.2c1.2,3.1,3.1,5.9,5.5,8c-5.6,0.5-10,5.3-10,11.1v3.2c-1.1-0.8-2.1-1.8-2.9-3c-1-1.3-1.7-2.5-2.2-3.6
			c-0.8-5.6-5.6-9.9-11.4-10.1l-0.7-1.3c3.4-2.5,5.9-6.1,7-10.3h1.6c2.6,0,4.6-2.1,4.6-4.6V76c0-2.6-2.1-4.6-4.6-4.6H165V50.3
			c0-1.9-1.5-3.4-3.4-3.4h-15.7c-2.8,0-5.4,1.4-7,3.5h-3.8c-4.9,0-8.9,4-8.9,8.9v12.2h-0.9c-2.6,0-4.6,2.1-4.6,4.6v6.4
			c0,2.6,2.1,4.6,4.6,4.6h1.6c1,3.7,3.1,6.9,5.9,9.3c-0.3,0.3-0.6,0.6-0.7,0.9l-0.7,1.3c-6.4,0.2-11.5,5.4-11.5,11.8v24
			c0,1.6,1.3,2.9,2.9,2.9h43.9c1.6,0,2.9-1.3,2.9-2.9v-7.2c1.6,1,3.3,1.7,5,2.3v4.9c0,1.5,1.2,2.8,2.8,2.8H218
			c1.5,0,2.8-1.2,2.8-2.8V112C220.8,106,215.8,101,209.7,101L209.7,101z M165,81.7v-6.9h0.9c0.7,0,1.3,0.6,1.3,1.2v6.4
			c0,0.7-0.6,1.2-1.3,1.2h-1C164.9,83.1,165,82.4,165,81.7L165,81.7z M125.3,83.7c-0.7,0-1.3-0.6-1.3-1.2v-6.4
			c0-0.7,0.6-1.2,1.3-1.2h0.9v6.9c0,0.7,0,1.3,0.1,2h-1V83.7z M157.8,105.7l-3.7,1.7c-0.9,0.4-1.4,1.1-1.4,2c0,0.8,0.5,1.6,1.3,2
			l1.9,1l-5.2,7.3v-19c1.3-0.3,2.5-0.8,3.6-1.4L157.8,105.7z M155.9,118.1v0.8c-0.3,0.1-0.5,0.2-0.8,0.3L155.9,118.1z M129.6,59.3
			c0-3.1,2.5-5.6,5.5-5.6h2.2c-0.2,0.7-0.3,1.4-0.3,2.1v1.6c-1.8,0.5-3.5,1.2-4.9,2.1c-1,0.6-1.8,1.3-2.6,2.1v-2.3H129.6z
			 M129.6,81.7V71.1c0-4,1.4-6.9,4.4-8.8c2.7-1.7,6.6-2.6,11.6-2.6c1.4,0,2.8,0.1,4,0.2c0.9,0.1,1.8-0.6,1.9-1.5
			c0.1-0.9-0.6-1.8-1.5-1.9c-1.4-0.2-2.9-0.2-4.4-0.2c-1.9,0-3.6,0.1-5.2,0.3v-0.9c0-3.1,2.5-5.6,5.5-5.6h15.7l0,0v11.3
			c-0.7-0.7-1.4-1.4-2.3-1.9c-0.8-0.5-1.8-0.3-2.3,0.5s-0.3,1.8,0.5,2.3c2.8,1.9,4.2,4.7,4.2,8.6v10.6c0,8.9-7.2,16.2-16,16.2
			C136.7,97.9,129.6,90.6,129.6,81.7L129.6,81.7z M135,99c0,0,0.1-0.1,0.2-0.1h1c0.7,0.4,1.5,0.8,2.3,1.1v19.7l-5.2-7.3l1.9-1
			c0.8-0.4,1.3-1.2,1.3-2s-0.5-1.6-1.4-2l-3.7-1.7L135,99z M134.1,128.2c0,0.9-0.7,1.6-1.6,1.6c-0.9,0-1.6-0.7-1.6-1.6
			c0-0.9,0.7-1.6,1.6-1.6C133.4,126.7,134.1,127.4,134.1,128.2L134.1,128.2z M138.5,133.9h-15.3v-23.5c0-3.9,2.6-7.1,6.2-8.1
			l-1.3,2.3c-0.4,0.7-0.4,1.5-0.2,2.2c0.2,0.7,0.8,1.3,1.4,1.6l2.2,1l-0.6,0.3c-0.7,0.4-1.2,1-1.4,1.7s0,1.5,0.4,2.2l0.8,1.1v8.8
			c-1.9,0.7-3.3,2.5-3.3,4.7c0,2.7,2.2,5,5,5c2.7,0,5-2.2,5-5c0-2.1-1.4-4-3.3-4.7v-4.1l4.2,5.8l0.1,0.1v8.6H138.5z M147.3,133.9
			h-5.5v-28h5.5V133.9z M147.3,102.6h-5.5V101c1.2,0.2,2.4,0.4,3.7,0.4c0.6,0,1.2,0,1.8-0.1V102.6z M150.7,133.9v-8.5l0.1-0.1
			l0.8-1.2c0,0.2,0,0.4,0,0.6v6.8c0,0.9,0.8,1.7,1.7,1.7h1.5c0.9,0,1.7-0.8,1.7-1.7s-0.7-1.6-1.5-1.7v-5.1c0-1.4,1.2-2.6,2.6-2.6
			c1.4,0,2.6,1.2,2.6,2.6v5.1c-0.9,0.1-1.5,0.8-1.5,1.7s0.8,1.7,1.7,1.7h1.5c0.9,0,1.7-0.8,1.7-1.7v-6.8c0-2.7-1.8-5-4.3-5.7v-5.6
			c0.3-0.6,0.4-1.3,0.3-1.9c-0.1-0.2-0.2-0.5-0.3-0.7v-2.1l0.5-0.2c0.7-0.3,1.2-0.9,1.4-1.6s0.2-1.5-0.2-2.2l-1.3-2.3
			c3.6,1,6.2,4.2,6.2,8.1V134h-15.2V133.9z M174.4,126c-1.8-0.7-3.5-1.6-5-2.8v-8.1c1.5,1.8,3.2,3.2,5,4.3V126z M216.9,86.8
			c0,1.2-0.8,2.2-1.8,2.7c0.2-1.2,0.3-2.5,0.3-3.7v-1.4C216.3,84.8,216.9,85.7,216.9,86.8L216.9,86.8z M201.7,51.3
			c-0.1,1.1-0.5,2.1-1,2.9c-1.3-0.3-2.7-0.5-4.1-0.5c-1.4,0-2.8,0.2-4.1,0.5c-0.5-0.8-0.9-1.8-1-2.9H201.7z M176.1,86.8
			c0-1.1,0.6-2,1.5-2.5v1.4c0,1.3,0.1,2.5,0.3,3.7C176.9,89.1,176.1,88,176.1,86.8L176.1,86.8z M178.7,79.8c-0.9,0-1.7-0.8-1.7-1.7
			v-1c0-0.9,0.8-1.7,1.7-1.7h20.9c0.9,0,1.7-0.8,1.7-1.7c0-0.9-0.8-1.7-1.7-1.7H180c1.8-8.6,8.5-15.1,16.5-15.1S211.3,63.3,213,72
			h-4.4c-0.9,0-1.7,0.8-1.7,1.7c0,0.9,0.8,1.7,1.7,1.7h5.6c0.9,0,1.7,0.8,1.7,1.7v1c0,0.9-0.8,1.7-1.7,1.7H178.7z M181,85.7v-2.5h31
			v2.5c0,4.2-1.7,8.5-4.6,11.7c-3,3.2-6.9,5-10.9,5c-4.1,0-7.9-1.8-10.9-5S181,90,181,85.7L181,85.7z M199.3,105.6l-2.9,5.6
			l-2.9-5.6c0.9,0.2,1.9,0.2,2.9,0.2C197.5,105.8,198.4,105.7,199.3,105.6L199.3,105.6z M217.4,133.9h-39.6v-21.8
			c0-4.3,3.5-7.7,7.7-7.7h3.7l4.7,9.2c0.6,1.1,1.5,1.8,2.5,1.8s2-0.6,2.5-1.8l4.7-9.2h6c4.3,0,7.7,3.5,7.7,7.7v21.8H217.4z"/>
		<path class="st4" d="M187.7,84.7c-0.9,0-1.7,0.8-1.7,1.7v2.4c0,0.9,0.8,1.7,1.7,1.7s1.7-0.8,1.7-1.7v-2.4
			C189.4,85.4,188.6,84.7,187.7,84.7L187.7,84.7z"/>
		<path class="st4" d="M203.9,84.7c-0.9,0-1.7,0.8-1.7,1.7v2.4c0,0.9,0.8,1.7,1.7,1.7s1.7-0.8,1.7-1.7v-2.4
			C205.6,85.4,204.8,84.7,203.9,84.7L203.9,84.7z"/>
		<path class="st4" d="M189.8,96.8c0.7,0.7,1.7,0.7,2.4,0c2.1-2.1,5.5-2.1,7.6,0c0.7,0.7,1.7,0.7,2.4,0s0.7-1.7,0-2.4
			c-1.7-1.7-4-2.6-6.2-2.6s-4.5,0.9-6.2,2.6C189.1,95.1,189.1,96.1,189.8,96.8L189.8,96.8z"/>
		<path class="st4" d="M213.7,117.6h-2.2v-2.2c0-1.3-1-2.3-2.3-2.3h-3.3c-1.3,0-2.3,1-2.3,2.3v2.2h-2.2c-1.3,0-2.3,1-2.3,2.3v3.3
			c0,1.3,1,2.3,2.3,2.3h2.2v2.2c0,1.3,1,2.3,2.3,2.3h3.3c1.3,0,2.3-1,2.3-2.3v-2.2h2.2c1.3,0,2.3-1,2.3-2.3V120
			C216,118.7,215,117.6,213.7,117.6L213.7,117.6z M212.7,122.2h-2.9c-0.9,0-1.7,0.8-1.7,1.7v2.9h-1.2v-2.9c0-0.9-0.8-1.7-1.7-1.7
			h-2.9V121h2.9c0.9,0,1.7-0.8,1.7-1.7v-2.9h1.2v2.9c0,0.9,0.8,1.7,1.7,1.7h2.9V122.2z"/>
		<path class="st4" d="M137.2,27.7H134c-0.9,0-1.7,0.8-1.7,1.7c0,0.9,0.8,1.7,1.7,1.7h3.2c0.9,0,1.7-0.8,1.7-1.7
			C138.9,28.4,138.1,27.7,137.2,27.7L137.2,27.7z"/>
		<path class="st4" d="M159.5,27.7h-17.6c-0.9,0-1.7,0.8-1.7,1.7c0,0.9,0.8,1.7,1.7,1.7h17.6c0.9,0,1.7-0.8,1.7-1.7
			C161.2,28.4,160.5,27.7,159.5,27.7L159.5,27.7z"/>
		<path class="st4" d="M151.6,32.8H134c-0.9,0-1.7,0.8-1.7,1.7s0.8,1.7,1.7,1.7h17.6c0.9,0,1.7-0.8,1.7-1.7S152.5,32.8,151.6,32.8
			L151.6,32.8z"/>
	</g>
</g>
</svg>
