<?xml version="1.0" encoding="utf-8"?>
<!-- Generator: Adobe Illustrator 22.1.0, SVG Export Plug-In . SVG Version: 6.00 Build 0)  -->
<svg version="1.1" id="Layer_1" xmlns="http://www.w3.org/2000/svg" xmlns:xlink="http://www.w3.org/1999/xlink" x="0px" y="0px"
	 width="341.3px" height="159.2px" viewBox="0 0 341.3 159.2" style="enable-background:new 0 0 341.3 159.2;" xml:space="preserve"
	>
<style type="text/css">
	.st0{fill:#EFF0F5;}
	.st1{fill:#71D9E6;stroke:#3A9CA8;stroke-width:3;stroke-miterlimit:10;}
	.st2{enable-background:new    ;}
	.st3{fill:#FFFFFF;}
	.st4{fill:#F0746A;}
</style>
<g>
	<rect class="st0" width="341.3" height="159.2"/>
	<ellipse class="st1" cx="42.9" cy="40.4" rx="20.7" ry="20.7"/>
	<g class="st2">
		<path class="st3" d="M46,30v19.6h-4.3v-16h-3.7V30H46z"/>
	</g>
	<g>
		<path class="st4" d="M203.8,30.2c-4.3,0-7.8,3.5-7.8,7.8c0,0.9,0.8,1.7,1.7,1.7s1.7-0.8,1.7-1.7c0-2.5,2-4.5,4.5-4.5
			s4.5,2,4.5,4.5s-2,4.5-4.5,4.5h-1.1c-0.9,0-1.7,0.8-1.7,1.7V50c0,0.9,0.8,1.7,1.7,1.7s1.7-0.8,1.7-1.7v-4.1c4-0.3,7.2-3.7,7.2-7.8
			C211.7,33.7,208.1,30.2,203.8,30.2L203.8,30.2z"/>
		<path class="st4" d="M202.7,54.2c-0.9,0-1.7,0.8-1.7,1.7v0.5c0,0.9,0.8,1.7,1.7,1.7s1.7-0.8,1.7-1.7v-0.5
			C204.4,55,203.7,54.2,202.7,54.2L202.7,54.2z"/>
		<path class="st4" d="M218.6,21.9H189c-4.1,0-7.4,3.3-7.4,7.4v13.4c-5.6-8-14.8-13.2-25.3-13.2h-7.6c-8.8,0-17.1,4.7-21.6,12.2
			c-6.2,1.9-10.4,7.7-10.2,14.3l0.4,14.7c-1.3,1.2-2.1,3-2.1,4.9v1.6c0,3.7,3,6.8,6.8,6.8h4.5c1.2,2.9,2.8,5.5,5,7.9
			c-1.2,1.7-7.4,10.2-7.7,10.7c-0.1,0.2-0.2,0.4-0.3,0.6l-7.8,30c-0.3,1,0,2,0.6,2.9c0.6,0.8,1.6,1.3,2.6,1.3h62.9
			c1.1,0,2.2-0.5,3-1.3s1.2-1.9,1.1-3.1l-0.6-8.8c-0.2-2.2-0.7-4.3-1.8-6.3c-0.4-0.8-1.4-1.2-2.3-0.7c-0.8,0.4-1.2,1.4-0.7,2.3
			c0.8,1.6,1.3,3.3,1.4,5l0.6,8.8c0,0.3-0.1,0.4-0.2,0.5c-0.1,0.1-0.2,0.2-0.5,0.2H174v-7c0-0.9-0.8-1.7-1.7-1.7s-1.7,0.8-1.7,1.7
			v6.9h-37l4.3-16.6c0-0.1,0.1-0.1,0.1-0.1h7.5c1.5,0,2.9-0.4,4.2-1c1.1,0.2,2.2,0.3,3.3,0.3c4.7,0,9.3-1.8,12.6-5l0,0
			c0.3,0.1,0.1,0,5.1,0.8c1.8,0.3,3.6,0.9,5.1,1.9c0.3,0.2,0.6,0.3,0.9,0.3c0.6,0,1.1-0.3,1.4-0.8c0.5-0.8,0.3-1.8-0.5-2.3
			c-2-1.3-4.1-2.1-6.4-2.4c-4.3-0.7-4.7-0.7-5.4-0.9c-1.2-0.5-2.1-1.6-2.1-3c2-0.9,3.4-2.8,3.4-5.1c0-0.6-0.1-1.2-0.3-1.8
			c4-2.4,9.7-6.9,12.7-14.2h3.2c3.7,0,6.8-3,6.8-6.8v-1.6c0-2.1-0.9-3.9-2.4-5.2v-4.3c0.6,0.2,1.2,0.2,1.9,0.2h5.3
			c0.6,0,1.1,0.5,1.1,1.1v4.8c0,1.2,0.7,2.2,1.9,2.6c0.3,0.1,0.6,0.2,0.9,0.2c0.8,0,1.6-0.4,2.2-1.1l5.6-7.2
			c0.2-0.3,0.5-0.4,0.8-0.4h11.9c4.1,0,7.4-3.3,7.4-7.4V29.3C226,25.2,222.7,21.9,218.6,21.9L218.6,21.9z M118.6,77.2v-1.6
			c0-1.9,1.5-3.4,3.4-3.4h2.7c-0.1,2.9,0,5.4,0.7,8.3H122C120.2,80.6,118.6,79.1,118.6,77.2L118.6,77.2z M153.1,113.1
			c0.9-1.4,1.5-3.1,1.5-4.9v-2.7h5.8c0.1,1.7,0.9,3.2,2,4.3C159.9,111.9,156.6,113.1,153.1,113.1L153.1,113.1z M161.5,102.1h-7.3
			c-1.7,0-3,1.3-3,3v3.1c0,3.1-2.5,5.6-5.6,5.6h-7.5c-1.6,0-3,1.1-3.4,2.6l-4.5,17.4h-11.1l7.7-29.6c0.6-0.8,11.6-16,12.9-17.9
			c0.4-0.5,0.9-0.8,1.5-0.9s1.2,0,1.7,0.4l0.1,0.1c0.5,0.4,0.9,1,0.9,1.7c0,0.5-0.1,0.9-0.4,1.3l-3.2,4.5c-0.6,0.8-0.7,1.9-0.2,2.8
			s1.4,1.5,2.4,1.5h19.1c0.6,0,1.1,0.2,1.6,0.6c0.4,0.4,0.7,1,0.6,1.6C163.8,101.1,162.8,102.1,161.5,102.1L161.5,102.1z
			 M186.1,77.2c0,1.9-1.5,3.4-3.4,3.4h-2.1c0.5-2,0.7-4,0.7-6.1c0-0.8,0-1.5,0-2.2h1.4c1.9,0,3.4,1.5,3.4,3.4L186.1,77.2L186.1,77.2
			z M182.8,68.9h-1.6c-0.2-1.9-0.5-3.7-0.9-5.5c-0.8-3.4-3.8-5.9-7.3-6.1c-6.5-0.4-13.2-2.1-19.3-4.9c-1.7-0.8-3.8-0.2-4.8,1.3
			c-0.4,0.6-1.2,1-1.9,1c-1.2,0-2.5-0.7-4.1-2c-1.1-0.9-2.2-2-3.3-3.3c-0.8-0.9-2-1.5-3.3-1.5l0,0c-1.3,0-2.4,0.5-3.3,1.5
			c-1.6,1.8-3,3.9-4.2,6.3c-0.4,0.8-0.1,1.9,0.8,2.3c0.8,0.4,1.8,0.1,2.3-0.8c1-2.1,2.3-3.9,3.7-5.5c0.3-0.3,0.6-0.3,0.8-0.3
			s0.5,0,0.8,0.3c1.3,1.4,2.5,2.6,3.7,3.7c1.4,1.2,3.6,2.8,6.3,2.9c1.9,0,3.7-0.9,4.8-2.5c0.1-0.2,0.4-0.2,0.6-0.1
			c6.5,3,13.6,4.8,20.6,5.2c2,0.1,3.7,1.6,4.2,3.5c0.5,2.1,0.8,4.2,1,6.5c0.1,1.2,0.1,2.5,0.1,3.8c0,2.5-0.4,4.9-1.2,7.2
			c-2.5,7.2-8.2,11.5-11.9,13.7c-1-0.7-2.1-1.1-3.3-1.1h-17.8l2.4-3.5c0.7-1,1-2.1,1-3.3c0-1.7-0.9-3.3-2.3-4.3l-0.1-0.1
			c-1.2-0.9-2.7-1.3-4.2-1c-1.5,0.2-2.8,1-3.7,2.3c-0.6,0.9-1.9,2.6-3.4,4.7c-1.9-2.3-3.4-4.7-4.3-7.4c-1.3-3.7-1.4-7.1-1.1-11
			c0.2-2.3,0.5-4.6,1-6.7c0.2-0.9-0.3-1.8-1.3-2c-0.9-0.2-1.8,0.3-2,1.3c-0.4,1.8-0.7,3.7-0.9,5.6h-3c-0.4,0-0.9,0-1.3,0.1
			l-0.4-13.1c-0.2-5.2,3.3-9.8,8.3-11.1c0.4-0.1,0.8-0.4,1-0.8c3.9-6.8,11.2-11.1,19.1-11.1h7.6c15.1,0,27.4,12.3,27.4,27.4v8.7
			C183.4,68.9,183.1,68.9,182.8,68.9L182.8,68.9z M222.6,59c0,2.2-1.8,4-4,4h-11.9c-1.4,0-2.6,0.6-3.5,1.7l-4.5,5.7v-3
			c0-2.5-2-4.5-4.5-4.5H189c-0.7,0-1.3-0.2-1.9-0.5v-2.3c0-4-0.8-7.7-2.1-11.2V29.3c0-2.2,1.8-4,4-4h29.7c2.2,0,4,1.8,4,4L222.6,59
			L222.6,59z"/>
		<path class="st4" d="M144.5,76.1c0.9,0,1.7-0.8,1.7-1.7v-1.9c0-0.9-0.8-1.7-1.7-1.7s-1.7,0.8-1.7,1.7v1.9
			C142.8,75.4,143.6,76.1,144.5,76.1L144.5,76.1z"/>
		<path class="st4" d="M169.8,76.1c0.9,0,1.7-0.8,1.7-1.7v-1.9c0-0.9-0.8-1.7-1.7-1.7s-1.7,0.8-1.7,1.7v1.9
			C168.1,75.4,168.9,76.1,169.8,76.1L169.8,76.1z"/>
		<path class="st4" d="M154.2,84.5c2.3-1.3,4.5-1.3,6.8,0c0.3,0.2,0.6,0.2,0.9,0.2c0.6,0,1.1-0.3,1.5-0.8c0.5-0.8,0.2-1.8-0.6-2.3
			c-3.3-1.9-6.8-1.9-10.2,0c-0.8,0.5-1.1,1.5-0.6,2.3C152.4,84.7,153.4,84.9,154.2,84.5L154.2,84.5z"/>
	</g>
</g>
</svg>
