<?xml version="1.0" encoding="utf-8"?>
<!-- Generator: Adobe Illustrator 22.1.0, SVG Export Plug-In . SVG Version: 6.00 Build 0)  -->
<svg version="1.1" id="Layer_1" xmlns="http://www.w3.org/2000/svg" xmlns:xlink="http://www.w3.org/1999/xlink" x="0px" y="0px"
	 width="60px" height="60px" viewBox="0 0 60 60" style="enable-background:new 0 0 60 60;" xml:space="preserve">
<style type="text/css">
	.st0{fill:#DFD4F8;}
</style>
<rect x="57" y="8" class="st0" width="3" height="44.1"/>
<g>
	<path class="st0" d="M27.8,27.5h-0.3c3.7-0.8,6.5-4.2,6.5-8.2c0-4.6-3.7-8.4-8.3-8.4c-4.6,0-8.3,3.8-8.3,8.4c0,4,2.8,7.4,6.5,8.2
		h-0.3c-4.9,0-8.8,4-8.8,8.9v13.1h21.7V36.4C36.6,31.5,32.7,27.5,27.8,27.5z"/>
	<path class="st0" d="M11.7,36.4c0-4.1,2-7.7,5.1-9.9c-1.6-2-2.5-4.5-2.5-7.2c0-1.2,0.2-2.4,0.6-3.6c-0.8-0.3-1.7-0.5-2.6-0.5
		c-4.1,0-7.4,3.3-7.4,7.5c0,3.6,2.5,6.6,5.8,7.3h-0.2c-4.3,0-7.8,3.5-7.8,7.9v11.6h9.1V36.4z"/>
	<path class="st0" d="M41.1,30h-0.2c3.3-0.7,5.8-3.7,5.8-7.3c0-4.1-3.3-7.5-7.4-7.5c-0.9,0-1.8,0.2-2.6,0.5c0.4,1.1,0.6,2.3,0.6,3.6
		c0,2.7-0.9,5.2-2.5,7.2c3.1,2.2,5.1,5.8,5.1,9.9v13.1h9.1V37.9C48.9,33.5,45.4,30,41.1,30z"/>
</g>
</svg>
