<?xml version="1.0" encoding="utf-8"?>
<!-- Generator: Adobe Illustrator 22.1.0, SVG Export Plug-In . SVG Version: 6.00 Build 0)  -->
<svg version="1.1" id="Layer_1" xmlns="http://www.w3.org/2000/svg" xmlns:xlink="http://www.w3.org/1999/xlink" x="0px" y="0px"
	 width="60px" height="60px" viewBox="0 0 60 60" style="enable-background:new 0 0 60 60;" xml:space="preserve">
<style type="text/css">
	.st0{fill:#DFD4F8;}
</style>
<rect x="57" y="8" class="st0" width="3" height="44.1"/>
<g>
	<path class="st0" d="M31.2,25.8c2.1,1.8,2.4,2,3.3,2.8c0.7-0.6,1.3-1.1,3.7-3.2c4.5-3.8,7.8-6.5,7.8-10.5c0-3.8-2.8-6.8-6.4-6.8
		c-2.4,0-4,1.4-5,2.7c-1-1.4-2.5-2.7-4.9-2.7c-3.6,0-6.4,3-6.4,6.8C23.3,19,26.4,21.7,31.2,25.8L31.2,25.8z M31.2,25.8"/>
	<path class="st0" d="M8.2,49.3c3.8-2.6,7.9-3.5,12.3-2.8l7.2,1.2c2.8,0.5,5.3,0.3,7.5-0.4c4.5-1.5,9-6.2,10.2-8
		c1.7-2.5,2.6-5.2,3.1-6.5c0.5-1.3,0.5-2.2,0-2.7c-0.7-0.6-1.8-0.3-2.6,0.2c-1.3,0.7-2.7,2.9-4.2,5c-1.9,2.7-5.1,4.3-8.3,4.3H23
		v-2.9h4.3c7.6,0,11-1.4,11-2.9c0-1.2-2.4-1.7-3.2-1.9c-3.1-0.7-10.2-1.1-15-3.2c-0.9-0.4-1.9-0.6-2.9-0.6c-1.6,0-3.4,0.5-5.1,1.8
		c0,0,0,0-0.1,0c-1.1,0.9-2.6,2.1-4.7,3.9c-1.7,1.5-3.4,3.5-6.4,6l-1,0.9l7.1,9.3L8.2,49.3z M8.2,49.3"/>
</g>
</svg>
