<?xml version="1.0" encoding="utf-8"?>
<!-- Generator: Adobe Illustrator 22.1.0, SVG Export Plug-In . SVG Version: 6.00 Build 0)  -->
<svg version="1.1" id="Layer_1" xmlns="http://www.w3.org/2000/svg" xmlns:xlink="http://www.w3.org/1999/xlink" x="0px" y="0px"
	 width="341.3px" height="159.2px" viewBox="0 0 341.3 159.2" style="enable-background:new 0 0 341.3 159.2;" xml:space="preserve"
	>
<style type="text/css">
	.st0{fill:#EFF0F5;}
	.st1{fill:#71D9E6;stroke:#3A9CA8;stroke-width:3;stroke-miterlimit:10;}
	.st2{fill:#FFFFFF;}
	.st3{fill:#F0746A;}
</style>
<g>
	<rect x="0.3" class="st0" width="341.3" height="159.2"/>
	
		<ellipse transform="matrix(0.9239 -0.3827 0.3827 0.9239 -12.1095 20.0189)" class="st1" cx="44.3" cy="40.4" rx="20.7" ry="20.7"/>
	<g>
		<path class="st2" d="M51.2,43.6c0,3.3-2.4,6.3-7.7,6.3c-2.6,0-5.3-0.8-7.1-2.1l1.7-3.5c1.4,1.1,3.4,1.8,5.3,1.8
			c2.2,0,3.5-0.9,3.5-2.5c0-1.5-1-2.4-3.5-2.4h-2v-3l3.8-4.6h-8V30h13.1V33l-4.2,5C49.5,38.6,51.2,40.7,51.2,43.6z"/>
	</g>
	<g>
		<path class="st3" d="M189.1,96.5h-10V85.2c0-2.2-1.8-3.9-3.9-3.9h-9.6c3.7-3.1,6.5-7.5,7.6-12.4c3.8-0.2,6.8-3.3,6.8-7v-2.3
			c0-3.6-2.7-6.5-6.1-7V25.7c0-2.1-1.7-3.8-3.8-3.8h-18.9c-3.4,0-6.4,1.6-8.3,4.2H138c-5.7,0-10.4,4.7-10.4,10.4v16h-0.4
			c-3.9,0-7.1,3.2-7.1,7v2.3c0,3.9,3.2,7,7.1,7h1c1.2,4.9,3.9,9.2,7.6,12.4h-12.5c-2.2,0-3.9,1.8-3.9,3.9v48.1
			c0,2.2,1.8,3.9,3.9,3.9h51.6c2.2,0,3.9-1.8,3.9-3.9v-7.5c0-0.9-0.8-1.7-1.7-1.7c-0.9,0-1.7,0.8-1.7,1.7v7.5c0,0.3-0.3,0.6-0.6,0.6
			h-51.6c-0.3,0-0.6-0.3-0.6-0.6v-14.1c4.1,6.6,11.4,11,19.7,11c8.6,0,16.1-4.7,20.1-11.7c2.4-0.6,4.2-2.8,4.2-5.4
			c0-1.2-0.4-2.3-1.1-3.3c0.7-0.9,1.1-2.1,1.1-3.3c0-0.4,0-0.7-0.1-1.1h8.9v11.2c0,0.9,0.8,1.7,1.7,1.7c0.9,0,1.7-0.8,1.7-1.7v-11.2
			h10c1.3,0,2.4-1.1,2.4-2.4v-4.4C191.4,97.5,190.4,96.5,189.1,96.5L189.1,96.5z M173.8,63.5V56c1.6,0.4,2.7,1.8,2.7,3.5v2.3
			c0,1.7-1.2,3.2-2.8,3.6C173.8,64.8,173.8,64.1,173.8,63.5L173.8,63.5z M127.3,65.5c-2,0-3.7-1.6-3.7-3.7v-2.3c0-2,1.7-3.7,3.7-3.7
			h0.4v7.6c0,0.7,0,1.4,0.1,2H127.3z M138,29.4h3.1c-0.3,0.9-0.4,1.9-0.4,2.9v2.1c-2.3,0.6-4.3,1.4-6,2.5c-1.4,0.9-2.7,2-3.7,3.2
			v-3.7C131,32.6,134.2,29.4,138,29.4L138,29.4z M131,63.5V50.7c0-5,1.8-8.5,5.5-10.9c3.3-2.1,8.1-3.1,14.2-3.1
			c3.6,0,6.8,0.4,9.4,1.1c0.9,0.2,1.8-0.3,2.1-1.2c0.2-0.9-0.3-1.8-1.2-2.1c-2.9-0.8-6.4-1.2-10.3-1.2c-2.4,0-4.6,0.2-6.6,0.5v-1.5
			c0-3.9,3.1-7,7-7H170c0.2,0,0.4,0.2,0.4,0.4v14.5c-0.4-0.5-0.9-1.1-1.5-1.6c-0.7-0.6-1.8-0.6-2.4,0.1c-0.6,0.7-0.6,1.8,0.1,2.4
			c2.5,2.3,3.7,5.4,3.7,9.6v12.8c0,10.9-8.8,19.8-19.7,19.8C139.9,83.3,131,74.4,131,63.5L131,63.5z M155.1,86.3v0.7
			c0,2.9-2.4,5.2-5.3,5.2c-2.9,0-5.3-2.3-5.3-5.2v-1.1c2,0.5,4,0.8,6.2,0.8C152.2,86.7,153.7,86.5,155.1,86.3L155.1,86.3z
			 M142.6,126.9c-10.9,0-19.7-8.8-19.7-19.6v-9.6c0-1.7,1.4-3.1,3.1-3.1c1.7,0,3.1,1.4,3.1,3.1v9.6c0,7.4,6,13.4,13.5,13.4
			c4.3,0,8.1-2,10.6-5.1c0.9,1.9,2.8,3.2,5,3.2h0.4C155,123.7,149.2,126.9,142.6,126.9L142.6,126.9z M161.3,115.4l-3.1,0
			c-1.2,0-2.2-1-2.2-2.2v-13.1c0-1.2,1-2.1,2.2-2.1l3.1,0c1.2,0,2.2,1,2.2,2.2c0,0.7-0.4,1.4-1,1.8c-0.5,0.3-0.8,0.9-0.8,1.4
			c0,0.6,0.3,1.1,0.8,1.4c0.6,0.4,1,1.1,1,1.8c0,0.7-0.4,1.4-1,1.8c-0.5,0.3-0.8,0.9-0.8,1.4c0,0.6,0.3,1.1,0.8,1.4
			c0.7,0.4,1,1.1,1,1.8C163.5,114.4,162.5,115.4,161.3,115.4L161.3,115.4z M165.5,96.5c-1-1.1-2.5-1.9-4.2-1.9l-3.1,0
			c-3.1,0-5.6,2.5-5.6,5.5v8.2c0,0,0,0,0,0.1c-0.6,5.1-4.9,8.9-10,8.9c-5.6,0-10.1-4.5-10.1-10v-9.6c0-3.6-2.9-6.5-6.5-6.5
			c-1.1,0-2.2,0.3-3.1,0.8v-6.8c0-0.3,0.3-0.6,0.6-0.6h17.7v2.3c0,4.7,3.9,8.6,8.6,8.6c4.8,0,8.6-3.9,8.6-8.6v-1.6
			c0.6-0.2,1.2-0.4,1.7-0.7h14.9c0.3,0,0.6,0.3,0.6,0.6v11.3H165.5z M169.6,102.2h-3.1c0.3-0.6,0.4-1.3,0.4-2.1c0-0.1,0-0.2,0-0.3
			h2.7V102.2z M183.3,102.2H173v-2.4h10.3V102.2z M188.1,102.2h-1.4v-2.4h1.4V102.2z M188.1,102.2"/>
		<path class="st3" d="M152.5,57.4c-0.9,0-1.7,0.8-1.7,1.7v3.3h-1.1c-0.9,0-1.7,0.8-1.7,1.7c0,0.9,0.8,1.7,1.7,1.7h1.6
			c1.6,0,2.9-1.3,2.9-2.9v-3.7C154.2,58.1,153.4,57.4,152.5,57.4L152.5,57.4z M152.5,57.4"/>
		<path class="st3" d="M161.4,54.5c-0.9,0-1.7,0.8-1.7,1.7V59c0,0.9,0.8,1.7,1.7,1.7c0.9,0,1.7-0.8,1.7-1.7v-2.8
			C163.1,55.3,162.3,54.5,161.4,54.5L161.4,54.5z M161.4,54.5"/>
		<path class="st3" d="M141.5,54.5c-0.9,0-1.7,0.8-1.7,1.7V59c0,0.9,0.8,1.7,1.7,1.7c0.9,0,1.7-0.8,1.7-1.7v-2.8
			C143.2,55.3,142.4,54.5,141.5,54.5L141.5,54.5z M141.5,54.5"/>
		<path class="st3" d="M155.8,70.3h-10.5c-0.9,0-1.7,0.8-1.7,1.7c0,0.9,0.8,1.7,1.7,1.7h10.5c0.9,0,1.7-0.8,1.7-1.7
			C157.5,71.1,156.7,70.3,155.8,70.3L155.8,70.3z M155.8,70.3"/>
		<path class="st3" d="M199.1,78.5h-3.8c-0.8,0-1.5-0.7-1.5-1.5c0-0.8,0.7-1.5,1.5-1.5h2.4c0.9,0,1.7-0.8,1.7-1.7
			c0-0.9-0.8-1.7-1.7-1.7h-2.4c-2.7,0-4.9,2.2-4.9,4.9c0,2.7,2.2,4.9,4.9,4.9h3.8c0.8,0,1.5,0.7,1.5,1.5c0,0.8-0.7,1.5-1.5,1.5
			c-0.9,0-1.7,0.8-1.7,1.7c0,0.9,0.8,1.7,1.7,1.7h0.2c0.1,0,0.2,0,0.3,0c2.4-0.3,4.4-2.3,4.4-4.9C204,80.7,201.8,78.5,199.1,78.5
			L199.1,78.5z M199.1,78.5"/>
		<path class="st3" d="M194,91.2h-2.5c-0.8,0-1.5-0.7-1.5-1.5c0-0.8,0.7-1.5,1.5-1.5c0.9,0,1.7-0.8,1.7-1.7c0-0.9-0.8-1.7-1.7-1.7
			c-2.7,0-4.9,2.2-4.9,4.9c0,2.7,2.2,4.9,4.9,4.9h2.3v2.2c0,0.9,0.8,1.7,1.7,1.7c0.9,0,1.7-0.8,1.7-1.7v-2.4
			C197.2,92.6,195.8,91.2,194,91.2L194,91.2z M194,91.2"/>
		<path class="st3" d="M212.6,49.6l9-8.9c0.5-0.5,0.8-1.2,0.8-2s-0.3-1.5-0.8-2l-5.5-5.5c-0.5-0.5-1.2-0.8-2-0.8s-1.5,0.3-2,0.8
			l-9,8.9l-9-8.9c-0.5-0.5-1.2-0.8-2-0.8s-1.5,0.3-2,0.8l-5.5,5.5c-0.5,0.5-0.8,1.2-0.8,2s0.3,1.5,0.8,2l9,8.9l-9,8.9
			c-0.5,0.5-0.8,1.2-0.8,2c0,0.8,0.3,1.5,0.8,2l5.5,5.5c0.5,0.5,1.2,0.8,2,0.8s1.5-0.3,2-0.8l9-8.9l9,8.9c0.5,0.5,1.2,0.8,2,0.8
			s1.5-0.3,2-0.8l5.5-5.5c0.5-0.5,0.8-1.2,0.8-2c0-0.8-0.3-1.5-0.8-2L212.6,49.6z M214.1,65.2l-9-8.9c-0.5-0.5-1.2-0.8-2-0.8
			c-0.8,0-1.5,0.3-2,0.8l-9,8.9l-4.7-4.7l9-8.9c0.5-0.5,0.8-1.2,0.8-2c0-0.8-0.3-1.5-0.8-2l-9-8.9l4.7-4.7l9,8.9
			c0.5,0.5,1.2,0.8,2,0.8c0.8,0,1.5-0.3,2-0.8l9-8.9l4.7,4.7l-9,8.9c-0.5,0.5-0.8,1.2-0.8,2c0,0.8,0.3,1.5,0.8,2l9,8.9L214.1,65.2z
			 M214.1,65.2"/>
	</g>
</g>
</svg>
