<?xml version="1.0" encoding="utf-8"?>
<!-- Generator: Adobe Illustrator 22.1.0, SVG Export Plug-In . SVG Version: 6.00 Build 0)  -->
<svg version="1.1" id="Layer_1" xmlns="http://www.w3.org/2000/svg" xmlns:xlink="http://www.w3.org/1999/xlink" x="0px" y="0px"
	 width="60px" height="60px" viewBox="0 0 60 60" style="enable-background:new 0 0 60 60;" xml:space="preserve">
<style type="text/css">
	.st0{fill:#DFD4F8;}
</style>
<rect x="57" y="8" class="st0" width="3" height="44.1"/>
<g>
	<path class="st0" d="M48.2,18.6c-3.4-9.8-14.9-12-23.9-9.4c-4.6,0.7-8.6,3.7-10.1,8.2c-0.5,2.2-1.5,4.3-2,6.4
		c0.1,1,1.7,1.5,1.7,2.6c-0.7,2.3-2.2,4.3-3.6,6.2c-0.3,0.4-0.9,1.1-0.9,1.7c0.4,1.3,2.5,1.3,2.8,2.5c0.2,2.3-2.2,2.2,0.5,3.8
		c0,0-0.8,1.1-0.4,1.4c2.6,0.9,0.8,3,1.5,4.9c1.1,3.4,6.7,0,9-0.5c2.6,1.2,3.7,5.8,3.7,5.8l19-0.1c-2.9-4.7-4.3-10.9-2-16.1
		C47.9,29.3,50.4,27.2,48.2,18.6z M44.5,25.5c-0.2,1.9-1.1,3.8-2.7,4.7l0,0c0,0,0,0,0,0c-4,3.1-1.9,6.7-3.7,7.3
		c-0.3,0-0.5-0.2-0.6-0.5c-2-3.2-5.4-3.2-3.5-8.3c-4-5.3-9.1-1.6-14.3-2.5c-2.9-1.3-2.3-4.6-1.5-7.3c1.3-4.6,6.1-5.8,10.4-6.3
		C36.7,10.8,45.9,16.5,44.5,25.5z"/>
</g>
</svg>
