<svg xmlns="http://www.w3.org/2000/svg" xmlns:xlink="http://www.w3.org/1999/xlink" width="920" height="421.678" viewBox="0 0 920 421.678">
  <defs>
    <clipPath id="clip-path">
      <path id="Trazado_5196" data-name="Trazado 5196" d="M1528.9,697.31c2.974-12.6,4.517-25.483-2.225-34.063-3.044-3.875-8.468-6.574-12.906-8.492-8.658-3.742-17.509-8.772-26.777-10.4-9.772-1.72-20.64-2.78-30.379-.321-6.185,1.563-11.972,4.454-17.5,7.572-4.8,2.706-10.687,5.036-13.018,10.072a342.549,342.549,0,0,0-14.813,37.718c-3.478,10.7-7.3,21.91-1.816,32.751,1.776,3.513,4.356,6.52,6.385,9.876a24.04,24.04,0,0,1,3.4,11.563c.677,9.839.413,19.709.385,29.563-.008,2.84.03,5.792,1.273,8.345,2.452,5.034,9.113,5.1,13.912,5.1l47.45-.082a81.239,81.239,0,0,1,17.787,2.064c5.2,1.069,9.662-1.555,12.157-6.393,2.361-4.579,2.541-9.928,2.794-15.074a325.411,325.411,0,0,1,8.474-59.456C1524.8,712.124,1527.112,704.9,1528.9,697.31Z" transform="translate(-1406.714 -642.583)" fill="#ffc73c"/>
    </clipPath>
  </defs>
  <g id="Grupo_1040" data-name="Grupo 1040" transform="translate(-942 -408.32)">
    <path id="Trazado_5186" data-name="Trazado 5186" d="M1801.988,651.489c-36.064-34.474,26.446-153.165-63.911-198.343-31.36-15.68-74.519-3.88-95.866-4.408-44.133-1.091-78.7-63.816-163.082-30.853-20.9,8.163-37.216,25.847-49.967,44.307-7.885,11.416-22.3,30.772-36.364,33.845-7.535,1.646-15.353.9-23.066.908a117.89,117.89,0,0,0-49.411,10.943c-18.852,8.762-36.312,24.352-39.709,44.862-2.432,14.678,2.6,30.091-1.324,44.443-4.483,16.414-19.487,27.532-34.183,36.106s-30.728,16.525-40.2,30.661c-5.695,8.5-9.171,20.123-10.64,30.206-1.723,11.83,1.644,23.222-3.689,34.675-3.629,7.791-10.105,13.855-16.751,19.3-10.093,8.273-21.032,15.7-29.532,25.606s-14.418,23.05-12.054,35.884c1.861,10.1,13.012,20.364,13.012,20.364h626.985C1837.249,830,1876.918,723.113,1801.988,651.489Z" transform="translate(19.333)" fill="#dff3fd"/>
    <path id="Trazado_5187" data-name="Trazado 5187" d="M1588.921,503.575c.213-1.284-1.486-3.873-3.341-3.831-.737.017-1.458.208-2.194.172-1.962-.1-2.979-1.623-3.735-2.888s-2.261-2.707-4.174-2.386c-2.753.462-4.14,4.094-7.269,1.367-2.047-1.786-2.2-4.282-4.521-6.013a7.565,7.565,0,0,0-6.315-1.235c-2.786.857-3.822,3.619-6.788,4.1-3.285.532-5.647-1.967-6.7-3.77-1.272-2.187-1.745-4.552-2.835-6.778-1.009-2.06-3.038-4.82-6.673-4.76-3.074.051-4.428,2-5.938,3.542-1.962,2.009-6.04,9.223-10.614,8.354-1.783-.339-2.673-1.755-4.282-2.39-2.587-1.019-5.884.382-7.443,2.145s-2.176,3.891-3.937,5.558a4.065,4.065,0,0,1-1.724,1.035c-2.46.673-4.75-1.4-7.384-1.551a6.141,6.141,0,0,0-4.55,1.789,22.71,22.71,0,0,0-2.414,3.415,2.557,2.557,0,0,1-.877.856c-1.156.619-2.781.1-4.2-.147-3.5-.6-7.47,1-8.456,3.417Z" transform="translate(54.068 7.055)" fill="#fff"/>
    <g id="Grupo_1020" data-name="Grupo 1020" transform="translate(1277.609 553.226)" style="mix-blend-mode: multiply;isolation: isolate">
      <g id="Grupo_1016" data-name="Grupo 1016" transform="translate(212.722)">
        <g id="Grupo_1014" data-name="Grupo 1014" transform="translate(161.026 55.38)">
          <rect id="Rectángulo_635" data-name="Rectángulo 635" width="36.278" height="166.169" transform="translate(91.023 190.536) rotate(180)" fill="#dff3fd"/>
          <rect id="Rectángulo_636" data-name="Rectángulo 636" width="54.745" height="115.172" transform="translate(0 75.364)" fill="#dff3fd"/>
          <rect id="Rectángulo_637" data-name="Rectángulo 637" width="54.745" height="80.885" transform="translate(68.94 109.651)" fill="#dff3fd"/>
          <rect id="Rectángulo_638" data-name="Rectángulo 638" width="29.461" height="8.122" transform="translate(84.205 24.367) rotate(180)" fill="#dff3fd"/>
          <rect id="Rectángulo_639" data-name="Rectángulo 639" width="24.104" height="8.122" transform="translate(78.849 16.245) rotate(180)" fill="#dff3fd"/>
          <rect id="Rectángulo_640" data-name="Rectángulo 640" width="18.991" height="8.122" transform="translate(73.736 8.122) rotate(180)" fill="#dff3fd"/>
        </g>
        <g id="Grupo_1015" data-name="Grupo 1015" transform="translate(0)">
          <rect id="Rectángulo_641" data-name="Rectángulo 641" width="36.278" height="166.169" transform="translate(108.834 245.916) rotate(180)" fill="#dff3fd"/>
          <rect id="Rectángulo_642" data-name="Rectángulo 642" width="36.278" height="219.969" transform="translate(208.072 245.916) rotate(180)" fill="#dff3fd"/>
          <rect id="Rectángulo_643" data-name="Rectángulo 643" width="72.556" height="64.302" transform="translate(72.556 245.916) rotate(180)" fill="#dff3fd"/>
          <rect id="Rectángulo_644" data-name="Rectángulo 644" width="72.884" height="245.916" transform="translate(163.579 245.916) rotate(180)" fill="#dff3fd"/>
          <rect id="Rectángulo_645" data-name="Rectángulo 645" width="29.461" height="8.122" transform="translate(102.017 79.747) rotate(180)" fill="#dff3fd"/>
          <rect id="Rectángulo_646" data-name="Rectángulo 646" width="24.104" height="8.122" transform="translate(96.66 71.624) rotate(180)" fill="#dff3fd"/>
          <rect id="Rectángulo_647" data-name="Rectángulo 647" width="18.991" height="8.122" transform="translate(91.547 63.502) rotate(180)" fill="#dff3fd"/>
        </g>
      </g>
      <g id="Grupo_1019" data-name="Grupo 1019" transform="translate(0 42.482)">
        <g id="Grupo_1017" data-name="Grupo 1017" transform="translate(161.026)">
          <rect id="Rectángulo_648" data-name="Rectángulo 648" width="36.278" height="166.169" transform="translate(91.023 203.434) rotate(180)" fill="#dff3fd"/>
          <rect id="Rectángulo_649" data-name="Rectángulo 649" width="36.278" height="138.08" transform="translate(91.023 65.354)" fill="#dff3fd"/>
          <rect id="Rectángulo_650" data-name="Rectángulo 650" width="54.745" height="203.434" fill="#dff3fd"/>
          <rect id="Rectángulo_651" data-name="Rectángulo 651" width="29.461" height="8.122" transform="translate(84.205 37.265) rotate(180)" fill="#dff3fd"/>
          <rect id="Rectángulo_652" data-name="Rectángulo 652" width="24.104" height="8.122" transform="translate(78.849 29.142) rotate(180)" fill="#dff3fd"/>
          <rect id="Rectángulo_653" data-name="Rectángulo 653" width="18.991" height="8.122" transform="translate(73.736 21.02) rotate(180)" fill="#dff3fd"/>
        </g>
        <g id="Grupo_1018" data-name="Grupo 1018" transform="translate(0 12.898)">
          <rect id="Rectángulo_654" data-name="Rectángulo 654" width="36.278" height="166.169" transform="translate(108.834 190.536) rotate(180)" fill="#dff3fd"/>
          <rect id="Rectángulo_655" data-name="Rectángulo 655" width="36.278" height="138.08" transform="translate(72.556 190.536) rotate(180)" fill="#dff3fd"/>
          <rect id="Rectángulo_656" data-name="Rectángulo 656" width="36.278" height="161.123" transform="translate(153.653 190.536) rotate(180)" fill="#dff3fd"/>
          <rect id="Rectángulo_657" data-name="Rectángulo 657" width="36.278" height="80.214" transform="translate(36.278 190.536) rotate(180)" fill="#dff3fd"/>
          <rect id="Rectángulo_658" data-name="Rectángulo 658" width="72.884" height="121.327" transform="translate(163.579 190.536) rotate(180)" fill="#dff3fd"/>
          <rect id="Rectángulo_659" data-name="Rectángulo 659" width="29.461" height="8.122" transform="translate(102.017 24.367) rotate(180)" fill="#dff3fd"/>
          <rect id="Rectángulo_660" data-name="Rectángulo 660" width="29.461" height="8.122" transform="translate(62.817 163.462) rotate(180)" fill="#dff3fd"/>
          <rect id="Rectángulo_661" data-name="Rectángulo 661" width="24.104" height="8.122" transform="translate(96.66 16.245) rotate(180)" fill="#dff3fd"/>
          <rect id="Rectángulo_662" data-name="Rectángulo 662" width="18.991" height="8.122" transform="translate(91.547 8.122) rotate(180)" fill="#dff3fd"/>
        </g>
        <rect id="Rectángulo_663" data-name="Rectángulo 663" width="47.694" height="8.122" transform="translate(276.876 89.044) rotate(180)" fill="#dff3fd"/>
        <rect id="Rectángulo_664" data-name="Rectángulo 664" width="47.694" height="8.122" transform="translate(276.876 118.149) rotate(180)" fill="#dff3fd"/>
        <rect id="Rectángulo_665" data-name="Rectángulo 665" width="47.694" height="8.122" transform="translate(276.876 147.254) rotate(180)" fill="#dff3fd"/>
        <rect id="Rectángulo_666" data-name="Rectángulo 666" width="47.694" height="8.122" transform="translate(94.079 147.254) rotate(180)" fill="#dff3fd"/>
        <rect id="Rectángulo_667" data-name="Rectángulo 667" width="47.694" height="8.122" transform="translate(94.079 176.36) rotate(180)" fill="#dff3fd"/>
      </g>
    </g>
    <path id="Trazado_5188" data-name="Trazado 5188" d="M1548.188,723.787c-12.67,4.483-27.95,4.024-39.478-3.37-11.331-7.269-21.655-12.518-35.6-12.264-12.458.227-22.761,6.962-34.827,8.4-9.57,1.136-19.292-3.036-26.228-9.727-6.771-6.532-11.267-16.49-8.324-25.425,1.541-4.679,4.911-8.538,6.833-13.073,4.434-10.459-7.241-16.769-4.337-27.778,2.469-9.364,12.744-16.042,12.59-25.724-.112-7.088-5.6-12.581-7.531-19.138a26.021,26.021,0,0,1,1.921-20.069,23.974,23.974,0,0,1,11.289-10.08c4.225-1.8,8.944-1.834,12.21-5.525,5.821-6.579,7.957-13.709,15.945-18.519,6.762-4.073,15.692-4.331,23.45-3.62,17.238,1.58,33.97,10.679,43.678,25.17,3.441,5.136,5.925,10.391,6.011,16.5.095,6.672.093,13.384,4.18,19.056,3.432,4.764,8.942,7.55,14.405,9.7s11.19,3.888,15.985,7.274,8.606,8.91,8.046,14.755c-.468,4.891-3.854,9.141-4.305,14.034-.82,8.9,7.752,15.36,13.036,22.565a35.056,35.056,0,0,1,3.057,35.553c-6.411,12.9-18.059,15.806-30.264,20.66Q1549.071,723.475,1548.188,723.787Z" transform="translate(46.96 13.171)" fill="#0b2d4e"/>
    <g id="Grupo_1021" data-name="Grupo 1021" transform="translate(1503.034 566.818)">
      <path id="Trazado_5189" data-name="Trazado 5189" d="M1451.148,555.955a29.892,29.892,0,0,1,13.9-3.763,51.742,51.742,0,0,1,14.435,1.612,44.464,44.464,0,0,1,24.069,15.746,39.779,39.779,0,0,1,6.627,13.043,50.184,50.184,0,0,1,1.592,14.537c-.047,4.857-.393,9.688-.234,14.467a25.951,25.951,0,0,0,1.116,6.953,10.911,10.911,0,0,0,3.763,5.568,13.1,13.1,0,0,0,6.44,2.219c2.342.278,4.786.292,7.226.618,4.828.65,9.738,1.8,13.945,4.567a11.184,11.184,0,0,1,4.953,13.238c-.729,2.448-2.118,4.5-3.083,6.642a21.143,21.143,0,0,0-1.8,6.8c-.446,4.726.767,9.464,2.447,13.948,1.651,4.519,3.634,8.974,4.791,13.721a29.3,29.3,0,0,1,.873,7.254,22.832,22.832,0,0,1-1.272,7.178,24.554,24.554,0,0,1-8.457,11.582,23.886,23.886,0,0,0,8.2-25.85c-1.21-4.647-3.225-9.049-4.952-13.579-1.753-4.5-3.091-9.374-2.69-14.345a22.3,22.3,0,0,1,1.8-7.181c1.01-2.264,2.356-4.286,2.994-6.5a9.968,9.968,0,0,0-4.507-11.858c-3.921-2.57-8.708-3.7-13.4-4.3-2.356-.307-4.762-.308-7.224-.586a14.4,14.4,0,0,1-7.106-2.455,12.272,12.272,0,0,1-4.221-6.255,27.264,27.264,0,0,1-1.151-7.324c-.141-4.891.229-9.721.3-14.531a48.968,48.968,0,0,0-1.484-14.2,40.12,40.12,0,0,0-6.323-12.727,43.684,43.684,0,0,0-23.4-15.736,51.231,51.231,0,0,0-14.254-1.926A29.722,29.722,0,0,0,1451.148,555.955Z" transform="translate(-1451.148 -552.16)" fill="#73b8d4"/>
    </g>
    <path id="Trazado_5190" data-name="Trazado 5190" d="M1329.258,491.786c.215-1.295-1.5-3.905-3.369-3.863-.742.016-1.47.209-2.212.173-1.978-.1-3-1.636-3.765-2.911s-2.281-2.729-4.208-2.405c-2.776.465-4.174,4.128-7.329,1.379-2.065-1.8-2.22-4.317-4.559-6.062a7.627,7.627,0,0,0-6.367-1.246c-2.809.864-3.853,3.648-6.844,4.133-3.312.537-5.693-1.983-6.751-3.8-1.282-2.206-1.758-4.589-2.858-6.834-1.017-2.077-3.062-4.859-6.727-4.8-3.1.051-4.465,2.013-5.986,3.57-1.978,2.025-6.09,9.3-10.7,8.422-1.8-.342-2.7-1.77-4.318-2.409-2.608-1.028-5.933.385-7.5,2.162s-2.194,3.923-3.97,5.6a4.087,4.087,0,0,1-1.737,1.043c-2.48.679-4.79-1.409-7.445-1.565a6.191,6.191,0,0,0-4.587,1.8,22.827,22.827,0,0,0-2.434,3.442,2.578,2.578,0,0,1-.885.863c-1.165.625-2.8.1-4.231-.148-3.526-.606-7.531,1.012-8.525,3.446Z" transform="translate(27.509 5.832)" fill="#dff3fd"/>
    <path id="Trazado_5191" data-name="Trazado 5191" d="M1515.34,661.271c.45,10.934-2.085,19.144-12.083,24.553-7.965,4.307-17.5,5.72-26.288,5.936-14.739.364-31.163-3.438-42.189-13.792-2-1.879-3.922-4.182-4.066-6.923-.131-2.491,1.24-4.839,1.36-7.332.2-4.2-3.064-7.685-4.524-11.631-1.929-5.213-.618-11.032,1.115-16.312s3.9-10.613,3.642-16.164c-.337-7.2-4.664-13.49-8.13-19.811s-6.191-14.014-3.231-20.588a14.72,14.72,0,0,1,11.358-8.19c5.022-.557,9.536,5.182,12.753,8.345a78.777,78.777,0,0,0,14.343,11.155c7.177,4.356,15.056,7.568,21.807,12.558,4.085,3.019,8.467,7.166,10.417,11.976,2.2,5.421-1.651,10.669,3,15.655,3,3.218,7.612,4.311,11.242,6.8C1513.638,642.826,1514.985,652.64,1515.34,661.271Z" transform="translate(48.679 16.576)" fill="#061f33"/>
    <path id="Trazado_5192" data-name="Trazado 5192" d="M1438.781,713.854c10.349-15.948,16.789-35.521,7.8-53.527-.912-1.825-2.008-3.816-3.944-4.461-4.163-1.384-9.81.1-13.43,2.229-12.557,7.367-20.241,21.23-27.3,33.566-7.33,12.815-13.694,26.155-21.06,38.95-2.983,5.182-6,10.434-7.6,16.2a25.618,25.618,0,0,0,.357,15.763c8.268,21.349,31-4.8,37.921-12.7A315.974,315.974,0,0,0,1438.781,713.854Z" transform="translate(43.839 25.172)" fill="#efb126"/>
    <g id="Grupo_1023" data-name="Grupo 1023" transform="translate(1454.071 666.456)">
      <path id="Trazado_5193" data-name="Trazado 5193" d="M1528.9,697.31c2.974-12.6,4.517-25.483-2.225-34.063-3.044-3.875-8.468-6.574-12.906-8.492-8.658-3.742-17.509-8.772-26.777-10.4-9.772-1.72-20.64-2.78-30.379-.321-6.185,1.563-11.972,4.454-17.5,7.572-4.8,2.706-10.687,5.036-13.018,10.072a342.549,342.549,0,0,0-14.813,37.718c-3.478,10.7-7.3,21.91-1.816,32.751,1.776,3.513,4.356,6.52,6.385,9.876a24.04,24.04,0,0,1,3.4,11.563c.677,9.839.413,19.709.385,29.563-.008,2.84.03,5.792,1.273,8.345,2.452,5.034,9.113,5.1,13.912,5.1l47.45-.082a81.239,81.239,0,0,1,17.787,2.064c5.2,1.069,9.662-1.555,12.157-6.393,2.361-4.579,2.541-9.928,2.794-15.074a325.411,325.411,0,0,1,8.474-59.456C1524.8,712.124,1527.112,704.9,1528.9,697.31Z" transform="translate(-1406.714 -642.583)" fill="#ffc73c"/>
      <g id="Grupo_1022" data-name="Grupo 1022" transform="translate(0 0)" clip-path="url(#clip-path)">
        <path id="Trazado_5194" data-name="Trazado 5194" d="M1488.6,661.149c3.723-6.263,4.568-14.089-.308-20.124-2.23-2.759-6.175-3.068-9.547-3.13a80.211,80.211,0,0,0-19.758,2.094c-6.162,1.441-12.446,3.883-15.115,10.1a15.563,15.563,0,0,0,1.322,14.2,17.49,17.49,0,0,0,10.7,7.73c7.092,1.688,15.393,1.461,22.159-1.38A23.162,23.162,0,0,0,1488.6,661.149Z" transform="translate(-1403.043 -643.062)" fill="#efb126"/>
        <path id="Trazado_5195" data-name="Trazado 5195" d="M1533.876,749.52q-.074-14.489-.146-28.976c-.018-3.363,2.165-23.83-3.064-23.6a2.962,2.962,0,0,0-1.541.645c-2.6,1.861-3.94,4.978-5.156,7.938-3.812,9.277-7.014,24.13-14.949,30.625-8.066,6.6-20.47,9.386-30.493,10.971-11.707,1.851-23.6,1.988-35.434,2.708-7.653.465-16.094,1.567-21.121,7.354-3.589,4.133-5.417,10.329-7.334,15.379-1.675,4.413-3.009,9.656.391,13.653a15.854,15.854,0,0,0,5.489,3.78c7.383,3.48,15.452,5.235,23.5,6.582,22.529,3.771,45.491,4.554,68.306,3.467,4.878-.232,10.167-.718,13.766-4.02,2.677-2.457,3.939-6.074,4.836-9.594C1533.983,774.438,1533.939,761.9,1533.876,749.52Z" transform="translate(-1406.082 -637.043)" fill="#efb126"/>
      </g>
    </g>
    <path id="Trazado_5197" data-name="Trazado 5197" d="M1425.126,595.273c-8.631,8.88-.8,30.578,12.962,27.438,14.788-3.374,12.564-26.422-.809-30.205C1432.064,591.03,1427.9,592.416,1425.126,595.273Z" transform="translate(48.866 18.709)" fill="#57b8e8"/>
    <path id="Trazado_5198" data-name="Trazado 5198" d="M1545.073,722.638c8.65,1.1,17.763.344,25.489-3.7,9.837-5.148,14.758-14.587,14.962-25.445.148-7.866-1.375-16.066-6.124-22.339-5.162-6.821-13.816-11.015-17.027-18.943-2.079-5.135-1.581-12.126,2.531-16.1,2.617-2.53,4.664-5.382,4.33-9.173-.495-5.578-4.575-10.936-9.134-13.95-6.683-4.418-15-6.033-22.818-7.027-5.3-.673-10.574-2.162-12.212-7.866-.885-3.078-.709-6.324-.875-9.487-.353-6.745-.846-13.489-1.854-20.173-1.161-7.7-6.164-15.155-11.743-20.462q-1.2-1.142-2.493-2.187c-14.383-11.652-41.008-15.779-56.873-4.981a24.577,24.577,0,0,0-10.4,15.758c-.805,4.3-1.973,5.231-6.179,6.537-7.64,2.371-16.312,4.054-22.381,9.658a20.973,20.973,0,0,0-6.3,17.393c.807,8.131,6.492,12.022,10.563,18.466,4.155,6.578.888,14.857-3.938,20.286-3.718,4.182-8.992,7.235-11.092,12.421-1.933,4.77-.654,10.285,1.68,14.874.945,1.859,2.058,3.634,2.894,5.545a21.481,21.481,0,0,1-.693,18.39" transform="translate(46.731 12.862)" fill="none" stroke="#0b2d4e" stroke-miterlimit="10" stroke-width="4"/>
    <path id="Trazado_5199" data-name="Trazado 5199" d="M1150.919,763.378H946v30.437h845.162c21.7,0,40.559-11.913,53.293-30.437Z" transform="translate(0.408 36.183)" fill="#57b8e8"/>
    <path id="Trazado_5200" data-name="Trazado 5200" d="M1560.4,722.965q3.969,7.159,7.856,14.362c5.241,9.763,14.969,31.455-.606,36.815-7.847,2.7-12.336.06-17.524-5.658a330.51,330.51,0,0,1-49.618-71.885c-4.936-9.681-18.04-34.913-2.122-40.677a19.331,19.331,0,0,1,15.527,1.135,31.3,31.3,0,0,1,5.885,4.344c11.487,10.244,19.667,23.463,26.945,36.869C1551.244,706.554,1555.849,714.748,1560.4,722.965Z" transform="translate(55.921 25.119)" fill="#ffc73c"/>
    <path id="Trazado_5201" data-name="Trazado 5201" d="M1486.3,748.643q2.01-.344,4.025-.661,9.8-1.537,19.516-3.649a328.548,328.548,0,0,1,38.759-6.416q2.074-.2,4.152-.354c5.85-.442,11.979-.585,17.333,2.212s9.614,9.415,8.306,15.794a13.889,13.889,0,0,1-8.154,9.556c-3.807,1.7-8,2-12.112,2.273l-39.966,2.69q-9.894.661-19.786,1.354c-6.3.439-12.693,1.328-19.008,1.321a12.663,12.663,0,0,1-7.9-2.286c-3.121-2.477-5-7.753-5.3-11.875-.156-2.141.261-4.74,1.9-6.065a6.6,6.6,0,0,1,3.068-1.124C1476.2,750.479,1481.234,749.508,1486.3,748.643Z" transform="translate(53.413 33.527)" fill="#ffc73c"/>
    <g id="Grupo_1025" data-name="Grupo 1025" transform="translate(1294.934 701.392)">
      <rect id="Rectángulo_668" data-name="Rectángulo 668" width="64.623" height="12.652" transform="translate(127.865 85.578)" fill="#2f95d2"/>
      <g id="Grupo_1024" data-name="Grupo 1024" transform="translate(0 0)">
        <path id="Trazado_5202" data-name="Trazado 5202" d="M1401.168,761.094l-16.308-83.031a4.676,4.676,0,0,0-4.59-3.775h-108.42a4.637,4.637,0,0,0-3.759,1.928l-.014-.014-5.006,5.919,4.442-.974,16.057,81.749a4.677,4.677,0,0,0,4.589,3.775h108.42A4.675,4.675,0,0,0,1401.168,761.094Z" transform="translate(-1262.215 -674.288)" fill="#2f95d2"/>
        <path id="Trazado_5203" data-name="Trazado 5203" d="M1283.282,771.978H1391.7a4.676,4.676,0,0,0,4.588-5.578l-16.309-83.031a4.677,4.677,0,0,0-4.588-3.775H1266.973a4.678,4.678,0,0,0-4.589,5.578l16.31,83.031A4.675,4.675,0,0,0,1283.282,771.978Z" transform="translate(-1262.294 -673.747)" fill="#0b2d4e"/>
        <path id="Trazado_5204" data-name="Trazado 5204" d="M1312.305,720.585a12.66,12.66,0,0,0,11.952,10.142c5.6,0,9.266-4.541,8.185-10.142s-6.431-10.141-11.951-10.141S1311.306,714.985,1312.305,720.585Z" transform="translate(-1257.215 -670.604)" fill="#2f95d2"/>
      </g>
      <path id="Trazado_5205" data-name="Trazado 5205" d="M1262.3,683.1" transform="translate(-1262.294 -673.39)" fill="#3f91ac"/>
    </g>
    <path id="Trazado_5206" data-name="Trazado 5206" d="M1476.034,767.645c-3.222.665-5.739,3.494-8.945,4.442a11,11,0,0,1-6.935-.51c-2.022-.758-4.077-1.164-6.153-1.828-1.618-.518-3.8-1.609-5.538-1.246-4.554.948-9.1,4.188-13.223,6.292a4.8,4.8,0,0,1-2.969.766c-1.024-.194-1.878-1.435-1.295-2.3-1.188,1.11-2.76,3.329-4.675,2.468a1.6,1.6,0,0,1-.822-2.131,6.484,6.484,0,0,1-2.259,1.827,2.219,2.219,0,0,1-2.638-.615,2.63,2.63,0,0,1-.35-1.318,9.966,9.966,0,0,1,1.058-4.581c3.252-7.1,10.6-12.359,16.859-16.586a13.461,13.461,0,0,1,3.511-1.9,12.314,12.314,0,0,1,3.55-.393,70.78,70.78,0,0,1,22.872,3.7c1.591.536,3.342.079,4.929-.218a7.689,7.689,0,0,1,3.547-.1,6.12,6.12,0,0,1,3.06,2.476,11.494,11.494,0,0,1,2.365,7.139c-.131,1.9-.275,3.955-2.513,4.354-.907.162-1.841.063-2.758.158C1476.481,767.564,1476.256,767.6,1476.034,767.645Z" transform="translate(48.734 34.823)" fill="#f8a17a"/>
    <path id="Trazado_5207" data-name="Trazado 5207" d="M1474.717,666.51c4.739-1.519,8.643-4.466,10.105-9.149,1.328-4.251-.766-9.032-1.138-13.321a81.349,81.349,0,0,1-.134-12.36c.25-3.806.614-7.769.029-11.562-.333-2.167-1.523-1.8-3.716-2.658a19.133,19.133,0,0,0-7.036-.864c-4.879.012-17.6-.342-20.612,3.939-1.384,1.966-1.493,4.44-1.559,6.779-.079,2.825-.58,6.484-1.042,10.425-.206,1.754-.078,3.5-.347,5.245a32.977,32.977,0,0,1-1.691,5.692c-2.454,7.069-.156,13.791,7.489,17.028A30.206,30.206,0,0,0,1474.717,666.51Z" transform="translate(51.426 21.225)" fill="#f8a17a"/>
    <path id="Trazado_5208" data-name="Trazado 5208" d="M1483.426,620.118c-.332-2.167-1.521-1.8-3.716-2.658a19.125,19.125,0,0,0-7.036-.864c-4.878.012-17.6-.342-20.611,3.939-1.385,1.966-1.493,4.44-1.559,6.779-.079,2.825-.58,6.484-1.042,10.425-.206,1.754-.079,3.5-.348,5.245a24.253,24.253,0,0,1-1.218,4.351,25.85,25.85,0,0,0,15,.933c8.888-2.187,15.619-7.719,20.42-14.912.025-.559.041-1.119.078-1.677C1483.647,627.874,1484.011,623.911,1483.426,620.118Z" transform="translate(51.554 21.225)" fill="#e5785c"/>
    <path id="Trazado_5209" data-name="Trazado 5209" d="M1492.569,598.091a59.647,59.647,0,0,0-2.614-17.827c-7.232-22.141-34.852-27.61-51.486-11.718-18.547,17.724-11.449,60.1,8.087,74.988a21.921,21.921,0,0,0,18.666,3.677C1484.417,642.065,1492.691,618.443,1492.569,598.091Z" transform="translate(49.494 15.398)" fill="#f8a17a"/>
    <path id="Trazado_5210" data-name="Trazado 5210" d="M1483.854,595.11c8.5-4.647,11.114,7.118,9.651,12.974a18.691,18.691,0,0,1-3.06,6.767c-2.021,2.679-7.8,7.124-11.135,4.193-1.512-1.33-1.667-3.59-1.714-5.6C1477.473,608.043,1478.094,598.259,1483.854,595.11Z" transform="translate(54.58 18.927)" fill="#f8a17a"/>
    <g id="Grupo_1026" data-name="Grupo 1026" transform="translate(1504.475 637.178)">
      <path id="Trazado_5211" data-name="Trazado 5211" d="M1458.736,631.627a43.046,43.046,0,0,1-6.28-.463l.376-2.549a38.717,38.717,0,0,0,22-3.072,28.393,28.393,0,0,0,4.759-2.734,22.474,22.474,0,0,0,6.164-6.8l2.224,1.3a25.05,25.05,0,0,1-6.877,7.581,30.922,30.922,0,0,1-5.187,2.986A40.776,40.776,0,0,1,1458.736,631.627Z" transform="translate(-1452.456 -616.013)" fill="#2f95d2"/>
    </g>
    <g id="Grupo_1027" data-name="Grupo 1027" transform="translate(1495.568 645.872)">
      <path id="Trazado_5212" data-name="Trazado 5212" d="M1445.831,625.781c3.107-2.667,10.017-2.438,12.3.329,1.689,2.053,1.173,4.657-.685,6.392-2.2,2.052-4.92,1.933-7.663,1.313C1446.343,633.042,1442.086,628.994,1445.831,625.781Z" transform="translate(-1444.373 -623.902)" fill="#2f95d2"/>
    </g>
    <path id="Trazado_5213" data-name="Trazado 5213" d="M1492.409,581.194c-7.615-23.311-36.695-29.069-54.205-12.337a34.5,34.5,0,0,0-8.519,13.729,16.155,16.155,0,0,0,1.351,1.816c2.4,2.782,5.718,4.6,9.055,6.143,9.747,4.507,20.254,7.151,30.81,9.129.777.145,1.56.289,2.341.443a26.091,26.091,0,0,1,8.328,2.786c7.173,4.228,4.088,13.528,9.344,17.6a4.983,4.983,0,0,0,1.436.776,78.424,78.424,0,0,0,2.81-21.32A62.815,62.815,0,0,0,1492.409,581.194Z" transform="translate(49.698 15.381)" fill="#e5785c"/>
    <path id="Trazado_5214" data-name="Trazado 5214" d="M1473.714,598.157a26.109,26.109,0,0,1,7.777,4.078c6.408,5.318,1.879,14.007,6.416,18.869,4.021,4.307,10.128-1.384,11.727-5.363,2.947-7.329,2.774-15.486,2.556-23.383-.121-4.4-.252-8.87-1.544-13.082a32.165,32.165,0,0,0-7.418-12.219c-9.43-10.176-23.664-15.466-37.443-14.6-10.777.678-29.68,9.733-21.231,23.453,1.927,3.129,4.911,5.453,7.959,7.508,8.9,6,18.855,10.29,28.96,13.926C1472.219,597.614,1472.968,597.88,1473.714,598.157Z" transform="translate(49.979 14.679)" fill="#0b2d4e"/>
    <path id="Trazado_5215" data-name="Trazado 5215" d="M1487.564,592.007c-11.994,3.077-16.63,25.672-3.248,30.17,14.379,4.834,24.5-15.992,15.062-26.195C1495.7,592,1491.425,591.017,1487.564,592.007Z" transform="translate(54.439 18.683)" fill="#57b8e8"/>
    <path id="Trazado_5216" data-name="Trazado 5216" d="M1490.938,594.614c-8.281,1.331-13.381,18.922-4.847,23.763,9.169,5.2,17.774-10.463,12.38-19.485C1496.367,595.373,1493.6,594.186,1490.938,594.614Z" transform="translate(54.998 18.976)" fill="#2f95d2"/>
    <g id="Grupo_1028" data-name="Grupo 1028" transform="translate(1486.33 555.361)">
      <path id="Trazado_5217" data-name="Trazado 5217" d="M1497.265,598.672l-3.2-.37c2.171-18.753,1.245-42.714-15.482-50.368-7.921-3.624-30.607-7.645-40.591,5.828-1.2,1.349-2,2.479-2,2.479,6.192-19.106,35.386-15.148,43.935-11.236C1498.411,553.463,1499.558,578.858,1497.265,598.672Z" transform="translate(-1435.989 -541.763)" fill="#57b8e8"/>
    </g>
    <g id="Grupo_1029" data-name="Grupo 1029" transform="translate(1612.364 524.767)">
      <rect id="Rectángulo_669" data-name="Rectángulo 669" width="132.008" height="80.159" rx="11.983" transform="translate(132.008 80.159) rotate(180)" fill="#0098d7"/>
      <path id="Trazado_5218" data-name="Trazado 5218" d="M1566.135,609.3V572.462l28.849,15.736Z" transform="translate(-1548.76 -508.039)" fill="#0098d7"/>
      <rect id="Rectángulo_670" data-name="Rectángulo 670" width="65.348" height="6.994" rx="2.63" transform="translate(20.107 36.695)" fill="#e1f4fd"/>
      <rect id="Rectángulo_671" data-name="Rectángulo 671" width="21.418" height="6.994" rx="2.63" transform="translate(90.482 36.695)" fill="#e1f4fd"/>
      <rect id="Rectángulo_672" data-name="Rectángulo 672" width="65.348" height="6.994" rx="2.63" transform="translate(111.9 27.807) rotate(180)" fill="#e1f4fd"/>
      <rect id="Rectángulo_673" data-name="Rectángulo 673" width="21.418" height="6.994" rx="2.63" transform="translate(41.526 27.807) rotate(180)" fill="#e1f4fd"/>
      <rect id="Rectángulo_674" data-name="Rectángulo 674" width="45.897" height="6.994" rx="2.63" transform="translate(20.107 51.215)" fill="#e1f4fd"/>
    </g>
    <g id="Grupo_1031" data-name="Grupo 1031" transform="translate(942 476.56)">
      <path id="Trazado_5219" data-name="Trazado 5219" d="M1056.389,613.46a2.736,2.736,0,0,0-3.309.119c-5.136,4.195-18.376,16.772-22.393,12.756-4.8-4.8,7.817-59.469,2.466-78.652-4.522-16.214-17.906-21.921-25.8-23.3a2.746,2.746,0,0,0-3.214,3.038c.75,6.03,1.879,18.988-.484,29.853-3.2,14.707-4.625,50.562-18.693,74.519s-10.231,74.472-25.579,114.118c-3.507,9.063-12.969,25.623-12.969,25.623V772A46.091,46.091,0,0,0,942,791.729v26.446h115.7s72.479-26.223,92.3-81.216C1168.3,686.188,1069.842,622.88,1056.389,613.46Z" transform="translate(-942 -464.737)" fill="#f8a17a"/>
      <path id="Trazado_5220" data-name="Trazado 5220" d="M1216.48,585.2s13.774-15.1,7.469-22.963-27.039,1.51-27.039,1.51Z" transform="translate(-916.023 -461.195)" fill="#f6ce9b"/>
      <path id="Trazado_5221" data-name="Trazado 5221" d="M1204.295,710.276s13.509-8.878,11.471-17.15-21.266-2.738-21.266-2.738Z" transform="translate(-916.269 -448)" fill="#f6ce9b"/>
      <path id="Trazado_5222" data-name="Trazado 5222" d="M1212.646,675.721s18.563-12.5,14.849-21.968c-4.236-10.8-26.905-3.484-26.905-3.484Z" transform="translate(-915.648 -452.151)" fill="#f6ce9b"/>
      <path id="Trazado_5223" data-name="Trazado 5223" d="M1219.2,619.884s16.059,1.47,20.136,8.886c3.783,6.884-.4,15.881-26.257,19.764Z" transform="translate(-914.375 -455.001)" fill="#f6ce9b"/>
      <path id="Trazado_5224" data-name="Trazado 5224" d="M1163.2,661.937s48.365-17.161,59.342-12.469c8.639,3.693,9.239,18.224-10.425,28.775s-48.917,20.142-48.917,20.142Z" transform="translate(-919.458 -452.069)" fill="#f8a17a"/>
      <path id="Trazado_5225" data-name="Trazado 5225" d="M1163.2,699.977s29.3-9.514,39.805-10.534c11.687-1.136,17.744,8.146,8.153,17.737s-47.958,24.459-47.958,24.459Z" transform="translate(-919.458 -447.922)" fill="#f8a17a"/>
      <path id="Trazado_5226" data-name="Trazado 5226" d="M1161.333,582.671s36.688-17.984,45.081-20.619c17.562-5.512,27.252,5.742,17.265,20.619-11.511,17.146-55.632,34.53-73.857,52.755S1161.333,582.671,1161.333,582.671Z" transform="translate(-921.424 -461.039)" fill="#f8a17a"/>
      <path id="Trazado_5227" data-name="Trazado 5227" d="M1152.915,620.777s52.754-6.714,77.692,0c17.4,4.684,17.876,20.471-5.41,27.085-10.757,3.056-34.689,5.494-57.9,7.635C1090.568,662.579,1152.915,620.777,1152.915,620.777Z" transform="translate(-922.941 -455.214)" fill="#f8a17a"/>
      <rect id="Rectángulo_675" data-name="Rectángulo 675" width="176.212" height="325.159" rx="21.984" transform="translate(267.365 325.159) rotate(180)" fill="#212951"/>
      <rect id="Rectángulo_676" data-name="Rectángulo 676" width="155.581" height="265.187" transform="translate(257.05 295.173) rotate(180)" fill="#ccddf0"/>
      <g id="Grupo_1030" data-name="Grupo 1030" transform="translate(153.302 14.445)">
        <path id="Trazado_5228" data-name="Trazado 5228" d="M1083.163,487.435h39.086a2.039,2.039,0,0,0,2.039-2.039h0a2.038,2.038,0,0,0-2.039-2.039h-39.086a2.038,2.038,0,0,0-2.039,2.039h0A2.039,2.039,0,0,0,1083.163,487.435Z" transform="translate(-1081.124 -483.358)" fill="#213b81"/>
        <circle id="Elipse_498" data-name="Elipse 498" cx="2.038" cy="2.038" r="2.038" transform="translate(47.839 0)" fill="#213b81"/>
      </g>
      <path id="Trazado_5229" data-name="Trazado 5229" d="M1097.6,751.095a7.8,7.8,0,1,0,7.8-7.8A7.8,7.8,0,0,0,1097.6,751.095Z" transform="translate(-926.143 -442.424)" fill="#213b81"/>
      <path id="Trazado_5230" data-name="Trazado 5230" d="M1009.47,531.271c4,5.915,2.878,24.779-2.078,25.577a47.373,47.373,0,0,1-9.423.228c2.336-10.846,1.214-23.749.465-29.761a2.7,2.7,0,0,1,.5-1.934A14.145,14.145,0,0,1,1009.47,531.271Z" transform="translate(-936.297 -464.631)" fill="#f6ce9b"/>
      <path id="Trazado_5231" data-name="Trazado 5231" d="M1187.07,572.689s-2.79,16.306,6.278,21.222C1193.348,593.911,1187.07,586.6,1187.07,572.689Z" transform="translate(-917.067 -459.81)" fill="#ec9216"/>
      <path id="Trazado_5232" data-name="Trazado 5232" d="M1196.7,622.861s-6.372,15.266,1.364,22.089C1198.062,644.95,1193.582,636.416,1196.7,622.861Z" transform="translate(-916.296 -454.697)" fill="#ec9216"/>
      <path id="Trazado_5233" data-name="Trazado 5233" d="M1186.735,694.86s-2.52,16.349,6.628,21.115C1193.363,715.975,1186.965,708.766,1186.735,694.86Z" transform="translate(-917.092 -447.36)" fill="#ec9216"/>
      <path id="Trazado_5234" data-name="Trazado 5234" d="M1188.072,658.645s-5.037,15.757,3.257,21.89C1191.329,680.535,1186.133,672.418,1188.072,658.645Z" transform="translate(-917.078 -451.051)" fill="#ec9216"/>
    </g>
    <g id="Grupo_1037" data-name="Grupo 1037" transform="translate(1056.192 545.036)">
      <g id="Grupo_1032" data-name="Grupo 1032" transform="translate(3.887)" style="isolation: isolate">
        <path id="Trazado_5235" data-name="Trazado 5235" d="M1049.158,532.392h4.581v16.064h9.927v3.732h-14.508Z" transform="translate(-1049.158 -532.392)" fill="#002b45"/>
        <path id="Trazado_5236" data-name="Trazado 5236" d="M1064.662,532.392h4.581v16.064h9.927v3.732h-14.508Z" transform="translate(-1047.578 -532.392)" fill="#002b45"/>
        <path id="Trazado_5237" data-name="Trazado 5237" d="M1093.6,547.947h-9.19l-1.754,4.241h-4.694l8.823-19.8h4.525l8.851,19.8h-4.806Zm-1.441-3.479-3.139-7.579-3.14,7.579Z" transform="translate(-1046.223 -532.392)" fill="#002b45"/>
        <path id="Trazado_5238" data-name="Trazado 5238" d="M1118,552.188l-.027-11.877-5.826,9.785h-2.065l-5.8-9.53v11.623h-4.3v-19.8h3.791l7.409,12.3,7.3-12.3h3.761l.056,19.8Z" transform="translate(-1043.979 -532.392)" fill="#002b45"/>
        <path id="Trazado_5239" data-name="Trazado 5239" d="M1137.774,547.947h-9.192l-1.752,4.241h-4.7l8.824-19.8h4.525l8.852,19.8h-4.808Zm-1.442-3.479-3.139-7.579-3.139,7.579Z" transform="translate(-1041.721 -532.392)" fill="#002b45"/>
        <path id="Trazado_5240" data-name="Trazado 5240" d="M1156.772,552.188l-3.817-5.514h-4.215v5.514h-4.581v-19.8h8.57c5.287,0,8.6,2.743,8.6,7.182a6.435,6.435,0,0,1-4.072,6.25l4.44,6.364Zm-4.3-16.064h-3.733v6.9h3.733c2.8,0,4.214-1.3,4.214-3.451C1156.687,537.4,1155.273,536.124,1152.473,536.124Z" transform="translate(-1039.477 -532.392)" fill="#002b45"/>
      </g>
      <g id="Grupo_1033" data-name="Grupo 1033" transform="translate(20.157 27.411)" style="isolation: isolate">
        <path id="Trazado_5241" data-name="Trazado 5241" d="M1072.444,567.991H1066.7l-1.188,2.7h-1.59l4.893-10.8h1.528l4.908,10.8h-1.621Zm-.54-1.234-2.331-5.295-2.331,5.295Z" transform="translate(-1063.924 -557.001)" fill="#002b45"/>
        <path id="Trazado_5242" data-name="Trazado 5242" d="M1079.424,559.887h1.544v9.462h5.85v1.342h-7.394Z" transform="translate(-1062.344 -557.001)" fill="#002b45"/>
        <path id="Trazado_5243" data-name="Trazado 5243" d="M1094.819,567.991h-5.742l-1.188,2.7h-1.59l4.892-10.8h1.528l4.908,10.8h-1.621Zm-.54-1.234-2.331-5.295-2.33,5.295Z" transform="translate(-1061.644 -557.001)" fill="#002b45"/>
        <path id="Trazado_5244" data-name="Trazado 5244" d="M1101.8,559.887h1.544v9.462h5.85v1.342H1101.8Z" transform="translate(-1060.064 -557.001)" fill="#002b45"/>
        <path id="Trazado_5245" data-name="Trazado 5245" d="M1111.865,557.268h1.883l-2.593,2.006h-1.389Zm-1.714,2.886h1.545v10.8h-1.545Z" transform="translate(-1059.252 -557.268)" fill="#002b45"/>
        <path id="Trazado_5246" data-name="Trazado 5246" d="M1123.75,559.887v10.8h-1.266L1116,562.635v8.056h-1.543v-10.8h1.265l6.483,8.057v-8.057Z" transform="translate(-1058.774 -557.001)" fill="#002b45"/>
        <path id="Trazado_5247" data-name="Trazado 5247" d="M1133.667,569.349v1.342h-7.841v-10.8h7.625v1.342h-6.08v3.319h5.418v1.313h-5.418v3.488Z" transform="translate(-1057.616 -557.001)" fill="#002b45"/>
        <path id="Trazado_5248" data-name="Trazado 5248" d="M1142.243,567.991H1136.5l-1.188,2.7h-1.59l4.894-10.8h1.528l4.908,10.8h-1.621Zm-.54-1.234-2.331-5.295-2.332,5.295Z" transform="translate(-1056.811 -557.001)" fill="#002b45"/>
      </g>
      <g id="Grupo_1034" data-name="Grupo 1034" transform="translate(1.219 62.727)" style="isolation: isolate">
        <path id="Trazado_5249" data-name="Trazado 5249" d="M1054.639,589.6v18.314H1050.4V593h-3.664v-3.4Z" transform="translate(-1046.737 -589.289)" fill="#002b45"/>
        <path id="Trazado_5250" data-name="Trazado 5250" d="M1070.578,604.494v3.453h-13.84V605.2l7.063-6.671c1.622-1.544,1.911-2.485,1.911-3.375,0-1.438-1-2.275-2.93-2.275a4.48,4.48,0,0,0-3.795,1.831l-3.087-1.989a8.5,8.5,0,0,1,7.273-3.4c4.081,0,6.8,2.095,6.8,5.416,0,1.78-.5,3.4-3.062,5.782l-4.212,3.978Z" transform="translate(-1045.803 -589.318)" fill="#002b45"/>
        <path id="Trazado_5251" data-name="Trazado 5251" d="M1084.432,602.319c0,3.087-2.38,5.913-7.587,5.913a12.613,12.613,0,0,1-6.986-1.961l1.648-3.246a8.9,8.9,0,0,0,5.233,1.648c2.119,0,3.428-.863,3.428-2.354,0-1.386-1.021-2.25-3.428-2.25H1074.8v-2.8l3.767-4.265h-7.8v-3.4h12.82v2.747l-4.133,4.709C1082.757,597.584,1084.432,599.624,1084.432,602.319Z" transform="translate(-1044.381 -589.289)" fill="#002b45"/>
        <path id="Trazado_5252" data-name="Trazado 5252" d="M1091.581,595.788c0-3.718,2.9-6.47,6.845-6.47,3.931,0,6.844,2.735,6.844,6.47s-2.914,6.469-6.844,6.469C1094.477,602.258,1091.581,599.505,1091.581,595.788Zm10.758,0a3.915,3.915,0,1,0-3.913,4A3.815,3.815,0,0,0,1102.339,595.788Z" transform="translate(-1038.992 -586.316)" fill="#002b45"/>
        <path id="Trazado_5253" data-name="Trazado 5253" d="M1119.237,599.859V589.6h4.238v10.1c0,3.479,1.518,4.918,4.081,4.918,2.591,0,4.081-1.439,4.081-4.918V589.6h4.186v10.255c0,5.389-3.087,8.372-8.293,8.372S1119.237,605.249,1119.237,599.859Z" transform="translate(-1039.349 -589.289)" fill="#002b45"/>
        <path id="Trazado_5254" data-name="Trazado 5254" d="M1149.754,607.918l-3.532-5.1h-3.9v5.1h-4.238V589.6h7.926c4.893,0,7.953,2.537,7.953,6.646a5.953,5.953,0,0,1-3.767,5.781l4.108,5.887Zm-3.977-14.86h-3.453v6.383h3.453c2.589,0,3.9-1.2,3.9-3.191C1149.676,594.235,1148.367,593.057,1145.777,593.057Z" transform="translate(-1037.428 -589.289)" fill="#002b45"/>
        <path id="Trazado_5255" data-name="Trazado 5255" d="M1155.534,589.6h4.238v18.314h-4.238Z" transform="translate(-1035.65 -589.289)" fill="#002b45"/>
      </g>
      <g id="Grupo_1036" data-name="Grupo 1036" transform="translate(3.966 98.212)">
        <g id="Grupo_1035" data-name="Grupo 1035">
          <path id="Trazado_5256" data-name="Trazado 5256" d="M1049.23,627.411v-4.13h1.038v4.088c0,1.609.736,2.334,2.043,2.334s2.055-.725,2.055-2.334v-4.088h1.006v4.13c0,2.1-1.151,3.215-3.071,3.215S1049.23,629.516,1049.23,627.411Z" transform="translate(-1049.23 -621.342)" fill="#002b45"/>
          <path id="Trazado_5257" data-name="Trazado 5257" d="M1062.974,623.281v7.263h-.851l-4.357-5.416v5.416h-1.037v-7.263h.849l4.357,5.416v-5.416Z" transform="translate(-1048.466 -621.342)" fill="#002b45"/>
          <path id="Trazado_5258" data-name="Trazado 5258" d="M1064.368,623.281h1.038v7.263h-1.038Z" transform="translate(-1047.687 -621.342)" fill="#002b45"/>
          <path id="Trazado_5259" data-name="Trazado 5259" d="M1067.284,623.281h3.06a3.642,3.642,0,1,1,0,7.263h-3.06Zm3,6.36a2.736,2.736,0,1,0,0-5.456h-1.96v5.456Z" transform="translate(-1047.39 -621.342)" fill="#002b45"/>
          <path id="Trazado_5260" data-name="Trazado 5260" d="M1079.69,628.729h-3.86l-.8,1.815h-1.069l3.288-7.263h1.028l3.3,7.263h-1.089Zm-.364-.831-1.565-3.558-1.567,3.558Z" transform="translate(-1046.709 -621.342)" fill="#002b45"/>
          <path id="Trazado_5261" data-name="Trazado 5261" d="M1081.848,623.281h3.06a3.642,3.642,0,1,1,0,7.263h-3.06Zm3,6.36a2.736,2.736,0,1,0,0-5.456h-1.96v5.456Z" transform="translate(-1045.906 -621.342)" fill="#002b45"/>
          <path id="Trazado_5262" data-name="Trazado 5262" d="M1092.149,623.281h3.06a3.642,3.642,0,1,1,0,7.263h-3.06Zm3,6.36a2.736,2.736,0,1,0,0-5.456h-1.96v5.456Z" transform="translate(-1044.856 -621.342)" fill="#002b45"/>
          <path id="Trazado_5263" data-name="Trazado 5263" d="M1105.189,629.641v.9h-5.269v-7.263h5.124v.9h-4.087v2.229h3.642v.883h-3.642v2.344Z" transform="translate(-1044.064 -621.342)" fill="#002b45"/>
          <path id="Trazado_5264" data-name="Trazado 5264" d="M1113.609,630.544l-1.567-2.23c-.146.01-.3.021-.456.021h-1.8v2.209h-1.037v-7.263h2.832c1.888,0,3.029.955,3.029,2.532a2.292,2.292,0,0,1-1.6,2.293l1.723,2.438Zm-.031-4.731c0-1.037-.7-1.628-2.023-1.628h-1.764v3.266h1.764C1112.883,627.452,1113.578,626.851,1113.578,625.813Z" transform="translate(-1043.164 -621.342)" fill="#002b45"/>
          <path id="Trazado_5265" data-name="Trazado 5265" d="M1120.864,629.641v.9h-5.27v-7.263h5.124v.9h-4.087v2.229h3.642v.883h-3.642v2.344Z" transform="translate(-1042.467 -621.342)" fill="#002b45"/>
          <path id="Trazado_5266" data-name="Trazado 5266" d="M1126.625,628.729h-3.859l-.8,1.815H1120.9l3.289-7.263h1.026l3.3,7.263h-1.09Zm-.363-.831-1.567-3.558-1.567,3.558Z" transform="translate(-1041.927 -621.342)" fill="#002b45"/>
          <path id="Trazado_5267" data-name="Trazado 5267" d="M1128.152,626.92a3.674,3.674,0,0,1,3.85-3.713,3.591,3.591,0,0,1,2.759,1.129l-.674.655a2.689,2.689,0,0,0-2.043-.861,2.791,2.791,0,1,0,0,5.58,2.7,2.7,0,0,0,2.043-.872l.674.654a3.6,3.6,0,0,1-2.769,1.141A3.672,3.672,0,0,1,1128.152,626.92Z" transform="translate(-1041.187 -621.349)" fill="#002b45"/>
          <path id="Trazado_5268" data-name="Trazado 5268" d="M1134.813,626.92a3.673,3.673,0,0,1,3.85-3.713,3.591,3.591,0,0,1,2.759,1.129l-.676.655a2.686,2.686,0,0,0-2.043-.861,2.791,2.791,0,1,0,0,5.58,2.7,2.7,0,0,0,2.043-.872l.676.654a3.6,3.6,0,0,1-2.77,1.141A3.671,3.671,0,0,1,1134.813,626.92Z" transform="translate(-1040.509 -621.349)" fill="#002b45"/>
          <path id="Trazado_5269" data-name="Trazado 5269" d="M1142.152,623.281h1.038v7.263h-1.038Z" transform="translate(-1039.76 -621.342)" fill="#002b45"/>
          <path id="Trazado_5270" data-name="Trazado 5270" d="M1144.532,627.092a3.862,3.862,0,1,1,3.87,3.713A3.691,3.691,0,0,1,1144.532,627.092Zm6.682,0a2.822,2.822,0,1,0-2.812,2.79A2.726,2.726,0,0,0,1151.214,627.092Zm-2.179-5.571h1.266l-1.742,1.349h-.934Z" transform="translate(-1039.518 -621.521)" fill="#002b45"/>
          <path id="Trazado_5271" data-name="Trazado 5271" d="M1159.216,623.281v7.263h-.851l-4.357-5.416v5.416h-1.037v-7.263h.85l4.357,5.416v-5.416Z" transform="translate(-1038.658 -621.342)" fill="#002b45"/>
          <path id="Trazado_5272" data-name="Trazado 5272" d="M1051.817,634.571h1.038v7.263h-1.038Z" transform="translate(-1048.966 -620.191)" fill="#002b45"/>
          <path id="Trazado_5273" data-name="Trazado 5273" d="M1060.978,634.571v7.263h-.849l-4.357-5.416v5.416h-1.038v-7.263h.851l4.357,5.416v-5.416Z" transform="translate(-1048.669 -620.191)" fill="#002b45"/>
          <path id="Trazado_5274" data-name="Trazado 5274" d="M1069.106,641.834l-.01-5.291-2.625,4.409h-.477l-2.625-4.377v5.259h-1v-7.263h.852l3.029,5.1,2.986-5.1h.852l.01,7.263Z" transform="translate(-1047.891 -620.191)" fill="#002b45"/>
          <path id="Trazado_5275" data-name="Trazado 5275" d="M1076.628,640.931v.9h-5.271v-7.263h5.125v.9h-4.087V637.7h3.642v.883h-3.642v2.345Z" transform="translate(-1046.975 -620.191)" fill="#002b45"/>
          <path id="Trazado_5276" data-name="Trazado 5276" d="M1077.661,634.571h3.06a3.642,3.642,0,1,1,0,7.263h-3.06Zm3,6.36a2.736,2.736,0,1,0,0-5.457h-1.96v5.457Z" transform="translate(-1046.333 -620.191)" fill="#002b45"/>
          <path id="Trazado_5277" data-name="Trazado 5277" d="M1085.432,634.571h1.037v7.263h-1.037Z" transform="translate(-1045.541 -620.191)" fill="#002b45"/>
          <path id="Trazado_5278" data-name="Trazado 5278" d="M1093.076,640.018h-3.859l-.8,1.816h-1.068l3.288-7.263h1.027l3.3,7.263h-1.09Zm-.363-.83-1.567-3.559-1.567,3.559Z" transform="translate(-1045.345 -620.191)" fill="#002b45"/>
          <path id="Trazado_5279" data-name="Trazado 5279" d="M1096.445,635.475h-2.49v-.9h6.007v.9h-2.49v6.359h-1.026Z" transform="translate(-1044.672 -620.191)" fill="#002b45"/>
          <path id="Trazado_5280" data-name="Trazado 5280" d="M1104.828,640.018h-3.859l-.8,1.816H1099.1l3.288-7.263h1.027l3.3,7.263h-1.09Zm-.363-.83-1.567-3.559-1.567,3.559Z" transform="translate(-1044.148 -620.191)" fill="#002b45"/>
          <path id="Trazado_5281" data-name="Trazado 5281" d="M1106.28,637.443h2.791v.862h-2.791Z" transform="translate(-1043.416 -619.898)" fill="#002b45"/>
          <path id="Trazado_5282" data-name="Trazado 5282" d="M1114,635.475v2.531h3.642v.891H1114v2.937h-1.037v-7.263h5.124v.9Z" transform="translate(-1042.735 -620.191)" fill="#002b45"/>
          <path id="Trazado_5283" data-name="Trazado 5283" d="M1118.934,634.571h1.037v7.263h-1.037Z" transform="translate(-1042.127 -620.191)" fill="#002b45"/>
          <path id="Trazado_5284" data-name="Trazado 5284" d="M1121.248,641.011l.383-.809a3.737,3.737,0,0,0,2.4.841c1.255,0,1.794-.488,1.794-1.121,0-1.773-4.4-.654-4.4-3.351,0-1.121.872-2.075,2.781-2.075a4.265,4.265,0,0,1,2.333.644l-.342.83a3.747,3.747,0,0,0-1.991-.591c-1.234,0-1.764.519-1.764,1.151,0,1.773,4.4.662,4.4,3.329,0,1.111-.891,2.064-2.811,2.064A4.306,4.306,0,0,1,1121.248,641.011Z" transform="translate(-1041.891 -620.199)" fill="#002b45"/>
          <path id="Trazado_5285" data-name="Trazado 5285" d="M1127.155,638.211A3.675,3.675,0,0,1,1131,634.5a3.588,3.588,0,0,1,2.76,1.131l-.675.653a2.689,2.689,0,0,0-2.042-.861,2.791,2.791,0,1,0,0,5.58,2.7,2.7,0,0,0,2.042-.87l.675.653a3.6,3.6,0,0,1-2.769,1.14A3.671,3.671,0,0,1,1127.155,638.211Z" transform="translate(-1041.289 -620.199)" fill="#002b45"/>
          <path id="Trazado_5286" data-name="Trazado 5286" d="M1139.062,640.018H1135.2l-.8,1.816h-1.069l3.288-7.263h1.027l3.3,7.263h-1.089Zm-.363-.83-1.567-3.559-1.567,3.559Z" transform="translate(-1040.659 -620.191)" fill="#002b45"/>
          <path id="Trazado_5287" data-name="Trazado 5287" d="M1141.222,634.571h1.037v6.36h3.931v.9h-4.967Z" transform="translate(-1039.855 -620.191)" fill="#002b45"/>
          <path id="Trazado_5288" data-name="Trazado 5288" d="M1147.984,632.811h1.266l-1.742,1.349h-.934Zm-1.15,1.939h1.037v7.263h-1.037Z" transform="translate(-1039.31 -620.37)" fill="#002b45"/>
          <path id="Trazado_5289" data-name="Trazado 5289" d="M1154.455,640.018H1150.6l-.8,1.816h-1.068l3.288-7.263h1.027l3.3,7.263h-1.09Zm-.363-.83-1.567-3.559-1.567,3.559Z" transform="translate(-1039.09 -620.191)" fill="#002b45"/>
        </g>
      </g>
      <line id="Línea_59" data-name="Línea 59" x2="128.548" transform="translate(0 52.019)" fill="none" stroke="#002b45" stroke-miterlimit="10" stroke-width="1"/>
      <line id="Línea_60" data-name="Línea 60" x2="128.548" transform="translate(0 91.351)" fill="none" stroke="#002b45" stroke-miterlimit="10" stroke-width="1"/>
    </g>
    <g id="Grupo_1039" data-name="Grupo 1039" transform="translate(1088.791 683.724)">
      <g id="Grupo_1038" data-name="Grupo 1038" transform="translate(0 0)">
        <circle id="Elipse_499" data-name="Elipse 499" cx="24.242" cy="24.242" r="24.242" transform="translate(6.374 6.331)" fill="#fff"/>
        <path id="Trazado_5290" data-name="Trazado 5290" d="M1127.4,667.206a30.573,30.573,0,1,0,8.958,21.615A30.572,30.572,0,0,0,1127.4,667.206Zm-5.886,33.637,0,0v-.01l-1.549,1.539a8.153,8.153,0,0,1-7.695,2.2,27.067,27.067,0,0,1-7.867-3.526,37.665,37.665,0,0,1-10.844-10.629,28.576,28.576,0,0,1-3.485-7.052,8.153,8.153,0,0,1,2.038-8.326l1.814-1.814a1.3,1.3,0,0,1,1.83,0l0,0,5.728,5.728a1.3,1.3,0,0,1,0,1.83l0,0-3.363,3.363a2.741,2.741,0,0,0-.286,3.567,40.161,40.161,0,0,0,9.324,9.153,2.763,2.763,0,0,0,3.526-.306l3.251-3.3a1.294,1.294,0,0,1,1.83,0l0,0,5.738,5.748A1.294,1.294,0,0,1,1121.517,700.843Z" transform="translate(-1075.215 -658.254)" fill="#00d66e"/>
      </g>
    </g>
  </g>
</svg>
