<?xml version="1.0" encoding="utf-8"?>
<!-- Generator: Adobe Illustrator 22.1.0, SVG Export Plug-In . SVG Version: 6.00 Build 0)  -->
<svg version="1.1" id="Layer_1" xmlns="http://www.w3.org/2000/svg" xmlns:xlink="http://www.w3.org/1999/xlink" x="0px" y="0px"
	 width="80px" height="80px" viewBox="0 0 80 80" style="enable-background:new 0 0 80 80;" xml:space="preserve">
<style type="text/css">
	.st0{fill:#7265AA;}
</style>
<g>
	<g>
		<path class="st0" d="M57,19.7c-0.4,0.4-0.4,1.2,0,1.6c0.4,0.4,1.2,0.4,1.6,0l3.9-3.9c0.8-0.8,1.2-1.9,1.2-2.9
			c0-1.1-0.4-2.1-1.2-2.9c-1.6-1.6-4.3-1.6-5.9,0l-9.1,9.1l-8.9-8.9c-1.6-1.6-4.3-1.6-5.9,0s-1.6,4.3,0,5.9l9.1,9.1l-9.1,9.1
			c-0.8,0.8-1.2,1.9-1.2,2.9s0.4,2.1,1.2,2.9c0.8,0.8,1.9,1.2,2.9,1.2c1.1,0,2.1-0.4,2.9-1.2l9.1-9.1l9.1,9.1
			c0.8,0.8,1.9,1.2,2.9,1.2s2.1-0.4,2.9-1.2c0.8-0.8,1.2-1.9,1.2-2.9s-0.4-2.1-1.2-2.9l-9.1-9.1l1.9-1.9c0.4-0.4,0.4-1.2,0-1.6
			c-0.4-0.4-1.2-0.4-1.6,0l-2.7,2.7c-0.4,0.4-0.4,1.2,0,1.6l9.9,9.9c0.4,0.4,0.5,0.8,0.5,1.2c0,0.5-0.1,0.9-0.5,1.2
			c-0.4,0.4-0.8,0.5-1.2,0.5c-0.5,0-0.9-0.1-1.2-0.5l-9.9-9.9c-0.4-0.4-1.2-0.4-1.6,0l-9.9,9.9c-0.4,0.4-0.8,0.5-1.2,0.5
			c-0.5,0-0.9-0.1-1.2-0.5c-0.4-0.4-0.5-0.8-0.5-1.2c0-0.5,0.1-0.9,0.5-1.2l9.9-9.9c0.4-0.4,0.4-1.2,0-1.6L34.9,16
			c-0.7-0.7-0.7-1.9,0-2.5c0.7-0.7,1.9-0.7,2.5,0l9.9,9.9c0.3,0.3,0.5,0.4,0.8,0.4s0.7-0.1,0.8-0.4l9.9-9.9c0.7-0.7,1.9-0.7,2.5,0
			c0.4,0.4,0.5,0.8,0.5,1.2c0,0.5-0.1,0.9-0.5,1.2L57,19.7z"/>
		<path class="st0" d="M74.2,27.2C74,20.1,71,13.3,66,8.3C60.8,3.1,54.1,0.1,47,0C40-0.1,33.3,2.4,28.3,7.3c-4.3,4.3-6.8,9.9-7.2,16
			c-0.4,5.1,0.8,10.3,3.2,14.9c-4.1-0.4-8.1,2-9.5,6l-1.3,3.9c-0.3,0.7,0.1,1.3,0.7,1.5c0.1,0,0.3,0,0.4,0c0.5,0,0.9-0.3,1.1-0.8
			L17,45c1.1-3.1,4.4-4.9,7.6-4.3l1.3,0.3c0.9,1.5,2.1,2.8,3.3,4c1.3,1.3,2.7,2.4,4.1,3.5l-4.8,4.8c-0.4,0.4-0.4,1.2,0,1.6
			c0.4,0.4,1.2,0.4,1.6,0L44,41.2c1.9-1.9,4.8-1.9,6.7,0c0.9,0.9,1.3,2.1,1.3,3.3s-0.5,2.4-1.3,3.3L41,57.5
			c-0.1,0.1-0.3,0.4-0.4,0.7l-0.4,4c-0.3,3.2-1.7,6.1-4.1,8.3c-2.4,2.1-5.5,3.3-8.7,3.2l-3.7-0.1c-0.3,0-0.7,0.1-0.8,0.4l-3.2,3.2
			L8.6,66l1.7-1.7c0.1-0.1,0.3-0.3,0.3-0.4l3.9-10.8c0.3-0.7-0.1-1.3-0.7-1.5c-0.7-0.3-1.3,0.1-1.5,0.7L8.6,62.8l-2.3,2.3
			c-0.4,0.4-0.4,1.2,0,1.6l12.8,12.8c0.3,0.3,0.5,0.4,0.8,0.4s0.5-0.1,0.8-0.4l3.7-3.7h3.2c3.7,0.1,7.5-1.3,10.3-3.9
			c2.8-2.5,4.5-6,4.9-9.7l0.4-3.6l5.7-5.7c0.3,0,0.4,0,0.7,0c6.8,0,13.1-2.5,17.7-7.3C71.8,41,74.5,34.4,74.2,27.2L74.2,27.2z
			 M65.3,44.2c-3.9,3.9-8.8,6.1-14.3,6.5l1.2-1.2c1.3-1.3,2-3.1,2-4.9c0-1.9-0.7-3.6-2-4.9c-2.8-2.8-7.2-2.8-10,0l-6.9,6.9
			c-1.5-0.9-2.9-2.1-4.1-3.3c-1.2-1.2-2.4-2.7-3.3-4.1c-3.1-4.7-4.5-10.3-4.3-15.7c0.4-5.5,2.7-10.7,6.5-14.4
			C34.5,4.5,40.5,2.1,47,2.4c6.5,0.1,12.7,2.9,17.3,7.6s7.5,10.9,7.6,17.3C72.1,33.7,69.8,39.8,65.3,44.2L65.3,44.2z"/>
	</g>
</g>
</svg>
