<?xml version="1.0" encoding="utf-8"?>
<!-- Generator: Adobe Illustrator 22.1.0, SVG Export Plug-In . SVG Version: 6.00 Build 0)  -->
<svg version="1.1" id="Layer_1" xmlns="http://www.w3.org/2000/svg" xmlns:xlink="http://www.w3.org/1999/xlink" x="0px" y="0px"
	 width="60px" height="60px" viewBox="0 0 60 60" style="enable-background:new 0 0 60 60;" xml:space="preserve">
<style type="text/css">
	.st0{fill:#DFD4F8;}
</style>
<g>
	<path class="st0" d="M49,15.4c-0.3-0.3-2-0.4-3.1,0.7c-0.1,0.1-0.1,0.1-0.2,0.2c0-1-0.1-1.9-0.2-2.8c0.4-0.1,0.7-0.2,1.1-0.4
		c-0.5-1.4,0-3.1,1.4-4C48,9,47.9,9,47.9,8.9c-0.1-0.2-0.3-0.3-0.5-0.3c-1.2,0.1-2,0.8-2.6,1.7c-0.2-0.7-0.4-1.3-0.7-2
		C44,8,43.5,7.9,43.1,8c-0.4,0.1-0.5,0.6-0.4,1c0.3,0.7,0.5,1.5,0.7,2.2c-0.7-0.6-1.7-1-2.7-0.8l0,0c-0.1,0-0.2,0-0.3,0.1l0,0
		c-0.1,0-0.1,0.1-0.3,0.1H40c-0.1,0-0.1,0.1-0.3,0.1c-0.2,0.1-0.3,0.3-0.3,0.5c0,0.1,0,0.3,0.1,0.3l0,0c0,0.1,0.1,0.2,0.1,0.3
		c0,0,0,0,0,0.1c0.1,0.1,0.1,0.2,0.1,0.3c0,0,0,0,0,0.1c0.1,0.1,0.1,0.2,0.1,0.3c0,0,0,0,0,0.1c0.1,0.1,0.1,0.2,0.2,0.3
		c0,0,0,0,0,0.1c0.1,0.1,0.1,0.1,0.2,0.2c0,0,0,0,0.1,0.1s0.1,0.1,0.2,0.2c0,0,0,0,0.1,0.1s0.1,0.1,0.2,0.2c0,0,0.1,0,0.1,0.1
		c0.1,0.1,0.1,0.1,0.3,0.1c0,0,0,0,0.1,0c0.1,0.1,0.2,0.1,0.3,0.1h0.1c0.1,0.1,0.2,0.1,0.3,0.1c0,0,0,0,0.1,0s0.2,0.1,0.3,0.1l0,0
		c0.5,0.1,1,0.1,1.6-0.1c0.2,1.6,0.3,3.3,0.1,4.9c-1.6-1.1-1.6-3.1-1.4-3.6c-0.4-0.1-0.8-0.2-1.2-0.2s-0.7,0-0.8,0.4
		c-0.4,2,1.2,3.9,3.3,3.9h0.1c-0.2,1.5-0.5,2.9-1,4.4c-0.6-0.1-1.2-0.3-1.2-0.3c-1.4-0.3-1.6-1.3-1.6-1.3l0,0
		c-0.3-1.6-1.6-2.9-3.1-3.3l0,0l0,0c-0.1,0-0.1,0-0.1,0c-0.1,0-0.1,0-0.2-0.1h-0.1c-0.1,0-0.3,0-0.3,0l0,0c-0.1,0-0.3,0-0.4,0l0,0
		l0,0c-0.1,0-0.3,0-0.4,0.1c0,0,0,0-0.1,0s-0.3,0.1-0.4,0.1c0,0,0,0-0.1,0s-0.2,0.1-0.3,0.1c0,0,0,0-0.1,0c-0.1,0.1-0.2,0.1-0.3,0.1
		c0,0-0.1,0-0.1,0.1c-0.1,0.1-0.2,0.1-0.3,0.2c0,0-0.1,0-0.1,0.1c-0.1,0.1-0.2,0.1-0.3,0.2c0,0,0,0-0.1,0c-0.1,0.1-0.2,0.1-0.3,0.2
		l-0.1,0.1c-0.1,0.1-0.1,0.2-0.3,0.3c0,0,0,0.1-0.1,0.1c-0.1,0.1-0.1,0.2-0.2,0.3l0,0c0.1-0.3,0-0.2,0-0.1l0,0
		c-0.1,0.1-0.1,0.2-0.1,0.3c0,0,0,0,0,0.1c-0.1,0.1-0.1,0.3-0.1,0.3l0,0C32,21.8,32,21.9,32,22l0,0c0,0.1-0.1,0.3-0.1,0.4v0.1
		c0,0.1,0,0.3,0,0.4V23c0,0.1,0,0.3,0,0.4s0,0.2,0,0.3c0,0.1,0,0.1,0,0.2s0,0.1,0,0.1s0,0.2,0,0.3v0.1c0,0.1,0,0.2,0,0.3
		c0,0,0,0,0,0.1s0,0.2-0.1,0.3c0,0,0,0,0,0.1s-0.1,0.2-0.1,0.3v0.1c0,0.1-0.1,0.1-0.1,0.2c0,0,0,0.1-0.1,0.1c0,0.1-0.1,0.1-0.1,0.2
		s-0.1,0.1-0.1,0.1l-0.1,0.1c0,0.1-0.1,0.1-0.1,0.1c0,0.1-0.1,0.1-0.1,0.1c-0.1,0.1-0.1,0.1-0.1,0.2l-0.1,0.1
		c-0.1,0.1-0.1,0.1-0.1,0.2l-0.1,0.1c-0.1,0.1-0.1,0.1-0.1,0.2l-0.1,0.1c-0.1,0.1-0.1,0.1-0.2,0.2l-0.1,0.1
		c-0.1,0.1-0.1,0.1-0.2,0.1c-0.1,0.1-0.1,0.1-0.1,0.1C29.7,28,29.7,28,29.7,28c-0.1,0-0.1,0.1-0.1,0.1l0,0c0,0,0.8-8.4-7.7-11.8
		c-3.6-1.4-5.5-3.1-6.5-4.4c-0.1-0.1-0.2-0.3-0.3-0.3l0,0c-0.1-0.1-0.1-0.2-0.2-0.3l0,0c0-0.1-0.1-0.2-0.1-0.3l0,0
		c-0.1-0.1-0.1-0.2-0.1-0.3l0,0l0,0c-0.3-0.5-0.6-0.3-0.7-0.2l-0.1,0.1c-0.8,1.2-2.3,4-1.1,7.6c-1-1.1-1.8-2.2-2.3-3.2
		c-0.1-0.1-0.1-0.2-0.1-0.3v-0.1c-0.1-0.1-0.1-0.2-0.1-0.3l0,0c-0.1-0.1-0.1-0.2-0.1-0.3l0,0c0-0.1-0.1-0.1-0.1-0.2l0,0
		c0-0.3-0.3-0.4-0.5-0.4s-0.5,0.1-0.5,0.3C5.2,23.9,9.7,28,14.2,30.4c0.1,0.1,0.3,0.1,0.4,0.2c0.7,0.3,1.4,0.7,2,1
		c0.3,0.1,0.5,0.3,0.7,0.3c0.3,0.1,0.5,0.2,0.7,0.3c0.5,0.2,0.9,0.5,1.3,0.7s0.7,0.5,1,0.7c0.9,0.8,1.2,1.8,0.2,3.2
		c-0.7,1-1.6,1.8-2.5,2.5c-0.7,0.4-1.4,0.8-2.1,1.1c-0.1,0-0.1,0.1-0.1,0.1c-0.1,0.1-0.2,0.1-0.3,0.1c-1,0.3-2,0.5-3,0.7l0,0
		c-0.2,0-0.3,0-0.5,0.1c-2.2,0.1-4.2-0.2-5.7-0.6c-0.1-0.1-0.3-0.1-0.5-0.1l0,0l0,0l0,0c-0.1,0-0.4-0.1-0.7-0.1
		c-0.5,0-1,0.3-1.2,1.2c0.1,3.4,1.5,6.6,2.7,8l0,0l0,0l0,0c0.9,1,1.9,1.8,2.7,2.2l0,0c0.2,0,0.3,0,0.4,0h0.1c0.1,0,0.1,0.1,0.2,0.1
		l0,0c0.1,0,0.1,0,0.2,0c0,0,0,0,0.1,0s0.1,0,0.2,0l0,0c0.1,0,0.1,0,0.2-0.1l0,0c0.4-0.1,0.8-0.4,1-0.9c1.2-2.7,4.3-7.9,10.9-6.9
		c8.7,1.5,15.7-4.8,15.5-11.8c0-0.1,0-0.2,0-0.3l0,0c0-0.9,0.1-1.7,0.3-2.7c0.8-2.8,2.9-3.4,2.9-3.4l1.2-0.5c-0.5,1.2-1.2,2.5-2,3.5
		c-0.2,0.3-0.1,0.8,0.2,1s0.8,0.1,1-0.2c1.1-1.6,2-3.3,2.7-5.2c0,0,0.1,0,0.1-0.1c1-0.3,0.3-0.5,0.1-0.6c0.5-1.5,0.9-3.1,1-4.7
		c0.5,0.1,1,0,1.5-0.2C46.5,18.8,46.8,16.3,49,15.4z M35.8,23.7c-0.7,0-1.2-0.5-1.2-1.2s0.5-1.2,1.2-1.2s1.2,0.5,1.2,1.2
		S36.5,23.7,35.8,23.7z"/>
</g>
<rect x="57" y="8" class="st0" width="3" height="44.1"/>
</svg>
