<?xml version="1.0" encoding="utf-8"?>
<!-- Generator: Adobe Illustrator 22.1.0, SVG Export Plug-In . SVG Version: 6.00 Build 0)  -->
<svg version="1.1" id="Layer_1" xmlns="http://www.w3.org/2000/svg" xmlns:xlink="http://www.w3.org/1999/xlink" x="0px" y="0px"
	 width="80px" height="80px" viewBox="0 0 80 80" style="enable-background:new 0 0 80 80;" xml:space="preserve">
<style type="text/css">
	.st0{fill:#7265AA;}
</style>
<g>
	<path class="st0" d="M79.4,37.3L59.3,32l10.1-17.8c0.3-0.5,0.2-1-0.2-1.4c-0.3-0.3-1-0.5-1.3-0.3L49.2,21L45.3,1
		c-0.2-0.5-0.5-0.8-1-1c-0.5,0-1,0.2-1.3,0.6l-8.8,18.5l-16.1-13c-0.3-0.3-1-0.3-1.4,0c-0.5,0.3-0.6,0.8-0.5,1.3l5.3,19.8L0.8,27.5
		c-0.5,0-1,0.3-1.1,0.8c-0.2,0.5,0,1,0.5,1.3l16.9,11.7L1.3,54.6C1,54.9,0.8,55.4,1,55.9s0.6,0.8,1.1,0.6l20.6-1.8L19.3,75
		c-0.2,0.5,0.2,1,0.6,1.3c0.5,0.2,1,0.2,1.4-0.2L36,61.7l10.6,17.7c0.2,0.3,0.6,0.6,1,0.6c0.2,0,0.2,0,0.3,0c0.5-0.2,0.8-0.5,1-1
		l1.8-20.4l19.9,6.6c0.5,0.2,1,0,1.3-0.5c0.3-0.5,0.3-1,0-1.4L60,46.6l19.4-7.2c0.5-0.2,0.8-0.6,0.8-1.1
		C80.2,37.9,79.9,37.4,79.4,37.3L79.4,37.3z M57.9,45c-0.3,0.2-0.6,0.5-0.6,0.8c-0.2,0.3,0,0.8,0.2,1L68,61.7l-17.5-6.1
		c-0.3-0.2-0.6,0-1,0.2c-0.3,0.2-0.5,0.5-0.5,0.8l-1.6,18.3l-9.8-15.6c-0.2-0.3-0.5-0.5-0.8-0.5h-0.2c-0.3,0-0.6,0.2-0.8,0.3
		l-13.2,13L25.7,54c0-0.3,0-0.8-0.3-1c-0.3-0.3-0.6-0.5-1-0.3L6,54.3l14-11.9c0.3-0.2,0.5-0.6,0.5-1c0-0.3-0.2-0.6-0.5-1L4.7,29.9
		l18.5-0.2c0.3,0,0.6-0.2,1-0.5c0.2-0.3,0.3-0.6,0.2-1l-4.8-17.7l14.3,11.6c0.3,0.2,0.6,0.3,1,0.2c0.3,0,0.6-0.3,0.8-0.6l7.9-16.5
		l3.4,18c0,0.3,0.3,0.6,0.6,0.8c0.3,0.2,0.6,0.2,1,0l16.9-7.7l-9.2,15.9c-0.2,0.3-0.2,0.6,0,1c0.2,0.3,0.5,0.6,0.8,0.6l17.8,4.8
		L57.9,45z"/>
	<path class="st0" d="M57.2,37.8l-8-2.1l4-7.2c0.3-0.5,0.2-1-0.2-1.4c-0.3-0.3-1-0.5-1.3-0.3l-7.6,3.5l-0.2-1
		c-0.2-0.6-0.8-1.1-1.4-1c-0.6,0.2-1.1,0.8-1,1.4l0.5,2.4c0,0.3,0.3,0.6,0.6,0.8s0.6,0.2,1,0l5.6-2.6l-3.1,5.3c-0.2,0.3-0.2,0.6,0,1
		c0.2,0.3,0.5,0.6,0.8,0.6l5.9,1.6L47.3,41c-0.3,0.2-0.6,0.5-0.6,0.8c-0.2,0.3,0,0.8,0.2,1l3.5,5l-5.8-2.1c-0.3-0.2-0.6,0-1,0.2
		c-0.3,0.2-0.5,0.5-0.5,0.8l-0.5,6.1l-3.2-5.3c-0.2-0.3-0.5-0.5-0.8-0.5c-0.3,0-0.6,0-1,0.3l-4.3,4.3l0.2-1c0.2-0.6-0.3-1.3-1-1.3
		c-0.6-0.2-1.3,0.3-1.3,1l-0.8,4.5c-0.2,0.5,0.2,1,0.6,1.3c0.5,0.2,1,0.2,1.4-0.2l5.9-5.8l4.2,7.1c0.2,0.3,0.6,0.6,1,0.6
		c0.2,0,0.2,0,0.3,0c0.5-0.2,0.8-0.5,1-1l0.8-8.2l7.9,2.7c0.5,0.2,1,0,1.3-0.5s0.3-1,0-1.4L50,42.7l7.7-2.9c0.5-0.2,0.8-0.6,0.8-1.1
		C58,38.2,57.7,37.8,57.2,37.8L57.2,37.8z"/>
	<path class="st0" d="M42,21.4c-0.6-0.3-1.3,0-1.6,0.5l-3.5,7.4l-6.4-5.3c-0.3-0.3-1-0.3-1.4,0c-0.5,0.3-0.6,0.8-0.5,1.3l2.1,7.9
		l-8.2,0.3c-0.5,0-1,0.3-1.1,0.8c-0.2,0.5,0,1,0.5,1.3l6.7,4.7l-6.3,5.3c-0.3,0.3-0.5,0.8-0.3,1.3c0.2,0.5,0.6,0.8,1.1,0.8
		c0,0,0,0,0.2,0l9.8-0.8c0.6,0,1.1-0.6,1.1-1.3c0-0.6-0.6-1.1-1.3-1.1l-6.1,0.5l4.7-4c0.3-0.2,0.5-0.6,0.5-1c0-0.3-0.2-0.6-0.5-1
		l-5-3.5h6.1c0.3,0,0.6-0.2,1-0.5c0.2-0.3,0.3-0.6,0.2-1L32,28l4.8,3.9c0.3,0.2,0.6,0.3,1,0.2c0.3,0,0.6-0.3,0.8-0.6l4.2-8.8
		C42.8,22.3,42.6,21.5,42,21.4L42,21.4z"/>
</g>
</svg>
