<?xml version="1.0" encoding="utf-8"?>
<!-- Generator: Adobe Illustrator 22.1.0, SVG Export Plug-In . SVG Version: 6.00 Build 0)  -->
<svg version="1.1" id="Layer_1" xmlns="http://www.w3.org/2000/svg" xmlns:xlink="http://www.w3.org/1999/xlink" x="0px" y="0px"
	 width="60px" height="60px" viewBox="0 0 60 60" style="enable-background:new 0 0 60 60;" xml:space="preserve">
<style type="text/css">
	.st0{fill:#DFD4F8;}
</style>
<rect x="57" y="8" class="st0" width="3" height="44"/>
<g>
	<g>
		<path class="st0" d="M26.6,24.2c0.4,0.2,0.8-0.2,0.7-0.7c-0.9-2.9-4.4-4-7.5-1.4c-1.7,1.4-2.3,1.6-2.3,1.7
			c1.1,1.1,2.4,4.8,5.1,5.2c3,0.5,5.7-2.4,3.5-3.8c-1.4-0.9-3.1-1.4-4.9-1.4C23,23.3,24.9,23.5,26.6,24.2L26.6,24.2z M26.6,24.2"/>
		<path class="st0" d="M40.3,22.1c-5.5-4.4-9,2.6-6.8,1.9c1.5-0.5,3.2-0.6,4.9-0.2c-2.9,0-5.5,1.3-7.3,3.4c0.1-3.4,0.4-5.5,0.6-7
			c1.5-0.1,3.4-1.2,4.5-3.3c1.8-3.3,1-6.7,0.7-8.8c-1.4,1.4-7.7-0.2-10.2,4c-1.1,1.9-0.8,4.2,0.4,5.9c0.4,0.5,1.2,0.3,1.3-0.4
			c0.1-2.8,1.5-4.9,4.1-6.1c-1.2,1.5-1.9,3.2-2.3,5c-0.6,2.7-1.3,4.5-1.5,13.2c0,0.9,0.7,1.6,1.6,1.6c0.6,0,1.2-0.4,1.4-1
			c0.4-0.9,1-1.8,2-2.7c0.9,1,2.4,1.6,3.9,1.3c2.7-0.4,4-4.1,5.1-5.2C42.6,23.7,42,23.4,40.3,22.1L40.3,22.1z M40.3,22.1"/>
		<path class="st0" d="M48.3,32.9c-1.7-1.2-3.6-0.3-4.4,0.2L33.2,41l-6.3,0l-1.6-1.6h5.8c1.7,0,3.7-1.1,3.7-3.1
			c0-2.1-1.9-3.1-3.7-3.1h-2.2c-1.6,0-3.5,0.1-4.8-0.6c-1.3-0.6-2.7-1-4.3-1c-2.6,0-4.9,1-6.5,2.7l-8.5,8.3l9.4,9.4l3.1-4.7h14.8
			c1.6,0,3.1-0.6,4.3-1.6l11.8-10.5C49.1,34.5,49.1,33.4,48.3,32.9L48.3,32.9z M48.3,32.9"/>
	</g>
</g>
</svg>
