<?xml version="1.0" encoding="utf-8"?>
<!-- Generator: Adobe Illustrator 22.1.0, SVG Export Plug-In . SVG Version: 6.00 Build 0)  -->
<svg version="1.1" id="Layer_1" xmlns="http://www.w3.org/2000/svg" xmlns:xlink="http://www.w3.org/1999/xlink" x="0px" y="0px"
	 width="568.5px" height="396.7px" viewBox="0 0 568.5 396.7" style="enable-background:new 0 0 568.5 396.7;" xml:space="preserve"
	>
<style type="text/css">
	.st0{fill:#EEF2F9;}
	.st1{fill:#FCECDB;}
	.st2{fill:#FFF4EB;}
	.st3{fill:#FAE7D4;}
	.st4{fill:#F7DFC8;}
	.st5{fill:#EFCBAB;}
	.st6{fill:#F6DBC3;}
	.st7{fill:#599DAD;}
	.st8{fill:#6BB7BF;}
	.st9{fill:#86D1CD;}
	.st10{fill:#E0B594;}
	.st11{fill:#FFEBDC;}
	.st12{fill:#E6E6E6;}
	.st13{fill:#2C3A64;}
	.st14{fill:#ED985F;}
	.st15{fill:#233862;}
	.st16{fill:#163560;}
	.st17{fill:#B5453C;}
	.st18{fill:#F4A269;}
	.st19{fill:#FFB27D;}
	.st20{fill:#1C468A;}
	.st21{fill:#2B478B;}
	.st22{fill:#F99746;}
	.st23{fill:#ED7D2B;}
	.st24{fill:#C6601A;}
	.st25{fill:#F1A34F;}
	.st26{fill:#D3671E;}
	.st27{fill:#B25618;}
	.st28{opacity:0.4;fill:#D86713;enable-background:new    ;}
</style>
<polygon class="st0" points="536.5,0 35.5,0 35.5,74.4 273.4,74.4 286,94 298.6,74.4 536.5,74.4 "/>
<g>
	<path class="st1" d="M528.6,383.7c-1.1,3.1-2.5,6.1-4.1,9c-0.5,0.8-1,1.6-1.5,2.5H25.2c0,0-45.3-103.8,16.4-154.1
		c0.8-0.6,1.5-1.2,2.3-1.8c0.7-0.6,1.4-1.1,2.2-1.6c0.7-0.5,1.4-1,2.1-1.5c18.6-13.1,39-19.7,60.4-23.7c0.8-0.1,1.5-0.3,2.3-0.4
		c0.7-0.1,1.4-0.3,2.2-0.4c17.3-3,35.3-4.6,53.4-6.9c6.3-0.8,12.7-1.7,19-2.8c25.4-4.4,51-11.7,75.6-27.9c30.4-20,61.7-25,88.3-21.1
		c1.8,0.3,3.6,0.6,5.4,0.9c2.6,0.5,5.1,1.1,7.6,1.8c32,8.8,54.6,30.8,55.9,53.6c0.9,15.4,2.7,30.1,6.7,42.9
		c1.9,5.9,4.2,11.4,7.2,16.4c0.8,1.4,1.6,2.7,2.5,3.9c8.8,12.5,22.2,20.7,42.6,22.1c14.2,1,26.1,7.3,35.2,16.7
		c0.1,0.1,0.2,0.2,0.3,0.3C530.3,329.8,537.1,359.6,528.6,383.7z"/>
	<path class="st2" d="M528.6,383.7c-1.1,3.1-2.5,6.1-4.1,9H354.8V153.8c2.6,0.5,5.1,1.1,7.6,1.8c32,8.8,54.6,30.8,55.9,53.6
		c0.9,15.4,2.7,30.1,6.7,42.9c1.9,5.9,4.2,11.4,7.2,16.4c0.8,1.4,1.6,2.7,2.5,3.9c8.8,12.5,22.2,20.7,42.6,22.1
		c14.2,1,26.1,7.3,35.2,16.7c0.1,0.1,0.2,0.2,0.3,0.3C530.3,329.8,537.1,359.6,528.6,383.7z"/>
	<path class="st3" d="M278.4,329.5c-0.9-0.6-2.9-3-4.3-4.8c0.2-0.1,0.3-0.2,0.3-0.2c-4.1-11.2-7.4-20.4-10.2-27.9
		c0.3-0.6,0.6-1.4,0.9-2.7c1-5.2-4-7.1-4-7.1H261c3-22.6-4.2-24.1-4.2-24.1s-2.6-0.8-5.7-0.4c-1.1-2.3-3.2-3.7-6.7-3.9
		c-1.1-0.1-2.2,0.2-3.4,0.6c0.2-0.3,0.3-0.5,0.5-0.8c0.7-0.5,6.9-4.4,6.4-9.2c-0.1-0.9-0.3-1.7-0.6-2.2c-0.1-0.4-0.2-0.8-0.3-1.1
		c0.5-2.4,0.6-4.3,0-5.5c-1.1-2-3.3-3.5-4.9-4.3c0.7-0.1,1.6,0.2,1.6,0.2c-0.9-0.7-3.6-1.1-3.6-1.1c-9.9-12.5-25.1,3.7-27.8,7.9
		c-1.5,2.2-3.1,4.6-5.7,6.2c-1.4-0.7-2.4-1.4-2.9-1.8c-3.7-3.6-8.1-15.9-12.2-24l0,0l0,0c-0.5-1.4-3.9-6.7-3.9-6.7l0,0
		c0,0-2.2-1.8-8.1-3.9c0,0-0.5-0.2-1.3-0.5c-0.4-0.6,0.1-2.7,0.7-4.9c0.2-0.6,0.4-1.2,0.5-1.8c0.2-0.5,0.3-1,0.4-1.4
		c1.3,0.4,2.1,0.6,2.1,0.6c1.2,0.2,2.6-1,3.9-2.9c-6.4,1.1-12.7,2-19,2.8c-1.2,2-2.5,3.2-3.4,3.6c-0.9-0.1-1.9-0.2-2.9-0.2
		c0,0-6.4-0.8-10.2,0.5c-0.1,0-0.2,0-0.3,0.1c0,0-2.1,0.5-3.6,3.4c-0.8,1.5-1.3,3.6-1.4,6.5l0,0l0,0c0,0.5,0,1,0,1.5
		c0.1,1.5,0.4,3.4,0.9,5.4c0,3.7,0.1,8.8-0.5,14.1c-0.2,1.7-0.8,3.3-1.8,4.7c-0.4,0.6-0.8,1.1-1.3,1.6c-3.9,4-11,11.9-9.4,16.8
		c0,0.4,0.3,0.8,0.9,1.2c-2.1,3.3-4.5,9-3.9,17.5c0.5,7.3,1.4,38.1,2.4,47.2c0.3,3.3,0.7,5.7,0.8,6.6l0,0c0,0.3-0.1,0.6-0.2,0.8
		c-1.4,2.2-2.6,4.4-3.6,6.7c-6.1,14.5-3.7,31.1-1.3,41.2l-0.1-0.1c0.4,2.7-1.3,3.7-2.5,5.9c-1.2,2.3-0.6,5.4-0.6,5.4H147
		c-0.5-3.8-7-3.5-8.5-4.4c-1.3-0.9-3.5-3.9-3.9-4.5h-0.1c2.1-9.6,6.4-28.8,10.1-38.8c0.9-2.3,1.7-4.1,2.4-5.2
		c2.2-3.2,4.2-8.4,6.1-14.5c0.3-0.9,0.5-1.8,0.8-2.7c0.2,1.3,0.5,2.4,0.7,3.5s0.4,2.1,0.6,2.9c0.3,1.7,0.5,2.7,0.5,2.7
		c-0.9,3.4-1.1,7-0.6,10.8c1.7,15.4,12.5,32.3,18.2,40.3c0.5,0.9,0.9,1.7,0.9,2.5c0,0.6-0.2,1.3-0.8,2.1c-1.5,2.2-0.6,5.4-0.6,5.4
		h22.4c-0.5-3.8-7-3.5-8.5-4.4c-1.3-0.8-5.4-5-6.4-6l0,0c-2-8-6.4-27-7.1-40.4c-0.2-3.8-0.1-7.1,0.4-9.5c0.7-3.3,1.3-6.5,1.7-9.6
		c1.7-12.1,1.7-22.7,0.9-31.3c-0.2-2.8-0.6-5.4-0.9-7.7c-0.9-7.9-1.8-13-2.5-16.3c1.9-0.3,2.9-0.8,2.8-1.7c0,0,0.5-2,1.2-5.1
		c0.8,0.2,1.5,0.4,2.3,0.5c-0.8,4.3-0.1,8.8,1.4,12.1c0.1,0.1,9.1,14.4,9.1,14.4c0.2-0.3,0.5-0.6,0.8-1c-0.6,6-0.9,10.9-1.9,12.2
		c-2.6,3.5-17,28.1,5.1,31.6c2.8,0.5,6.2,0.8,10.4,0.8c0.7,0,1.5,0,2.2-0.1c1.3,0.1,2.6,0.1,4.1,0.1c11.3-0.1,18.2-4.7,21.3-8.9
		c0.8-1.1,3.9-6.2,7.6-13c-0.1,6.8-0.2,11.8-0.2,11.8c-0.1,1,0.3,1.7,1,2.2c-0.4,0.9-1,1.7-1.4,2.5c-1.2,2.3-0.6,5.4-0.6,5.4h22.4
		c-0.5-3.8-7.1-3.4-8.5-4.4c-0.9-0.7-1.6-1.4-2-2.2c0.4,0,0.6-0.1,0.6-0.1c1.6-4.7,3-9.1,4.1-13.2c4.5,6.8,8.3,11.9,8.3,11.9
		c0.5,1,1.3,1.5,2.3,1.6c-0.1,0.3-0.2,0.6-0.3,0.9c-1.2,2.3-0.6,5.4-0.6,5.4l22.4,1.6C286.4,331.7,279.8,330.5,278.4,329.5z
		 M182.7,256.1c-1.2-0.7-2.4-1.3-3.6-2c1.2-4.5,2.5-9.4,3.8-13.5c2.7,4,6,7.9,9.1,11C187.8,252.2,184.8,253.9,182.7,256.1z"/>
	<g>
		<path class="st4" d="M528.6,383.7c-1.4,4-3.3,7.9-5.6,11.5H362.4l0,0h-11.2v-145h19.2v-39.8h19.2v53.8h15.5v-12H425
			c1.9,5.9,4.2,11.4,7.2,16.4v3.9h2.5c8.8,12.5,22.2,20.7,42.6,22.1c14.2,1,26.1,7.3,35.2,16.7c0.1,0.1,0.2,0.2,0.3,0.3
			C530.3,329.8,537.1,359.6,528.6,383.7z"/>
		<g>
			<path class="st5" d="M362.4,155.6v239.5h-13V152.9C353.9,153.6,358.2,154.5,362.4,155.6z"/>
			<path class="st5" d="M351.2,395.2h11.2l0,0H523c2.3-3.6,4.2-7.5,5.6-11.5H362.4h-11.2h-1.8h-2.8v11.5H351.2z"/>
		</g>
	</g>
	<path class="st6" d="M137.8,295.6c-2.6-10-18.7-6.9-18.7-6.9s-10.9,17.5-14.1,17.9s6.6-16.9,6.6-16.9c-6.2-0.6-21.9,7.3-21.9,7.3
		s1,20.4-2.2,20s0-18.1,0-18.1c-6,1.9-11.5,9.2-11.5,9.2c-7,11.9,7.9,20.6,7.9,20.6s0.2,7.1-4,15.2c0,0-5.2,8.3-3.6,19.1h-4.6
		c0.9-7.8-2.8-13.7-2.8-13.7c-3.2-6.2-3-11.5-3-11.5s11.3-6.6,6-15.6c0,0-4.2-5.5-8.7-6.9c0,0,2.4,13.4,0,13.7
		c-2.4,0.3-1.7-15.2-1.7-15.2s-11.9-6-16.6-5.5c0,0,7.4,13.1,5,12.8s-10.7-13.6-10.7-13.6S27,305.1,25,312.7s1.2,11.4,3,11.8
		c1.8,0.5,13.4,0.3,13.1,1.9c-0.3,1.6-8.1,4.1-12.5,2.7c0,0,4.8,12.5,11.2,11.8c6.3-0.6,8.3-4.7,12.2-5.1c3.9-0.3,6.8,0.8,4.8,1.9
		s-8.6,0.4-11.8,3.2c-3.2,2.8-5.7,4.6,0.2,5.8c5.9,1.3,16.4,0.5,18.5-4.3c0.1-0.2,0.2-0.4,0.3-0.6c-0.1,0.4-0.3,0.6-0.3,0.6
		c1.1,0.7,2.7,3.8,3.8,6.2c0.2,0.4,0.4,1,0.8,1.8l0,0c0.2,0.4,0.3,0.6,0.4,0.8c1.3,3.4,1.4,8.4,1.2,11.6h-5h-7.3h-4.5v0.9h1
		c0.4,12.4,7.8,23,18.3,27.4h-15c-2,0-3.6,1.7-3.6,3.8l0,0H113l0,0c0-2.1-1.6-3.8-3.6-3.8h-15c10.4-4.4,17.9-15,18.3-27.4h0.7V363
		H82.2c0.7-1.6,1.6-3.2,2.6-4.4c0.1-0.1,0.3-0.3,0.5-0.6c0.5-0.5,0.9-0.9,1.1-1.1c1.6-1.6,3.7-3.6,4.8-3.8c0,0-0.1-0.2,0-0.5
		c0,0.2,0,0.4,0,0.5c0.4,4.4,8.5,8.2,13.5,9s3.5-1.4,1.7-4.6c-1.7-3.2-7.2-4.6-8.4-6.1c-1.2-1.5,1.3-1.5,4.3,0
		c3,1.4,3.4,5.3,8.3,7.7c4.8,2.4,12.1-6,12.1-6c-3.9-0.2-9.4-4.6-9.2-5.9c0.2-1.3,9.3,2.3,10.9,2.5s5.1-1.9,5.7-8.5
		s-9.8-8.4-9.8-8.4s-2.4,1.9-5.1,3.7c-0.5-0.7-1.4-1.5-2.4-2.4c0.9-0.8,1.7-1.5,2.2-2c1,0.3,2.1,0.5,3.3,0.6
		c8.3,0.8,14.7-15.6,14.7-15.6c-5.8,1.9-16.1-1.5-16.5-3.5c-0.4-2.1,14.9-1.9,17.3-2.5C136.2,310.6,140.4,305.6,137.8,295.6z
		 M95.4,342.6c-0.5-0.3-0.4-1.1-0.1-2.2c0.7,0.2,1.3,0.3,2,0.4C96.6,342,95.9,342.8,95.4,342.6z M85.2,356.9c0,0-2.7,2.1-4.6,6.1h-2
		c-0.2-4.1-0.3-11.5,1.5-16.4c0.1-0.3,0.3-0.6,0.5-1.1l0,0c0.5-1,0.8-1.8,1-2.3c1.5-3.2,3.6-7.4,5.1-8.2c0,0-0.2-0.3-0.3-0.8
		c0.1,0.3,0.2,0.5,0.3,0.8c0.4,0.8,0.9,1.5,1.6,2.1c-2.7,5.3,2.5,11.7,2.5,11.7S89.4,353,85.2,356.9z M107.2,330.7
		c-4.3-1.2-9.4-1-11.3-2.1c-2.6-1.5,1.2-2.9,6.4-2.5c3.5,0.3,5.8,2.8,9.5,4.7C110.2,330.7,108.7,330.7,107.2,330.7z"/>
	<g>
		<g>
			<path class="st7" d="M112.5,343.7c0,0-8.3-9.6-0.5-15.7c0,0,5.7-3.4,10.3-3.1c0,0-6.5,11-4.4,12c2.1,1.1,6.4-12.7,6.4-12.7
				s12.9-1.2,17,0.7c0,0-11,9-8.7,9.5s14.2-8.3,14.2-8.3s12,2,11.3,9.3c-0.6,7.3-4.8,9.6-6.6,9.4s-12.4-4.2-12.7-2.8
				c-0.2,1.5,6.2,6.3,10.6,6.6c0,0-8.4,9.3-14.1,6.6c-5.6-2.7-6.1-6.9-9.6-8.5c-3.5-1.6-6.5-1.6-5,0c1.4,1.6,7.8,3.2,9.8,6.8
				c2,3.5,3.8,5.9-2,5.1c-5.8-0.9-15.2-5.1-15.7-10C112.5,343.7,112.5,343.7,112.5,343.7z"/>
			<g>
				<path class="st7" d="M152.2,335.7c0,0-32.5-1.3-39.7,8.1c0,0-1.6,4.8-6.5,9.1l-0.8,2.1c0,0,5.6-5.9,7.7-6.3
					C112.9,348.6,109.8,337,152.2,335.7z"/>
				<path class="st7" d="M106,352.8c0,0-7,5.2-7.5,14.4l1.3,0.1c0,0,2.2-9.5,6.3-13.3C110.1,350.3,106,352.8,106,352.8z"/>
			</g>
		</g>
		<g>
			<path class="st8" d="M83.6,331.6c0,0,13.1-7.4,7-17.3c0,0-4.9-6.1-10.2-7.7c0,0,2.8,14.9,0,15.2c-2.8,0.4-1.9-16.8-1.9-16.8
				s-13.8-6.7-19.3-6.1c0,0,8.6,14.5,5.8,14.2c-2.8-0.4-12.4-15.1-12.4-15.1s-14.2-2.6-16.5,5.8s1.4,12.6,3.5,13.1
				s15.6,0.3,15.2,2.1c-0.4,1.8-9.5,4.6-14.5,3c0,0,5.6,13.8,13,13.1c7.4-0.7,9.6-5.3,14.2-5.6c4.6-0.4,7.9,0.9,5.6,2.1
				s-10,0.4-13.7,3.5s-6.7,5.1,0.2,6.5c6.8,1.4,19.1,0.5,21.5-4.7C83.6,331.6,83.6,331.6,83.6,331.6z"/>
			<g>
				<path class="st8" d="M42.7,306.4c0,0,36.8,11.9,41,25.2c0,0-0.2,6,3.5,12.8v2.6c0,0-3.9-8.9-6-10.2
					C81.2,336.8,89.4,325.3,42.7,306.4z"/>
				<path class="st8" d="M87.1,344.4c0,0,5.7,8.6,2.4,19.1l-1.5-0.4c0,0,1.4-11.5-1.5-17.3C83.6,339.9,87.1,344.4,87.1,344.4z"/>
			</g>
		</g>
		<g>
			<path class="st9" d="M104.5,321.5c0,0-17.3-9.7-9.2-22.8c0,0,6.5-8.1,13.4-10.2c0,0-3.7,19.6,0,20.1s2.5-22.1,2.5-22.1
				s18.2-8.8,25.4-8.1c0,0-11.3,19.1-7.6,18.7c3.7-0.5,16.4-19.8,16.4-19.8s18.7-3.5,21.7,7.6s-1.8,16.6-4.6,17.3
				c-2.8,0.7-20.5,0.5-20.1,2.8c0.5,2.3,12.5,6,19.1,3.9c0,0-7.4,18.2-17.1,17.3c-9.7-0.9-12.7-6.9-18.7-7.4s-10.4,1.2-7.4,2.8
				c3,1.6,13.2,0.5,18,4.6s8.8,6.7-0.2,8.5s-25.1,0.7-28.4-6.2C104.5,321.5,104.5,321.5,104.5,321.5z"/>
			<g>
				<path class="st8" d="M158.5,288.2c0,0-48.5,15.7-54,33.2c0,0,0.2,7.8-4.6,16.8v3.5c0,0,5.1-11.8,7.8-13.4
					C107.8,328.4,96.9,313.2,158.5,288.2z"/>
				<path class="st8" d="M99.9,338.3c0,0-7.5,11.3-3.2,25.2l1.9-0.5c0,0-1.9-15.2,2-22.9C104.6,332.4,99.9,338.3,99.9,338.3z"/>
			</g>
		</g>
		<path class="st10" d="M103.9,393.4c18.7,0,33.9-15.2,33.9-33.9H70C70,378.2,85.2,393.4,103.9,393.4z"/>
		<path class="st11" d="M112.3,393.2c-1.4,0.2-2.8,0.3-4.2,0.3c-18.7,0-33.9-15.2-33.9-33.9h8.4C82.6,376.8,95.5,391.1,112.3,393.2z
			"/>
		<path class="st10" d="M138.3,395.1H69.6l0,0c0-2.3,1.9-4.2,4.2-4.2h60.4C136.4,391,138.3,392.8,138.3,395.1L138.3,395.1z"/>
		<rect x="68.9" y="359.5" class="st10" width="69.7" height="1"/>
	</g>
	<path class="st12" d="M567.8,396.7H0.8c-0.4,0-0.8-0.3-0.8-0.8l0,0c0-0.4,0.3-0.8,0.8-0.8h567c0.4,0,0.8,0.3,0.8,0.8l0,0
		C568.5,396.3,568.2,396.7,567.8,396.7z"/>
	<g>
		<path class="st13" d="M235.3,132.4c0-0.6-0.5-7.6-11.1-7.9c0,0,5.2,0.6,6.1,2.9c0,0-3.5-2.8-6.4-1.9s-4.6,6-4.6,7.6
			c0,1.7,1.6,7,3.4,7.5c0.7,0.2,1.5,0.1,2.2,0c-0.5,0.8-1,1.6-1.4,2.5c-4.2,8.6,0.1,17.1,3.7,16.2c2.3-0.6,2.9,3.3,2.9,3.3l22.2-18
			C252.3,144.5,244.2,127.7,235.3,132.4z"/>
		<path class="st14" d="M297.3,232.3c-1.1-1.1-7.5-0.8-7.5-0.8s-3.6-1.4-8-3.4c-6.1-2.7-13.8-6.4-15.5-8.2
			c-3.9-4.3-8.6-18.8-13-28.4c-0.4-0.9-0.8-1.8-1.2-2.6c0-0.1-0.1-0.2-0.1-0.3c-0.2-0.4-0.4-0.8-0.6-1.1c0,0,0-0.1-0.1-0.1
			c-0.8-1.6-1.7-2.8-2.5-3.6l0,0c-1-1-1.9-1.5-2.8-1.1c0,0-1.7,0.9-3.4,2.9c-0.2,0.2-0.4,0.4-0.5,0.6c-1,1.3-2,3.1-2.6,5.3
			c-0.5,1.7-0.7,3.6-0.6,5.9c0.1,3.7,2,8.3,4.6,12.9c0.1,0.2,0.2,0.4,0.4,0.6c5,8.8,12.7,17.5,17.4,20.4c3.1,1.9,10.8,3,17.3,3.7
			c4.3,0.5,8.1,0.7,9.7,0.8c0.7,0.8,5.6,6.4,7.5,4.8C297.9,238.8,298.4,233.4,297.3,232.3z"/>
		<path class="st15" d="M354.8,324.5l-23.8-1.9c0,0-0.6-3.6,0.7-6.4c1.2-2.6-0.4-4.5-2.1-7.7c1.5,1.6,6.7,1.3,10.2,0.9
			c0.4,0.7,4.7,7,6.1,8C347.4,318.5,354.3,320,354.8,324.5z"/>
		<path class="st15" d="M326.9,322.6h-23.8c0,0-0.6-3.6,0.7-6.4c1.2-2.6,3.3-5.5,1.6-8.6c1.5,1.6,6.3,1.4,9.7,0.9
			c0.4,0.7-1.6,5.1,2.8,8.8C319.4,318.6,326.4,318.1,326.9,322.6z"/>
		<path class="st16" d="M322.9,238.1c0,0-7.9-3.2-18.7,7.8c-20.7,16.8-47.4,59.5-49.9,62.5c-5,6-1.1,14.4,19.4,14.2
			c12-0.1,19.3-5.6,22.6-10.6c0.9-1.3,4.1-7.3,8-15.4c-0.1,8.1-0.2,13.9-0.2,13.9c-0.6,5.7,12.3,4.2,12.3,4.2
			C338.3,241.7,322.9,238.1,322.9,238.1z"/>
		<path class="st17" d="M312.3,211.5c-1.2-2.4-3.5-4.1-5.2-5.1c0.7-0.2,1.6,0.2,1.6,0.2c-0.9-0.8-3.8-1.3-3.8-1.3
			c-10.4-14.9-26.5,4.4-29.5,9.4c-2.9,5-6.6,10.6-16.5,10.2c-19.5-0.8-20.8,18.9-16.8,28.9c0.1,0.1,9.6,17.1,9.6,17.1
			c2.3-4.1,22.5-21.6,36-21.5c4.5-1.8,9.3-7.2,9.7-7.6c-3.5,4.4-6.1,6.5-7.8,7.5C302.5,247.3,315.5,217.9,312.3,211.5z"/>
		<path class="st18" d="M288.6,249.4c0,0.1-1.8,6.7-7.2,3.8c-3.5-1.9-9.2-10.1-7-12.9c1-1.3,5.6-3.8,10.4-12.3l0.6,0.5l9.7,8.4
			c0,0-2.2,3.3-4,6.5C289.4,246.1,288.1,248.7,288.6,249.4z"/>
		<path class="st17" d="M285,226.4c0,0,0.2-6.9,2.2-11.5c1.4-3.3,10.3-13.2,20.2-4.3c0,0,3,2.4,4.6,6.5c1.3,3.2,2.4,9-7.8,15.9
			l-3.2,2.5L285,226.4z"/>
		<path class="st8" d="M272,236.7c0,0,3.5,0.7,5-1.3s4.8-6.3,5.5-3.8c0.8,2.4,8,9.5,9.6,9.7c1.7,0.2,2.8,0.7,1.9,1.5
			c-0.9,0.9-0.5,4.3-1.5,4.6C291.7,247.7,274.2,236.5,272,236.7z"/>
		<path class="st19" d="M294.4,241.5c0,0-13.9-9-8.2-17.6c5.7-8.6,7.8-15.5,16.9-10.1s8.7,9.8,7.4,13.1
			C309.3,230.3,298.1,243.6,294.4,241.5z"/>
		<path class="st8" d="M295,248.5c0,0-23.6-17.4-31.8-10.8c-12.2,9.7-9.7,42.3-12.6,46.5c-2.8,4.2-18.8,34.7,7.2,37.8
			c25.9,3.1,31.9-13.2,33.1-25.5C292,284.2,295,248.5,295,248.5z"/>
		<path class="st7" d="M264,248.3c0,0-6.8,37.5,6.7,47.8C284.1,306.3,290.9,247.1,264,248.3z"/>
		<path class="st7" d="M277.6,242.3c0,0,0.3-4.4,4.1-2.7c3.9,1.7,11,4.2,13.8,3.2s-4.5,12.8-11.1,8.2
			C277.8,246.3,277.6,242.3,277.6,242.3z"/>
		<path class="st17" d="M309.5,217.8c0,0-10.5,7.5-17.3,5.1s-8.3-5.6-8.3-5.6s6.8-0.6,11.9-6.1C295.8,211.2,309.9,211.1,309.5,217.8
			z"/>
		<path class="st19" d="M327.5,266.7c0,0,5.3,2.3,4.3,8.4c-1.1,6.1-3.2,4.1-3.2,4.1L327.5,266.7z"/>
		<path class="st17" d="M308,218c0,0,1.3,4.1,0.5,6.8c-0.8,2.6-3.5,7.4-2.1,8.1c0,0,7.4-4.9,6.8-10.9C312.7,215.5,308,218,308,218z"
			/>
		<path class="st20" d="M247.7,308.4c3.1-3.8,44.7-76.4,62-75.4c26,1.5-19.5,74-22.6,78.8c-3.3,4.9-8,10.7-20,10.8
			C246.6,322.8,242.7,314.4,247.7,308.4z"/>
		<path class="st20" d="M317,238.1c0,0,1,1,24.6,73.3c0,0-9.8,7.1-12,1.8c0,0-31.7-47.6-24.2-56C312.8,248.8,317,238.1,317,238.1z"
			/>
		<path class="st14" d="M262.1,240.3c0,0-6.2,9.6,13.1,18.4c19.3,8.8,21.6,11,25.4,11.7c5.9,1.2,28.4,1.1,28.4,1.1s0.6-3.6-1.5-4.8
			c-3.3-1.9-22.5-5.1-25.1-6.1C299.8,259.6,272.2,229.9,262.1,240.3z"/>
		<path class="st21" d="M243,387.2l-4.7,1.8c0,0-20.5-28.4-23-53.5c-0.5-4.5-0.3-8.8,0.7-12.8c0,0-0.2-1.1-0.6-3.2
			c-0.2-0.9-0.4-2.1-0.6-3.4c-0.7-3.8-1.6-9-2.6-15c-2.4-13.7-5.5-31.2-8-44.1l1.3-0.4l13.8-4.4l2.8-9l10.2-2.7
			c0,0,2.3,4.5,4.3,25.6c0.4,2.8,0.7,5.8,1,9.2c0.8,10.1,0.9,22.7-1,37.1c-0.5,3.7-1.1,7.5-1.8,11.4c-0.5,2.9-0.6,6.8-0.4,11.2
			C235.5,355.4,243,387.2,243,387.2z"/>
		<path class="st15" d="M237.6,275.3l-22.3,44.2c-0.2-0.9-0.4-2.1-0.6-3.4c-0.7-3.8-1.6-9-2.6-15c-2.4-13.7-5.5-31.2-8-44.1l1.3-0.4
			l13.8-4.4l2.8-9l10.2-2.7c0,0,2.3,4.5,4.3,25.6C237,268.9,237.4,272,237.6,275.3z"/>
		<path class="st21" d="M227.8,246.2l-0.5-4.4c-8.6,2.3-31.7-6.4-31.7-6.4s-8.4,7.4-7.3,25c0.5,8.6,1.5,45.1,2.5,56
			c0.4,3.9,0.7,6.7,0.8,7.8l0,0c0,0.3-0.1,0.7-0.3,1c-1.5,2.6-2.8,5.2-3.8,7.9c-10,26.7,1.5,59.7,1.5,59.7l3-1.2
			c0,0,6.6-36.6,11.9-52.8c0.9-2.7,1.8-4.9,2.6-6.2c2.3-3.8,4.5-9.9,6.4-17.2c3.7-13.8,6.7-31.8,8.7-45.6
			C222.2,269.6,227.8,246.2,227.8,246.2z"/>
		<path class="st19" d="M244.3,192.6c-2.7,1.3-6,2.1-9.9,2.3c-14.8,0.8-18.2-12.2-18.8-20.8c2.1-0.8,4-0.7,5.1-0.6
			c1.1,0.1,2.2,0.2,3.1,0.3c1.8-0.9,5.1-5.6,7-13.3l0.6,0.3l10.7,5c0,0-1.1,3.5-2,6.8c-0.7,2.6-1.1,5.1-0.7,5.8
			c0.8,0.3,1.3,0.6,1.3,0.6l0,0C240.8,179.3,243.1,185.2,244.3,192.6z"/>
		<path class="st14" d="M242,165.8c0,0-1.1,3.5-2,6.8c-6.3-1.7-8.2-8.3-8.7-11.9L242,165.8z"/>
		<path class="st19" d="M243.3,169.5c0,0-15-3.5-12.7-12.8s1.9-16,11.6-14.2c9.7,1.8,10.6,5.8,10.6,9.1
			C252.8,155,247.3,170.2,243.3,169.5z"/>
		<path class="st8" d="M267.5,236.2c0,0,9.9,0.4,30.5,19.4c0,0,3.2,3.8,4.7,4.1c1.6,0.3,5.8,1.4,5.9,2.5s-5.2,14.6-12,15
			s-38.5-22.9-36.3-30.8C262.6,238.5,267.5,236.2,267.5,236.2z"/>
		<path class="st13" d="M253.7,146.4c-1.6-3.4-3.5-3.2-4.7-2.6c-7-6.5-13.9-1.2-13.9-1.2c-2.7,6.4-8.4,9-8.4,9s2.3,2.4,9,2.3
			c2,0,4.1-1,5.9-2.2c-3.6,3.6-7.8,5.8-7.8,5.8c8.3-1.6,13.9-11.3,14.5-12.3c0.7,1,2.1,3.3,2.2,5.1c0.2,2.6-0.7,7.5,0.7,7.7
			C251.2,158.1,256.1,151.5,253.7,146.4z"/>
		<path class="st22" d="M253.4,191.5c-0.5-1.6-4.1-7.9-4.1-7.9l0,0c0,0-2.3-2.1-8.6-4.6l0,0c0.1,0.4,2.8,10.2,1.8,12.2
			c-1,2.1-20-4.7-21-6.3c-0.8-1.3-0.9-7.9-0.8-10.5c0-0.6,0-1,0-1s-7.1-1-11.1,0.7c0,0,1.6,3.4,2.2,7.2c0.1,0.4,0.1,0.7,0.1,1.1
			c0.1,0.8,0.1,1.5,0.1,2.3c-0.1,1-0.6,1.8-1.4,2.7c-0.7,0.8-1.7,1.5-2.9,2.4c-0.7,0.5-1.5,1.1-2.3,1.7l0,0
			c-0.1,4.4,0.2,11.7-0.6,19.5c-0.2,2-0.9,3.9-1.9,5.5c-0.4,0.7-0.9,1.3-1.4,1.9c-4.2,4.7-11.6,14-10,19.9
			c0.1,5.5,46.4,12.7,45.4,6.7c0,0,7-33.5,10.7-41.6c0.1-0.3,0.3-0.6,0.4-0.9c1.2-3.2,1-6.5,0.6-9.4
			C250.7,191.4,253.4,191.5,253.4,191.5z"/>
		<path class="st23" d="M224.5,233.6c-9.1-0.1-16.9-9.6-21.6-17.2c1-1.7,1.7-3.6,1.9-5.5c0.8-7.8,0.5-15.1,0.6-19.5l0,0
			c0.8-0.6,1.6-1.2,2.3-1.7c1.1-0.8,2.1-1.6,2.9-2.4C218,200,236.9,233.7,224.5,233.6z"/>
		<path class="st19" d="M275.4,240.7c0,0-5.9-4.3-9.5-3.4c-3.1,0.7-9.9-0.7-11.2-1c-1.6-0.9-3.5-1.9-5.5-3c-4.8-2.7-10.4-6-14.1-8.8
			c-2.2-1.6-3.8-3-4.4-4c-0.9-1.5-1.9-4-3-7c-0.6-1.6-1.2-3.3-1.8-5.1c-1.1-3-2.1-6.3-3.3-9.5c-2-5.9-4.1-11.9-6.2-16.5
			c-1.3-2.9-2.6-5.3-3.8-6.8c-1-1.2-1.9-1.8-2.8-1.6c-0.1,0-0.3,0.1-0.4,0.1c0,0-5.1,1.4-5.2,11.8c0,0.6,0,1.2,0,1.8
			c0.1,1.8,0.4,4,1,6.5c0.9,4.1,2.3,8.8,4.1,13.6c0.5,1.3,1,2.6,1.5,3.9c3.9,9.6,8.8,18.5,13,21.5c0.2,0.1,0.3,0.3,0.5,0.4
			c1.8,1.1,4.3,2.2,7.3,3.3c4.2,1.4,9.2,2.7,13.7,3.8l0,0c2.6,0.6,5,1.1,7,1.5c0,0,0.4,0.1,1.2,0.2c1.9,0.5,5.8,1.5,9.5,2.9
			c5.1,2,8.4-1.3,10.6-2.3C276.1,242.1,275.4,240.7,275.4,240.7z"/>
		<path class="st22" d="M216.5,182.4c-6.9-1.9-12.2,3.5-12.2,3.5c0.1-10.3,5.2-11.8,5.2-11.8C211.7,173.3,214.1,176.8,216.5,182.4z"
			/>
		<path class="st15" d="M206.7,395.1h-23.8c0,0-0.6-3.6,0.7-6.4c1.2-2.6,3.1-3.8,2.6-7c1.5,1.6,4,3.3,7.4,2.8
			c0.4,0.7,2.7,4.3,4.1,5.3C199.3,391,206.2,390.6,206.7,395.1z"/>
		<path class="st15" d="M257.8,395.1H234c0,0-0.9-3.8,0.7-6.4c1.4-2.3,0.9-3.6-0.2-5.5c1.1,0.4,2.5,0.8,4,0.8
			c1.2-0.1,2.4-0.6,3.5-1.2c1,1.2,5.4,6.1,6.8,7.1C250.4,391,257.3,390.6,257.8,395.1z"/>
	</g>
	<g>
		<rect x="227.9" y="325" class="st24" width="87" height="70.1"/>
		<rect x="279.7" y="325" class="st25" width="78.7" height="70.1"/>
		<g>
			<path class="st26" d="M294.2,337.1c-0.8,0-1.4,0.6-1.4,1.4s0.6,1.4,1.4,1.4s1.4-0.6,1.4-1.4S295,337.1,294.2,337.1z"/>
			<path class="st26" d="M345.8,338.5c0-0.8,0.6-1.4,1.4-1.4s1.4,0.6,1.4,1.4s-0.6,1.4-1.4,1.4S345.8,339.3,345.8,338.5z"/>
			<path class="st26" d="M294.2,381.3c-0.8,0-1.4,0.6-1.4,1.4s0.6,1.4,1.4,1.4s1.4-0.6,1.4-1.4C295.7,381.9,295,381.3,294.2,381.3z"
				/>
			<path class="st26" d="M345.8,382.7c0-0.8,0.6-1.4,1.4-1.4s1.4,0.6,1.4,1.4s-0.6,1.4-1.4,1.4S345.8,383.4,345.8,382.7z"/>
		</g>
		<g>
			<path class="st27" d="M236.1,338.5c0-0.8,0.4-1.4,0.9-1.4s0.9,0.6,0.9,1.4s-0.4,1.4-0.9,1.4S236.1,339.3,236.1,338.5z"/>
			<path class="st27" d="M268.9,338.5c0-0.8,0.4-1.4,0.9-1.4s0.9,0.6,0.9,1.4s-0.4,1.4-0.9,1.4S268.9,339.3,268.9,338.5z"/>
			<path class="st27" d="M236.1,382.7c0-0.8,0.4-1.4,0.9-1.4s0.9,0.6,0.9,1.4s-0.4,1.4-0.9,1.4S236.1,383.4,236.1,382.7z"/>
			<path class="st27" d="M268.9,382.7c0-0.8,0.4-1.4,0.9-1.4s0.9,0.6,0.9,1.4s-0.4,1.4-0.9,1.4S268.9,383.4,268.9,382.7z"/>
		</g>
		<path class="st26" d="M227.9,325.1c0,0,11.8-10.9,19.6-7.6c10.3,4.4,34.6,3.2,40.7,2c6.1-1.1,54,2.2,70.2,5.4L227.9,325.1z"/>
		<path class="st28" d="M358.4,376.7v18.4h-78.7V325h13.2l0.3,0.1C293.2,325.1,300.2,372.7,358.4,376.7z"/>
	</g>
	<g>
		<path class="st16" d="M377.6,333.7c0,0-16-2.3-16.9-4.9c0,0,1.1-2.3-0.6-2.9c-0.5-0.2-1.3-0.5-1.6,0v4.8c0,0,1.7,1.7,2.7,3
			c0.5,0.7,10.9,5.1,10.9,5.1L377.6,333.7z"/>
		<path class="st16" d="M410.6,368.7c1.5-2.2-0.1-17.7-11-13c-2.3,0.7-5.1,2.4-8.5,5.4c0,0-4.8,11.3,14.1,18.8c0,0,1.9,0.8,2.1,2.5
			c0.3,1.7,0.6,9.5-0.1,9.7c-0.6,0.2-1.6-0.7-2.3,0.3c-0.7,1-0.4,2.6-0.4,2.6h6.9c0,0,3.3-17.5,3.1-18.9
			C414.4,374.9,408.8,371.3,410.6,368.7z"/>
		<path class="st15" d="M383.6,305.4c0,0,3.6,7.6,1.6,9.9l-5.7-4.5C379.6,310.7,379.6,308.5,383.6,305.4z"/>
		<path class="st21" d="M422.6,346.5c-1.5-2.7-3.7-7.2-0.8-9c2.5-1.6,1.5-4.8,0.1-5.6c-3-1.6-6.1,0.4-7.6,2.5
			c-2.8,3.9,0.9,9.9,0.9,9.9c3.5,7.5-3.7,11.4-7.1,12.7c-2-2.9-4-5.1-5.8-6.8c-1.2-1.1-2.3-2-3.2-2.8c-9.7-8.3-7.3-11.3-9.6-15
			c-0.5-0.7-2.2-2.7-2.7-3.4c-0.5-0.6-0.6-2.9-0.7-4.9c1.1-0.9,1.2-2,1.2-2c0.1,0.4,0,0.9,0,0.9c1.1-0.9,0.9-3,0.9-3
			c0.2,0.3,0.3,1,0.3,1c0.6-3.3-1.5-6-1.5-6c0.4-3.1-2.2-8.5-2.2-8.5c-1.9,1.4-2.9,2.7-3.4,3.6c-1.8-0.5-3.8-0.5-6,1.6
			c-0.7,0.7-2.6,1.2-3.6,1.1c-0.5-0.1-1.7,2.5-1.7,2.8c-0.5,3.9,0.7,5.8,2.9,7.8c0.3,0.9,0.5,2,0,2.8c0,0,0.5-0.2,0.5-0.3
			c0,0.2-0.3,1.4-1,2c0,0,0.3,0,0.4-0.1c-0.6,0.7-2.8,3.8-2.8,7.5c-4.6,0-9.1-0.2-9.5-1.4c0,0,1-2-0.6-2.9c-0.4-0.3-1.2-0.4-1.8-0.4
			l-0.1,5.3c0,0,2,1.5,3,2.9c0.3,0.5,6.8,3.4,11.7,5.5c2.8,12.3,11.9,19.4,14.9,21.4c0.4,3.7,2.7,8.6,9,14.3c0,0,1.5,1.4,1.1,3.1
			s-2.7,9.1-3.4,9.1c-0.7,0-3-1-4-0.3s0.4,3.3,0.4,3.3h1.4h4.1h1.4c0,0,8.6-14.1,8.9-15.5s-3.7-6.7-1.1-8.5c1.1-0.8,2.6-5.1,2.3-9
			C411.6,360.9,427.3,354.9,422.6,346.5z"/>
		<path class="st16" d="M371.7,312.7c0,0,0.3-0.2,0.7-0.1c0,0-0.1,1.3-1.3,1.4C371,314,371.4,312.9,371.7,312.7z"/>
		<g>
			<path class="st16" d="M374,315.6c0,0,4.8,1.8,8.1,5.7l0,0C378.7,317.3,374.1,315.5,374,315.6L374,315.6z"/>
		</g>
		<g>
			<path class="st16" d="M373.6,315.9c0.1,0,5,3.4,7.8,8.8l0,0c-2.9-5.5-7.6-9-7.7-9L373.6,315.9z"/>
		</g>
		<g>
			<path class="st16" d="M373.1,316.3c0,0,3.5,3.7,4.9,8.6l0,0c-1.4-5.1-4.7-8.7-4.7-8.8L373.1,316.3z"/>
		</g>
		<path class="st15" d="M384.9,306.4c0,0,0.3,5.9,0.9,7s1.4,1.5,1.4,1.5C387.4,311.7,384.9,306.4,384.9,306.4z"/>
	</g>
	<g>
		<g>
			<path class="st6" d="M110.8,211.9v51.9H46.1v-26.3c-0.7,0.5-1.4,1.1-2.2,1.6V266H113v-54.5C112.3,211.7,111.6,211.8,110.8,211.9z
				"/>
		</g>
		<path class="st6" d="M108.6,212.4v49.2H48.2V236C66.8,222.9,87.2,216.4,108.6,212.4z"/>
	</g>
</g>
<g>
	<g>
		<path class="st21" d="M96.3,29.1c2.5,2.5-1.4,6.5-3.9,3.9C89.8,30.5,93.8,26.5,96.3,29.1z M96.9,53.3h-5.1l0.8-16.4H96L96.9,53.3z
			"/>
		<path class="st21" d="M123.7,22.5v25.2H120l-13.3-17.1v17.1h-4.4V22.5h3.7l13.3,17.1V22.5H123.7z"/>
		<path class="st21" d="M132.9,46.7c-11-6.4-1.1-23.7,10.1-17.2C154,35.9,144.1,53.3,132.9,46.7z M141.9,42.5
			c4.9-5.1-2.3-14.3-7.8-8.7C129.2,38.9,136.3,48.1,141.9,42.5z"/>
		<path class="st21" d="M176.3,29.5c11.3,6.5-0.6,25.8-10.7,15.9v9.3h-4.3V28.5h4.1V31C167.9,27.8,173,27.6,176.3,29.5z M174.9,42.5
			c5.5-5.9-4-15.2-8.6-7.5C163,40.4,170,47.5,174.9,42.5z"/>
		<path class="st21" d="M202.6,28.5v19.2h-4.1v-2.4c-2.6,3.5-8.9,3.5-11.7,0.6c-3.4-2.8-1.7-13.3-2.1-17.3h4.3
			c0.7,3.9-2.5,15.8,4.3,15.5c7.3,0.3,4.5-11.1,5-15.5L202.6,28.5L202.6,28.5z"/>
		<path class="st21" d="M226.2,21v26.7h-4.1v-2.5c-5.4,6.4-16.1,0.9-15.3-7.1c-0.7-7.9,9.8-13.4,15.2-7.2V21H226.2z M219.3,43.4
			c6-3.6,1.1-14.4-5.6-10.5C207.8,36.5,212.7,47.3,219.3,43.4z"/>
		<path class="st21" d="M249,39.6h-14.4c0.7,5.1,7.9,6,10.9,2.5l2.3,2.8c-7.7,8.7-22.3-1.6-16.3-11.8
			C236.5,23.9,251.1,29.2,249,39.6z M236.4,33.2c-1,0.9-1.5,2-1.7,3.4H245C244.7,32.4,239.4,30.4,236.4,33.2z"/>
		<path class="st21" d="M280.7,21v26.7h-4.1v-2.5c-5.4,6.4-16.1,0.9-15.3-7.1c-0.7-7.9,9.8-13.4,15.2-7.2V21H280.7z M273.8,43.4
			c6-3.6,1.1-14.4-5.6-10.5C262.2,36.5,267.1,47.3,273.8,43.4z"/>
		<path class="st21" d="M303.5,39.6h-14.4c0.7,5.1,7.9,6,10.9,2.5l2.3,2.8c-7.7,8.7-22.3-1.6-16.3-11.8
			C291,23.9,305.5,29.2,303.5,39.6z M290.8,33.2c-1,0.9-1.5,2-1.7,3.4h10.4C299.2,32.4,293.8,30.4,290.8,33.2z"/>
		<path class="st21" d="M309,47.4c-1.4-0.4-2.6-0.9-3.4-1.5l1.6-3.4c8.7,5.3,16.5-1.8,2.4-3.2c-10.7-6.8,4-14.5,11.4-9.3l-1.6,3.4
			c-9.4-4.5-13.9,2.8-1.2,3.9C327.7,42.5,316.2,50.8,309,47.4z"/>
		<path class="st21" d="M340.3,29.5c11.3,6.5-0.6,25.8-10.7,15.9v9.3h-4.3V28.5h4.1V31C331.9,27.8,337,27.6,340.3,29.5z M338.9,42.5
			c5.5-5.9-4-15.2-8.6-7.5C327,40.4,334.1,47.5,338.9,42.5z"/>
		<path class="st21" d="M366.1,39.6h-14.4c0.7,5.1,7.9,6,10.9,2.5l2.3,2.8c-7.7,8.7-22.3-1.6-16.3-11.8
			C353.6,23.9,368.1,29.2,366.1,39.6z M353.4,33.2c-1,0.9-1.5,2-1.7,3.4h10.4C361.8,32.4,356.4,30.4,353.4,33.2z"/>
		<path class="st21" d="M388.2,21v26.7h-4.1v-2.5c-5.4,6.4-16.1,0.9-15.3-7.1c-0.7-7.9,9.8-13.4,15.2-7.2V21H388.2z M381.3,43.4
			c6-3.6,1.1-14.4-5.6-10.5C369.8,36.5,374.7,47.3,381.3,43.4z"/>
		<path class="st21" d="M394.1,24.6c-2.6-2.5,1.4-6.3,3.9-3.9S396.5,27.1,394.1,24.6z M393.9,28.5h4.3v19.2h-4.3V28.5z"/>
		<path class="st21" d="M414.4,28.3v4.3c-8.5-1.6-6,10.3-6.3,15.2h-4.3V28.5h4.1v2.8C409.1,29.3,411.3,28.3,414.4,28.3z"/>
		<path class="st21" d="M446.7,30.4c3.3,2.8,1.7,13.3,2,17.3h-4.3c-0.7-3.8,2.5-15.7-4.1-15.5c-7.1-0.1-4.2,11.3-4.8,15.5h-4.3
			c-0.7-3.8,2.5-15.7-4.1-15.5c-7.1-0.2-4.2,11.3-4.8,15.5H418V28.5h4.1V31c2.9-3.7,9.8-3.7,12.2,0.5
			C436.9,27.8,443.6,27.1,446.7,30.4z"/>
		<path class="st21" d="M471.5,39.6h-14.4c0.7,5.1,7.9,6,10.9,2.5l2.3,2.8c-7.7,8.7-22.3-1.6-16.3-11.8
			C459,23.9,473.5,29.2,471.5,39.6z M458.8,33.2c-1,0.9-1.5,2-1.7,3.4h10.4C467.2,32.4,461.8,30.4,458.8,33.2z"/>
		<path class="st21" d="M475.7,47.2c-2.6-2.5,1.4-6.6,3.9-4C482.2,45.7,478.3,49.8,475.7,47.2z M475.2,22.5h5.1l-0.9,16.8H476
			L475.2,22.5z"/>
	</g>
</g>
</svg>
