<?xml version="1.0" encoding="utf-8"?>
<!-- Generator: Adobe Illustrator 22.1.0, SVG Export Plug-In . SVG Version: 6.00 Build 0)  -->
<svg version="1.1" id="Layer_1" xmlns="http://www.w3.org/2000/svg" xmlns:xlink="http://www.w3.org/1999/xlink" x="0px" y="0px"
	 width="1132px" height="448.1px" viewBox="0 0 1132 448.1" style="enable-background:new 0 0 1132 448.1;" xml:space="preserve">
<style type="text/css">
	.st0{fill:#F0746A;}
	.st1{fill:#E2615A;}
	.st2{fill:#212056;}
	.st3{fill:#E3E7FB;}
	.st4{fill:#FFFFFF;}
	.st5{fill:#B9C2F5;}
	.st6{fill:#313180;}
	.st7{opacity:0.54;fill:#191941;}
	.st8{fill:#6177FF;}
	.st9{fill:#191841;}
	.st10{fill:#20110C;}
	.st11{fill:#DC7A63;}
	.st12{opacity:0.65;fill:#F26E5A;}
	.st13{fill:#FFDDD7;}
	.st14{fill:#FFD4CD;}
	.st15{fill:#407FFE;}
	.st16{fill:#341FCB;}
	.st17{opacity:0.4;fill:#407FFE;}
	.st18{fill:#271798;}
	.st19{fill:#F26E5A;}
	.st20{fill:#E2352C;}
	.st21{fill:#212157;}
	.st22{opacity:0.35;fill:#FED6FD;}
	.st23{fill:#DBD4E5;}
	.st24{fill:#B3CBB1;}
	.st25{opacity:0.4;fill:#B3CBB1;}
	.st26{fill:#FC7E72;}
	.st27{fill:#F7A89C;}
	.st28{fill:#422F7F;}
	.st29{fill:#FBB03B;}
	.st30{fill:#F27562;}
	.st31{fill:#FDD089;}
</style>
<g>
	<rect class="st0" width="1132" height="448.1"/>
	<g>
		<path class="st1" d="M739.9,214.4C739.9,214.4,739.9,214.4,739.9,214.4l-49,0c-0.6,0-1,0.4-1,1c0,0.5,0.5,1,1,1h69.4v33.9
			c0,0.5,0.5,1,1,1c0.6,0,1-0.4,1-1v-33.9h38.3c0.6,0,1-0.4,1-1c0-0.5-0.5-1-1-1H742c0,0,0,0,0,0v-33.9h38.3c0.6,0,1-0.4,1-1
			c0-0.5-0.5-1-1-1h-74.8V142h38.3c0.6,0,1-0.4,1-1c0-0.5-0.5-1-1-1H634.1c-0.6,0-1,0.4-1,1c0,0.5,0.5,1,1,1h69.4v36.5h-32.9
			c-0.6,0-1,0.4-1,1c0,0.5,0.5,1,1,1h69.4V214.4z"/>
		<path class="st1" d="M1043.2,84.6C1043.2,84.6,1043.2,84.6,1043.2,84.6l-49,0c-0.6,0-1,0.4-1,1c0,0.5,0.5,1,1,1h69.4v33.9
			c0,0.5,0.5,1,1,1c0.6,0,1-0.4,1-1V86.6h38.3c0.6,0,1-0.4,1-1c0-0.5-0.5-1-1-1h-58.7c0,0,0,0,0,0V50.7h38.3c0.6,0,1-0.4,1-1
			s-0.5-1-1-1h-74.8V12.2h38.3c0.6,0,1-0.4,1-1c0-0.5-0.5-1-1-1H937.3c-0.6,0-1,0.4-1,1c0,0.5,0.5,1,1,1h69.4v36.5h-32.9
			c-0.6,0-1,0.4-1,1s0.5,1,1,1h69.4V84.6z"/>
		<g>
			<path class="st1" d="M416.7,310.6C416.5,310.6,416.8,310.6,416.7,310.6L416.7,310.6z"/>
			<path class="st1" d="M473.6,383h-58.7c0,0,0,0,0,0v-33.9h38.3c0.6,0,1-0.4,1-1c0-0.5-0.5-1-1-1h-74.8v-36.5h38.3
				c1,0,1.5-0.3,1.5-0.9v-33.9h38.3c0.6,0,1-0.4,1-1c0-0.5-0.5-1-1-1h-64v-33.3h38.3c0.6,0,1-0.4,1-1c0-0.5-0.5-1-1-1H321
				c-0.6,0-1,0.4-1,1c0,0.5,0.5,1,1,1h69.4v33.3h-43.7c-0.6,0-1,0.4-1,1c0,0.5,0.5,1,1,1h69.4v32.8H306.9c-0.6,0-1,0.4-1,1
				c0,0.5,0.5,1,1,1h69.4v36.5h-32.9c-0.6,0-1,0.4-1,1c0,0.5,0.5,1,1,1h69.4v33.9c0,0,0,0,0,0h-49c-0.6,0-1,0.4-1,1c0,0.5,0.5,1,1,1
				h69.4v33.9c0,0.5,0.5,1,1,1s1-0.4,1-1V385h38.3c0.6,0,1-0.4,1-1C474.6,383.4,474.1,383,473.6,383z"/>
		</g>
		<path class="st1" d="M743.3,425c0,0.5,0.5,1,1,1c0.6,0,1-0.4,1-1v-33.9h38.3c0.6,0,1-0.4,1-1c0-0.5-0.5-1-1-1H674
			c-0.6,0-1,0.4-1,1c0,0.5,0.5,1,1,1h69.4V425z"/>
		<path class="st1" d="M1111.9,406.8h-64v-33.3h38.3c0.6,0,1-0.4,1-1c0-0.5-0.5-1-1-1H976.4c-0.6,0-1,0.4-1,1c0,0.5,0.5,1,1,1h69.4
			v33.3h-43.7c-0.6,0-1,0.4-1,1c0,0.5,0.5,1,1,1h69.4v33.9c0,0.5,0.5,1,1,1c0.6,0,1-0.4,1-1v-33.9h38.3c0.6,0,1-0.4,1-1
			C1112.9,407.2,1112.4,406.8,1111.9,406.8z"/>
		<path class="st1" d="M150.6,45.6h-64V12.3h38.3c0.6,0,1-0.4,1-1c0-0.5-0.5-1-1-1H15.1c-0.6,0-1,0.4-1,1c0,0.5,0.5,1,1,1h69.4v33.3
			H40.8c-0.6,0-1,0.4-1,1c0,0.5,0.5,1,1,1h69.4v33.9c0,0.5,0.5,1,1,1s1-0.4,1-1V47.5h38.3c0.6,0,1-0.4,1-1
			C151.6,46,151.1,45.6,150.6,45.6z"/>
		<path class="st1" d="M169.4,395.7h-64v-33.3h38.3c0.6,0,1-0.4,1-1c0-0.5-0.5-1-1-1H34c-0.6,0-1,0.4-1,1c0,0.5,0.5,1,1,1h69.4v33.3
			H59.7c-0.6,0-1,0.4-1,1c0,0.5,0.5,1,1,1H129v33.9c0,0.5,0.5,1,1,1c0.6,0,1-0.4,1-1v-33.9h38.3c0.6,0,1-0.4,1-1
			C170.5,396.1,170,395.7,169.4,395.7z"/>
	</g>
	<g>
		<path class="st2" d="M990.5,355.9h-159c-6.5,0-11.9-5.3-11.9-11.9l0,0h182.7l0,0C1002.4,350.6,997.1,355.9,990.5,355.9z"/>
		<rect x="814.1" y="65.9" class="st3" width="194.5" height="273.2"/>
		<rect x="814.1" y="63.1" class="st4" width="194.5" height="2.7"/>
		<rect x="814.1" y="65.9" class="st4" width="3.4" height="273.2"/>
		<rect x="1005.5" y="65.9" class="st4" width="3.1" height="273.2"/>
		<rect x="822.7" y="70.7" class="st5" width="177.4" height="264.1"/>
		<rect x="828.4" y="76" class="st6" width="167.8" height="258.8"/>
		<path class="st7" d="M828.4,76v258.8h19.5c-2.6-66.4-4.3-180.1,13.3-212.7C877.9,91.2,942,80,983.6,76H828.4z"/>
		<rect x="828.4" y="136" class="st5" width="167.8" height="7.6"/>
		<rect x="905.9" y="76" class="st5" width="8.4" height="60"/>
		<rect x="907.9" y="76" class="st4" width="4.3" height="60"/>
		<path class="st8" d="M1013.4,344H809c-4,0-7.3-3.2-7.3-7.3v-1.4c0-4,3.2-7.2,7.2-7.2h204.4c4,0,7.3,3.2,7.3,7.3v1.4
			C1020.7,340.8,1017.4,344,1013.4,344z"/>
		<path class="st5" d="M1014.6,328.1H807.8c-3.3,0-6.1,2.7-6.1,6.1v3.8c0,0.5,0.1,1,0.2,1.5c0.7-2.6,3-4.6,5.9-4.6h206.8
			c2.8,0,5.2,2,5.9,4.6c0.1-0.5,0.2-1,0.2-1.5v-3.8C1020.7,330.8,1018,328.1,1014.6,328.1z"/>
		<path class="st2" d="M990.5,355.9h-159c-6.5,0-11.9-5.3-11.9-11.9l0,0h182.7l0,0C1002.4,350.6,997.1,355.9,990.5,355.9z"/>
		<path class="st9" d="M930.6,346.7c26,0,50.3,0.5,71,1.5c0.5-1.3,0.8-2.7,0.8-4.2l0,0H819.7l0,0c0,2.5,0.8,4.8,2.1,6.7
			C847.1,348.3,886.4,346.7,930.6,346.7z"/>
		<rect x="828.4" y="132.7" class="st4" width="167.8" height="3.4"/>
		<g>
			<path class="st10" d="M926.2,161.9c0,0-16.3-4.2-18.3,13.2c-1.9,17.4,6.9,20,2.1,28.4c-4.8,8.4-10.2,2.1-11.2,25.9
				c-1,23.8,58.4,37.3,67.8,19.5c9.4-17.8,18.6-9.8,26.3-13.2c14-6,11.3-36.6-7.4-34.9c-18.7,1.6-27.6,2.6-25.3-11.5
				c2.2-14.1-4.2-26-12.7-31.1C939,153.1,928.1,153.1,926.2,161.9z"/>
			<path class="st11" d="M989.2,323.7c0.4-0.3,5.3,4.2,6.1,4.1c0.8-0.1,0.7-0.8,0.5-1.4c0,0-6-5.9-9.1-6.9c-3.1-1-9.1,1.3-10.1-0.1
				c-0.9-1.3-20-89.6-20-89.6l-14.3,9.2c0,0,9.1,36.4,10.2,41c1.8,7.2,14.7,38.7,14.9,41.7c0.2,3,0.6,4.3,4.8,6.4
				c4.2,2.2,9.4,3.7,10.4,2c1-1.7-4-1.8-3.8-2.7c0.2-1,4.6-1.8,6.5-0.3c1.9,1.5,6.3,7.2,7.6,5.8c1.3-1.3-5.5-7-5.2-7.2
				c0.3-0.2,5.8,5.4,6.8,5.4c1,0,1.2-1.3,0.1-2.4C993.6,327.7,988.8,324,989.2,323.7z"/>
			<path class="st12" d="M951.7,243.5c-0.3-2.5,0.2-6.4-0.4-10.3l-8.9,5.7c0,0,9.1,36.4,10.2,41c1.8,7.2,14.7,38.7,14.9,41.7
				c0,0.5,0.1,0.9,0.1,1.3h0c0,0,2.1-3.5,0-11c-1.3-4.7-9.5-28.9-13.5-47.4C951.7,253.2,951.7,243.5,951.7,243.5z"/>
			<path class="st13" d="M940.4,209.1c0,0,6.6,1.8,12.3,7.4c5.6,5.6,7.5,23.5,7.5,23.5s0.8,2.7-15.1,4.3
				C929.2,246,940.4,209.1,940.4,209.1z"/>
			<path class="st14" d="M940.4,209.1C940.4,209.1,940.4,209.1,940.4,209.1c1.8,0.6,7.1,2.6,7.7,7.4c0,0,4.1,19.2,4.5,26.8
				c-2,0.4-4.4,0.7-7.5,1C929.2,246,940.4,209.1,940.4,209.1z"/>
			<g>
				<path class="st15" d="M935,266.7c0,0,6.2,18,7.3,31.5c1.1,13.5,1.3,29.8,1.3,29.8h-60.8c0,0,0.3-16,0.8-33.4
					c0.5-17.5,16.3-29.4,16.3-29.4L935,266.7z"/>
				<path class="st16" d="M890.1,290.5c0.8-3.2,4.5-13.7,8.1-23.8c-4.1,3.7-14.2,14-14.6,27.9c-0.3,8.9-0.5,17.4-0.6,23.6
					C885.8,307.3,889,294.9,890.1,290.5z"/>
				<path class="st17" d="M935,266.7c0,0,0.4,1.1,1,3c-9.5,3.9-37.1,7.3-44.6,4.5c4.2-5.7,8.6-9,8.6-9L935,266.7z"/>
				<path class="st18" d="M918.4,297c0.1,0,3.2-0.8,11.2-5.7c0.7-0.4,1.3,0.6,0.6,1c-0.3,0.2-6.8,4.2-10.7,5.6l-3.3,30.1h-0.8
					C915.4,326.4,916,320.3,918.4,297z"/>
			</g>
			<path class="st13" d="M948.1,216.5c0,0,1.8,12.7,1.8,19.3c0,6.6-8.8,30-11.1,32.2c-4.8,4.8-35.7,2.9-40.3-1.8
				c-4.7-4.7-6.3-49.1-0.7-54.7c5.6-5.6,18.3-5.1,18.3-5.1l23.7,2.4C939.8,208.9,947.4,210.6,948.1,216.5z"/>
			<path class="st14" d="M905,208.2c-2.2,0.1-3.3,1.3-4.5,3.1c-4,6.3-6.1,13.6-6.2,21.1c-0.2,14.2,1.4,30.8,4.1,33.8
				c0.2-0.6,0.4-1.1,0.6-1.7c2.3-6.2,4.2-13.6,8.9-18.3c2.9-3,5.5-24.5,5.3-30.1C913,211.7,909.4,208.1,905,208.2z"/>
			<path class="st19" d="M935.3,191c0,0-0.7,11.8,0,14.5c0.7,2.7,4.4,3.4,4.4,3.4s3.7,12.1-7.3,15.8c-11,3.8-16.4-18.2-16.4-18.2
				s3,0.2,3.7,0c2.7-0.8,3.7-22.5,3.7-22.5L935.3,191z"/>
			<path class="st12" d="M923.5,184c0,0-0.1,1.6-0.2,3.9c2.5,9.8,7.8,15.3,11.9,16.5c-0.4-3.9,0.2-13.4,0.2-13.4L923.5,184z"/>
			<path class="st11" d="M900,241.1l-18.9-5.8c0,0-11.6,32.1-11.6,36.8c0,2.6-2.6,47.5-3.4,48.7c-1,1.5-7-0.9-10.1,0.1
				c-3.1,1-9.1,6.9-9.1,6.9c-0.2,0.6-0.3,1.4,0.5,1.4c0.8,0.1,5.7-4.4,6.1-4.1c0.4,0.3-4.4,4-5.5,5c-1.1,1-0.9,2.3,0.1,2.4
				c1,0,6.5-5.6,6.8-5.4c0.3,0.2-6.6,5.9-5.2,7.2c1.3,1.3,5.7-4.3,7.6-5.8c1.9-1.5,6.3-0.7,6.5,0.3c0.2,1-4.8,1-3.8,2.7
				c1,1.7,6.2,0.2,10.4-2c4.2-2.2,4.6-3.4,4.8-6.4c0.2-3,8.5-34.3,10.3-41.5C887,275.7,900,241.1,900,241.1z"/>
			<path class="st13" d="M903.6,208.2c4.3-0.5,7.1,4.7,6.6,9c-0.8,8.1-4.8,20.6-6.2,25.5c-2.2,7.4-26.8-3.8-24.7-10.2
				C881.5,226.3,895.9,209.1,903.6,208.2z"/>
			<path class="st19" d="M921.9,175.5c0,0,2.1-8.5,8.6-10.8c6.4-2.4,12.2-0.4,14.3,8c2,8.4-1.5,21.5-5.4,25.5
				C935.3,202.1,922.3,194.1,921.9,175.5z"/>
			<path class="st19" d="M923.7,178.2c0,0-3.1-5-5.1-2.2c-2,2.8-0.4,9.7,3.3,10.1C925.6,186.6,923.7,178.2,923.7,178.2z"/>
		</g>
	</g>
	<g>
		<g>
			<rect x="474.9" y="57.9" class="st20" width="198.1" height="282.2"/>
			<path class="st2" d="M651.2,361.1h-159c-6.5,0-11.9-5.3-11.9-11.9l0,0h182.7l0,0C663.1,355.8,657.8,361.1,651.2,361.1z"/>
			<rect x="474.9" y="61.7" class="st4" width="194.5" height="278.4"/>
			<rect x="483.4" y="81.3" class="st5" width="177.4" height="258.8"/>
			<rect x="489.1" y="81.3" class="st21" width="167.8" height="258.8"/>
			<g>
				<path class="st22" d="M656.9,326.3v-7.6c-0.9,2.1-2,4.3-3.1,6.6C653.8,325.3,654.9,325.7,656.9,326.3z"/>
				<path class="st22" d="M650.3,257.8c0,0,3.2,1.3,6.6,4.8V85.1c0-1.3,0-2.5,0-3.8H520.9C520.9,81.3,548.9,207.7,650.3,257.8z"/>
			</g>
			<rect x="643.7" y="81.3" class="st23" width="13.1" height="260"/>
			<path class="st7" d="M489.1,81.3v258.8h19.5c-2.6-66.4-4.3-180.1,13.3-212.7c16.7-31,80.8-42.1,122.4-46.1H489.1z"/>
			<rect x="489.1" y="141.3" class="st5" width="167.8" height="7.6"/>
			<rect x="566.6" y="81.3" class="st5" width="8.4" height="60"/>
			<rect x="568.6" y="81.3" class="st4" width="4.3" height="60"/>
			<path class="st8" d="M674.1,349.3H469.7c-4,0-7.2-3.2-7.2-7.2v-1.4c0-4,3.2-7.3,7.3-7.3h204.4c4,0,7.3,3.2,7.3,7.3v1.4
				C681.4,346,678.1,349.3,674.1,349.3z"/>
			<path class="st5" d="M675.3,333.3H468.5c-3.3,0-6.1,2.7-6.1,6.1v3.8c0,0.5,0.1,1,0.2,1.5c0.7-2.6,3-4.6,5.9-4.6h206.8
				c2.8,0,5.2,2,5.9,4.6c0.1-0.5,0.2-1,0.2-1.5v-3.8C681.4,336,678.7,333.3,675.3,333.3z"/>
			<path class="st2" d="M651.2,361.1h-159c-6.5,0-11.9-5.3-11.9-11.9l0,0h182.7l0,0C663.1,355.8,657.8,361.1,651.2,361.1z"/>
			<path class="st9" d="M591.3,352c26,0,50.3,0.5,71,1.5c0.5-1.3,0.8-2.7,0.8-4.2l0,0H480.4l0,0c0,2.5,0.8,4.8,2.1,6.7
				C507.8,353.5,547.1,352,591.3,352z"/>
			<rect x="489.1" y="137.9" class="st4" width="167.8" height="3.4"/>
		</g>
	</g>
	<g>
		<rect x="130" y="58.1" class="st20" width="197.8" height="281.7"/>
		<path class="st2" d="M308.6,360.9h-159c-6.5,0-11.9-5.3-11.9-11.9l0,0h182.7l0,0C320.5,355.6,315.2,360.9,308.6,360.9z"/>
		<rect x="132.3" y="64.3" class="st3" width="194.5" height="275.5"/>
		<rect x="324.4" y="64.3" class="st4" width="3.5" height="275.5"/>
		<rect x="140.8" y="75.7" class="st5" width="177.4" height="264.1"/>
		<rect x="146.5" y="81" class="st21" width="167.8" height="258.8"/>
		<path class="st7" d="M146.5,81v258.8H166c-2.6-66.4-4.3-180.1,13.3-212.7C196,96.2,260.1,85,301.7,81H146.5z"/>
		<rect x="146.5" y="141.1" class="st5" width="167.8" height="7.6"/>
		<rect x="224" y="81" class="st5" width="8.4" height="60"/>
		<rect x="226" y="81" class="st4" width="4.3" height="60"/>
		<path class="st8" d="M331.5,349H127.1c-4,0-7.3-3.2-7.3-7.3v-1.4c0-4,3.2-7.3,7.3-7.3h204.4c4,0,7.3,3.2,7.3,7.3v1.4
			C338.8,345.8,335.5,349,331.5,349z"/>
		<path class="st5" d="M332.7,333.1H125.9c-3.3,0-6.1,2.7-6.1,6.1v3.8c0,0.5,0.1,1,0.2,1.5c0.7-2.6,3-4.6,5.9-4.6h206.8
			c2.8,0,5.2,2,5.9,4.6c0.1-0.5,0.2-1,0.2-1.5v-3.8C338.8,335.8,336.1,333.1,332.7,333.1z"/>
		<path class="st2" d="M308.6,360.9h-159c-6.5,0-11.9-5.3-11.9-11.9l0,0h182.7l0,0C320.5,355.6,315.2,360.9,308.6,360.9z"/>
		<path class="st9" d="M248.7,351.7c26,0,50.3,0.5,71,1.5c0.5-1.3,0.8-2.7,0.8-4.2l0,0H137.8l0,0c0,2.5,0.8,4.8,2.1,6.7
			C165.2,353.3,204.5,351.7,248.7,351.7z"/>
		<rect x="146.5" y="137.7" class="st4" width="167.8" height="3.4"/>
		<rect x="310.5" y="137.7" class="st7" width="3.8" height="10.9"/>
		<rect x="146.5" y="137.7" class="st7" width="3.8" height="10.9"/>
		<g>
			<path class="st11" d="M335.6,330.9c0.5-0.3,5,4.5,5.9,4.4c0.5,0,0.7-0.3,0.7-0.7c0-0.4-0.2-0.8-0.4-1c-1.2-1.3-5.7-6-8.3-7.1
				c-3-1.2-9.2,0.7-10.1-0.8c-0.8-1.4-14.2-90.7-14.2-90.7l-14.8,8.3c0,0,6.8,36.9,7.6,41.6c1.3,7.3,12.2,39.5,12.2,42.5
				c0,3,0.4,4.3,4.4,6.7c4.1,2.4,9.2,4.3,10.2,2.6c1.1-1.6-3.9-1.9-3.6-2.8c0.2-0.9,4.7-1.6,6.5,0c1.8,1.6,5.8,7.6,7.2,6.3
				c1.4-1.3-5.1-7.3-4.7-7.5c0.3-0.2,5.5,5.8,6.5,5.8c1,0,1.3-1.3,0.2-2.4C339.7,335.2,335.1,331.2,335.6,330.9z"/>
			<path class="st12" d="M303.3,248.5c-0.2-2.5,0.6-6.4,0.2-10.3l-9.2,5.2c0,0,6.8,36.9,7.6,41.6c1.3,7.3,12.2,39.5,12.2,42.5
				c0,0.5,0,0.9,0.1,1.3h0c0,0,2.3-3.4,0.7-11c-1-4.7-7.7-29.4-10.5-48.2C302.6,258.1,303.3,248.5,303.3,248.5z"/>
			<path class="st13" d="M293.7,215.1c0,0,6.6,1.8,12.3,7.4c5.6,5.6,7.5,23.5,7.5,23.5s0.8,2.7-15.1,4.3
				C282.5,252,293.7,215.1,293.7,215.1z"/>
			<path class="st14" d="M293.7,215.1C293.7,215.1,293.7,215.1,293.7,215.1c1.8,0.6,7.1,2.6,7.7,7.4c0,0,4.1,19.2,4.5,26.8
				c-2,0.4-4.4,0.7-7.5,1C282.5,252,293.7,215.1,293.7,215.1z"/>
			<g>
				<path class="st24" d="M288.3,272.8c0,0,6.2,17.8,7.3,31.1c1.1,13.4,1.3,29.4,1.3,29.4h-60.8c0,0,0.3-15.8,0.8-33
					c0.5-17.2,16.3-29,16.3-29L288.3,272.8z"/>
				<path class="st25" d="M288.3,272.8c0,0,0.4,1.1,1,2.9c-9.5,3.8-37.1,7.1-44.6,4.4c4.2-5.6,8.6-8.8,8.6-8.8L288.3,272.8z"/>
			</g>
			<path class="st13" d="M301.4,222.5c0,0,1.8,12.7,1.8,19.4c0,6.6-8.8,30-11.1,32.2c-4.8,4.8-35.7,2.9-40.3-1.8
				c-4.7-4.7-6.3-49.1-0.7-54.7c5.6-5.6,18.3-5.1,18.3-5.1l23.7,2.4C293.1,214.9,300.6,216.6,301.4,222.5z"/>
			<path class="st14" d="M258.3,214.3c-2.2,0.1-3.3,1.3-4.5,3.1c-4,6.3-6.1,13.6-6.2,21.1c-0.2,14.2,1.4,30.8,4.1,33.8
				c0.2-0.6,0.4-1.1,0.6-1.7c2.3-6.2,4.2-13.6,8.9-18.3c2.9-3,5.5-24.5,5.3-30.1C266.3,217.8,262.7,214.1,258.3,214.3z"/>
			<path class="st11" d="M236.3,241.8c0,0-15.4,41.6-27.6,45.6c-12.2,4-27.4,5.3-27.4,5.3l6.6,12.5c0,0,43.1-7.6,50.7-23.2
				c7.6-15.7,14.4-36.1,14.4-36.1L236.3,241.8z"/>
			<path class="st15" d="M280.3,165.6c-0.7,1.3-2.1,2.1-3.6,2.2c-3.9,0.1-11,2.1-15.5,13.4C248,214.3,291.4,213,293.7,199
				c2.2-14.1,15.7-29.6,7.1-34.7C293.1,159.6,283.6,159.2,280.3,165.6z"/>
			<path class="st19" d="M288.6,197c0,0-0.7,11.8,0,14.5c0.7,2.7,4.4,3.4,4.4,3.4s3.7,12.1-7.3,15.8c-11,3.8-16.4-18.2-16.4-18.2
				s3,0.2,3.7,0c2.7-0.8,3.7-22.5,3.7-22.5L288.6,197z"/>
			<path class="st12" d="M276.8,190c0,0-0.1,1.4-0.2,3.5c2.5,9.4,7.7,14.8,11.8,16c-0.3-4.3,0.3-12.4,0.3-12.4L276.8,190z"/>
			<path class="st26" d="M275.2,181.5c0,0,2.1-8.5,8.6-10.8c6.4-2.4,12.2-0.4,14.3,8c2,8.4-1.5,21.5-5.4,25.5
				C288.6,208.2,275.6,200.2,275.2,181.5z"/>
			<path class="st26" d="M277,184.3c0,0-3.1-5-5.1-2.2c-2,2.8-0.4,9.7,3.3,10.1C278.9,192.7,277,184.3,277,184.3z"/>
			<path class="st12" d="M291.3,170.2c-2.3-0.7-4.9-0.5-7.6,0.5c-6.4,2.4-8.6,10.8-8.6,10.8c0,0.2,0,0.4,0,0.5c-1-0.9-2.3-1.4-3.3,0
				c-1,1.4-1.1,3.9-0.5,6.1c0.3,0,0.5,0,0.8,0C285.2,188.2,290,174.8,291.3,170.2z"/>
			<path class="st4" d="M167.6,329.5c0,0,4-29.8,13.8-36.9c9.8-7.1,38.5-5.4,44.4-2.9c5.9,2.6,15.7,43.4,15.7,43.4h-73.9V329.5z"/>
			<path class="st27" d="M194.7,277.8l-5.4,11.6c0,0,4.1,11.1,10.8,12.7c6.7,1.6,9.9-5.4,9.9-7.2c0-1.8,0-12.7,0-12.7L194.7,277.8z"
				/>
			<path class="st12" d="M193.5,280.3c0.3,0.4,0.6,0.7,0.9,1.1c4,4.3,10.6,6.2,15.6,5c0-2.3,0-4.2,0-4.2l-15.4-4.5L193.5,280.3z"/>
			<path class="st27" d="M189.3,264.5c0,0-1.2,8.2,4.9,14.3c6.1,6.1,18.1,6.7,21.1,0c3-6.7-3.5-22-10.1-23.6
				C198.7,253.6,189.3,264.5,189.3,264.5z"/>
			<path class="st28" d="M191.4,251.6c-1.7,3.7-4.6,6.5-8.1,8.5c-1,0.5-1.9,1.4-2.6,2.9c-2.3,5,4.1,21.4,11.2,20.8
				c0,0,1.3-1.9,2.5-5.4c1.2-3.6-3.6-9.4-2-11.1c1.7-1.7,17.3-5.4,16.3-14.6c-1-9.2-11.9-10.9-15.2-5.1
				C192.7,248.9,192,250.3,191.4,251.6z"/>
			<g>
				<path class="st29" d="M187,290c-1.7,0.5-7.9,1.2-9.2,1.9c-4.9,2.7-25.1,19.8-31.4,25.9c-7.7,1.2-19.9,8.3-19.2,15.2H152h0l0,0
					c0,0,11.4-6.6,16.8-10.6c-1.8,9.2-1,7.7-1.2,10.8h19C189.6,315.3,187,290,187,290z"/>
				<path class="st29" d="M222.6,288.9c-2.2-0.5-5.2-0.8-8.5-1c-0.2,2.7-1.5,27.1,0.6,45.4h26.8c0,0-1.6-6.7-3.9-14.9
					c4.3,3.3,11,6.3,12.4,8.4c0.7,1.1-2.8,6.1-2.4,6.5c0,0,5.2,2.1,12.5,3c6.3,0.7,14.7,0.6,16.2-2.4
					C284.3,318.3,246.7,295.4,222.6,288.9z"/>
			</g>
			<path class="st13" d="M256.9,214.3c4.3-0.5,7.1,4.7,6.6,9c-0.8,8.1-4.8,20.6-6.2,25.5c-2.2,7.4-26.8-3.8-24.7-10.2
				C234.8,232.3,249.2,215.1,256.9,214.3z"/>
			<path class="st15" d="M277.1,166.9c1.2-3.6-1-7.6-4.7-8.5c-2.9-0.7-7.4-0.8-14.3,1C241.3,163.7,272,182.5,277.1,166.9z"/>
			<path class="st30" d="M142,354.5c0.2-0.9-2.5-9.9-1.9-10.1c0.6-0.2,3.4,13,4.7,11.3c1.3-1.7-2.3-13-1.8-13.3
				c0.5-0.2,2.5,12.5,3.8,9.4c1.3-3.1-2.3-12.7-2.3-12.7s3.6,5.3,4.6,3.6c1-1.7-5.6-12.4-6.8-13.2c-6.8-4.2-14.9,1.9-14.9,3.5
				c0.1,3.5,6.9,13.2,10.1,17.8c0.3,0.4,1.4,0.8,1-0.6c-0.7-2.6-2.1-5.9-1.9-5.8c0.2,0.2,4,9.1,4.1,9.3
				C141.2,355.5,141.9,354.9,142,354.5z"/>
			<path class="st30" d="M247.8,353.5c-0.8-0.4,2.5-9.9,1.9-10.1c-0.6-0.2-3.4,13-4.7,11.3c-1.3-1.7,2.3-13,1.8-13.3
				c-0.5-0.2-2.5,12.5-3.8,9.4c-1.3-3.1,2.3-12.7,2.3-12.7s-3.6,5.3-4.6,3.6c-1-1.7,5.2-10.1,6.4-10.8c6.8-4.2,12,0.2,13.1,2.2
				c1.7,3-4.7,12.3-8,16.8c-0.3,0.4-1.4,0.8-1-0.6c0.7-2.6,2.1-5.9,1.9-5.8c-0.2,0.2-4,9.1-4.1,9.3
				C248.6,354.5,248.1,353.6,247.8,353.5z"/>
			<path class="st31" d="M181.6,307.1c2,3.8,2.2,5.3,1.7,6.5c-0.1,0.4-0.7,0.6-1.4,0.9c-1.2,0.5-2.8,1.2-2.8,3.3
				c0,2.5,1.7,11.7,2.4,15.4h0.7c-0.7-3.6-2.4-13-2.4-15.4c0-1.6,1.2-2.2,2.3-2.6c0.8-0.3,1.5-0.7,1.8-1.4c0.6-1.7,0.1-3.5-1.8-7.1
				c-1.6-3-2.8-11.9-3.2-15.2c-0.3,0.1-0.5,0.1-0.7,0.2C178.7,295.1,180,304,181.6,307.1z"/>
			<path class="st31" d="M224,289.3c-0.2-0.1-0.5-0.1-0.7-0.2c-0.6,4.5-1.6,11.8-2.9,14.5c-2.1,4.4-2.3,6.2-1.8,7.8
				c0.2,0.8,1,1.1,1.8,1.5c1.1,0.6,2.3,1.1,2.3,3c0,2.7-1.8,13.4-2.4,17.3h0.7c0.7-4,2.4-14.5,2.4-17.3c0-2.3-1.6-3.1-2.7-3.6
				c-0.7-0.3-1.2-0.6-1.4-1.1c-0.4-1.4-0.3-3.1,1.7-7.3C222.4,301.1,223.5,293.8,224,289.3z"/>
			<path class="st15" d="M291.7,168.6c0,0-3.9,17.6-19.4,17.6C256.7,186.2,281.1,163.9,291.7,168.6z"/>
		</g>
		<rect x="224" y="81" class="st7" width="8.4" height="4"/>
	</g>
</g>
</svg>
