<?xml version="1.0" encoding="utf-8"?>
<!-- Generator: Adobe Illustrator 22.1.0, SVG Export Plug-In . SVG Version: 6.00 Build 0)  -->
<svg version="1.1" id="Layer_1" xmlns="http://www.w3.org/2000/svg" xmlns:xlink="http://www.w3.org/1999/xlink" x="0px" y="0px"
	 width="60px" height="60px" viewBox="0 0 60 60" style="enable-background:new 0 0 60 60;" xml:space="preserve">
<style type="text/css">
	.st0{fill:#DFD4F8;}
</style>
<g>
	<g>
		<path class="st0" d="M44.9,46.1c0.9,0,1.6-0.7,1.6-1.6V10.2c0-0.9-0.7-1.6-1.6-1.6H16.7c-1.7,0-3.2,1.5-3.2,3.2v33.9
			c0,0.1,0,0.1,0,0.1c0,0.1,0,0.1,0,0.1v2.2c0,1.7,1.5,3.2,3.2,3.2h28.1c0.9,0,1.6-0.7,1.6-1.6s-0.7-1.6-1.6-1.6h-0.1V46L44.9,46.1
			L44.9,46.1z M25.2,21.2h3.1v-3.1c0-0.9,0.7-1.6,1.6-1.6s1.6,0.7,1.6,1.6v3.1h3.1c0.9,0,1.6,0.7,1.6,1.6s-0.7,1.6-1.6,1.6h-3.1v9.7
			c0,0.9-0.7,1.6-1.6,1.6s-1.6-0.7-1.6-1.6v-9.7h-3.1c-0.9,0-1.6-0.7-1.6-1.6C23.6,21.9,24.3,21.2,25.2,21.2L25.2,21.2z M41.5,48.3
			H16.7l0,0v-2.2h24.8V48.3z"/>
	</g>
</g>
<rect x="57" y="8" class="st0" width="3" height="44"/>
</svg>
