<?xml version="1.0" encoding="utf-8"?>
<!-- Generator: Adobe Illustrator 22.1.0, SVG Export Plug-In . SVG Version: 6.00 Build 0)  -->
<svg version="1.1" id="Layer_1" xmlns="http://www.w3.org/2000/svg" xmlns:xlink="http://www.w3.org/1999/xlink" x="0px" y="0px"
	 width="80px" height="80px" viewBox="0 0 80 80" style="enable-background:new 0 0 80 80;" xml:space="preserve">
<style type="text/css">
	.st0{fill:#7265AA;}
</style>
<g>
	<path class="st0" d="M17.4,58.4c-0.6-0.5-1.8-0.3-2.2,0.5L9,68.3c-0.5,0.6-0.3,1.8,0.5,2.2c0.6,0.5,1.8,0.3,2.2-0.5l6.2-9.4
		C18.4,59.8,18.1,58.9,17.4,58.4L17.4,58.4z"/>
	<path class="st0" d="M18.9,79.7c0.6,0.5,1.8,0.3,2.2-0.5l3.2-4.6c0.5-0.6,0.3-1.8-0.5-2.2c-0.6-0.5-1.8-0.3-2.2,0.5l-3.2,4.6
		C17.9,78.2,18.1,79.2,18.9,79.7L18.9,79.7z"/>
	<path class="st0" d="M29.3,58.9l-3.2,4.6c-0.5,0.6-0.3,1.8,0.5,2.2c0.6,0.5,1.8,0.3,2.2-0.5l3.2-4.6c0.5-0.6,0.3-1.8-0.5-2.2
		C30.7,57.9,29.8,58.1,29.3,58.9L29.3,58.9z"/>
	<path class="st0" d="M37.6,70.4c0.6,0.5,1.8,0.3,2.2-0.5l6.2-9.4c0.5-0.6,0.3-1.8-0.5-2.2c-0.6-0.5-1.8-0.3-2.2,0.5l-6.2,9.4
		C36.6,69,36.8,69.9,37.6,70.4L37.6,70.4z"/>
	<path class="st0" d="M46.9,79.7c0.6,0.5,1.8,0.3,2.2-0.5l3.2-4.6c0.5-0.6,0.3-1.8-0.5-2.2c-0.6-0.5-1.8-0.3-2.2,0.5l-3.2,4.6
		C46.1,78.2,46.2,79.2,46.9,79.7L46.9,79.7z"/>
	<path class="st0" d="M57.4,58.9l-3.2,4.6c-0.5,0.6-0.3,1.8,0.5,2.2c0.6,0.5,1.8,0.3,2.2-0.5l3.2-4.6c0.5-0.6,0.3-1.8-0.5-2.2
		C58.9,57.9,57.9,58.1,57.4,58.9L57.4,58.9z"/>
	<path class="st0" d="M71.5,58.9l-6.2,9.4c-0.5,0.6-0.3,1.8,0.5,2.2c0.6,0.5,1.8,0.3,2.2-0.5l6.2-9.4c0.5-0.6,0.3-1.8-0.5-2.2
		C73,57.9,72,58.1,71.5,58.9L71.5,58.9z"/>
	<path class="st0" d="M41.6,48.5c0,0.8-0.6,1.6-1.6,1.6s-1.6-0.6-1.6-1.6c0-0.8,0.6-1.6,1.6-1.6S41.6,47.5,41.6,48.5L41.6,48.5z"/>
	<path class="st0" d="M11.2,50.1H33c0.8,0,1.6-0.6,1.6-1.6c0-0.8-0.6-1.6-1.6-1.6H11.2C6.7,46.9,3,43.4,3,39s4-7.8,8.3-7.8
		c1,0,1.8-1,1.6-1.9c-0.6-3.4,0.5-6.9,3-9.3c2.2-2.2,5.3-3.2,8.3-2.9c-0.2,1-0.3,2.1-0.3,3c0,0.8,0.6,1.6,1.6,1.6
		c0.8,0,1.6-0.6,1.6-1.6C27.2,10.6,35.4,3,44.6,3c9.1,0,17,7,17.8,15.7c-7.8,0.8-14.2,7.4-14.2,15.5c0,0.8,0.6,1.6,1.6,1.6
		c0.8,0,1.6-0.6,1.6-1.6c0-6.7,5.9-12.5,12.8-12.5S77,27.5,77,34.2S71,46.7,64.2,46.7H47c-0.8,0-1.6,0.6-1.6,1.6
		c0,0.8,0.6,1.6,1.6,1.6h17c8.6,0,16-7,16-15.7c0-8.2-6.6-14.9-14.4-15.5C64.8,8.2,55.2,0,44.6,0c-8.8,0-17,5.8-19.7,14.2
		c-4-0.5-8.2,0.8-11.2,3.7c-2.9,2.7-4.3,6.6-4.2,10.4C4.3,29,0,33.6,0,39C0,45.1,5.3,50.1,11.2,50.1L11.2,50.1z"/>
</g>
</svg>
