<?xml version="1.0" encoding="utf-8"?>
<!-- Generator: Adobe Illustrator 22.1.0, SVG Export Plug-In . SVG Version: 6.00 Build 0)  -->
<svg version="1.1" id="Layer_1" xmlns="http://www.w3.org/2000/svg" xmlns:xlink="http://www.w3.org/1999/xlink" x="0px" y="0px"
	 width="80px" height="80px" viewBox="0 0 80 80" style="enable-background:new 0 0 80 80;" xml:space="preserve">
<style type="text/css">
	.st0{fill:#7265AA;}
</style>
<g>
	<path class="st0" d="M58.2,11.8c0.2,0.2,0.5,0.2,0.6,0.2c0.3,0,0.6-0.2,1-0.5L62.4,8c0.3-0.5,0.3-1.3-0.3-1.6
		c-0.5-0.3-1.3-0.3-1.6,0.3l-2.6,3.5C57.6,10.7,57.6,11.4,58.2,11.8L58.2,11.8z"/>
	<path class="st0" d="M61.9,18.1c0.2,0.5,0.6,1,1.1,1c0.2,0,0.2,0,0.3,0l4.2-1c0.6-0.2,1-0.8,0.8-1.4c-0.2-0.6-0.8-1-1.4-0.8l-4.2,1
		C62.2,16.8,61.7,17.4,61.9,18.1L61.9,18.1z"/>
	<path class="st0" d="M49.7,9c0,0.6,0.5,1.1,1.1,1.1l0,0c0.6,0,1.1-0.6,1.1-1.3l-0.2-4.3c0-0.6-0.6-1.1-1.3-1.1
		c-0.6,0-1.1,0.6-1.1,1.3L49.7,9z"/>
	<path class="st0" d="M20.1,11.5c0.2,0.3,0.6,0.5,1,0.5c0.3,0,0.5,0,0.6-0.2c0.5-0.3,0.6-1.1,0.3-1.6l-2.6-3.5
		c-0.3-0.5-1.1-0.6-1.6-0.3c-0.5,0.3-0.6,1.1-0.3,1.6L20.1,11.5z"/>
	<path class="st0" d="M12.5,17.9l4.2,1c0.2,0,0.2,0,0.3,0c0.5,0,1-0.3,1.1-1c0.2-0.6-0.2-1.3-0.8-1.4l-4.2-1
		c-0.6-0.2-1.3,0.2-1.4,0.8C11.3,17.1,11.8,17.8,12.5,17.9L12.5,17.9z"/>
	<path class="st0" d="M28.9,10.1L28.9,10.1c0.6,0,1.3-0.5,1.3-1.1l0.2-4.3c0-0.6-0.5-1.3-1.1-1.3c-0.6,0-1.3,0.5-1.3,1.1l-0.2,4.3
		C27.8,9.4,28.3,9.9,28.9,10.1L28.9,10.1z"/>
	<path class="st0" d="M35.7,60c-0.3-0.6-1-1.1-1.8-1.3c-0.5-0.2-1-0.2-1.4,0c-1.1-4.8-2.6-6.1-4.6-7.7c-0.3-0.2-0.6-0.5-1-0.8
		l-2.1-11.5c-0.2-1-0.6-1.8-1.4-2.2c-0.8-0.5-1.6-0.6-2.6-0.5c-0.3,0-0.6,0.2-1,0.3l-1.1-6.1l0,0c-0.2-1-0.8-1.8-1.6-2.4
		c-0.8-0.5-1.8-0.6-2.7-0.5c-0.3,0-0.6,0.2-1,0.3l-0.6-3.2l0,0c-0.2-1-0.8-1.8-1.6-2.2c-0.8-0.5-1.8-0.6-2.7-0.5s-1.8,0.8-2.2,1.4
		l0,0c-0.6-0.3-1.3-0.6-1.9-0.6C3,22.6,1.7,23,0.9,24c-0.6,0.8-1,1.8-0.8,2.7l1.9,12.6c0.3,1.9,1.3,7.2,1.9,10.2
		C4.6,52,6.5,55.2,8.3,57l4.6,4.2c2.6,2.4,3.7,3.5,5.1,5.9c-0.8,1-1,2.2-0.3,3.4l2.7,4.5c0.3,0.6,1,1.1,1.8,1.3
		c0.2,0,0.5,0.2,0.6,0.2c0.5,0,1-0.2,1.4-0.5l4.3-2.6c0.6-0.3,0.8-1.1,0.5-1.6c-0.3-0.6-1.1-0.8-1.6-0.5L23,73.8
		c-0.2,0.2-0.3,0-0.3,0s-0.2,0-0.3-0.2l-2.7-4.5c-0.2-0.2,0-0.5,0.2-0.6l13.1-7.8c0.2-0.2,0.3,0,0.3,0s0.2,0,0.3,0.2l2.7,4.5
		c0.2,0.2,0,0.5-0.2,0.6L32,69c-0.5,0.3-0.8,1.1-0.3,1.6c0.3,0.5,1.1,0.8,1.6,0.3l4.2-2.6c1.3-0.8,1.8-2.6,1-3.8L35.7,60z
		 M21.1,38.4c0.3,0,0.5,0,0.8,0.2c0.3,0.2,0.5,0.5,0.5,0.6L24,48l-2.6-2.1l-1.1-6.2C20.1,39,20.5,38.6,21.1,38.4L21.1,38.4z
		 M14.7,29.8c0.3,0,0.6,0,0.8,0.2c0.3,0.2,0.5,0.5,0.5,0.8l1.8,9.3l0,0l0,0l0.6,3.4L15.5,41l-1.9-10.2
		C13.9,30.2,14.2,29.9,14.7,29.8L14.7,29.8z M8.1,24.6c0.2-0.3,0.5-0.5,0.8-0.5c0.3,0,0.6,0,0.8,0.2c0.3,0.2,0.5,0.5,0.5,0.8
		l2.7,14.7c-0.5,0-1.1,0-1.6,0.2c-0.2,0-0.5,0.2-0.6,0.3L8,25.6l0,0C8,25.3,8,25,8.1,24.6L8.1,24.6z M20,66.1
		c-1.6-2.4-2.7-3.8-5.4-6.2l-4.6-4.2c-1.4-1.3-3.2-4.2-3.7-6.1c-0.8-3-1.6-8.2-1.9-10.1L2.4,26.9c0-0.3,0-0.6,0.3-0.8
		c0.3-0.5,1-0.6,1.4-0.6c1.3,0,1.8,1.6,1.8,2.1l0,0l2.9,15.4c-0.2,0.2-0.2,0.5-0.2,0.8c-0.2,1-0.2,3,2.4,5.3l6.6,5.4
		c0.5,0.5,1.3,0.3,1.6-0.2c0.5-0.5,0.3-1.3-0.2-1.6l-6.7-5.8c-1.3-1.1-1.9-2.2-1.6-3c0.2-0.8,0.8-1.3,1.3-1.4
		c0.3-0.2,1.1-0.3,1.6,0.3l11,9.3l0,0c0.5,0.5,1,0.8,1.4,1.1c1.8,1.3,3,2.2,4,7L20,66.1z"/>
	<path class="st0" d="M79,24.3c-0.8-1-2.1-1.4-3.2-1.4l0,0c-0.8,0-1.4,0.2-1.9,0.6c-0.5-0.8-1.3-1.4-2.2-1.6c-1-0.2-1.9,0-2.7,0.5
		c-0.8,0.5-1.3,1.3-1.6,2.2l0,0l-0.6,3.2c-0.3-0.2-0.6-0.3-1-0.3c-1-0.2-1.9,0-2.7,0.5s-1.3,1.3-1.6,2.4l0,0l-1.1,6.1
		c-0.3-0.2-0.6-0.3-1-0.3c-1-0.2-1.8,0-2.6,0.5c-0.8,0.5-1.3,1.3-1.4,2.2l0,0l-2.1,11.5c-0.3,0.3-0.6,0.5-1,0.8
		c-2.2,1.6-3.7,2.9-4.6,7.7c-0.5-0.2-1-0.2-1.4,0c-0.8,0.2-1.3,0.6-1.8,1.3l-2.9,4.3c-0.8,1.3-0.3,3,1,3.8l4.2,2.6
		c0.5,0.3,1.3,0.2,1.6-0.3c0.3-0.5,0.2-1.3-0.3-1.6l-4.2-2.6c-0.2-0.2-0.3-0.5-0.2-0.6l2.7-4.5c0.2-0.2,0.2-0.2,0.3-0.2
		c0,0,0.2,0,0.3,0L60.1,69c0.2,0.2,0.2,0.2,0.2,0.3c0,0,0,0.2,0,0.3l-2.7,4.5c-0.2,0.2-0.5,0.3-0.6,0.2l-4.3-2.6
		c-0.6-0.3-1.3-0.2-1.6,0.5c-0.3,0.6-0.2,1.3,0.5,1.6l4.3,2.6c0.5,0.3,1,0.3,1.4,0.3c1,0,1.9-0.5,2.4-1.4l2.7-4.5
		c0.3-0.6,0.5-1.4,0.3-2.1c-0.2-0.5-0.3-0.8-0.6-1.1c1.4-2.2,2.6-3.5,5.1-5.9l4.6-4.2c1.8-1.6,3.7-5,4.3-7.4
		c0.8-3.2,1.8-8.3,1.9-10.2L80,27.2C80.1,26.1,79.8,25.1,79,24.3L79,24.3z M68.4,31.2C68.4,31,68.4,31,68.4,31.2l1.1-6.1
		c0-0.3,0.3-0.6,0.5-0.8c0.3-0.2,0.6-0.2,0.8-0.2c0.6,0.2,1.1,0.8,1,1.4l0,0l-2.7,14.7c-0.2-0.2-0.5-0.2-0.6-0.3
		c-0.5-0.2-1.1-0.3-1.6-0.2L68.4,31.2z M62,40.2L62,40.2C62,40,62,40,62,40.2l1.8-9.3c0-0.3,0.3-0.6,0.5-0.8
		c0.3-0.2,0.6-0.2,0.8-0.2c0.5,0.2,1,0.5,1,1.1l-1.9,10.2l-2.9,2.4L62,40.2z M57.7,39.2c0-0.3,0.2-0.5,0.5-0.6
		c0.2-0.2,0.5-0.2,0.8-0.2s0.5,0.2,0.6,0.5c0.2,0.2,0.2,0.5,0.2,0.8l-1.1,6.2L56.1,48L57.7,39.2z M77.6,26.7l-1.9,12.6
		c-0.3,1.9-1.1,7-1.9,10.1c-0.5,1.9-2.2,4.8-3.7,6.1l-4.6,4.2c-2.7,2.4-3.8,3.8-5.4,6.2l-10.2-6.2c1-4.8,2.2-5.6,4-7
		c0.5-0.3,12.5-10.4,12.5-10.4l0,0c0.6-0.5,1.4-0.3,1.6-0.3c0.5,0.2,1.1,0.6,1.3,1.4c0.2,1-0.5,2.1-1.6,3l-6.7,6.2
		c-0.5,0.5-0.5,1.1-0.2,1.6c0.5,0.5,1.1,0.5,1.6,0.2l6.7-5.8c2.6-2.2,2.7-4.3,2.4-5.3c0-0.3-0.2-0.5-0.2-0.8L74,27.2l0,0
		c0-0.3,0.5-1.9,1.8-2.1c0.6,0,1.1,0.3,1.4,0.6C77.6,26.1,77.6,26.4,77.6,26.7L77.6,26.7z"/>
	<path class="st0" d="M54,32C54.2,32,54.2,32,54,32c4.2-4.3,4.2-11.2,0-15.5c-1.8-1.9-4.3-2.7-7-2.6c-2.4,0.2-5,1.3-6.9,3
		c-0.2,0.2-0.2,0.2-0.3,0.3c-0.2,0-0.2-0.2-0.3-0.3c-1.9-1.8-4.5-2.9-6.9-3c-2.7-0.2-5.1,0.6-7,2.6c-4.2,4.3-4.2,11.2,0,15.5l0,0
		l2.1,2.1c0.5,0.5,1.3,0.5,1.6,0c0.5-0.5,0.5-1.3,0-1.6l-2.1-2.1c-3.2-3.4-3.2-8.8,0-12.2c3-3,7.7-1.9,10.6,0.6
		c0.2,0.2,0.3,0.3,0.5,0.5c0.5,0.3,0.8,0.8,1.4,0.8c0.6,0,1-0.3,1.4-0.8c0.2-0.2,0.3-0.3,0.5-0.5c2.9-2.6,7.7-3.8,10.6-0.6
		c3.2,3.4,3.2,8.8,0,12.2L39.8,42.6l-0.2,0.2l-0.2-0.2l-6.4-6.2c-0.5-0.5-1.3-0.5-1.6,0c-0.5,0.5-0.5,1.3,0,1.6l6.4,6.4
		c0.2,0.2,0.5,0.5,0.8,0.6c0.3,0.2,0.6,0.3,1,0.3c0.3,0,0.6-0.2,1-0.3c0.3-0.2,0.5-0.3,0.8-0.6L54,32z"/>
</g>
</svg>
