<?xml version="1.0" encoding="utf-8"?>
<!-- Generator: Adobe Illustrator 22.1.0, SVG Export Plug-In . SVG Version: 6.00 Build 0)  -->
<svg version="1.1" id="Layer_1" xmlns="http://www.w3.org/2000/svg" xmlns:xlink="http://www.w3.org/1999/xlink" x="0px" y="0px"
	 width="80px" height="80px" viewBox="0 0 80 80" style="enable-background:new 0 0 80 80;" xml:space="preserve">
<style type="text/css">
	.st0{fill:#7265AA;}
</style>
<g>
	<path class="st0" d="M14.8,71.9c-2.5,2-4.4,4-5.5,5.2c-4.8-6-5.7-13.2-5.8-16.2c9.1,2.3,18.7,0.4,19.1,0.4c0.5-0.1,0.8-0.5,0.9-0.9
		c0.1-0.5-0.1-0.9-0.5-1.2C13.8,52.8,9.4,44.5,9.8,34.4c0-0.6-0.5-1.2-1.1-1.2c-0.6,0-1.2,0.5-1.2,1.1c-0.2,4.8,0.7,9.4,2.6,13.5
		c2,4.3,5.1,8.1,9.3,11.5c-3.7,0.4-10.6,0.8-16.7-1.1c-0.3-0.1-0.7-0.1-1,0.2c-0.3,0.2-0.5,0.5-0.5,0.9c0,0.5-0.5,11.7,7.3,20.4
		C8.7,79.9,9,80,9.3,80c0,0,0,0,0,0c0.3,0,0.7-0.2,0.9-0.4c0,0,2.5-3,6.1-5.9c0.5-0.4,0.6-1.1,0.2-1.6C16,71.5,15.3,71.5,14.8,71.9
		L14.8,71.9z M14.8,71.9"/>
	<path class="st0" d="M53.7,43.6c0-1.2-1-2.2-2.2-2.2c-1.2,0-2.2,1-2.2,2.2c0,1.2,1,2.2,2.2,2.2C52.7,45.9,53.7,44.9,53.7,43.6
		L53.7,43.6z M53.7,43.6"/>
	<path class="st0" d="M77.8,28.9c-0.2,0-5.3-0.6-8.7,2.3c-0.8,0.7-1.4,1.4-1.9,2.2c-0.4-2.6-1.1-5.3-2.1-7.9
		c-0.3-0.7-0.5-1.4-0.8-2.1c1.7-0.6,4.5-2,6.1-4.7c2.2-3.9,0.7-8.8,0.7-9c-0.2-0.6-0.8-0.9-1.4-0.8c-0.2,0-5.2,1.2-7.4,5.1
		c-0.6,1-0.9,2-1.1,3c-1.2-2-2.2-3.5-2.7-4.2c0.3-1.4,0.7-5.3-1.3-8.3c-2.5-3.7-7.5-4.6-7.7-4.6c-0.6-0.1-1.2,0.3-1.3,0.9
		c-0.1,0.2-1.2,5.2,1.2,8.9c2,3.1,5.9,4.2,7.2,4.5c0.9,1.2,4.1,5.8,6.3,12.1c0,0.1,0.1,0.2,0.1,0.3c-0.8-0.6-1.6-1.1-2.6-1.5
		c-4.2-1.5-8.7,0.9-8.9,1c-0.5,0.3-0.8,0.9-0.5,1.5c0.1,0.2,2.2,4.9,6.4,6.3c1,0.3,2,0.5,2.9,0.5c1.8,0,3.5-0.5,4.6-0.9
		c0.3,1.8,0.5,3.7,0.6,5.5c0,0.8,0,1.5,0,2.3l-4.3-0.8c-0.8-1.2-3.2-4.5-7.2-5.5c-3-0.8-6.2-0.1-9.5,1.9c-1.7-0.5-3.3-1.4-4.9-2.5
		c-0.5-0.4-1.3-0.3-1.6,0.3c-0.4,0.5-0.3,1.3,0.3,1.6c1.2,0.8,2.4,1.6,3.6,2.1c-5.6,2.7-10.7,1.3-14.1-0.5c-1.2-0.6-2.4-1.4-3.5-2.3
		c-0.1-1.8-0.1-8.3,2.9-14.5c1.2,2.9,3.6,7.8,7.4,11.9c0.4,0.5,1.2,0.5,1.7,0.1c0.5-0.4,0.5-1.2,0.1-1.7c-5.3-5.7-7.8-13.4-7.9-13.4
		c-0.3-0.9-1.6-1.1-2.1-0.3c-3.6,5.8-4.3,12.3-4.4,15.8c-1.4-1.4-2.6-2.9-3.7-4.6c-2.4-3.6-3.9-7.5-4-10.7c0-0.5-0.4-1-0.9-1.1
		c-0.5-0.1-1.1,0.1-1.3,0.5c-0.1,0.2-2.8,4.9-4,11.6c-0.1,0.6,0.3,1.2,0.9,1.4c0.6,0.1,1.2-0.3,1.4-0.9c0.5-3,1.4-5.6,2.2-7.5
		c0.7,2.6,2,5.4,3.7,8c2.8,4.2,6.5,7.6,10.5,9.7c2.3,1.2,5.4,2.3,8.8,2.3c3,0,6.4-0.8,9.9-3.1c2.9-1.9,5.6-2.5,8.1-1.9
		c3.9,1,6,4.8,6,4.8c0.2,0.3,0.5,0.5,0.8,0.6l4,0.8c-2.3,2.6-6.8,7.8-9.6,12.7c-2.3,4-5.8,6.7-10.7,8.2c-3.8,1.2-8.4,1.5-14.3,1.2
		c-3.3-0.2-6.9,0.9-10.7,3.2c-0.5,0.3-0.7,1-0.5,1.5c0.3,0.6,1.1,0.9,1.7,0.5c3.4-2.1,6.6-3.1,9.4-2.9c8.8,0.5,21.1,0,27.2-10.5
		c2.3-3.9,5.8-8.2,8.2-11c-0.5,2.5-1.3,4.9-2.4,7.3c-0.3,0.5,0,1.2,0.5,1.5c0.6,0.3,1.4,0.1,1.7-0.5c1.7-3.7,2.8-7.6,3.1-11.7
		c0,0,0-0.1,0-0.1c0.1-0.7,0.1-1.4,0.1-2.2c1.8,0,5-0.3,7.4-2.4c3.4-2.9,3.6-8,3.6-8.2C78.9,29.5,78.5,29,77.8,28.9L77.8,28.9z
		 M64.4,15.3c1.2-2,3.4-3.1,4.8-3.6c0.2,1.4,0.4,3.9-0.7,5.9c-1.1,2-3.4,3.1-4.8,3.6C63.4,19.8,63.2,17.3,64.4,15.3L64.4,15.3z
		 M58.2,31.9c-2.2-0.8-3.7-2.8-4.5-4c1.4-0.5,3.8-1.2,6-0.4c2.2,0.8,3.7,2.8,4.5,4C62.8,32,60.4,32.6,58.2,31.9L58.2,31.9z
		 M51.4,8.5c-1.3-1.9-1.2-4.4-1.1-5.9C51.7,3,54,4,55.3,5.9c1.3,1.9,1.2,4.4,1.1,5.9C55,11.4,52.7,10.4,51.4,8.5L51.4,8.5z
		 M73.7,36.6c-1.8,1.5-4.3,1.8-5.7,1.8c0.2-1.4,0.9-3.8,2.7-5.4c1.8-1.5,4.2-1.8,5.7-1.8C76.1,32.7,75.5,35.1,73.7,36.6L73.7,36.6z
		 M73.7,36.6"/>
</g>
</svg>
