<?xml version="1.0" encoding="utf-8"?>
<!-- Generator: Adobe Illustrator 22.1.0, SVG Export Plug-In . SVG Version: 6.00 Build 0)  -->
<svg version="1.1" id="Layer_1" xmlns="http://www.w3.org/2000/svg" xmlns:xlink="http://www.w3.org/1999/xlink" x="0px" y="0px"
	 width="771.1px" height="293.3px" viewBox="0 0 771.1 293.3" style="enable-background:new 0 0 771.1 293.3;" xml:space="preserve"
	>
<style type="text/css">
	.st0{fill:#E3F8FA;}
	.st1{fill:#FFB27D;}
	.st2{fill:#ED975D;}
	.st3{fill:#2B478B;}
	.st4{fill:#699FF0;}
	.st5{fill:#2C3A64;}
	.st6{fill:#35488B;}
	.st7{fill:#ED7D2B;}
	.st8{fill:#F99746;}
	.st9{fill:#233862;}
	.st10{fill:#ED985F;}
	.st11{fill:#F8A871;}
	.st12{fill:#D9935C;}
	.st13{fill:#4A75CB;}
	.st14{fill:#739AF0;}
	.st15{fill:#E58638;}
	.st16{fill:#B5453C;}
	.st17{fill:#F4A269;}
	.st18{fill:#E5925A;}
	.st19{fill:#2A4E96;}
	.st20{fill:#1E3D70;}
	.st21{fill:#9E3530;}
	.st22{fill:#A9453D;}
</style>
<g>
	<path class="st0" d="M21.1,292.3c0,0-45.3-111.9,21-178.7c85.4-86.2,195.7-14.1,237.1-16.2c41.4-2.1,43.7-84.8,167.5-94.7
		c95.7-7.6,252.8-8.2,219.2,126.9c-25.5,102.7,116.3,49.5,88.7,163L21.1,292.3z"/>
	<g>
		<path class="st1" d="M598.9,60.6c0,0-13.8,13-23.2,12.4c0,0,2-5.2,5.2-8.2c-0.6-1.3-1-2.5-1.4-3.5c-1.3-3.5-1.9-5.6-1.9-5.6
			l5.4-7.1l3.7-4.8c0.4,2.1,1,3.9,1.8,5.5C592.2,57.7,598.9,60.6,598.9,60.6z"/>
		<path class="st2" d="M588.5,49.4c0,0-1.4,8.2-9,11.9c-1.3-3.5-1.9-5.6-1.9-5.6l5.4-7.1C586.5,48.7,588.5,49.4,588.5,49.4z"/>
		<path class="st1" d="M574.8,58c0,0,14.8-3,12.8-12.1c-2-9.2-1.4-15.7-10.9-14.2c-9.5,1.5-10.6,5.4-10.7,8.6
			C565.9,43.5,570.9,58.6,574.8,58z"/>
		<path class="st3" d="M592.4,30.4c0.1-0.2,0.4-0.3,1.2-0.4c0,0-0.6-0.3-1.4-0.3c-0.2-1-0.9-2.8-2.6-3.1c0,0,1,0.4,1.2,1.5
			c-2.2-2-6.6-3.2-18.4-1.4c-15.6,2.3-9.8,12.2-7.6,13.3c2.1,1.1,7-2.6,10.8-2.6c3.8,0,4.9,5.6,6.3,6.2c1.3,0.7,0.7-0.6,2.4-1.6
			c1.7-0.9,2.1,2,1.7,3.9c-0.4,1.9,2.2,4.3,2.2,4.3s0,0,2.2-2.8c2.2-2.8,3.8-14.2,2.5-16.5C592.6,30.8,592.5,30.6,592.4,30.4z"/>
		<path class="st4" d="M573.5,48.5c0,0,2.8,1.7,3.4,6.4c0.6,4.7,0.4,9.5-1.8,12.2c0,0-10-0.8-14.9,1c0,0,3.6-5.7,3.9-9
			C564.4,56,566.7,49.2,573.5,48.5z"/>
		<g>
			<path class="st5" d="M648.5,271c0,0,4.3,4,3.5,6.8c-0.8,2.8-4.7,4.7-5.3,8.2c-0.5,3.5-2.6,5.4-4.5,5.4c-1.9,0-9,0-9,0
				s-1.4-2.4,2-3.2c3.4-0.7,4.6-4.8,4.4-8.6c-0.2-3.8,0.3-8.8,0.3-8.8l7.1-1.7L648.5,271z"/>
			<path class="st5" d="M594.8,291.2c0,0-0.1,0-0.1,0.1h-24.3c0.2-0.9,1-2.4,3.8-2.9c3.8-0.6,10.3-2.8,11.7-7.6
				c0-0.2,0.1-0.3,0.1-0.5c1.2-5.1,9.6,1.6,9.6,1.6s0,0.2,0.1,0.6C595.9,284.3,596.4,290.4,594.8,291.2z"/>
			<path class="st6" d="M575.2,153.5c0,0,1.3,15.9,2.8,35.1c2,26,4.5,58,4.7,64c0.4,10.5,2.1,27.3,2.1,27.3s4,4,12,2.3
				c0,0,7.1-24,9.2-49.4c0-0.4,0.1-0.8,0.1-1.3c1.9-25.8,4.8-80.3,4.8-80.3L575.2,153.5z"/>
			<path class="st5" d="M575.2,153.5c0,0,1.3,15.9,2.8,35.1l28,44.2c0-0.4,0.1-0.8,0.1-1.3c1.9-25.8,4.8-80.3,4.8-80.3L575.2,153.5z
				"/>
			<path class="st6" d="M581,155.4c0,0,23,57.7,38.1,84.8c15.1,27.1,19.9,34.7,19.9,34.7s8.7-3.5,9.5-5.8c0,0-5.8-52.3-15.9-65.1
				c-5.7-7.2-12.5-28.8-12.8-36.4c-0.3-7.6-2-22.5-2-22.5L581,155.4z"/>
		</g>
		<g>
			<path class="st1" d="M632.4,139.2c0,0-0.8,9-0.5,10.4c0.3,1.5,3.2,6.3,3.6,6.3c0.4,0,0.7-0.3,0.7-1.2c-0.1-0.9-0.8-3.8-0.5-3.6
				c0.4,0.1,3.2,8.3,4.9,8.1c1.7-0.1,4.2-5.2,3.9-9.1c-0.3-3.9-5.9-10.9-6.1-11.6C637.2,133.1,632.4,139.2,632.4,139.2z"/>
			<path class="st7" d="M635.8,141.6c-2.8,0.9-3.3,0.7-3.3,0.7S618.4,117.3,617,115c-1.4-2.3-29.7-28-29.7-28l6.9-26.9
				c0,0,32.3,40.9,35.8,46.8c5.8,9.7,9.3,32.4,9.3,32.4S638.1,140.9,635.8,141.6z"/>
		</g>
		<path class="st8" d="M623.2,149.1c-0.7,3.2-1.8,5.6-3.2,6.7c-7.8,6.1-42,3.8-45.6-0.6c-1.3-1.6-1.5-6.1-0.5-11.2
			c0.3-1.2,0.5-2.5,0.7-3.8c0.1-0.6,0.2-1.1,0.2-1.7c0.9-7.2,1.1-16.4-0.9-27.7c-0.2-0.9-0.3-1.8-0.5-2.8c-0.3-1.3-0.5-2.5-0.7-3.8
			c-0.6-3.5-0.9-7.1-1-10.5c-0.3-9,0.9-17.1,3.9-21.7c0,0,0,0,0-0.1c9.7-1.3,17.6-15.5,17.6-15.5s27.2,14,31.6,57.5
			c0,0,0.3,4.7,0.3,11C625.2,132.5,624.8,142.4,623.2,149.1z"/>
		<path class="st7" d="M593,84.1c0,0-0.8,47.5-17.8,54.4c-0.1,0-0.1,0.1-0.2,0.1c0.9-7.2,1.1-16.4-0.9-27.7
			c-0.2-0.9-0.3-1.8-0.5-2.8c-0.3-1.3-0.5-2.5-0.7-3.8C577.3,95.1,584.2,87,593,84.1z"/>
		<path class="st2" d="M566.9,59.6c0,0,0.8-1.4,0.3-4.1c-0.5-2.7,2-4.9,2.6-5.2c0.9-0.3,3.8,1.6,4.3,2.7c0.4,1.1,0.5,3.9,0.1,4.6
			c-0.4,0.7-2.5,3.6-2.5,3.6L566.9,59.6z"/>
		<path class="st8" d="M594.8,65.6c0,0-9.1,4.8-25.7,23.3c2.2-13.5,4.2-28,4.2-28s-2.4-3.4-6.8-2.3c0,0-20.3,40.4-17.1,47.3
			c1.7,3.6,4.8,5.8,7.7,6.6c0.6,0.3,1.5,0.4,2.5,0.3c0.6,0,1.2-0.1,1.7-0.2c12.1-2.2,40.8-19.3,43.5-27.2
			C608.1,76.2,607.3,62.3,594.8,65.6z"/>
		<path class="st2" d="M569.8,50.3c0,0,5.7-3.4,6.4-1.7c0.7,1.7-1.8,4.5-1.9,5.6C574.2,55.3,569.8,50.3,569.8,50.3z"/>
	</g>
	<g>
		<path class="st1" d="M354.9,92.5c0,0-10,6.3-11.3,41.1c0,0,3.7,3.8,10.5-5.1c6.8-8.9,9.6-37.9,9.6-37.9L354.9,92.5z"/>
		<path class="st3" d="M341.9,284.1l4.4,1.6c0,0,18.9-26.2,21.2-49.3c0.4-4.1,0.3-8.1-0.6-11.8c0,0,0.2-1.1,0.5-2.9
			c0.1-0.9,0.3-1.9,0.5-3.1c0.6-3.5,1.5-8.3,2.4-13.8c2.2-12.6,5.1-28.8,7.3-40.6l-1.2-0.4l-12.7-4.1l-2.6-8.3l-9.5-2.5
			c0,0-2.1,4.1-4,23.6c-0.3,2.6-0.7,5.4-0.9,8.4c-0.7,9.3-0.8,20.9,0.9,34.2c0.4,3.4,1,6.9,1.7,10.5c0.5,2.6,0.6,6.2,0.4,10.4
			C348.8,254.7,341.9,284.1,341.9,284.1z"/>
		<path class="st9" d="M346.9,180.9l20.5,40.8c0.1-0.9,0.3-1.9,0.5-3.1c0.6-3.5,1.5-8.3,2.4-13.8c2.2-12.6,5.1-28.8,7.3-40.6
			l-1.2-0.4l-12.7-4.1l-2.6-8.3l-9.5-2.5c0,0-2.1,4.1-4,23.6C347.4,175,347.1,177.8,346.9,180.9z"/>
		<path class="st3" d="M355.9,154l0.5-4.1c8,2.1,29.2-5.9,29.2-5.9s7.7,6.8,6.7,23c-0.5,7.9-1.4,41.6-2.3,51.6
			c-0.3,3.6-0.6,6.2-0.8,7.2c0,0,0,0,0,0c0,0.3,0.1,0.6,0.2,0.9c1.4,2.4,2.5,4.8,3.5,7.3c9.3,24.7-1.4,55-1.4,55l-2.8-1.1
			c0,0-6.1-33.8-11-48.7c-0.8-2.5-1.6-4.5-2.4-5.7c-2.1-3.5-4.1-9.1-5.9-15.9c-3.4-12.7-6.2-29.3-8-42.1
			C361.1,175.6,355.9,154,355.9,154z"/>
		<path class="st1" d="M387.2,92.4C387.2,92.4,387.2,92.5,387.2,92.4c-2.1,5.8-6.2,13.4-13.9,14.7c-2.3,0.4-5,0.2-8-0.8
			c-3.5-1.2-6.2-2.7-8.3-4.5c2.9-6.2,6.5-10.9,6.6-11.1c0,0,0,0,0,0s0.5-0.1,1.3-0.2c0.5-0.5,0.7-2.9,0.8-5.4
			c0.1-3.2-0.1-6.5-0.1-6.5l10.8-1.8l0.6-0.1c-0.1,3.3,0.2,6.1,0.7,8.3c0.3,1.6,0.8,2.8,1.2,3.7c0.3,0.7,0.7,1.2,1,1.5
			c0.9,0.5,1.8,0.6,2.8,0.5C383.8,90.5,385.5,91.2,387.2,92.4C387.2,92.4,387.2,92.4,387.2,92.4z"/>
		<path class="st10" d="M387.2,92.4c-1.7-1.2-3.3-1.7-4.3-1.8c-0.9-0.1-1.9-0.2-2.8-0.5c0,0-0.1-0.1-0.1-0.1c0,0,0,0-0.1-0.1
			c0,0,0-0.1-0.1-0.1c0,0,0-0.1-0.1-0.1c0,0,0-0.1-0.1-0.1c0,0,0-0.1-0.1-0.1c0,0-0.1-0.1-0.1-0.1c0,0,0-0.1-0.1-0.1
			c0,0-0.1-0.1-0.1-0.1c0,0,0-0.1-0.1-0.1c0,0,0-0.1-0.1-0.1c-0.1-0.1-0.1-0.2-0.2-0.4h0c-0.5-0.9-0.9-2.2-1.2-3.7
			c-3.8-1.2-8.5-1.9-10.9-1.1c0,0,3.3,0.7,3.5,3.9c0.1,3.2-2,14.2-8.1,14.4c-4,0.1,3.7,4.2,11.1,5.1c7.6-1.3,11.8-8.8,13.8-14.6
			C387.2,92.5,387.2,92.4,387.2,92.4z"/>
		<path class="st8" d="M393.6,151.1c0,1.6-0.3,3.1-1,4.2c-1.5,4.8-44.4-0.2-42-5.3c0,0,2.1-31.5,0.8-39.6c0-0.3-0.1-0.6-0.1-0.9
			c-0.7-7.7,6.3-13.8,3.5-16.9c0,0,2.5-1.3,8.8-1.9c0,0,0,0,0,0c-0.2,0.3-5,8.3-4.6,10.4c0.4,2.1,13.8,1.8,15.1,0.6
			c1-0.9,7.3-6.4,8.4-10.1c0.2-0.6,0.2-0.9,0.2-0.9s6.5,0.9,9.7,3.3c0,0-2.2,2.6-3.7,5.8c-0.1,0.3-0.3,0.6-0.4,0.9
			c-0.3,0.7-0.5,1.3-0.6,2c-0.2,0.9,0,1.8,0.5,2.7c0.5,0.9,1.1,1.8,1.9,2.8c0.3,0.3,0.4,0.4,0.6,0.4c0.2,0.1,0.3,0.1,0.6,0.5
			c-1,4-2.6,11.5-3.8,18.6c-0.3,1.8-0.2,3.6,0.3,5.4c0.2,0.7,0.5,1.4,0.8,2C390.7,139.1,393.6,145.9,393.6,151.1z"/>
		<path class="st5" d="M388.5,58.2c0.3-0.5,4.2-5.6,12.6-0.6c0,0-4.3-2.1-6.2-0.8c0,0,4.1-0.4,5.9,1.7c1.8,2.1,0.6,6.9-0.2,8.2
			c-0.8,1.3-4.7,4.6-6.4,4.1c-0.6-0.2-1.2-0.6-1.7-1.1c0,0.8-0.1,1.7-0.2,2.7c-1,8.8-8.6,13.2-10.9,10.7c-1.5-1.6-3.9,1.1-3.9,1.1
			l-8.3-25C369.2,59.1,384,50.1,388.5,58.2z"/>
		<path class="st1" d="M383,70.5c-0.5,2.5-1.9,5.4-3.1,8.9c-2,5.8-8.9,5.3-13.1,4.4c0,0,0,0,0,0c-1.8-0.4-3.1-0.8-3.1-0.8
			c-3.4-1.5-0.1-16,1.5-18.6c1.6-2.6,4.4-5.2,12.8-1.8C382.9,64.6,383.7,67.1,383,70.5z"/>
		<path class="st9" d="M375.4,291.4h21.9c0,0,0.5-3.3-0.6-5.9c-1.1-2.4-2.8-3.5-2.4-6.5c-1.4,1.4-3.7,3-6.8,2.6
			c-0.4,0.6-2.5,4-3.8,4.9C382.2,287.6,375.8,287.2,375.4,291.4z"/>
		<path class="st9" d="M328.3,291.4h21.9c0,0,0.8-3.5-0.6-5.9c-1.3-2.1-0.8-3.3,0.2-5c-1,0.4-2.3,0.8-3.7,0.7
			c-1.1-0.1-2.2-0.6-3.3-1.1c-0.9,1.1-5,5.7-6.2,6.6C335.1,287.6,328.7,287.2,328.3,291.4z"/>
		<path class="st10" d="M382.1,71.2c-0.4,2.5-1.5,5.4-2.5,8.9c-1.6,5.8-7.2,5.3-10.5,4.4c6.7-1.3,4.7-17.2,4.7-17.2
			C376.6,66.5,379.6,68.2,382.1,71.2z"/>
		<path class="st7" d="M393.6,151.1c-14.3,0.9-23.3-28.3-23.3-28.3s14.4-13.8,19.9-14.6c0.3,0.3,0.4,0.4,0.6,0.4
			c0.2,0.1,0.3,0.1,0.6,0.5c-1,4-2.6,11.5-3.8,18.6c-0.3,1.8-0.2,3.6,0.3,5.4c0.2,0.7,0.5,1.4,0.8,2
			C390.7,139.1,393.6,145.9,393.6,151.1z"/>
		<path class="st1" d="M382.3,138.3c-1.4,0.1-3.5,0.1-4.8-0.3c0,0,4-0.3,3.1-1.5c-0.2-0.2-2.1,0.1-4.4,0.2c-0.9,0-3.2,1.8-3,1.9
			c-1.6-0.1-3-0.8-3.5-0.9c-0.1,0-0.2,0-0.2,0l-1.2,4.2c0,0,0.3,0.1,0.8,0.1c1.3,0.3,4.1,0.8,6.7,1.7c3.7,1.2,6.2-0.7,7.3-2
			c0.7-0.8,1.3-1.9,1.2-2.7C384.2,138.1,383.1,138.2,382.3,138.3z"/>
		<path class="st1" d="M376.5,89.3c0,0,5.3-5.4,5.3-7.5c0-2.1-1-8.1-2.1-7.6c-1,0.5-4.4,8-4.6,7.6c-0.1-0.4,0.7-2,0.6-2.7
			c-0.1-0.3-0.7-1.5-1.2-0.2c-0.5,1.2-1.7,2.8-1.8,4c-0.1,1.3,0.9,2.8-0.1,5.2L376.5,89.3z"/>
		<path class="st5" d="M367.2,59.8c2.9-1.8,4.3-0.7,4.9,0.3c8.7-1.5,11.4,6,11.4,6c-1.1,6.3,2,11.2,2,11.2s-3,0.7-8.1-2.7
			c-1.6-1-2.7-2.8-3.5-4.7c1,4.6,3.1,8.4,3.1,8.4c-5.7-5.4-5.2-15.7-5.1-16.8c-1.1,0.5-3.2,1.5-4.3,2.9c-1.4,1.9-3.2,6.2-4.4,5.6
			C363.3,70.2,362.8,62.6,367.2,59.8z"/>
		<path class="st1" d="M343.6,133.6c0,0,1.9,5.9,28,8.9l1.6-3.9c0,0-15.7-6.3-24.1-12.6C347.3,124.5,343.6,133.6,343.6,133.6z"/>
		<path class="st1" d="M394.9,103.2c-3,6.4-9.5,14.2-16.1,20.2c-1.9,1.7-3.8,3.3-5.6,4.6c-5.4,4-10.1,6.1-11.9,4.3
			c-1.7-1.8,7.6-18.7,13.7-27.9c0.8-1.2,1.5-2.2,2.1-3.1c1.6-2.3,3.2-3.9,4.6-5.2c3.4-3.1,5.9-3.7,5.9-3.7
			C398.4,91.8,394.9,103.2,394.9,103.2z"/>
		<path class="st11" d="M373.1,121.9c-1.4-3.9,0-11.4,2-17.5c0.8-1.2,1.5-2.2,2.1-3.1c1.6-2.3,3.2-3.9,4.6-5.2
			C383.4,104.6,373.1,121.9,373.1,121.9z"/>
		<path class="st1" d="M376.5,89c0,0-0.3,8.7-1.1,17.6c-0.7,8.3-0.6,20.2-2.3,21.5c-8.5,6.7-11.7,4.2-11.7,4.2
			c-2.8-12.3,11.5-44.9,11.5-44.9C375,86.1,376.5,89,376.5,89z"/>
		<path class="st8" d="M380.1,97.8c0,0,2.7,14,8.6,17.3c0,0,12.8-15.2,4.4-21.9c0,0-4.2-2.6-10.3-2.6L380.1,97.8z"/>
		<path class="st8" d="M354.9,92.5c0,0-4,2-7,8.6c0,0,1.7,3.7,5.1,4.2C356.4,105.7,356.8,93.7,354.9,92.5z"/>
		<path class="st11" d="M351.8,127.8c0,0-1.5-0.9-3.4-1.2c-1.9-0.3,3.1-7.6,3.4-10.1C352,114.1,351.8,127.8,351.8,127.8z"/>
	</g>
	<g>
		<path class="st12" d="M458.8,71.4c0,0-0.3-5.6-0.3-8c0-2.4,6-9.3,8-9.3c2,0,1.3,6.4,1,8.4c-0.3,2,0.7,3.8-0.4,5.3
			c-1.1,1.6-3.3,4.9-3.3,4.9L458.8,71.4z"/>
		<path class="st1" d="M494.3,80.6l-9.6,9.2c-2.3-1.9-4-4-5.5-6.1c-0.2-0.3-0.4-0.7-0.6-1c-1.3-2-2.2-4-2.9-5.4
			c-0.1-0.2-0.2-0.5-0.3-0.7c-0.5-1.2,5.3-4.8,8.6-7.2c1-0.8,1.8-1.3,2.1-1.7c0,0-0.2,1.5,0,2.6c0.5,2.5,1.6,4,2.9,5.4
			C492.4,79.2,494.3,80.6,494.3,80.6z"/>
		<path class="st2" d="M487.1,70.4c0,0-1.9,10.1-7.8,13.2c-0.2-0.3-0.4-0.7-0.6-1c-1.3-2-2.2-4-2.9-5.4c0.7-1.5,5.6-4.6,8.5-6.7
			C486,70.4,487.1,70.4,487.1,70.4z"/>
		<path class="st1" d="M475.4,81.6c0,0,14.3-4.8,11.2-13.6c-3.1-8.9-3.4-15.4-12.6-12.8c-9.3,2.7-9.8,6.7-9.5,9.9
			C464.8,68.3,471.6,82.6,475.4,81.6z"/>
		<path class="st9" d="M487.7,70.6c0,0-1.5-1,1.7-6c1.6-2.6,3.1-5.1,0.8-9.3c-2.3-4.2-2.2-7.7-8.6-7.7c-6.4,0-7.1-3-10.4-1.9
			c-3.3,1-6.2,5.9-9,6.8c-2.8,0.9-4.9,15.6,1.5,15.2c0,0,2.4-1.2,3.5-3.1c1.1-1.9,6.6-6.4,8.3-4.9C477.2,61.1,484.2,70.7,487.7,70.6
			z"/>
		<path class="st13" d="M484.3,87.9c-4.9-0.3-13.7,4.1-21.7,9.3l1.8-25c-1.6-2.8-6.1-1.8-6.1-1.8s-2.7,2.3-7.6,16.6
			c-4.6,13.2-4.9,25.1-4.9,25.1c0.2,6.6,5.5,7,5.5,7c17.1-2.9,45.3-15.5,45.3-15.5C500.2,99.1,494.6,88.5,484.3,87.9z"/>
		<path class="st9" d="M490.2,288.3c-0.1,1.4-0.4,2.6-1.1,2.9c-0.1,0.1-0.3,0.1-0.5,0.1h-21.5c-0.6,0-0.9,0-0.9,0s0.1-2.7,3.7-3.2
			c2.9-0.4,7.7-1.8,10.1-4.9c0.6-0.7,1-1.5,1.2-2.5c1.2-4.8,8.9,1.7,8.9,1.7s0.1,0.8,0.1,2C490.3,285.6,490.3,287.1,490.2,288.3z"/>
		<path class="st9" d="M510.3,291.4h-23.9c0.3-0.6,1.2-2.4,3.7-3c0.2-0.1,0.5-0.1,0.8-0.2c2.6-0.4,6.5-1.5,9.1-3.8
			c1.1-1,1.9-2.1,2.2-3.6c1.2-4.8,8.9,1.7,8.9,1.7s0.1,0.8,0.1,1.9C511.4,286.7,511.4,290.6,510.3,291.4z"/>
		<path class="st3" d="M500.2,161.5c0,0,0,0.9-0.1,2.4c-0.2,10-1.1,48.9-1.9,70.5c0,0.8-0.1,1.5-0.1,2.3c0,0.4,0,0.8,0,1.2
			c-0.5,10.5-1.9,20.7-3.3,28.9c-1.8,10.4-3.7,17.6-3.7,17.6c-7,1.4-11.5-1.2-11.5-1.2s-1.9-16.2-2.6-26c-0.2-3.2-1.4-14.1-2.8-27.3
			c-1.1-10.2-2.4-21.9-3.6-32.4c-0.1-0.6-0.1-1.1-0.2-1.7c-1.9-17.1-3.5-31-3.5-31l12.3-1.2L500.2,161.5z"/>
		<path class="st9" d="M494.7,266.8l-20.6-37c-1.1-10.2-2.4-21.9-3.6-32.4c-0.1-0.6-0.1-1.1-0.2-1.7c-1.9-17.1-3.5-31-3.5-31
			l12.3-1.2l20.9,0.4L494.7,266.8z"/>
		<path class="st3" d="M469.2,164.8c0,0,11.5,56.9,20.9,84.4c9.4,27.5,9.5,35.1,9.5,35.1s8.6,1.9,12.4-0.3c0,0,2.2-52.1-3.5-65.9
			c-3.8-9.2-6.6-28.6-5.7-35.6c1-7,1.9-21.1,1.9-21.1L469.2,164.8z"/>
		<path class="st14" d="M506.2,159.8c-0.6,3.5-2.2,6.3-4.6,8c-2.7,1.9-7,2.6-11.7,2.6c-5.5-0.1-11.6-1.2-16.5-2.7
			c-2.6-0.8-4.9-1.7-6.5-2.5c-7.3-3.8-6.3-8.9-6.1-27.8C460.9,118,472.9,93,475,88.8c3.8-7.5,20-5,20-5c3.5,3.3,6.7,8,8.8,15.5
			c0.9,3.1,1.4,7.3,1.6,12.1c0.9,14.7-0.3,34.3,0.6,38.8C506.7,153.8,506.7,157.1,506.2,159.8z"/>
		<path class="st13" d="M492.9,76.4c0,0,2.6,6.3,2.1,7.4c0,0-14.5,1.4-20.5,5.6c0,0,1.9-6.1,4.3-7.6
			C481.2,80.3,492.9,76.4,492.9,76.4z"/>
		<path class="st13" d="M506.2,159.8c-30.1-11.5-12.9-53.9-12.9-53.9c4.2,0.3,8.3,2.3,12.1,5.5c0.9,14.7-0.3,34.3,0.6,38.8
			C506.7,153.8,506.7,157.1,506.2,159.8z"/>
		<path class="st1" d="M496,142.5c0,0-1.7,2.9-3.2,2.2s-4.8-1.4-7.2,0.1c-2.4,1.5-6,5.7-3.7,6.7c2.2,1,6.5-1.7,7.5-2.1
			c1-0.4,2.8,0.4,4.7-0.5c1.9-1,4-2.9,4-2.9L496,142.5z"/>
		<path class="st14" d="M529.5,117.2c-11.2-13.3-37-30.6-37-30.6c-5.6-0.8-11.8,9.4-7.1,18.6c2.7,5.3,14.4,11.7,24.5,15.7
			l-16.4,22.4c-1.3,4.8,6.1,3.5,6.1,3.5s6.1-1.8,17.2-10.9c6-4.9,9.2-10.1,11-13.8C529.1,119.8,529.5,117.2,529.5,117.2z"/>
	</g>
	<g>
		<path class="st1" d="M118.2,106.7c0,0-1.1,29.9,0.1,32c1.2,2.1,0.4,22.5,0.7,23.8c0.3,1.3,1.5,5.7-1.2,8.7
			c-2.8,3-4.5-9.2-4.5-14.2c0-5-5.9-51.4-5.9-51.4L118.2,106.7z"/>
		<path class="st8" d="M123.2,284.1l-4.4,1.6c0,0-18.9-26.2-21.2-49.3c-0.4-4.1-0.3-8.1,0.6-11.8c0,0-0.2-1.1-0.5-2.9
			c-0.1-0.9-0.3-1.9-0.5-3.1c-0.6-3.5-1.5-8.3-2.4-13.8c-2.2-12.6-5.1-28.8-7.3-40.6l1.2-0.4l12.7-4.1l2.6-8.3l9.5-2.5
			c0,0,2.1,4.1,4,23.6c0.3,2.6,0.7,5.4,0.9,8.4c0.7,9.3,0.8,20.9-0.9,34.2c-0.4,3.4-1,6.9-1.7,10.5c-0.5,2.6-0.6,6.2-0.4,10.4
			C116.3,254.8,123.2,284.1,123.2,284.1z"/>
		<path class="st15" d="M118.3,180.9l-20.5,40.8c-0.1-0.9-0.3-1.9-0.5-3.1c-0.6-3.5-1.5-8.3-2.4-13.8c-2.2-12.6-5.1-28.8-7.3-40.6
			l1.2-0.4l12.7-4.1l2.6-8.3l9.5-2.5c0,0,2.1,4.1,4,23.6C117.7,175,118,177.8,118.3,180.9z"/>
		<path class="st8" d="M109.2,154.1l-0.5-4.1c-8,2.1-29.2-5.9-29.2-5.9s-7.7,6.8-6.7,23c0.5,7.9,1.4,41.6,2.3,51.6
			c0.3,3.6,0.6,6.2,0.8,7.2c0,0,0,0,0,0c0,0.3-0.1,0.6-0.2,0.9c-1.4,2.4-2.5,4.8-3.5,7.3c-9.3,24.7,1.4,55,1.4,55l2.8-1.1
			c0,0,6.1-33.8,11-48.7c0.8-2.5,1.6-4.5,2.4-5.7c2.1-3.5,4.1-9.1,5.9-15.9c3.4-12.7,6.2-29.3,8-42.1
			C104,175.7,109.2,154.1,109.2,154.1z"/>
		<path class="st9" d="M89.8,291.4H67.8c0,0-0.5-3.3,0.6-5.9c1.1-2.4,2.8-3.5,2.4-6.5c1.4,1.4,3.7,3,6.8,2.6c0.4,0.6,2.5,4,3.8,4.9
			C82.9,287.6,89.3,287.3,89.8,291.4z"/>
		<path class="st9" d="M136.8,291.4h-21.9c0,0-0.8-3.5,0.6-5.9c1.3-2.1,0.8-3.3-0.2-5c1,0.4,2.3,0.8,3.7,0.7
			c1.1-0.1,2.2-0.6,3.3-1.1c0.9,1.1,5,5.7,6.2,6.6C130,287.6,136.4,287.3,136.8,291.4z"/>
		<path class="st16" d="M115.8,74.6c0,0,0-0.1,0-0.1c0,0,0,0,0,0c0.1-0.9,0.1-1.8,0.1-2.6l0,0c0-2.7-0.1-5.2-0.3-7.6l0,0
			c-0.2-1.3-0.4-2.6-0.6-3.7c0-0.2-0.1-0.3-0.1-0.5c-0.6-2.6-1.5-4.5-2.6-5.4c-1.9-1.5-4.5-2.1-6.3-2.2c0.5-0.4,1.5-0.4,1.5-0.4
			c-1.1-0.3-3.7,0.4-3.7,0.4c-14.5-8.3-20.4,14-20.8,19.3c-0.3,2.9-0.6,6-2.3,8.8c0,0-0.1,0.1-0.1,0.1c-1.4,2.3-3.6,4.4-7.4,6
			c-19.5,8.1-6.3,25.1-6.3,25.1c0.1,0.1,10.5,14.8,10.5,14.8c0.1-1.1,24-27.9,24.7-28.3c0.3-0.2,0.6-0.3,0.9-0.5
			c0.8-0.5,1.6-0.9,2.4-1.3c0.2-0.1,0.5-0.2,0.7-0.4c0.1,0,0.1-0.1,0.2-0.1l0,0c0.2-0.1,0.3-0.2,0.5-0.2c0.5-0.6,1-1.2,1.4-1.9
			c0.2-0.3,0.3-0.5,0.5-0.8c0.1-0.2,0.2-0.4,0.4-0.6c0.1-0.3,0.3-0.5,0.4-0.8c0,0,0,0,0,0c0.3-0.7,0.6-1.3,0.9-2
			c0-0.1,0.1-0.2,0.1-0.2c0.4-1.1,0.8-2,1-2.7c0.2-0.5,0.3-0.9,0.3-1.1c-0.1,0.4-0.2,0.7-0.3,1.1c-0.3,1-0.5,1.9-0.8,2.6
			c0,0.1,0,0.2-0.1,0.2c-0.4,1.2-0.8,2.2-1.2,3.1c-0.1,0.2-0.2,0.4-0.3,0.6c0,0,0,0,0,0c-0.2,0.5-0.5,0.9-0.7,1.2
			c-0.1,0.2-0.2,0.3-0.3,0.5c0.1-0.1,0.3-0.2,0.4-0.3c0.1-0.1,0.3-0.2,0.4-0.3c0.3-0.3,0.6-0.6,0.9-0.9c0.1-0.1,0.3-0.3,0.4-0.4
			c0.2-0.2,0.3-0.4,0.5-0.6c0.7-0.9,1.3-2,1.9-3.2c1.2-2.7,2.1-5.9,2.6-9.3C115.5,78.1,115.7,76.3,115.8,74.6z"/>
		<path class="st1" d="M90.7,89.3c0,0,4.4,0,8.6,0.7c2.9,0.5,5.7,1.7,7.3,2.5c3.9,2.1,2.9,9.3-5.6,7.2
			C92.6,97.6,89.9,91.4,90.7,89.3z"/>
		<path class="st1" d="M106,95.9c0,0,0.7,6.3-4.9,5.6c-3.7-0.5-11.2-5.6-10.3-8.7c0.5-1.5,3.6-5.1,4.9-13.9l0.7,0.2l11,4
			c0,0-0.8,3.5-1.3,6.9C105.6,92.8,105.4,95.5,106,95.9z"/>
		<path class="st17" d="M107.4,83.1c0,0-0.8,3.5-1.3,6.9c-6.3-1.2-8.8-7.5-9.7-10.9L107.4,83.1z"/>
		<path class="st16" d="M95.4,77.7c0,0-2.5-5.8-2.6-10.4c-0.1-3.3,3.4-15,15.1-11.4c0,0,3.4,0.9,6.4,3.6c2.3,2.2,5.5,6.5-0.3,16.3
			l-1.6,3.3L95.4,77.7z"/>
		<path class="st1" d="M115,77.2c-1.5,4.8-3.8,9.6-6,9.4c0,0-0.8-0.1-2-0.4c-4-0.9-12.8-3.8-11.7-11.1c0.9-6,0.8-10.9,3.2-13.3
			c1.3-1.4,3.4-2,6.9-1.7c9.7,0.9,11,4.8,11.3,8C117,69.6,116.2,73.4,115,77.2z"/>
		<path class="st18" d="M107.1,86.2c-4-0.9-12.8-3.8-11.7-11.1c0.9-6,0.8-10.9,3.2-13.3c2.4-0.3,2.9,6.4,2.9,6.4S98.5,81,107.1,86.2
			z"/>
		<path class="st16" d="M112.4,61c0,0-5.8,10.4-12.4,11c-6.6,0.7-9.1-1.5-9.1-1.5s5.4-3.1,7.5-9.7C98.5,60.8,110.1,55.2,112.4,61z"
			/>
		<path class="st16" d="M111.3,61.7c0,0,2.7,2.9,3.1,5.4c0.4,2.5,0,7.5,1.4,7.5c0,0,4.3-7,1.4-11.8
			C114.2,57.8,111.3,61.7,111.3,61.7z"/>
		<path class="st19" d="M72,162.6c4,3.4,22.1-0.7,27.8-3.5c2.5-1.2,6-1.6,9.2-1.8c4.1-0.3,8-0.4,9.4-1.8c0.5-0.5-1.3-5.7-3.2-11.3
			c-1.6-4.9-3.3-10.2-3.3-12.6c0-0.3,0-0.6,0.1-0.8c1.1-4.1,2.1-7.8,2.2-9.6c0.2-4.5-0.7-11.3-0.7-11.3c6.2-0.6,6.3-3.1,6.3-3.1
			c-0.6-2-3.8-9.4-5.2-11.2c-1.4-1.8-7.8-3.1-7.8-3.1s1.1,6.2-5.9,5.6c-7.1-0.6-10-8.8-10-8.8s-13.9-3.6-15.3,8
			c-1.4,11.8,3.4,34,3,41C77.4,143.6,68.5,159.6,72,162.6z"/>
		<path class="st20" d="M88.8,117.9c0,0,7,23.4,26.3,26.3c-1.6-4.9-3.3-10.2-3.3-12.6C103,124.5,91,117.2,88.8,117.9z"/>
		<path class="st1" d="M78,102.2c0,0,16.9,31.8,29.5,31.9c0,0,2.2,0.1,1.2-5.5c-0.3-1.6-2-5.4-4.4-10c-2.6-4.9-6-10.8-9.1-15.8
			c-4-6.3-7.6-11.3-9-11.6C82.6,90.4,77.9,96.1,78,102.2z"/>
		<path class="st19" d="M94.4,99.4c0,0-3.1,8.6-15,7.1c0,0-7.4-8,0.5-15.2C87.9,84,94.4,99.4,94.4,99.4z"/>
		<path class="st1" d="M115.2,88.7c0,0,2.3-8.5,1.1-8.9c-1.2-0.4-8.4,0.8-8.3,3.3c0.1,2.5,1.6,6.4,1.6,6.4L115.2,88.7z"/>
		<path class="st17" d="M95.1,102.8c1,8.1,8.6,20.4,8.6,20.4c0.5-1.3,0.7-2.8,0.5-4.5C101.6,113.6,98.3,107.8,95.1,102.8z"/>
		<path class="st1" d="M107.4,134.1c1.4,0.8,6-2.2,6-2.2c4.8-4.6,1.8-43.1,1.8-43.1l-5.6,0.7c-1.4,12.1-4.2,21.5-5.6,28.7
			C102.4,126,102.4,131.1,107.4,134.1z"/>
		<path class="st17" d="M107.4,134.1c1.4,0.8,6-2.2,6-2.2c4.8-4.6,1.8-43.1,1.8-43.1s-1.3,38.6-6.7,44.6
			C108.1,133.7,107.8,133.9,107.4,134.1z"/>
	</g>
	<g>
		<path class="st1" d="M269.1,154.5c0,0,2.7,6.1,3.4,6.9c0.7,0.8,4.3,3,4.5,2.8c0.3-0.1,0.4-0.4,0-1c-0.4-0.6-1.9-2.1-1.6-2.2
			c0.3,0,5,4.3,6.1,3.6c1.1-0.7,0.9-4.8-0.7-7.3c-1.6-2.4-7.7-5-8-5.4C270,148.9,269.1,154.5,269.1,154.5z"/>
		<path class="st20" d="M246.6,77.3c0,0,3.7,29.4,7.4,43.2c0,0,22.1,31.6,22.1,33.2c0,0-2.5,4.6-8.2,2.3c0,0-26.3-19.7-29.7-25.5
			c-3.4-5.8-11.5-35.7-11.3-39.2C227.1,87.8,239.8,69.2,246.6,77.3z"/>
		<path class="st5" d="M182.7,271c0,0-4.3,4-3.5,6.8c0.8,2.8,4.7,4.7,5.3,8.2c0.5,3.5,2.6,5.4,4.5,5.4c1.9,0,9,0,9,0s1.4-2.4-2-3.2
			c-3.4-0.7-4.6-4.8-4.4-8.6c0.2-3.8-0.3-8.8-0.3-8.8l-7.1-1.7L182.7,271z"/>
		<path class="st5" d="M236.4,291.2c0,0,0.1,0,0.1,0.1h24.3c-0.2-0.9-1-2.4-3.8-2.9c-3.8-0.6-10.3-2.8-11.7-7.6
			c0-0.2-0.1-0.3-0.1-0.5c-1.2-5.1-9.6,1.6-9.6,1.6s0,0.2-0.1,0.6C235.3,284.3,234.8,290.4,236.4,291.2z"/>
		<path class="st16" d="M256,153.5c0,0-1.3,15.9-2.8,35.1c-2,26-4.5,58-4.7,64c-0.4,10.5-2.1,27.3-2.1,27.3s-4,4-12,2.3
			c0,0-7.1-24-9.2-49.4c0-0.4-0.1-0.8-0.1-1.3c-1.9-25.8-4.8-80.3-4.8-80.3L256,153.5z"/>
		<path class="st21" d="M256,153.5c0,0-1.3,15.9-2.8,35.1l-28,44.2c0-0.4-0.1-0.8-0.1-1.3c-1.9-25.8-4.8-80.3-4.8-80.3L256,153.5z"
			/>
		<path class="st16" d="M250.2,155.4c0,0-23,57.7-38.1,84.8c-15.1,27.1-19.9,34.7-19.9,34.7s-8.7-3.5-9.5-5.8
			c0,0,5.8-52.3,15.9-65.1c5.7-7.2,12.5-28.8,12.8-36.4c0.3-7.6,2-22.5,2-22.5L250.2,155.4z"/>
		<path class="st1" d="M236.9,70.6c0,0,1,10.1,9.7,12.1c0,0,3.9-2.6,5.8-5.2c0.2-0.3,0.4-0.6,0.7-0.9c2.1-2.9,3.3-4.5,3.3-4.5
			s0,0,0,0c-0.2-0.3-7.6-11.5-7.8-11.2C243.2,69,236.9,70.6,236.9,70.6z"/>
		<path class="st2" d="M248.2,63.5c-0.3,2.5,0.7,8.4,4.8,13.1c2.1-2.9,3.3-4.5,3.3-4.5s0,0,0,0C256.1,71.8,248.3,62.8,248.2,63.5z"
			/>
		<path class="st1" d="M258.7,73.2c0,0-13.3-5.1-10-13.4c3.3-8.3,3.9-14.5,12.5-11.5c8.7,2.9,9,6.7,8.6,9.8
			C269.3,61.1,262.2,74.3,258.7,73.2z"/>
		<path class="st19" d="M214.1,155.4c6.6,5.6,44.9,5.5,43.3,0.8c-0.8-2.2-2.2-6.5-2.9-12.8c-0.6-5.6-0.7-12.8,0.9-21.5
			c0.4-2.1,0.8-4.4,1.4-6.7c0.8-3.1,1.4-6.3,1.7-9.4c0.1-1,0.2-2,0.3-3.1c0.6-7.8-0.2-15-2.6-19.1c-3.7-6.3-15.2-14.9-15.2-14.9
			s-23.9,5.7-29.5,49.8C211.4,118.5,208.3,150.4,214.1,155.4z"/>
		<path class="st14" d="M266,64c-0.5-1.1-1.7-1.6-2.9-1.4c-1.9,0.3-4.8,1.1-6.1,3.2c-1.5,2.5-0.2,6.7-0.9,9.8
			c-0.6,2.7,2.4,5.4,2.4,5.4s1.5-2.6,4.1-4.4c2.1-1.5,5-6.1,4.8-8.3C267.4,67,266.7,65.2,266,64z"/>
		<path class="st22" d="M247.7,62c-0.2,0-3.2-0.9-1.5-13.5c0.3-2,1.9-5.5,5.6-7.1c3.6-1.6,11.2,0.3,16.9,2.8c5.7,2.5,5,6.2,4.2,9.8
			c-0.8,3.8,1.1,8.8,1.1,8.8c-6-0.5-8.9-7.6-11.1-8.3c-2.2-0.7-4.8,1.8-5.6,2.6c-0.8,0.8-1.5,1.4-3.2-0.9c-1.7-2.4-3.2,2.5-3.4,3.6
			C250.7,59.8,249.6,62.1,247.7,62z"/>
		<path class="st20" d="M255.3,121.8c0.4-2.1,0.8-4.4,1.4-6.7c0.8-3.1,1.4-6.3,1.7-9.4c-6.4-8.6-15.8-17.1-21.5-16.8
			C236.9,89,236.6,114.8,255.3,121.8z"/>
		<path class="st19" d="M232.3,76.8c0,0,9.7-2.5,17.4,6.9c7.7,9.4,21.4,35,21.4,35s-2.7,4.7-10.7,2.2
			C256.3,119.5,213.6,84.8,232.3,76.8z"/>
		<path class="st1" d="M269.1,80.2c0,0-0.7-2.8,0.1-5.4c0.6-2.2-0.6-7.6-1.4-8.6c-0.8-1.1-4.3-3.2-4.6-2.6s0.9,3.9,1,4.4
			c0.3,1.4,0.1,3.1-0.1,3c-0.2-0.1-2.1-2.1-2.1-2.1s-0.4,0.5,0,1.7c0.4,1.2,1.5,3.7,2.2,4.4c0.7,0.7,0.7,5.9,0.7,5.9L269.1,80.2z"/>
		<path class="st19" d="M270.5,74.9c0,0,5.8,26.6,0.6,43.8c0,0-7.5,1.4-10.4-2.9c-2.9-4.4,2.3-39.7,2.3-39.7S266.3,72.2,270.5,74.9z
			"/>
	</g>
	<path class="st19" d="M770.1,293.3H1c-0.6,0-1-0.5-1-1l0,0c0-0.6,0.5-1,1-1h769.1c0.6,0,1,0.5,1,1v0
		C771.1,292.8,770.7,293.3,770.1,293.3z"/>
</g>
</svg>
