<?xml version="1.0" encoding="utf-8"?>
<!-- Generator: Adobe Illustrator 22.1.0, SVG Export Plug-In . SVG Version: 6.00 Build 0)  -->
<svg version="1.1" id="Layer_1" xmlns="http://www.w3.org/2000/svg" xmlns:xlink="http://www.w3.org/1999/xlink" x="0px" y="0px"
	 width="215.1px" height="234.9px" viewBox="0 0 215.1 234.9" style="enable-background:new 0 0 215.1 234.9;" xml:space="preserve"
	>
<style type="text/css">
	.st0{fill-rule:evenodd;clip-rule:evenodd;fill:#DFD4F8;}
	.st1{fill-rule:evenodd;clip-rule:evenodd;fill:#9C7217;}
	.st2{fill-rule:evenodd;clip-rule:evenodd;fill:#785710;}
	.st3{fill-rule:evenodd;clip-rule:evenodd;fill:#68C3EF;}
	.st4{fill-rule:evenodd;clip-rule:evenodd;fill:#54BCEF;}
	.st5{fill-rule:evenodd;clip-rule:evenodd;fill:#F0C17D;}
	.st6{fill-rule:evenodd;clip-rule:evenodd;fill:#FFDBA7;}
	.st7{fill-rule:evenodd;clip-rule:evenodd;fill:#F1CF30;}
	.st8{fill-rule:evenodd;clip-rule:evenodd;fill:#F1B530;}
	.st9{fill-rule:evenodd;clip-rule:evenodd;fill:#D49B20;}
	.st10{fill-rule:evenodd;clip-rule:evenodd;fill:#292929;}
	.st11{fill-rule:evenodd;clip-rule:evenodd;fill:#4F4F4F;}
	.st12{fill-rule:evenodd;clip-rule:evenodd;fill:#707070;}
	.st13{fill-rule:evenodd;clip-rule:evenodd;fill:#171717;}
	.st14{fill-rule:evenodd;clip-rule:evenodd;fill:#CDF2FA;}
	.st15{fill-rule:evenodd;clip-rule:evenodd;fill:#A6D5E0;}
	.st16{fill-rule:evenodd;clip-rule:evenodd;fill:#F3E635;}
	.st17{fill-rule:evenodd;clip-rule:evenodd;fill:#608A0C;}
	.st18{fill-rule:evenodd;clip-rule:evenodd;fill:#4B6B0A;}
	.st19{fill-rule:evenodd;clip-rule:evenodd;fill:#E3E3E3;}
	.st20{fill-rule:evenodd;clip-rule:evenodd;fill:#F0F0F0;}
	.st21{fill-rule:evenodd;clip-rule:evenodd;fill:#1C1C1C;}
	.st22{fill-rule:evenodd;clip-rule:evenodd;fill:#3B3B3B;}
</style>
<g>
	<g>
		<g>
			<path class="st0" d="M212,36.5c-4.2-6.6-11.8-1.4-17,4.2c-21.1-5.8-25.3-16.2-30.4-29.6c-2,3.4-1.3,7.5,0.8,13.2
				c-3.4-3.2-5.3-6.8-7.2-11.4c-2,4.9-0.4,10.5,4.8,15.6c-5.2-2.9-6.6-4.5-9.4-8.5c0.7,6.6,1.3,8.9,7.6,13.5c-3-1.1-4.1-1.4-7.5-3.5
				c1.6,5.5,3.9,7,9.9,9c-3.4-0.3-4.1-0.2-8.6-1.3c2.8,4.2,7.7,5.8,12.1,6.3c-2.8,0-5.8,0-8.7-0.1c1.9,2,6.6,4.5,12.8,4.5
				c-1.9,0.7-4.3,1.1-7.2,1.2c3.7,2.7,6.6,2.4,10.9,2.3c-1.9,0.8-3.8,1.3-5.7,2c4.5,1.5,8.6,1,11.9,0.6l-4,1.8
				c2.2,0.3,4.7-0.1,6.7-0.7c-1.1,0.9-2.2,1.6-3.6,2.1c-5.1,2-16.2-1.1-28.1-4.4c3.4,5.3,10.1,7,17.3,8.1
				c-5.8,0.1-10.5-1.8-15.8-3.8c4,10.2,14.3,10.2,24.7,7.3c1-0.3,2.1-0.5,3.1-0.5c8-0.3,14.4,0.6,20-6.4c5.8-7.4,2.5-16.6,9.8-18.9
				l0-0.1c1.9,0.2,2.5,0.6,3.8,1.7C214.9,38.3,214.3,37.4,212,36.5L212,36.5L212,36.5z M208.2,35.2c0.5,0,0.9,0.4,0.9,0.9
				c0,0.5-0.4,0.9-0.9,0.9c-0.5,0-0.9-0.4-0.9-0.9C207.3,35.6,207.7,35.2,208.2,35.2L208.2,35.2z M199.6,34c-2.9,1.8-5,4.7-5.4,4.5
				c-7.2-2.1-12.2-4.5-16-7.7c-0.4-1.1-0.7-2.4-0.7-4c1.8,2.2,3.5,4,5.3,5c-3.8-4.9-4.7-10.1-4.3-12.9c1.6,2.3,3.5,4.7,5.2,6.9
				c-2.2-3.8-4-8.7-2.3-13.4c1.9,4.3,2.4,4.8,4.2,7.7c-2-6-2.2-8.7,1.2-13.3c0.4,4,0.9,5,1.8,8.1c-0.2-7.8,1.2-9.7,6.1-14.3
				c-1.5,4.7-1.9,6.8-1.1,12.7c0.9-7.3,4.4-12,9.5-13.3c-2.5,4.3-4.3,8-4.7,12.6c3.2-5.2,6-8.2,9.9-8.7
				C202.3,13.4,197.5,21.4,199.6,34z"/>
		</g>
	</g>
	<g>
		<g>
			<g>
				<rect x="46.2" y="39" class="st1" width="125.6" height="144.9"/>
			</g>
			<g>
				<rect x="109" y="39" class="st2" width="62.8" height="144.9"/>
			</g>
			<g>
				<rect x="61.8" y="53.5" class="st3" width="94.4" height="115.9"/>
			</g>
			<g>
				<rect x="109" y="53.5" class="st4" width="47.2" height="115.9"/>
			</g>
			<g>
				<g>
					<path class="st5" d="M109,150H91.4c-5.8-2.3-11-5.8-15.3-10.1c0.3-17.1,19.1-7.2,23.5-19.3c0.8-2.3,0.9-5.9,0.3-8.3l9.1,0.2
						l9.1-0.2c-0.5,2.4-0.5,6,0.3,8.3c4.4,12.2,23.3,2.3,23.5,19.3c-4.4,4.3-9.6,7.8-15.3,10.1H109z"/>
				</g>
				<g>
					<path class="st6" d="M109.2,117.8c-0.1,0-0.1,0-0.2,0c-1.9,0-2.9,0-3.9-0.5c-1-0.4-1.5-1.4-2.9-2.7c-1.2-1.1-3.3-2.3-3.8-3.5
						c-0.6-1.5-0.5-3.1-0.7-5.3c-1.1,0.6-2.3-2.5-2.5-3.5c-0.3-1.5-1.4-4.1-1.8-5.8c-0.2-1-0.1-1.8,0.3-2c0.7-0.5,1.5-0.2,2.6,1.3
						c-0.1-2.2-0.1-4,0.2-5.6c1.5-8.6,22.5-13.4,24.9,0c0.3,1.6,0.3,3.4,0.2,5.6c1.1-1.5,1.8-1.8,2.5-1.3c0.3,0.2,0.4,1,0.3,2
						c-0.3,1.7-1.4,4.3-1.8,5.8c-0.2,1-1.4,4.1-2.4,3.6c-0.2,2.1-0.1,3.7-0.7,5.2c-0.5,1.2-2.6,2.4-3.8,3.5
						c-1.4,1.3-1.9,2.3-2.8,2.8C111.9,117.7,111,117.7,109.2,117.8z"/>
				</g>
				<g>
					<path class="st1" d="M99.4,88c-1.8,2.1-2.2,10.5-2.1,13.4c-3-10.9-4.6-18.7,1.9-23.7c8.6-6.5,18.2-2.5,19.8,0.2
						c6.3,3.5,4.1,13.3,2.2,22c0-3.3-1.6-11.3-2.9-14.7C113.6,82.1,108.6,92.2,99.4,88z"/>
				</g>
				<g>
					<path class="st2" d="M109,74.2c5-0.1,9.1,2,10.1,3.7c6.3,3.5,4.1,13.3,2.2,22c0-3.3-1.6-11.3-2.9-14.7
						c-3.7-1.6-6.3,1.6-9.4,2.7V74.2z"/>
				</g>
				<g>
					<path class="st7" d="M97.8,122.2c-4.5,3.7-12.1,3.3-17.9,6.4c-3.5,1.9-4.7,4.3-6.2,8.7l-11.2,32.1H143
						c-0.2-10.8,2.2-32.1-0.8-36.5c-5.5-8.1-16.2-5.9-22-10.7l-11.2,9.7L97.8,122.2z"/>
				</g>
				<g>
					<path class="st8" d="M120.2,122.2c4.5,3.7,12.1,3.3,17.9,6.4c3.5,1.9,4.7,4.3,6.2,8.7l11.2,32.1H109v-37.5l0,0L120.2,122.2z"/>
				</g>
				<g>
					<g>
						<polygon class="st8" points="86.6,146.7 79.1,169.4 83.5,169.4 						"/>
					</g>
					<g>
						<polygon class="st9" points="131.4,146.7 138.9,169.4 134.5,169.4 						"/>
					</g>
				</g>
			</g>
			<g>
				<polygon class="st10" points="108.3,39.1 108.2,39 87.6,39 46.2,80.7 46.2,101.7 				"/>
			</g>
		</g>
		<g>
			<g>
				<path class="st11" d="M39.8,105.9c12.5,0,23,7.7,26.2,18.1H13.7C16.8,113.6,27.3,105.9,39.8,105.9z"/>
			</g>
			<g>
				<rect x="16.4" y="118.7" class="st10" width="46.8" height="15.6"/>
			</g>
			<g>
				<path class="st12" d="M39.8,93.1c1.4,2.5,4.7,5.1,5.8,7.9c0.9,2.3,0,7-5.8,6.4c-5.8,0.6-6.8-4.1-5.8-6.4
					C35.1,98.2,38.4,95.7,39.8,93.1z"/>
			</g>
			<g>
				<path class="st11" d="M39.8,131.9c19.3,0.6,28.9-1.6,34.7,4.6c9.8,10.5,4,23.7-4.1,34.5c-7.4,9.9-7.3,13.4-3.2,23.9H39.8H12.5
					c4-10.5,4.2-14-3.2-23.9c-8.1-10.9-13.9-24-4.1-34.5C10.9,130.3,20.5,132.5,39.8,131.9z"/>
			</g>
			<g>
				<path class="st12" d="M11.1,193.8h57.4c1.5,0,2.6,1.2,2.6,2.6v14.3c0,1.5-1.2,2.6-2.6,2.6H11.1c-1.5,0-2.6-1.2-2.6-2.6v-14.3
					C8.5,195,9.7,193.8,11.1,193.8z"/>
			</g>
			<g>
				<path class="st12" d="M13.5,118.7h52.7c0.8,0,1.4,0.6,1.4,1.4v5.8c0,0.8-0.6,1.4-1.4,1.4H13.5c-0.8,0-1.4-0.6-1.4-1.4v-5.8
					C12.1,119.4,12.7,118.7,13.5,118.7z"/>
			</g>
			<g>
				<path class="st10" d="M39.8,105.9c12.5,0,23,7.7,26.2,18.1H39.8V105.9z"/>
			</g>
			<g>
				<rect x="39.8" y="118.7" class="st13" width="23.4" height="15.6"/>
			</g>
			<g>
				<path class="st11" d="M39.8,93.1c1.4,2.5,4.7,5.1,5.8,7.9c0.9,2.3,0,7-5.8,6.4V93.1z"/>
			</g>
			<g>
				<path class="st10" d="M39.8,131.9c19.3,0.6,28.9-1.6,34.7,4.6c9.8,10.5,4,23.7-4.1,34.5c-7.4,9.9-7.3,13.4-3.2,23.9H39.8V131.9z
					"/>
			</g>
			<g>
				<path class="st11" d="M39.8,193.8h28.7c1.5,0,2.6,1.2,2.6,2.6v14.3c0,1.5-1.2,2.6-2.6,2.6H39.8V193.8z"/>
			</g>
			<g>
				<path class="st11" d="M39.8,118.7h26.3c0.8,0,1.4,0.6,1.4,1.4v5.8c0,0.8-0.6,1.4-1.4,1.4H39.8V118.7z"/>
			</g>
		</g>
		<g>
			<g>
				<path class="st11" d="M177.7,144.8L177.7,144.8c0.9,0,1.6-0.7,1.6-1.6v-8.1c0-0.9-0.7-1.6-1.6-1.6h0c-0.9,0-1.6,0.7-1.6,1.6v8.1
					C176.1,144.1,176.8,144.8,177.7,144.8z"/>
			</g>
			<g>
				<path class="st10" d="M177.7,144.8c0.9,0,1.6-0.7,1.6-1.6v-8.1c0-0.9-0.7-1.6-1.6-1.6V144.8z"/>
			</g>
			<g>
				<rect x="165.1" y="142" class="st14" width="25.1" height="56.9"/>
			</g>
			<g>
				<rect x="177.7" y="142" class="st15" width="12.5" height="56.9"/>
			</g>
			<g>
				<path class="st7" d="M169.4,119.9c3.3-5.7,14-7.2,13.7-19.6c9.8,10.7,14.4,34.5-5.6,38.7C173.3,139.9,164.6,128.3,169.4,119.9z"
					/>
			</g>
			<g>
				<path class="st16" d="M174.5,125.2c2.3-3.6,8.5-3.7,10.5-11.6c3.6,9.9,1.2,20.4-7.5,22.2C175.7,136.2,171.5,129.8,174.5,125.2z"
					/>
			</g>
		</g>
		<g>
			<g>
				<polygon class="st17" points="164.7,196.4 121.9,213.4 110.6,232.4 108.2,230.1 117.9,214.8 117.8,214.7 103,225.3 100.6,223 
					118.8,210.6 133.1,166.8 135.9,167.7 122.4,209.3 123.2,209 123,209.8 163.6,193.6 				"/>
			</g>
			<g>
				<polygon class="st18" points="164.7,196.4 121.9,213.4 110.6,232.4 108.2,230.1 117.3,215.3 123.2,209 123,209.8 163.6,193.6 
									"/>
			</g>
			<g>
				<g>
					<g>
						<g>
							<g>
								<path class="st19" d="M166.7,197.9c-2.3,3-1.5,7.6,1.9,10.2c3.4,2.6,8,2.2,10.3-0.8c2.3-3,1.5-7.6-1.9-10.2
									C173.6,194.5,169,194.9,166.7,197.9z"/>
							</g>
							<g>
								<path class="st19" d="M165.9,191.8c3,2.3,7.6,1.5,10.2-1.9c2.6-3.4,2.2-8-0.8-10.3c-3-2.3-7.6-1.5-10.2,1.9
									C162.4,184.8,162.8,189.5,165.9,191.8z"/>
							</g>
						</g>
						<g>
							<g>
								<path class="st19" d="M157.8,192.9c2.3-3,1.5-7.6-1.8-10.2c-3.4-2.6-8-2.2-10.3,0.8c-2.3,3-1.5,7.6,1.9,10.2
									C150.8,196.3,155.4,195.9,157.8,192.9z"/>
							</g>
							<g>
								<path class="st19" d="M158.6,199c-3-2.3-7.6-1.5-10.2,1.9c-2.6,3.4-2.2,8,0.8,10.3c3,2.3,7.6,1.5,10.2-1.9
									C162,205.9,161.6,201.3,158.6,199z"/>
							</g>
						</g>
					</g>
					<g>
						<g>
							<path class="st20" d="M162.8,199.7c-3.8,0.5-6.5,4.3-5.9,8.5c0.5,4.2,4.1,7.2,7.9,6.7c3.8-0.5,6.5-4.3,5.9-8.5
								C170.1,202.2,166.6,199.2,162.8,199.7z"/>
						</g>
						<g>
							<path class="st20" d="M161.6,191.1c3.8-0.5,6.5-4.3,5.9-8.5c-0.6-4.2-4.1-7.2-7.9-6.7c-3.8,0.5-6.5,4.3-5.9,8.5
								C154.3,188.6,157.8,191.6,161.6,191.1z"/>
						</g>
					</g>
					<g>
						<path class="st20" d="M166.5,194.8c0.5,3.8,4.3,6.5,8.5,5.9c4.2-0.6,7.2-4.1,6.7-7.9c-0.5-3.8-4.3-6.5-8.5-5.9
							C169,187.5,166,191,166.5,194.8z"/>
					</g>
					<g>
						<path class="st20" d="M157.9,196c-0.5-3.8-4.3-6.5-8.5-5.9c-4.2,0.5-7.2,4.1-6.7,7.9c0.5,3.8,4.3,6.5,8.5,5.9
							C155.4,203.3,158.4,199.8,157.9,196z"/>
					</g>
					<g>
						<path class="st7" d="M168.4,194.6c0.4,3.4-2,6.6-5.4,7c-3.4,0.4-6.6-2-7-5.4c-0.4-3.4,2-6.6,5.4-7
							C164.8,188.7,168,191.1,168.4,194.6z"/>
					</g>
				</g>
				<g>
					<g>
						<g>
							<g>
								<path class="st19" d="M138.7,171.7c-2.3,3-1.5,7.6,1.8,10.2c3.4,2.6,8,2.2,10.3-0.8c2.3-3,1.5-7.6-1.9-10.2
									C145.6,168.3,141,168.6,138.7,171.7z"/>
							</g>
							<g>
								<path class="st19" d="M137.9,165.6c3,2.3,7.6,1.5,10.2-1.9c2.6-3.4,2.2-8-0.8-10.3c-3-2.3-7.6-1.5-10.2,1.9
									C134.5,158.6,134.8,163.2,137.9,165.6z"/>
							</g>
						</g>
						<g>
							<g>
								<path class="st19" d="M129.8,166.6c2.3-3,1.5-7.6-1.9-10.2c-3.4-2.6-8-2.2-10.3,0.8c-2.3,3-1.5,7.6,1.9,10.2
									C122.8,170.1,127.4,169.7,129.8,166.6z"/>
							</g>
							<g>
								<path class="st19" d="M130.6,172.7c-3-2.3-7.6-1.5-10.2,1.9c-2.6,3.4-2.2,8,0.8,10.3c3,2.3,7.6,1.5,10.2-1.9
									C134,179.7,133.6,175.1,130.6,172.7z"/>
							</g>
						</g>
					</g>
					<g>
						<g>
							<path class="st20" d="M134.8,173.5c-3.8,0.5-6.5,4.3-5.9,8.5c0.6,4.2,4.1,7.2,7.9,6.7c3.8-0.5,6.5-4.3,5.9-8.5
								C142.1,176,138.6,173,134.8,173.5z"/>
						</g>
						<g>
							<path class="st20" d="M133.7,164.9c3.8-0.5,6.5-4.3,5.9-8.5c-0.6-4.2-4.1-7.2-7.9-6.7c-3.8,0.5-6.5,4.3-5.9,8.5
								C126.3,162.3,129.8,165.4,133.7,164.9z"/>
						</g>
					</g>
					<g>
						<path class="st20" d="M138.5,168.6c0.5,3.8,4.3,6.5,8.5,5.9c4.2-0.5,7.2-4.1,6.7-7.9c-0.5-3.8-4.3-6.5-8.5-5.9
							C141,161.3,138,164.8,138.5,168.6z"/>
					</g>
					<g>
						<path class="st20" d="M129.9,169.7c-0.5-3.8-4.3-6.5-8.5-5.9c-4.2,0.6-7.2,4.1-6.7,7.9c0.5,3.8,4.3,6.5,8.5,5.9
							C127.4,177.1,130.4,173.5,129.9,169.7z"/>
					</g>
					<g>
						<path class="st7" d="M140.4,168.3c0.4,3.4-2,6.6-5.4,7c-3.4,0.4-6.6-2-7-5.4c-0.4-3.4,2-6.6,5.4-7
							C136.8,162.5,140,164.9,140.4,168.3z"/>
					</g>
				</g>
			</g>
			<g>
				<g>
					<polygon class="st21" points="118.7,210.5 123,214.1 120.5,234.9 114.2,232.1 					"/>
				</g>
				<g>
					<polygon class="st10" points="122.2,213.3 117.6,209.1 96.6,213.2 100.4,219.5 					"/>
				</g>
			</g>
			<g>
				<g>
					<g>
						<path class="st22" d="M121.9,205l-4.1-8.8c-0.8-1.8-3.7-1.3-5,0.2l-7.2,7.7c-1.3,1.4-1.7,4.3,0.2,5l9,3.5
							c1.8,0.7,3.7,1.3,5-0.2l2.3-2.4C123.4,208.6,122.7,206.8,121.9,205z"/>
					</g>
					<g>
						<path class="st10" d="M127.2,210l9,3.5c1.8,0.7,1.5,3.6,0.2,5l-7.2,7.7c-1.3,1.4-4.2,1.9-5,0.2l-4.1-8.8
							c-0.8-1.8-1.5-3.6-0.2-5l2.3-2.4C123.5,208.8,125.4,209.3,127.2,210z"/>
					</g>
				</g>
				<g>
					<path class="st11" d="M122.6,203.9l5.6,5.3c1,0.9,1,2.4,0.1,3.4l-5.3,5.6c-0.9,1-2.4,1-3.4,0.1l-5.6-5.3c-1-0.9-1-2.4-0.1-3.4
						l5.3-5.6C120.1,203.1,121.7,203,122.6,203.9z"/>
				</g>
				<g>
					<path class="st22" d="M125.4,206.6l2.8,2.6c1,0.9,1,2.4,0.1,3.4l-5.3,5.6c-0.9,1-2.4,1-3.4,0.1l-2.8-2.6L125.4,206.6z"/>
				</g>
			</g>
		</g>
	</g>
</g>
</svg>
