<?xml version="1.0" encoding="utf-8"?>
<!-- Generator: Adobe Illustrator 22.1.0, SVG Export Plug-In . SVG Version: 6.00 Build 0)  -->
<svg version="1.1" id="Layer_1" xmlns="http://www.w3.org/2000/svg" xmlns:xlink="http://www.w3.org/1999/xlink" x="0px" y="0px"
	 width="60px" height="60px" viewBox="0 0 60 60" style="enable-background:new 0 0 60 60;" xml:space="preserve">
<style type="text/css">
	.st0{fill:#DFD4F8;}
</style>
<rect x="57" y="8" class="st0" width="3" height="44.1"/>
<g>
	<path class="st0" d="M38,8.2H9.1c-2.1,0-3.8,2.2-3.8,4.8v17.1C5.3,32.8,7,35,9.1,35h3.4v9.1c0,0.6,0.3,1.2,0.7,1.4
		c0.2,0.1,0.4,0.2,0.6,0.2c0.3,0,0.5-0.1,0.7-0.3L25.9,35H38c2.1,0,3.8-2.2,3.8-4.8V13.1C41.8,10.4,40.1,8.2,38,8.2L38,8.2z
		 M11.2,13.6h13.4c0.7,0,1.3,0.7,1.3,1.6c0,0.9-0.6,1.6-1.3,1.6H11.2c-0.7,0-1.3-0.7-1.3-1.6C10,14.3,10.5,13.6,11.2,13.6L11.2,13.6
		z M35.5,29.6H11.2c-0.7,0-1.3-0.7-1.3-1.6c0-0.9,0.6-1.6,1.3-1.6h24.3c0.7,0,1.3,0.7,1.3,1.6C36.8,28.9,36.2,29.6,35.5,29.6
		L35.5,29.6z M35.5,23.2H11.2c-0.7,0-1.3-0.7-1.3-1.6s0.6-1.6,1.3-1.6h24.3c0.7,0,1.3,0.7,1.3,1.6S36.2,23.2,35.5,23.2L35.5,23.2z
		 M35.5,23.2"/>
	<path class="st0" d="M47.7,21.1h-3.4v9.1c0,4.4-2.8,8-6.3,8H26.7L22.5,42c0,0.9,0.6,1.6,1.3,1.6h11.3l8,8.2
		c0.2,0.2,0.5,0.4,0.8,0.4c0.2,0,0.4-0.1,0.5-0.2c0.4-0.3,0.7-0.8,0.7-1.4v-7h2.5c0.7,0,1.3-0.7,1.3-1.6V22.7
		C48.9,21.8,48.4,21.1,47.7,21.1L47.7,21.1z M47.7,21.1"/>
</g>
</svg>
