<?xml version="1.0" encoding="utf-8"?>
<!-- Generator: Adobe Illustrator 22.1.0, SVG Export Plug-In . SVG Version: 6.00 Build 0)  -->
<svg version="1.1" id="Layer_1" xmlns="http://www.w3.org/2000/svg" xmlns:xlink="http://www.w3.org/1999/xlink" x="0px" y="0px"
	 width="341.3px" height="159.2px" viewBox="0 0 341.3 159.2" style="enable-background:new 0 0 341.3 159.2;" xml:space="preserve"
	>
<style type="text/css">
	.st0{fill:#EFF0F5;}
	.st1{fill:#71D9E6;stroke:#3A9CA8;stroke-width:3;stroke-miterlimit:10;}
	.st2{enable-background:new    ;}
	.st3{fill:#FFFFFF;}
	.st4{fill:#F0746A;}
</style>
<g>
	<rect x="-0.3" class="st0" width="341.3" height="158.4"/>
	<ellipse class="st1" cx="42.6" cy="39.6" rx="20.7" ry="20.7"/>
	<g class="st2">
		<path class="st3" d="M49.7,45.1v3.7H35.6v-2.9l7.2-7.1c1.7-1.7,1.9-2.7,1.9-3.6c0-1.5-1-2.4-3-2.4c-1.6,0-3,0.6-3.9,2l-3.2-2.1
			c1.4-2.2,4.1-3.6,7.4-3.6c4.2,0,6.9,2.2,6.9,5.8c0,1.9-0.5,3.6-3.1,6.2l-4.3,4.3H49.7z"/>
	</g>
	<g>
		<g>
			<path class="st4" d="M179,90C177,93.4,180.6,87.2,179,90L179,90z"/>
			<path class="st4" d="M178.9,80c-1.5-3.5-2.9-6.6-4.1-9.3c1.6-1.7,2.5-4,2.5-6.4c0-2.1-0.7-4-1.8-5.6c0.6-0.1,1.2-0.6,1.3-1.3
				c0.1-0.6,3-15.1-5.3-25.7c-5-6.5-13.1-10-23.9-10.5c-10.3-0.5-18.3,1.9-24,7c-0.7,0.6-0.7,1.7-0.1,2.4c0.6,0.7,1.7,0.7,2.4,0.1
				c5-4.5,12.2-6.6,21.6-6.1c9.7,0.4,16.9,3.5,21.3,9.2c5.9,7.6,5.3,17.8,4.9,21.5c-3-0.2-5.8-0.6-8.2-1.2c-0.4-0.1-0.8-0.2-1.2-0.3
				c-11.2-3.3-11-10.5-11-10.8c0-0.8-0.4-1.5-1.2-1.7c-0.7-0.2-1.5,0.1-1.9,0.7c-3.1,5.1-13.2,9.9-27.7,13.3c-0.2,0-3.8,0.8-4.9,1
				c-0.1-4.5,0-13.7,4.5-20.9c0.5-0.8,0.2-1.8-0.5-2.3c-0.8-0.5-1.8-0.2-2.3,0.5c-5,8.1-5.1,18-5,22.8c-2.7,1.7-4.3,4.7-4.3,7.9
				c0,3.6,1.9,6.7,4.9,8.3c-4.1,6.4-5.7,11.5-4.6,15.1c0.7,2.3,2.3,3.9,4.8,5c2.1,0.9,5.1,1.7,8.8,2.5c-2.5,1.6-4.8,3.5-6.8,5.8
				c-4.6,5.3-7.1,12.2-7.1,19.2v14.6c0,0.9,0.8,1.7,1.7,1.7h64.2c0.9,0,1.7-0.8,1.7-1.7v-3.7c0-0.9-0.8-1.7-1.7-1.7
				s-1.7,0.8-1.7,1.7v2h-8.5v-4.9c0-0.9-0.8-1.7-1.7-1.7s-1.7,0.8-1.7,1.7v4.9h-12.8c4.3-6.2,11.1-18.1,13.5-34.4
				c6.9,4.7,11.2,12.6,11.2,21.5v4c0,0.9,0.8,1.7,1.7,1.7s1.7-0.8,1.7-1.7v-4c0-7.1-2.5-13.9-7.1-19.2c-1.2-1.4-2.6-2.7-4.1-3.9
				c6.5-1.3,10.8-3.7,12.8-7.1C180.6,87.2,180.6,83.8,178.9,80L178.9,80z M166.7,69.3v-11c0.4-0.1,0.8-0.1,1.2-0.1
				c0.5,0,1,0.1,1.4,0.2c2.7,0.7,4.6,3.1,4.6,5.9c0,1.9-0.8,3.5-2.2,4.7c-0.1,0-0.1,0.1-0.2,0.1c-0.7,0.5-1.4,0.9-2.3,1.1
				c-0.4,0.1-0.9,0.2-1.4,0.2c-0.4,0-0.8,0-1.2-0.1C166.7,69.9,166.7,69.6,166.7,69.3L166.7,69.3z M123.9,58.4
				c9.5-2.2,20.8-5.9,26.7-11.7c0.2,0.7,0.6,1.4,1,2.1c1.5,2.7,4.8,6.2,11.8,8.2l0,0l0,0v12.2c0,10.9-8.9,19.7-19.7,19.7
				c-10.9,0-19.7-8.9-19.7-19.7L123.9,58.4L123.9,58.4z M113.3,64.3c0-1.7,0.7-3.3,2-4.5c0.2,0.1,0.4,0.1,0.7,0.1c0.1,0,0.2,0,0.3,0
				c0.1,0,1.7-0.3,4.3-0.8v10.2c0,0.3,0,0.6,0,0.9c-0.4,0.1-0.8,0.1-1.2,0.1c-0.5,0-0.9-0.1-1.4-0.2
				C115.2,69.5,113.3,67.1,113.3,64.3L113.3,64.3z M116.3,89.5c-1.5-0.6-2.5-1.5-2.8-2.8c-0.8-2.7,0.9-7.4,4.7-13.1
				c0.4,0,0.8,0.1,1.1,0.1c0.5,0,1.1,0,1.6-0.1c1.3,7.2,6,13.2,12.3,16.4v1.5c-1.5,0.3-3,0.8-4.5,1.3
				C123.5,91.8,118.9,90.6,116.3,89.5L116.3,89.5z M141.9,132.8c-5-6.2-8-13.8-9.8-19.9c-0.3-0.9-1.2-1.4-2.1-1.1
				c-0.9,0.3-1.4,1.2-1.1,2.1c1.8,5.9,4.5,12.8,9.1,19.3h-14v-4.9c0-0.9-0.8-1.7-1.7-1.7c-0.9,0-1.7,0.8-1.7,1.7v4.9h-7.4v-12.9
				c0-9.3,4.8-17.5,12.2-22.1c0.3,2.2,0.8,5.4,1.8,9.4c0.2,0.8,0.9,1.3,1.6,1.3c0.1,0,0.3,0,0.4,0c0.9-0.2,1.5-1.1,1.2-2
				c-0.9-3.6-1.6-7.4-1.9-10.3c0.3-0.1,1-0.4,1.2-0.5c1.1-0.4,2.3-0.8,3.5-1.1v1.2c0,5.2,3.8,9.4,8.7,10.3L141.9,132.8L141.9,132.8z
				 M143.6,103.1L143.6,103.1c-3.9,0-7-3.1-7-7v-4.8c2.2,0.7,4.6,1.1,7,1.1s4.8-0.4,7-1.1v4.8l0,0
				C150.6,99.9,147.5,103.1,143.6,103.1L143.6,103.1L143.6,103.1z M145.3,132.9v-26.6c4.9-0.8,8.7-5.1,8.7-10.3v-1.2
				c2,0.5,3.9,1.1,5.6,2C157.3,115,149.3,127.6,145.3,132.9L145.3,132.9z M176,88.3c-1.7,3-6.6,5.1-14,6c-2.5-1.4-5.2-2.3-8-2.9
				v-1.5c6.3-3.2,11-9.2,12.3-16.4c0.5,0.1,1.1,0.1,1.6,0.1c0.7,0,1.5-0.1,2.2-0.3c0.7-0.2,1.3-0.4,2-0.7c1.2,2.5,2.4,5.4,3.8,8.6
				C177.1,84.2,177.1,86.5,176,88.3L176,88.3z"/>
			<path class="st4" d="M134,62.6c-0.9,0-1.7,0.8-1.7,1.7v1.8c0,0.9,0.8,1.7,1.7,1.7s1.7-0.8,1.7-1.7v-1.8
				C135.7,63.4,134.9,62.6,134,62.6L134,62.6z"/>
			<path class="st4" d="M153.7,62.6c-0.9,0-1.7,0.8-1.7,1.7v1.8c0,0.9,0.8,1.7,1.7,1.7s1.7-0.8,1.7-1.7v-1.8
				C155.4,63.4,154.7,62.6,153.7,62.6L153.7,62.6z"/>
			<path class="st4" d="M140.2,78.7c2.3-1.3,4.5-1.3,6.8,0c0.3,0.2,0.6,0.2,0.9,0.2c0.6,0,1.1-0.3,1.5-0.8c0.5-0.8,0.2-1.8-0.6-2.3
				c-3.3-1.9-6.8-1.9-10.2,0c-0.8,0.5-1.1,1.5-0.6,2.3C138.4,78.9,139.4,79.2,140.2,78.7L140.2,78.7z"/>
		</g>
		<g>
			<path class="st4" d="M201.6,57.3c-1-0.2-2-0.4-3.1-0.4c-7.4,0-13.4,6-13.4,13.4s6,13.4,13.4,13.4s13.4-6,13.4-13.4
				c0-4.6-2.3-8.8-6.2-11.3c-0.4-0.3-1-0.1-1.3,0.3c-0.3,0.4-0.1,1,0.3,1.3c3.3,2.1,5.3,5.7,5.3,9.7c0,6.3-5.1,11.5-11.5,11.5
				c-6.3,0-11.5-5.1-11.5-11.5c0-6.3,5.1-11.5,11.5-11.5c0.9,0,1.8,0.1,2.6,0.3c0.5,0.1,1-0.2,1.1-0.7
				C202.4,57.9,202.1,57.4,201.6,57.3L201.6,57.3z"/>
			<path class="st4" d="M219.6,90.3c-2.4,0-4.4,2-4.4,4.4s2,4.4,4.4,4.4s4.4-2,4.4-4.4C224,92.2,222,90.3,219.6,90.3z M219.6,97.2
				c-1.4,0-2.5-1.1-2.5-2.5s1.1-2.5,2.5-2.5s2.5,1.1,2.5,2.5S221,97.2,219.6,97.2z"/>
			<path class="st4" d="M198.9,66.9c0-2.3-1.9-4.2-4.2-4.2s-4.2,1.9-4.2,4.2s1.9,4.2,4.2,4.2S198.9,69.2,198.9,66.9L198.9,66.9z
				 M194.7,69.1c-1.2,0-2.3-1-2.3-2.3c0-1.2,1-2.3,2.3-2.3c1.2,0,2.3,1,2.3,2.3S196,69.1,194.7,69.1z"/>
			<path class="st4" d="M197.3,80c1.7,0,3.1-1.4,3.1-3.1s-1.4-3.1-3.1-3.1s-3.1,1.4-3.1,3.1S195.6,80,197.3,80z M197.3,75.6
				c0.7,0,1.2,0.6,1.2,1.2s-0.6,1.2-1.2,1.2c-0.7,0-1.2-0.6-1.2-1.2S196.6,75.6,197.3,75.6z"/>
			<path class="st4" d="M201.4,70.3c0,1.5,1.3,2.8,2.8,2.8s2.8-1.3,2.8-2.8s-1.3-2.8-2.8-2.8C202.6,67.5,201.4,68.8,201.4,70.3
				L201.4,70.3z M204.2,69.4c0.5,0,0.9,0.4,0.9,0.9s-0.4,0.9-0.9,0.9s-0.9-0.4-0.9-0.9S203.7,69.4,204.2,69.4z"/>
			<path class="st4" d="M177.6,39.7c-1.1,0-2.1,0.4-2.9,1.1c0.2,0.9,0.3,1.8,0.4,2.7c0.3-1,1.3-1.8,2.5-1.8c1.4,0,2.6,1.2,2.6,2.6
				c0,1.4-1.2,2.6-2.6,2.6c-0.9,0-1.8-0.5-2.2-1.3c0.1,1,0.1,1.9,0.2,2.7c0.6,0.3,1.3,0.5,2,0.5c2.5,0,4.5-2,4.5-4.5
				C182.1,41.7,180.1,39.7,177.6,39.7z"/>
			<path class="st4" d="M178.6,88.2c-0.2,0.6-0.5,1.2-0.9,1.8c0.2,0.2,0.3,0.5,0.3,0.9c0,0.8-0.6,1.4-1.4,1.4
				c-0.3,0-0.6-0.1-0.8-0.3c-0.5,0.4-1.1,0.8-1.6,1.1c0.6,0.6,1.5,1.1,2.4,1.1c1.8,0,3.3-1.5,3.3-3.3
				C180,89.8,179.4,88.8,178.6,88.2z"/>
			<path class="st4" d="M230.8,67.4c-0.1-1.7-0.9-3.3-2.2-4.3c-1.2-1-2.7-1.5-4.3-1.3c-2.1,0.2-4,1.6-4.9,3.6l-1.9,0.2l-1.9-0.5
				c-0.1,0-0.3-0.2-0.3-0.3c-0.5-1.6-1.3-3.2-2.3-4.6l0.7-1.8l2.1-2.3c1.2,0,2.3-0.6,3.1-1.5c1.4-1.7,1.4-4.2-0.1-5.8
				c-0.8-0.9-2-1.4-3.2-1.3c-1.2,0-2.3,0.5-3.1,1.4s-1.2,2-1.1,3.1l-2.1,2.3l-1.8,0.8c-2.6-1.5-5.6-2.4-8.7-2.4l-1.2-1.8l-0.4-2
				c1.6-1.3,2.4-3.4,1.9-5.4c-0.6-3-3.8-5-7-4.4c-1.6,0.3-3,1.2-3.9,2.5c-0.8,1.2-1.1,2.7-0.8,4.1c0.4,1.9,1.8,3.5,3.7,4.1l0.4,2.2
				l-0.4,2.2c-1.6,0.7-3.1,1.7-4.5,2.9l-1.3-0.2l-1.5-1.1c-0.2-1.1-0.9-2.1-1.8-2.8c-1.8-1.2-4.3-0.9-5.7,0.8
				c-0.8,0.9-1.1,2.1-1,3.3s0.7,2.3,1.7,3s2.2,1,3.4,0.8l1.3,0.9l0.6,1.1c0,0.1,0,0.1,0,0.2c-1.1,2.3-1.6,4.8-1.6,7.4
				c0,0.5,0,1,0.1,1.4c0,0.1,0,0.1-0.1,0.2l-2.1,1.5l-2.4,0.8c-0.6-0.5-1.4-0.8-2.2-1c0.5,0.9,1,1.9,1.6,3c0.1,0,0.2,0.1,0.3,0.1
				s0.2,0,0.3,0l3.1-1c0.1,0,0.2-0.1,0.3-0.1l2.2-1.6c0.6-0.4,0.9-1.2,0.9-1.9c0-0.4-0.1-0.9-0.1-1.3c0-2.3,0.5-4.5,1.4-6.6
				c0.3-0.6,0.3-1.2,0-1.8l-0.7-1.4c-0.1-0.1-0.2-0.3-0.3-0.3l-1.8-1.4c-0.2-0.2-0.6-0.2-0.9-0.1c-0.7,0.2-1.6,0.1-2.2-0.4
				c-0.5-0.4-0.9-1-0.9-1.7c-0.1-0.7,0.1-1.3,0.6-1.8c0.8-0.9,2.2-1.1,3.2-0.4c0.6,0.4,1,1.1,1.1,1.8c0,0.3,0.2,0.5,0.4,0.7l2,1.5
				c0.1,0.1,0.3,0.2,0.4,0.2l2,0.4c0.3,0.1,0.6,0,0.8-0.2c1.4-1.3,3-2.3,4.8-3c0.3-0.1,0.5-0.4,0.6-0.7l0.5-2.9c0-0.1,0-0.2,0-0.3
				l-0.6-3c-0.1-0.4-0.3-0.6-0.7-0.7c-1.5-0.4-2.6-1.5-2.9-2.9c-0.2-0.9,0-1.9,0.5-2.7c0.6-0.9,1.5-1.5,2.6-1.7
				c2.2-0.4,4.3,0.9,4.8,2.9c0.3,1.5-0.3,2.9-1.7,3.8c-0.3,0.2-0.5,0.6-0.4,1l0.6,2.8c0,0.1,0.1,0.2,0.1,0.3l1.4,2.2
				c0.3,0.4,0.7,0.7,1.2,0.7l0,0c2.9,0,5.7,0.8,8.2,2.3c0.4,0.2,0.9,0.3,1.4,0.1l2.2-1c0.1-0.1,0.2-0.1,0.3-0.2l2.5-2.7
				c0.2-0.2,0.3-0.5,0.2-0.8c-0.1-0.7,0.1-1.5,0.6-2s1.1-0.8,1.7-0.8c0.7,0,1.3,0.3,1.8,0.7c0.8,0.9,0.9,2.3,0.1,3.2
				c-0.5,0.6-1.2,0.9-2,0.8c-0.3,0-0.6,0.1-0.8,0.3l-2.5,2.7c-0.1,0.1-0.2,0.2-0.2,0.3l-0.8,2.2c-0.2,0.5-0.1,1,0.2,1.4
				c1,1.3,1.7,2.7,2.2,4.3c0.3,0.8,0.9,1.3,1.6,1.5l2.1,0.6c0.1,0,0.2,0,0.3,0l2.7-0.2c0.4,0,0.7-0.3,0.8-0.6
				c0.6-1.6,1.9-2.7,3.5-2.9c1-0.1,2,0.2,2.8,0.9c0.9,0.7,1.4,1.8,1.5,3c0.1,0.8-0.1,1.6-0.4,2.3c-0.2,0.5,0,1,0.5,1.3
				c0.5,0.2,1,0,1.3-0.5C230.7,69.7,230.9,68.6,230.8,67.4z"/>
			<path class="st4" d="M227.2,72.8c-0.2-0.5-0.7-0.8-1.2-0.6c-0.3,0.1-0.5,0.1-0.8,0.2c-1.7,0.2-3.2-0.8-3.9-2.3
				c-0.2-0.4-0.6-0.6-1-0.5l-2.5,0.2c-0.1,0-0.2,0-0.3,0.1l-1.9,0.9c-0.7,0.3-1.2,1-1.3,1.8c-0.2,1.2-0.5,2.4-0.9,3.5
				c-0.3,0.7-0.2,1.4,0.1,2l0.7,1.2c0.1,0.1,0.2,0.2,0.3,0.3l1.9,1.3c0.3,0.2,0.6,0.2,0.9,0.1c0.7-0.3,1.6-0.2,2.2,0.2
				c0.6,0.4,0.9,0.9,1,1.6s-0.1,1.3-0.5,1.9c-0.7,1-2.1,1.2-3.1,0.6c-0.6-0.4-1.1-1-1.2-1.7c0-0.3-0.2-0.5-0.4-0.7l-2.1-1.4
				c-0.1-0.1-0.3-0.1-0.4-0.2l-1.3-0.2c-0.7-0.1-1.5,0.2-2,0.7c-1,1-2.2,1.8-3.5,2.5c-0.7,0.4-1.2,1.2-1.3,2l-0.2,2.6
				c0,0.1,0,0.2,0,0.3l0.8,3.3c0.1,0.3,0.3,0.6,0.7,0.7c1.1,0.3,2,1.2,2.3,2.3c0.2,0.9,0.1,1.7-0.4,2.5c-0.5,0.7-1.2,1.3-2,1.5
				c-1.6,0.4-3.3-0.6-3.8-2.1c-0.4-1.2-0.1-2.4,0.8-3.3c0.2-0.2,0.3-0.6,0.3-0.9l-0.8-3.3c0-0.1-0.1-0.2-0.1-0.3l-1.3-2
				c-0.5-0.8-1.4-1.3-2.4-1.3l0,0c-1,0-2.1-0.1-3.1-0.3c-1-0.2-1.9,0.1-2.6,0.8l-1.7,1.8c-0.1,0.1-0.1,0.2-0.2,0.2l-1.9,3.9
				c-0.1,0.3-0.1,0.6,0,0.8c0.3,0.7,0.3,1.4,0,2.1c-0.3,0.6-0.8,1.1-1.4,1.3c-0.6,0.2-1.3,0.1-1.9-0.2c-1-0.6-1.5-1.9-1-3
				c0.3-0.7,0.9-1.3,1.7-1.4c0.3-0.1,0.5-0.3,0.6-0.5l1.9-3.9c0-0.1,0.1-0.2,0.1-0.3l0.4-2.6c0.1-0.8-0.2-1.6-0.8-2.2
				c-1.4-1.2-2.6-2.5-3.6-4.1c-0.4-0.7-1.2-1.1-2-1.1h-2.6c-0.1,0-0.2,0-0.3,0l-2.9,0.9c-0.1,0-0.3,0.1-0.4,0.2
				c0.4,0.9,0.7,1.8,1,2.7c0.2-0.4,0.4-0.8,0.5-1.3l2.2-0.7h2.5c0.2,0,0.3,0.1,0.4,0.2c1.1,1.8,2.4,3.3,4,4.6
				c0.1,0.1,0.2,0.3,0.2,0.4l-0.4,2.5l-1.6,3.4c-1.2,0.4-2.1,1.3-2.6,2.4c-0.8,2,0,4.3,1.9,5.4c1.1,0.6,2.3,0.7,3.4,0.4
				c1.1-0.4,2.1-1.2,2.6-2.2c0.5-1.1,0.6-2.2,0.2-3.3l1.6-3.4l1.6-1.7c0.2-0.2,0.5-0.3,0.8-0.3c1.1,0.2,2.3,0.3,3.5,0.3l0,0
				c0.3,0,0.6,0.2,0.8,0.4l1.2,1.9l0.7,2.6c-1.1,1.3-1.5,3.2-0.9,4.8c0.7,2.1,2.7,3.5,4.9,3.5c0.4,0,0.7,0,1.1-0.1
				c1.4-0.3,2.5-1.1,3.3-2.3c0.7-1.2,1-2.6,0.6-4c-0.4-1.6-1.6-2.9-3.1-3.5l-0.7-2.6l0.2-2.5c0-0.2,0.1-0.4,0.3-0.4
				c1.4-0.8,2.7-1.7,3.9-2.8c0.1-0.1,0.3-0.2,0.4-0.2l1.1,0.1l1.6,1c0.3,1.1,1,2.1,2,2.7c1.9,1.1,4.3,0.6,5.6-1.1
				c0.7-1,1-2.1,0.8-3.3c-0.2-1.2-0.9-2.2-1.9-2.9c-1-0.7-2.3-0.9-3.5-0.6l-1.3-0.9l-0.6-1c-0.1-0.1-0.1-0.3,0-0.4
				c0.5-1.3,0.8-2.6,1-3.9c0-0.2,0.1-0.3,0.3-0.4l1.7-0.8l1.7-0.2c1.2,2,3.3,3.1,5.5,2.8c0.4,0,0.8-0.1,1.2-0.3
				C227.1,73.8,227.4,73.3,227.2,72.8z"/>
		</g>
	</g>
</g>
</svg>
