<?xml version="1.0" encoding="utf-8"?>
<!-- Generator: Adobe Illustrator 22.1.0, SVG Export Plug-In . SVG Version: 6.00 Build 0)  -->
<svg version="1.1" id="Layer_1" xmlns="http://www.w3.org/2000/svg" xmlns:xlink="http://www.w3.org/1999/xlink" x="0px" y="0px"
	 width="341.3px" height="159.2px" viewBox="0 0 341.3 159.2" style="enable-background:new 0 0 341.3 159.2;" xml:space="preserve"
	>
<style type="text/css">
	.st0{fill:#EFF0F5;}
	.st1{fill:#71D9E6;stroke:#3A9CA8;stroke-width:3;stroke-miterlimit:10;}
	.st2{enable-background:new    ;}
	.st3{fill:#FFFFFF;}
	.st4{fill:#F0746A;}
</style>
<g>
	<rect x="0.3" y="-0.8" class="st0" width="341.3" height="159.2"/>
	<ellipse class="st1" cx="44.3" cy="39.6" rx="20.7" ry="20.7"/>
	<g class="st2">
		<path class="st3" d="M51.2,42.8c0,3.3-2.4,6.3-7.7,6.3c-2.6,0-5.3-0.8-7.1-2.1l1.7-3.5c1.4,1.1,3.4,1.8,5.3,1.8
			c2.2,0,3.5-0.9,3.5-2.5c0-1.5-1-2.4-3.5-2.4h-2v-3l3.8-4.6h-8v-3.6h13.1v2.9l-4.2,5C49.5,37.8,51.2,39.9,51.2,42.8z"/>
	</g>
	<g>
		<path class="st4" d="M233.6,94.9c-1-0.5-2.3,0-2.7,1.1c-0.5,1,0,2.3,1.1,2.7c3.3,1.4,5.4,4.6,5.4,8.2v8.7h-5.2v-3.7
			c0-1.1-0.9-2.1-2.1-2.1c-1.1,0-2.1,0.9-2.1,2.1v3.7h-7.6c-0.6-8.5-6.6-15.8-15-17.8l-7-1.7l6.2-1.5h11.1l9,2.2
			c1.1,0.3,2.2-0.4,2.5-1.5s-0.4-2.2-1.5-2.5l-7.4-1.8v-5.2c3-2,5.3-5.1,6.2-8.7h0.1c0.5,0,1-0.1,1.5-0.2c3-0.7,5.1-3.4,5.1-6.5
			s-2.1-5.8-5.1-6.5c-0.1,0-0.2-0.1-0.4-0.1c2.9-8.6,2.2-16.6,2.2-17c-0.1-1.1-1-1.9-2.1-1.9h-21.5c-3.3,0-5.1,2-5.9,3.7
			c-1.2,0.6-2.2,1.6-2.9,2.8c-0.3,0-0.7-0.1-1-0.1c1.3-3.6,2.3-7.4,3-11.4c0.2-1.1-0.6-2.2-1.7-2.4c-1.1-0.2-2.2,0.6-2.4,1.7
			c-0.7,4.2-1.8,8.2-3.3,11.9l-1.4-0.2V47c0-1-0.7-1.8-1.7-2c-0.5-0.1-12.5-2.3-31.8-2.3c-1.1,0-2.1,0.9-2.1,2.1V51l-1.5,0.2
			c-1.1-4.8-3.4-18.3,3.8-20.8c0.6-0.2,1.1-0.7,1.3-1.4c0.1-0.4,1.2-3.6,5-3.6h32.6c0,1.6,0,4.1-0.2,7.2c-0.1,1.1,0.8,2.1,1.9,2.2
			c1.1,0.1,2.1-0.8,2.2-1.9c0.4-5.7,0.1-9.6,0.1-9.8c-0.1-1.1-1-1.9-2.1-1.9H162c-4.9,0-7.6,3.2-8.6,5.6c-6.7,3.1-7.3,11.7-6.7,18.5
			c-0.3-0.4-0.7-0.8-1-1.1c-3.5-3.5-8.2-5.5-13.2-5.5c-10.3,0-18.7,8.4-18.7,18.7c0,0.8,0.5,1.5,1.1,1.8c0.2,0.1,1,0.5,2.1,1v3.6
			c-0.4,0-0.9,0.1-1.2,0.2c-3,0.7-5.1,3.4-5.1,6.5s2.1,5.8,5.2,6.5c0.5,0.1,1,0.2,1.5,0.2h0.1c0.9,3.7,3.2,6.7,6.2,8.7v5.2
			l-13.3,3.3c-5.8,1.5-9.9,6.7-9.9,12.7v10.8c0,1.1,0.9,2.1,2.1,2.1h19v14.6c0,1.1,0.9,2.1,2.1,2.1h23.1c1.1,0,2.1-0.9,2.1-2.1
			c0-1.1-0.9-2.1-2.1-2.1h-6v-7.2c0-1.1-0.9-2.1-2.1-2.1c-1.1,0-2.1,0.9-2.1,2.1v7.2h-11V117c0-7.2,4.9-13.5,11.9-15.2l14.8-3.7
			l8.9,9.1c0,0.1,0.1,0.2,0.1,0.3l3.9,6.8c0.1,0.2,0.2,0.3,0.3,0.4l-2.6,17.6h-6.3c-1.1,0-2.1,0.9-2.1,2.1c0,1.1,0.9,2.1,2.1,2.1
			h61.6c1.1,0,2.1-0.9,2.1-2.1v-14.6h19c1.1,0,2.1-0.9,2.1-2.1v-10.8C241.5,101.7,238.4,97,233.6,94.9L233.6,94.9z M224.9,67.8
			c0.1,0,0.2,0,0.3,0c1.1,0.3,1.9,1.3,1.9,2.5s-0.8,2.2-2,2.5c-0.1,0-0.2,0-0.2,0V67.8z M117,72.9c-0.1,0-0.2,0-0.2,0
			c-1.2-0.3-2-1.3-2-2.5s0.8-2.2,2-2.5c0.1,0,0.2,0,0.3,0v5H117z M214.1,90.4H206v-2.8c1.3,0.4,2.6,0.6,4.1,0.6
			c1.4,0,2.8-0.2,4.1-0.6v2.8H214.1z M220.8,73.4c0,0.4,0,0.7-0.1,1l0,0c-0.6,5.4-5.1,9.6-10.7,9.6c-5.5,0-10.1-4.2-10.7-9.6l0,0
			c0-0.3-0.1-0.7-0.1-1V69c2.3-1.4,3.9-3.8,4.4-6.5c6.7,0.2,11.7,0.7,14.1,1.1v1.7c0,1,0.7,1.9,1.7,2l1.2,0.2v5.9H220.8z
			 M200.8,52.1c0.7-0.2,1.1-0.7,1.3-1.4c0.1-0.4,0.7-1.7,2.3-1.7h19.5c0,2.7-0.2,7.8-2,13.2v-0.5c0-1-0.7-1.8-1.7-2
			c-0.3-0.1-6.5-1.2-16.8-1.4c-0.6-2.2-2-4.1-3.9-5.4C200,52.5,200.5,52.2,200.8,52.1L200.8,52.1z M193.6,65.7V55.5
			c0.7-0.1,1.3,0,2,0.1c-0.1,0-0.1,0,0,0c1.9,0.5,0.4,0.1,0,0c2.4,0.6,4.1,2.7,4.1,5.2c0,2.1-1.2,4-3,4.8c-0.4,0.1-0.7,0.3-1.1,0.4
			c-0.6,0.1-1.3,0.2-1.9,0.1C193.6,66,193.6,65.8,193.6,65.7L193.6,65.7z M193.2,70.3c0.4,0,0.8,0.1,1.2,0.1c0.3,0,0.6,0,0.8,0V73
			c-0.1,0-0.2,0-0.2,0c-1-0.2-1.7-1-1.9-2C193.1,70.7,193.1,70.5,193.2,70.3L193.2,70.3z M191.4,75.6c0.8,0.6,1.7,1.1,2.6,1.3
			c0.5,0.1,1,0.2,1.5,0.2h0.1c0.9,3.6,3.2,6.7,6.2,8.7V91l-12.1,3h-0.1l-2.6-6.5c-0.2-0.6-0.7-1-1.3-1.2s-1.2-0.1-1.7,0.2l-1.2,0.7
			V85c1.2-0.7,2.3-1.6,3.3-2.5C188.4,80.5,190.1,78.1,191.4,75.6L191.4,75.6z M184.1,91.2l1.9,4.7l-8.7,9l-3.6-7.4L184.1,91.2z
			 M171,94.3l-7.8-4.7v-2.7c2.4,0.9,5.1,1.4,7.8,1.4s5.3-0.5,7.8-1.4v2.7L171,94.3z M152.4,55.2l3.3-0.5c1-0.2,1.7-1,1.7-2v-5.9
			c13.8,0.1,23.5,1.4,27.3,2v3.9c0,1,0.7,1.9,1.7,2l3,0.5v10.5c0,0.6,0,1.2-0.1,1.8c-0.1,0.9-0.2,1.8-0.4,2.6c0,0.1,0,0.1-0.1,0.2
			c-2.1,8.1-9.3,13.9-17.9,13.9c-9.6,0-17.5-7.3-18.4-16.7l0,0c-0.1-0.6-0.1-1.2-0.1-1.8V55.2z M148.9,70.9c-0.2,1-0.9,1.8-1.9,2
			c-0.1,0-0.2,0-0.2,0v-2.6c0.3,0,0.6,0,0.8,0c0.4,0,0.8,0,1.2-0.1C148.8,70.5,148.9,70.7,148.9,70.9L148.9,70.9z M147.6,55.5
			c0.2,0,0.5,0,0.7,0.1v10.1c0,0.2,0,0.3,0,0.5c-0.6,0.1-1.3,0.1-2-0.1c-0.3-0.1-0.6-0.2-0.9-0.3l0,0c-2-0.8-3.2-2.7-3.2-4.9
			c0-2.5,1.7-4.6,4.1-5.2C146.7,55.5,147.2,55.5,147.6,55.5L147.6,55.5z M132.5,42.7c3.9,0,7.5,1.5,10.3,4.3
			c1.3,1.3,2.3,2.8,3.1,4.5c-0.2,0-0.3,0.1-0.5,0.1c-3.5,0.8-6.1,3.5-6.9,6.8c-4.8,0.8-9.2,0.5-12.7-0.1v-4.9c0-1.1-0.9-2.1-2.1-2.1
			c-1.1,0-2.1,0.9-2.1,2.1v3.9c-1.6-0.5-2.8-1-3.6-1.3C118.6,48.6,124.9,42.7,132.5,42.7L132.5,42.7z M121.2,74.4L121.2,74.4
			c0-0.4-0.1-0.7-0.1-1.1V66l0,0v-4.5c2.9,0.8,6.7,1.6,11.2,1.6c1.9,0,3.8-0.1,5.9-0.4c0.5,2.6,2.1,4.9,4.4,6.3v4.4
			c0,0.4,0,0.7-0.1,1l0,0c-0.6,5.4-5.1,9.6-10.7,9.6C126.4,84.1,121.8,79.9,121.2,74.4L121.2,74.4z M136,87.6v2.8h-8.1v-2.8
			c1.3,0.4,2.6,0.6,4.1,0.6C133.3,88.2,134.7,88,136,87.6L136,87.6z M136.6,97.8c-8.4,2.1-14.4,9.3-15,17.8H114v-3.7
			c0-1.1-0.9-2.1-2.1-2.1c-1.1,0-2.1,0.9-2.1,2.1v3.7h-5.2v-8.7c0-4.1,2.8-7.7,6.8-8.7l15-3.7h11.1l6.2,1.5L136.6,97.8z M154.9,87.4
			l-2.6,6.5h-0.1l-12.1-3v-5.2c3-2,5.3-5.1,6.2-8.7h0.1c0.5,0,1-0.1,1.5-0.2c1-0.2,1.9-0.7,2.6-1.3c1.9,3.9,4.8,7.1,8.5,9.4v2.2
			l-1.2-0.7c-0.5-0.3-1.2-0.4-1.7-0.2C155.6,86.4,155.1,86.9,154.9,87.4L154.9,87.4z M164.7,104.9l-8.7-9l1.9-4.7l10.5,6.3
			L164.7,104.9z M167.1,132.4l2.6-17h2.6l2.6,17H167.1z M173.7,111.2h-5.4l-1.1-1.9l3.8-7.8l3.8,7.8L173.7,111.2z M205.3,132.4v-7.2
			c0-1.1-0.9-2.1-2.1-2.1c-1.1,0-2.1,0.9-2.1,2.1v7.2H179l-2.6-17.6c0.1-0.1,0.2-0.3,0.3-0.4l3.9-6.8c0.1-0.1,0.1-0.2,0.1-0.3
			l8.9-9.1l14.8,3.7c7,1.7,11.9,8,11.9,15.2v15.3L205.3,132.4L205.3,132.4z"/>
		<path class="st4" d="M195.6,55.6L195.6,55.6L195.6,55.6L195.6,55.6L195.6,55.6z"/>
		<path class="st4" d="M162.1,56.6c-1.1,0-2.1,0.9-2.1,2.1V61c0,1.1,0.9,2.1,2.1,2.1c1.1,0,2.1-0.9,2.1-2.1v-2.3
			C164.1,57.5,163.2,56.6,162.1,56.6L162.1,56.6z"/>
		<path class="st4" d="M180.7,56.6c-1.1,0-2.1,0.9-2.1,2.1V61c0,1.1,0.9,2.1,2.1,2.1c1.1,0,2.1-0.9,2.1-2.1v-2.3
			C182.8,57.5,181.8,56.6,180.7,56.6L180.7,56.6z"/>
		<path class="st4" d="M204.3,66c-1.1,0-2.1,0.9-2.1,2.1v1.4c0,1.1,0.9,2.1,2.1,2.1c1.1,0,2.1-0.9,2.1-2.1v-1.4
			C206.3,66.9,205.4,66,204.3,66L204.3,66z"/>
		<path class="st4" d="M215.8,66c-1.1,0-2.1,0.9-2.1,2.1v1.4c0,1.1,0.9,2.1,2.1,2.1c1.1,0,2.1-0.9,2.1-2.1v-1.4
			C217.9,66.9,216.9,66,215.8,66L215.8,66z"/>
		<path class="st4" d="M126.5,66c-1.1,0-2.1,0.9-2.1,2.1v1.4c0,1.1,0.9,2.1,2.1,2.1c1.1,0,2.1-0.9,2.1-2.1v-1.4
			C128.5,66.9,127.6,66,126.5,66L126.5,66z"/>
		<path class="st4" d="M138,66c-1.1,0-2.1,0.9-2.1,2.1v1.4c0,1.1,0.9,2.1,2.1,2.1s2.1-0.9,2.1-2.1v-1.4C140,66.9,139.1,66,138,66
			L138,66z"/>
		<path class="st4" d="M168,75.7c2-1.2,3.9-1.2,5.9,0c0.2,0.1,0.5,0.2,0.7,0.2c0.5,0,1-0.3,1.3-0.7c0.4-0.7,0.2-1.6-0.5-2
			c-2.9-1.7-6-1.7-8.9,0c-0.7,0.4-0.9,1.3-0.5,2C166.4,75.8,167.3,76.1,168,75.7L168,75.7z"/>
	</g>
</g>
</svg>
