<?xml version="1.0" encoding="utf-8"?>
<!-- Generator: Adobe Illustrator 22.1.0, SVG Export Plug-In . SVG Version: 6.00 Build 0)  -->
<svg version="1.1" id="Layer_1" xmlns="http://www.w3.org/2000/svg" xmlns:xlink="http://www.w3.org/1999/xlink" x="0px" y="0px"
	 width="341.3px" height="159.2px" viewBox="0 0 341.3 159.2" style="enable-background:new 0 0 341.3 159.2;" xml:space="preserve"
	>
<style type="text/css">
	.st0{fill:#EFF0F5;}
	.st1{fill:#71D9E6;stroke:#3A9CA8;stroke-width:3;stroke-miterlimit:10;}
	.st2{enable-background:new    ;}
	.st3{fill:#FFFFFF;}
	.st4{fill:#F0746A;}
</style>
<g>
	<rect class="st0" width="341.3" height="159.2"/>
	<ellipse class="st1" cx="42.9" cy="40.4" rx="20.7" ry="20.7"/>
	<g class="st2">
		<path class="st3" d="M46,30v19.6h-4.3v-16h-3.7V30H46z"/>
	</g>
	<g>
		<path class="st4" d="M151.2,128.1c-0.9,0-1.7,0.8-1.7,1.7v5.8c0,0.9,0.8,1.7,1.7,1.7s1.7-0.8,1.7-1.7v-5.8
			C152.9,128.9,152.1,128.1,151.2,128.1L151.2,128.1z"/>
		<path class="st4" d="M189.6,128.1c-0.9,0-1.7,0.8-1.7,1.7v5.8c0,0.9,0.8,1.7,1.7,1.7s1.7-0.8,1.7-1.7v-5.8
			C191.3,128.9,190.5,128.1,189.6,128.1L189.6,128.1z"/>
		<path class="st4" d="M159.4,63.6c-0.9,0-1.7,0.8-1.7,1.7v2c0,0.9,0.8,1.7,1.7,1.7s1.7-0.8,1.7-1.7v-2
			C161,64.3,160.3,63.6,159.4,63.6L159.4,63.6z"/>
		<path class="st4" d="M180,67.2c0,0.9,0.8,1.7,1.7,1.7s1.7-0.8,1.7-1.7v-2c0-0.9-0.8-1.7-1.7-1.7s-1.7,0.8-1.7,1.7V67.2z"/>
		<path class="st4" d="M158.9,56.9c-2.4,0.7-4.7,2-6.4,3.8l-0.1,0.1c-0.7,0.7-0.6,1.7,0,2.4c0.3,0.3,0.8,0.5,1.2,0.5
			s0.9-0.2,1.2-0.5l0.1-0.1c1.4-1.4,3.1-2.4,5-2.9c0.9-0.3,1.4-1.2,1.2-2.1C160.7,57.2,159.8,56.7,158.9,56.9L158.9,56.9z"/>
		<path class="st4" d="M188.6,60.7c-1.8-1.8-4-3.1-6.4-3.8c-0.9-0.3-1.8,0.3-2.1,1.2s0.3,1.8,1.2,2.1c1.9,0.5,3.6,1.5,5,2.9l0.1,0.1
			c0.3,0.3,0.8,0.5,1.2,0.5s0.9-0.2,1.2-0.5C189.3,62.5,189.3,61.4,188.6,60.7L188.6,60.7z"/>
		<path class="st4" d="M166.2,76.8c-0.5,0.8-0.2,1.8,0.6,2.3s1.8,0.2,2.3-0.6v-0.1c0.3-0.6,0.9-0.6,1.1-0.6c0.2,0,0.8,0.1,1.1,0.7
			s0.9,0.9,1.5,0.9c0.3,0,0.6-0.1,0.8-0.2c0.8-0.5,1.1-1.5,0.7-2.3c-0.8-1.5-2.3-2.4-4-2.4c0,0,0,0-0.1,0
			C168.6,74.4,167.1,75.3,166.2,76.8L166.2,76.8z"/>
		<path class="st4" d="M165.4,93.3c0.9,0.3,1.8-0.1,2.2-1c0.5-1.2,1.6-2,2.8-2c1.3,0,2.4,0.8,2.8,2c0.3,0.7,0.9,1.1,1.6,1.1
			c0.2,0,0.4,0,0.6-0.1c0.9-0.3,1.3-1.3,1-2.2c-1-2.5-3.3-4.1-6-4.1s-5,1.6-6,4.1C164.1,91.9,164.5,92.9,165.4,93.3L165.4,93.3z"/>
		<path class="st4" d="M168.6,64.5c0.9,0,1.7-0.8,1.7-1.7V62c0-0.9-0.8-1.7-1.7-1.7s-1.7,0.8-1.7,1.7v0.8
			C166.9,63.7,167.7,64.5,168.6,64.5L168.6,64.5z"/>
		<path class="st4" d="M150.6,76.1v0.8c0,0.9,0.8,1.7,1.7,1.7s1.7-0.8,1.7-1.7v-0.8c0-0.9-0.8-1.7-1.7-1.7
			C151.3,74.4,150.6,75.2,150.6,76.1L150.6,76.1z"/>
		<path class="st4" d="M159.3,80.5v0.8c0,0.9,0.8,1.7,1.7,1.7s1.7-0.8,1.7-1.7v-0.8c0-0.9-0.8-1.7-1.7-1.7
			C160,78.8,159.3,79.6,159.3,80.5L159.3,80.5z"/>
		<path class="st4" d="M182.6,86.2V87c0,0.9,0.8,1.7,1.7,1.7s1.7-0.8,1.7-1.7v-0.8c0-0.9-0.8-1.7-1.7-1.7
			C183.4,84.5,182.6,85.2,182.6,86.2L182.6,86.2z"/>
		<path class="st4" d="M178.5,77.2V78c0,0.9,0.8,1.7,1.7,1.7s1.7-0.8,1.7-1.7v-0.8c0-0.9-0.8-1.7-1.7-1.7
			C179.3,75.6,178.5,76.3,178.5,77.2L178.5,77.2z"/>
		<path class="st4" d="M186.5,74.4v0.8c0,0.9,0.8,1.7,1.7,1.7s1.7-0.8,1.7-1.7v-0.8c0-0.9-0.8-1.7-1.7-1.7
			C187.2,72.7,186.5,73.5,186.5,74.4L186.5,74.4z"/>
		<path class="st4" d="M168.6,104.4c-0.9,0-1.7,0.8-1.7,1.7v0.8c0,0.9,0.8,1.7,1.7,1.7s1.7-0.8,1.7-1.7v-0.8
			C170.3,105.2,169.6,104.4,168.6,104.4L168.6,104.4z"/>
		<path class="st4" d="M155.5,88.5v0.8c0,0.9,0.8,1.7,1.7,1.7s1.7-0.8,1.7-1.7v-0.8c0-0.9-0.8-1.7-1.7-1.7S155.5,87.5,155.5,88.5
			L155.5,88.5z"/>
		<path class="st4" d="M187,97.4l1,0.6c2.3,1.4,5,2.1,7.6,2.1c2.5,0,5-0.6,7.2-1.8c4.4-2.4,6.9-7.4,6.2-12.3l-1.8-12.6
			c-0.1-0.9-1-1.6-1.9-1.4c-0.9,0.1-1.6,1-1.4,1.9l1.8,12.6c0.5,3.6-1.3,7.2-4.4,8.9c-3.6,2-7.9,1.9-11.4-0.2l-0.1-0.1
			c4.6-4.8,7.4-11.2,7.4-18.4V62.2c0-6.7-2.2-13.4-6.3-18.7c-0.9-1.2-2.5-1.4-3.7-0.6c-2.9,2-6,3.7-9.2,5V47c0-1.1-0.7-2.1-1.7-2.4
			c-1-0.3-2.2,0-2.8,0.9c-2.8,3.7-3.8,4.9-4.2,5.2c-3.7,0.8-7.4,1.2-11.2,1.2h-9.7c-2.2,0-4.1,1.8-4.1,4.1v7.7
			c0,0.9,0.8,1.7,1.7,1.7s1.7-0.8,1.7-1.7V56c0-0.4,0.3-0.7,0.7-0.7h9.7c4.1,0,8.3-0.5,12.3-1.4c0.6-0.1,1-0.2,4.2-4.4l0,0
			c0,0.8,0.4,1.5,1,1.9s1.4,0.5,2.1,0.3c3.8-1.5,7.5-3.4,10.9-5.6c3.4,4.7,5.2,10.4,5.2,16.2v14.4c0,12.7-10.3,23.1-23.1,23.1
			c-12.7,0-23.1-10.3-23.1-23.1v-5.8c0-0.9-0.8-1.7-1.7-1.7s-1.7,0.8-1.7,1.7v5.8c0,7.1,2.9,13.6,7.5,18.4l0,0
			c-3.5,2.1-7.9,2.1-11.4,0.2c-3.2-1.7-5-5.3-4.4-8.9l6.1-42.7c0.7-5.1,3.3-9.8,7.2-13.1c3.9-3.4,8.9-5.2,14-5.2h2
			c1.8,0,3.5,0.6,4.9,1.6c0.6,0.4,1.4,0.4,1.9,0l0.3-0.2c1.4-0.9,3-1.4,4.6-1.4h1.5c5.1,0,10.1,1.9,14,5.2c3.9,3.4,6.4,8,7.2,13.1
			l3.3,22.9c0.1,0.9,1,1.6,1.9,1.4c0.9-0.1,1.6-1,1.4-1.9l-3.3-22.9c-0.8-5.9-3.8-11.3-8.3-15.2s-10.3-6.1-16.2-6.1h-1.5
			c-2.1,0-4.1,0.6-5.9,1.6c-1.8-1.1-3.8-1.6-5.9-1.6h-2c-6,0-11.7,2.2-16.2,6.1s-7.5,9.3-8.3,15.2l-6.1,42.7
			c-0.7,5,1.8,9.9,6.2,12.3c2.2,1.2,4.7,1.8,7.2,1.8c2.6,0,5.3-0.7,7.6-2.1l1-0.6c2.1,1.6,4.4,2.9,6.9,3.9v1.4l-18.1,10
			c-3.2,1.7-5.1,5.1-5.1,8.7v14.2c0,0.9,0.8,1.7,1.7,1.7s1.7-0.8,1.7-1.7v-14.2c0-2.4,1.3-4.6,3.4-5.7l9.9-5.5
			c0.4,2.2,1.2,4.3,2.4,6.1c0.3,0.5,0.9,0.8,1.4,0.8c0.3,0,0.6-0.1,0.9-0.3c0.8-0.5,1-1.6,0.5-2.3c-1.2-1.8-1.9-3.9-2-6l3.3-1.8v1
			c0,5.1,4.2,9.3,9.3,9.3s9.3-4.2,9.3-9.3v-1l3.3,1.8c-0.4,6.6-5.9,11.8-12.6,11.8c-2.1,0-4.1-0.5-5.9-1.5c-0.8-0.4-1.8-0.1-2.3,0.7
			c-0.4,0.8-0.1,1.8,0.7,2.3c2.3,1.2,4.9,1.9,7.5,1.9c8,0,14.6-5.8,15.8-13.4l9.9,5.5c2.1,1.1,3.4,3.3,3.4,5.7v14.2
			c0,0.9,0.8,1.7,1.7,1.7s1.7-0.8,1.7-1.7v-14.2c0-3.6-2-6.9-5.1-8.7l-18.1-10v-1.3C182.3,100.5,184.8,99.1,187,97.4L187,97.4z
			 M170.4,113.5c-3.3,0-5.9-2.7-5.9-5.9v-5.2c2,0.5,4,0.7,6.1,0.7c2,0,3.9-0.2,5.7-0.6v5.1C176.3,110.8,173.7,113.5,170.4,113.5
			L170.4,113.5z"/>
	</g>
</g>
</svg>
