<?xml version="1.0" encoding="utf-8"?>
<!-- Generator: Adobe Illustrator 22.1.0, SVG Export Plug-In . SVG Version: 6.00 Build 0)  -->
<svg version="1.1" id="Layer_1" xmlns="http://www.w3.org/2000/svg" xmlns:xlink="http://www.w3.org/1999/xlink" x="0px" y="0px"
	 width="701.6px" height="379.6px" viewBox="0 0 701.6 379.6" style="enable-background:new 0 0 701.6 379.6;" xml:space="preserve"
	>
<style type="text/css">
	.st0{fill:#FCDBE8;}
	.st1{fill:#FFEBF6;}
	.st2{fill:#F7C8DE;}
	.st3{fill:#EFABCE;}
	.st4{fill:#F6C3DD;}
	.st5{fill:#599DAD;}
	.st6{fill:#6BB7BF;}
	.st7{fill:#86D1CD;}
	.st8{fill:#E0B594;}
	.st9{fill:#FFEBDC;}
	.st10{fill:#E6E6E6;}
	.st11{fill:#FFA192;}
	.st12{fill:#FCA19F;}
	.st13{fill:#563136;}
	.st14{fill:#242638;}
	.st15{fill:#FFFFFF;}
	.st16{fill:#5E71C7;}
	.st17{fill:#D0DCFF;}
	.st18{fill:none;stroke:#242638;stroke-width:0.5763;stroke-linecap:round;stroke-linejoin:round;stroke-miterlimit:10;}
	.st19{fill:#AB89B3;}
	.st20{fill:#5A5280;}
	.st21{fill:#ADB7E2;}
	.st22{fill:#424C81;}
	.st23{fill:#96A5E2;}
	.st24{fill:none;stroke:#242638;stroke-width:1.1527;stroke-linecap:round;stroke-linejoin:round;stroke-miterlimit:10;}
	.st25{fill:#353738;}
	.st26{fill:#525354;}
	.st27{fill:#F96767;}
	.st28{fill:#E0EFFF;}
	.st29{fill:#A6AFC7;}
	.st30{fill:#C6C6C7;}
	.st31{fill:#C26061;}
	.st32{fill:#3F4041;}
	.st33{fill:#B9C4E3;}
	.st34{fill:#E3E3E3;}
	.st35{fill:#C7D5E3;}
	.st36{fill:#454D77;}
	.st37{fill:#37374F;}
	.st38{fill:none;stroke:#FFFFFF;stroke-width:0.4997;stroke-linecap:round;stroke-linejoin:round;stroke-miterlimit:10;}
	.st39{fill:none;stroke:#FFFFFF;stroke-width:0.5133;stroke-linecap:round;stroke-linejoin:round;stroke-miterlimit:10;}
	.st40{fill:none;stroke:#FFFFFF;stroke-width:0.3399;stroke-linecap:round;stroke-linejoin:round;stroke-miterlimit:10;}
	.st41{fill:none;stroke:#676E9B;stroke-width:0.5763;stroke-linecap:round;stroke-linejoin:round;stroke-miterlimit:10;}
	.st42{fill:#F97070;}
	.st43{fill:#FC9E9C;}
	.st44{fill:#EBF1FF;}
	.st45{fill:none;stroke:#242638;stroke-width:0.2882;stroke-linecap:round;stroke-linejoin:round;stroke-miterlimit:10;}
	.st46{fill:#FD9997;}
	.st47{fill:#82A64E;}
	.st48{fill:#B4C9FF;}
	.st49{fill:none;stroke:#5E71C7;stroke-width:0.2915;stroke-linecap:round;stroke-linejoin:round;stroke-miterlimit:10;}
	.st50{fill:#FCE6A3;}
	.st51{fill:#F9CF68;}
</style>
<g>
	<g>
		<path class="st0" d="M652.3,363.6c-1.4,3.9-3.1,7.6-5.1,11.1c-0.6,1-1.2,2-1.8,3H31.1c0,0-55.9-128.1,20.3-190.2
			c1-0.8,1.9-1.5,2.9-2.3c0.9-0.7,1.8-1.4,2.7-2c0.9-0.6,1.7-1.3,2.6-1.9c23-16.2,48.1-24.3,74.5-29.2c0.9-0.2,1.9-0.3,2.8-0.5
			c0.9-0.2,1.8-0.3,2.7-0.5c21.4-3.7,43.5-5.6,66-8.5c7.8-1,15.6-2.1,23.5-3.5c31.4-5.4,62.9-14.4,93.3-34.4
			c37.5-24.6,76.1-30.9,109-26c2.2,0.3,4.4,0.7,6.6,1.1c3.2,0.6,6.3,1.4,9.4,2.2c39.4,10.8,67.4,38,69,66.1
			c1.1,18.9,3.3,37.2,8.3,53c2.3,7.3,5.2,14.1,8.8,20.2c1,1.7,2,3.3,3.1,4.8c10.9,15.4,27.4,25.5,52.5,27.2
			c17.5,1.2,32.2,9,43.4,20.6c0.1,0.1,0.2,0.2,0.3,0.3C654.4,297.1,662.8,333.9,652.3,363.6z"/>
		<path class="st1" d="M652.3,363.6c-1.4,3.9-3.1,7.6-5.1,11.1H437.8V80c3.2,0.6,6.3,1.4,9.4,2.2c39.4,10.8,67.4,38,69,66.1
			c1.1,18.9,3.3,37.2,8.3,53c2.3,7.3,5.2,14.1,8.8,20.2c1,1.7,2,3.3,3.1,4.8c10.9,15.4,27.4,25.5,52.5,27.2
			c17.5,1.2,32.2,9,43.4,20.6c0.1,0.1,0.2,0.2,0.3,0.3C654.4,297.1,662.8,333.9,652.3,363.6z"/>
		<g>
			<path class="st2" d="M652.3,363.6c-1.8,5-4,9.7-6.9,14.2H447.2v0h-13.8V198.8h23.7v-49.1h23.7v66.4h19.2v-14.8h24.6
				c2.3,7.3,5.2,14.1,8.8,20.2v4.8h3.1c10.9,15.4,27.4,25.5,52.5,27.2c17.5,1.2,32.2,9,43.4,20.6c0.1,0.1,0.2,0.2,0.3,0.3
				C654.4,297.1,662.8,333.9,652.3,363.6z"/>
			<g>
				<path class="st3" d="M447.2,82.2v295.6h-16v-299C436.7,79.6,442.1,80.8,447.2,82.2z"/>
				<path class="st3" d="M433.4,377.8h13.8v0h198.1c2.8-4.5,5.1-9.2,6.9-14.2h-205h-13.8h-2.2h-3.5v14.2L433.4,377.8z"/>
			</g>
		</g>
		<path class="st4" d="M170,254.9c-3.2-12.3-23.1-8.5-23.1-8.5s-13.5,21.6-17.4,22.1c-3.9,0.5,8.1-20.8,8.1-20.8c-7.6-0.8-27,9-27,9
			s1.2,25.2-2.7,24.7c-3.9-0.5,0-22.3,0-22.3c-7.4,2.3-14.2,11.3-14.2,11.3c-8.6,14.6,9.8,25.4,9.8,25.4s0.2,8.7-4.9,18.8
			c0,0-6.5,10.3-4.4,23.6h-5.7c1.1-9.6-3.5-16.9-3.5-16.9c-3.9-7.6-3.7-14.2-3.7-14.2s14-8.2,7.4-19.3c0,0-5.2-6.8-10.8-8.6
			c0,0,3,16.6,0,17c-3,0.4-2-18.7-2-18.7s-14.7-7.4-20.5-6.8c0,0,9.1,16.2,6.1,15.8c-3-0.4-13.2-16.8-13.2-16.8S33.4,266.6,31,276
			c-2.4,9.4,1.5,14,3.7,14.6c2.2,0.6,16.6,0.4,16.2,2.3c-0.4,1.9-10,5.1-15.4,3.3c0,0,6,15.4,13.8,14.6c7.8-0.8,10.2-5.8,15.1-6.2
			c4.8-0.4,8.4,1,6,2.3c-2.4,1.4-10.6,0.4-14.5,3.9c-3.9,3.5-7.1,5.6,0.2,7.2c7.3,1.6,20.3,0.6,22.9-5.3c0.1-0.3,0.2-0.5,0.3-0.7
			c-0.2,0.5-0.3,0.7-0.3,0.7c1.3,0.8,3.3,4.7,4.7,7.7c0.2,0.5,0.5,1.2,1,2.2l0,0c0.2,0.4,0.3,0.8,0.4,1c1.6,4.2,1.7,10.3,1.5,14.3
			h-6.2h-9h-5.6v1.2h1.2c0.4,15.3,9.6,28.4,22.5,33.8H70.9c-2.5,0-4.4,2.1-4.4,4.7l0,0h73.1l0,0c0-2.6-2-4.7-4.4-4.7h-18.6
			c12.9-5.5,22.1-18.5,22.5-33.8h0.8v-1.2h-38.4c0.9-2,1.9-4,3.2-5.4c0.2-0.2,0.4-0.4,0.6-0.7c0.6-0.6,1.1-1.1,1.4-1.4
			c1.9-1.9,4.6-4.4,5.9-4.7c0,0-0.1-0.2-0.1-0.7c0,0.2,0,0.4,0.1,0.7c0.4,5.4,10.5,10.1,16.6,11.1c6.2,1,4.3-1.7,2.1-5.6
			c-2.1-3.9-8.9-5.7-10.4-7.5c-1.5-1.8,1.6-1.8,5.4,0c3.7,1.8,4.2,6.5,10.2,9.5c6,3,14.9-7.4,14.9-7.4c-4.8-0.3-11.5-5.7-11.3-7.3
			c0.2-1.7,11.5,2.9,13.5,3.1c1.9,0.2,6.3-2.3,7-10.4c0.7-8.1-12.1-10.4-12.1-10.4s-2.9,2.3-6.3,4.6c-0.7-0.9-1.7-1.9-3-3
			c1.1-1,2.1-1.9,2.7-2.4c1.2,0.3,2.6,0.6,4.1,0.8c10.3,1,18.1-19.3,18.1-19.3c-7.1,2.3-19.9-1.8-20.4-4.4
			c-0.5-2.6,18.4-2.3,21.3-3.1C168.1,273.3,173.2,267.2,170,254.9z M117.7,312.8c-0.6-0.3-0.5-1.4-0.2-2.8c0.8,0.2,1.6,0.4,2.5,0.5
			C119.2,312.2,118.4,313.2,117.7,312.8z M105.2,330.6c0,0-3.4,2.6-5.7,7.5H97c-0.3-5.1-0.4-14.2,1.9-20.3c0.1-0.3,0.3-0.8,0.6-1.4
			l0,0c0.6-1.3,1-2.2,1.3-2.9c1.8-3.9,4.5-9.1,6.2-10.2c0,0-0.2-0.3-0.4-1c0.1,0.3,0.3,0.6,0.4,1c0.4,1,1.1,1.9,1.9,2.6
			c-3.4,6.5,3.1,14.4,3.1,14.4S110.4,325.8,105.2,330.6z M132.3,298.2c-5.3-1.5-11.6-1.2-14-2.5c-3.2-1.8,1.5-3.6,7.8-3.1
			c4.3,0.3,7.1,3.5,11.7,5.8C136.1,298.3,134.1,298.2,132.3,298.2z"/>
		<g>
			<g>
				<path class="st5" d="M138.8,314.3c0,0-10.2-11.9-0.6-19.4c0,0,7-4.2,12.7-3.9c0,0-8.1,13.5-5.5,14.9c2.6,1.3,7.9-15.7,7.9-15.7
					s15.9-1.5,21,0.9c0,0-13.6,11.1-10.7,11.8c2.9,0.7,17.5-10.2,17.5-10.2s14.8,2.5,14,11.5c-0.8,9-5.9,11.8-8.1,11.6
					c-2.2-0.2-15.3-5.2-15.6-3.4c-0.3,1.8,7.6,7.8,13.1,8.1c0,0-10.4,11.5-17.3,8.2c-6.9-3.3-7.5-8.6-11.8-10.5s-8-2-6.2,0
					c1.8,2,9.6,4,12.1,8.3c2.5,4.4,4.7,7.3-2.5,6.2c-7.2-1.1-18.8-6.3-19.3-12.3C138.8,314.3,138.8,314.3,138.8,314.3z"/>
				<g>
					<path class="st5" d="M187.8,304.3c0,0-40.2-1.5-49,9.9c0,0-2,5.9-8,11.2l-0.9,2.6c0,0,7-7.3,9.4-7.8
						C139.3,320.3,135.4,306,187.8,304.3z"/>
					<path class="st5" d="M130.8,325.5c0,0-8.6,6.4-9.2,17.8l1.6,0.1c0,0,2.8-11.8,7.7-16.4C135.9,322.4,130.8,325.5,130.8,325.5z"
						/>
				</g>
			</g>
			<g>
				<path class="st6" d="M103.2,299.3c0,0,16.2-9.1,8.6-21.4c0,0-6-7.6-12.5-9.5c0,0,3.5,18.4,0,18.8c-3.5,0.4-2.4-20.7-2.4-20.7
					s-17.1-8.2-23.8-7.6c0,0,10.6,17.9,7.1,17.5C76.9,276,65,257.8,65,257.8s-17.5-3.2-20.3,7.1c-2.8,10.4,1.7,15.6,4.3,16.2
					c2.6,0.6,19.2,0.4,18.8,2.6c-0.4,2.2-11.7,5.6-17.9,3.7c0,0,6.9,17.1,16,16.2c9.1-0.9,11.9-6.5,17.5-6.9
					c5.6-0.4,9.7,1.1,6.9,2.6c-2.8,1.5-12.3,0.5-16.8,4.4c-4.5,3.9-8.2,6.2,0.2,8c8.4,1.7,23.5,0.6,26.6-5.8
					C103.2,299.3,103.2,299.3,103.2,299.3z"/>
				<g>
					<path class="st6" d="M52.7,268.2c0,0,45.4,14.7,50.5,31.1c0,0-0.2,7.3,4.3,15.8v3.2c0,0-4.8-11-7.3-12.5
						C100.2,305.8,110.3,291.5,52.7,268.2z"/>
					<path class="st6" d="M107.5,315.1c0,0,7,10.6,3,23.6l-1.8-0.5c0,0,1.7-14.2-1.9-21.4C103.2,309.6,107.5,315.1,107.5,315.1z"/>
				</g>
			</g>
			<g>
				<path class="st7" d="M129,286.8c0,0-21.4-12-11.4-28.2c0,0,8-10,16.5-12.5c0,0-4.6,24.2,0,24.8c4.6,0.6,3.1-27.3,3.1-27.3
					s22.5-10.8,31.3-10c0,0-14,23.6-9.4,23.1c4.6-0.6,20.2-24.5,20.2-24.5s23.1-4.3,26.8,9.4c3.7,13.7-2.3,20.5-5.7,21.4
					c-3.4,0.9-25.3,0.6-24.8,3.4c0.6,2.8,15.4,7.4,23.6,4.8c0,0-9.1,22.5-21.1,21.4c-12-1.1-15.7-8.5-23.1-9.1
					c-7.4-0.6-12.8,1.4-9.1,3.4c3.7,2,16.2,0.7,22.2,5.7c6,5.1,10.8,8.2-0.3,10.5c-11.1,2.3-31,0.9-35-7.7
					C129,286.8,129,286.8,129,286.8z"/>
				<g>
					<path class="st6" d="M195.6,245.8c0,0-59.8,19.4-66.6,41c0,0,0.3,9.7-5.7,20.8v4.3c0,0,6.3-14.5,9.7-16.5
						C133,295.3,119.6,276.6,195.6,245.8z"/>
					<path class="st6" d="M123.3,307.6c0,0-9.2,14-4,31l2.4-0.6c0,0-2.3-18.8,2.5-28.2C129,300.3,123.3,307.6,123.3,307.6z"/>
				</g>
			</g>
			<path class="st8" d="M128.3,375.6c23.1,0,41.8-18.7,41.8-41.8H86.4C86.4,356.9,105.2,375.6,128.3,375.6z"/>
			<path class="st9" d="M138.6,375.3c-1.7,0.2-3.4,0.3-5.2,0.3c-23.1,0-41.8-18.7-41.8-41.8h10.4
				C101.9,355.1,117.9,372.7,138.6,375.3z"/>
			<path class="st8" d="M170.7,377.7H85.9l0,0c0-2.9,2.3-5.2,5.2-5.2h74.5C168.4,372.6,170.7,374.9,170.7,377.7L170.7,377.7z"/>
			<rect x="85.1" y="333.8" class="st8" width="86" height="1.3"/>
		</g>
		<path class="st10" d="M700.8,379.6H0.8c-0.4,0-0.8-0.3-0.8-0.8v-0.4c0-0.4,0.3-0.8,0.8-0.8h700.1c0.4,0,0.8,0.3,0.8,0.8v0.4
			C701.6,379.3,701.2,379.6,700.8,379.6z"/>
		<g>
			<g>
				<path class="st4" d="M136.8,151.7v64.1H56.9v-32.4c-0.9,0.7-1.8,1.3-2.7,2v33.1h85.3v-67.2C138.6,151.3,137.7,151.5,136.8,151.7
					z"/>
			</g>
			<path class="st4" d="M134,152.2v60.8H59.5v-31.5C82.5,165.2,107.6,157.1,134,152.2z"/>
		</g>
	</g>
	<g>
		<path class="st11" d="M252.1,104.3c0,0,25.7,19.8,28,21.1c2.3,1.3,38,2.7,38,2.7l-0.3-9.8l-32.9-5.6l-22.4-19.6L252.1,104.3
			L252.1,104.3z"/>
		<path class="st12" d="M424.7,24.9c1.8,9.4,7.7,27.8,17.2,26.6c10-1.3,14.4-7.3,14.8-16.8c0,0,5.2,1.3,4.2-5.5
			c-0.5-3-3.6-1.1-3.6-1.1S459.8,7.4,444.1,6C434,5.1,422.3,12,424.7,24.9"/>
		<path class="st13" d="M441.2,23.4c-0.3,0.1-0.6,0.2-0.9,0.2c-0.3,0-0.6-0.2-0.7-0.5c-0.2-0.5,0.2-1.1,0.5-1.4
			c0.8-0.7,1.7-0.7,2.7-0.7c0.9,0,1.8,0.1,2.7,0.4c0.9,0.3,1.6,1,2,1.9c0,0.1,0.1,0.2,0.1,0.4c0,0.2-0.2,0.3-0.4,0.3
			c-0.2,0-0.3-0.1-0.4-0.2C445.1,22.9,443.1,22.8,441.2,23.4"/>
		<path class="st13" d="M432.5,25.6c0.3,0,0.6-0.1,0.8-0.2c0.2-0.1,0.4-0.4,0.3-0.8c-0.1-0.5-0.7-0.9-1.1-1c-1-0.3-1.8,0.1-2.5,0.5
			c-0.7,0.4-1.4,0.8-2,1.4c-0.5,0.6-0.8,1.5-0.6,2.5l0.2,0.4c0.1,0.2,0.3,0.2,0.5,0.1c0.1-0.1,0.2-0.2,0.3-0.3
			C429.2,26.8,430.7,25.9,432.5,25.6"/>
		<path class="st14" d="M437.3,30.7c0.2,0.7,0.3,1.4,0.3,2.1c0,1.4-0.3,2.9-0.6,4.3c0,0.1,0,0.2,0,0.4c0,0.1,0,0.3,0.1,0.4l0,0
			l0.2,0.2l0,0c0.5,0.3,1,0.5,1.5,0.5h0c0.4,0,0.8-0.1,1.2-0.1c0.3,0,0.6,0.1,0.8,0.2l0.3,0l0-0.3c-0.3-0.3-0.7-0.3-1.1-0.3
			c-0.4,0-0.8,0.1-1.2,0.1h0c-0.5,0-0.9-0.1-1.3-0.4l-0.1,0.2l0.1-0.2l-0.2-0.2l-0.1,0.2l0.2-0.1l0-0.2l0-0.3c0.3-1.4,0.6-3,0.6-4.4
			c0-0.8-0.1-1.5-0.3-2.3l-0.3-0.1L437.3,30.7"/>
		<path class="st14" d="M430.9,32c-0.3-1.6,0.1-3,0.9-3.2c0.8-0.2,1.7,1,2.1,2.6c0.3,1.6-0.1,3-0.9,3.2
			C432.1,34.7,431.2,33.6,430.9,32"/>
		<path class="st14" d="M443.4,29c-0.3-1.6,0.1-3,0.9-3.2c0.8-0.2,1.7,1,2.1,2.6c0.3,1.6-0.1,3-0.9,3.2
			C444.6,31.8,443.7,30.6,443.4,29"/>
		<path class="st15" d="M440.9,41.8c1.7-0.5,5.4-0.1,5.5,1.4c0,1.5-3.7,1.5-5,1.9c-1.8,0.5-3.7,0-3.4-1.1
			C438.2,43.1,439.2,42.3,440.9,41.8L440.9,41.8z"/>
		<path class="st16" d="M426.3,35.1c0,0,14.6,5.4,33.5-7c0,0,0.2,26.4-17.5,27C428.7,55.5,426.3,35.1,426.3,35.1"/>
		<path class="st17" d="M426.9,26.7c-0.3-12.3,15.9-10.1,15.9-10.1c9.4-0.7,14.2,1.2,14.6,17.1c0.4,15.9-9.5,19.2-17.3,19.8
			C432.2,54,427.3,45.3,426.9,26.7 M353.2,150.9l6.3,15.4l52.4-20.9l12.6-21.7l5.5,27.6c0,0-8.3,77.7-4.6,113.2
			c3.4,32.6,20.5,84,20.5,84l20.4-3.3l-5-81.9c-0.1-1.3-0.1-2.7,0.1-4l1.6-47.8c0,0,5.5,40.7,7.9,58.8L485,337l25.7-2.1
			c0,0-6.9-70.2-7.4-73l-5.1-115.7c0,0,33.7-16.8,30.6-29.4c-3.2-12.6-24.7-51.9-33.1-55c-6.7-2.5-17.6-5-21.7-5.9
			c-0.9-0.2-1.5-1.1-1.4-2c0.6-8.5,2.6-47.8-17.1-53.5c-4.3-1.3-30.5-0.4-31.3,17.1c-0.8,17.5,6.3,45.5,6.3,45.5
			s-20.7,16.9-23.4,22.9c-7.9,16.9-18.1,47.7-22.5,50.8C380.4,139.8,353.2,150.9,353.2,150.9"/>
		<polyline class="st18" points="497.6,145.5 472.1,152.2 467.4,141.8 498.6,115.3 489.9,97.3 		"/>
		<path class="st16" d="M511,326.7c0,0,6,50.1,4.4,50.4c-1.6,0.3-52.8-0.9-52.8-0.9s-1.7-7.1,13.2-13.1c14.8-6.1,5.5-34.3,5.5-34.3
			L511,326.7L511,326.7z"/>
		<path class="st16" d="M466.9,326.7c0,0,6,50.1,4.4,50.4c-1.6,0.3-52.8-0.9-52.8-0.9s-1.7-7.1,13.2-13.1
			c14.8-6.1,5.5-34.3,5.5-34.3L466.9,326.7L466.9,326.7z"/>
		<path class="st19" d="M444.2,32.8c-0.5,0-1,0-1.5,0c-1.6-0.1-3-0.9-3.9-2.2l-0.1-0.2H437c-0.7,1-1.8,1.7-3,2c0-0.3,0-0.6-0.1-1
			c-0.3-1.5-1.1-2.6-1.9-2.6c0,0-0.1,0-0.2,0c-0.8,0.2-1.2,1.6-0.9,3.2c0,0.2,0.1,0.3,0.1,0.4c-1.3-0.1-2.7-0.2-3.9-0.2
			c-0.1-1.7-0.2-3.6-0.3-5.5c-0.1-4.5,2-7,4.6-8.5l18.4-1.3c4.1,1.1,6.5,4.5,7.2,12.7c-0.1,0.1-0.1,0.1-0.2,0.2
			c-0.2,0.1-0.5,0.3-0.7,0.4C451.7,32.3,447.2,32.8,444.2,32.8 M444.5,25.8c-0.1,0-0.1,0-0.2,0c-0.8,0.2-1.2,1.6-0.9,3.2
			c0.3,1.5,1.1,2.6,1.9,2.6c0.1,0,0.1,0,0.2,0c0.8-0.2,1.2-1.6,0.9-3.2C446,26.9,445.2,25.8,444.5,25.8 M431.8,23.6
			c-0.7,0-1.3,0.3-1.8,0.6c-0.7,0.4-1.4,0.8-2,1.4c-0.5,0.6-0.8,1.5-0.6,2.5l0.2,0.4c0.1,0.1,0.2,0.2,0.3,0.2c0,0,0.1,0,0.1,0
			c0.1-0.1,0.2-0.2,0.3-0.3c0.9-1.4,2.4-2.4,4.2-2.6c0.3,0,0.6-0.1,0.8-0.2c0.2-0.1,0.4-0.4,0.3-0.8c-0.1-0.5-0.7-0.9-1.1-1
			C432.3,23.6,432.1,23.6,431.8,23.6 M443.5,23c1.1,0,2.2,0.3,3.2,0.8c0.1,0.1,0.3,0.2,0.4,0.2c0,0,0,0,0,0c0.2,0,0.3-0.1,0.4-0.3
			c0-0.1,0-0.3-0.1-0.4c-0.4-1-1.2-1.6-2-1.9c-0.9-0.3-1.8-0.4-2.7-0.4c-0.1,0-0.1,0-0.2,0c-0.8,0-1.7,0.1-2.5,0.7
			c-0.4,0.4-0.7,1-0.5,1.4c0.1,0.4,0.4,0.5,0.7,0.5c0,0,0,0,0,0c0.3,0,0.6-0.1,0.9-0.2C442,23.1,442.8,23,443.5,23"/>
		<path class="st20" d="M447.2,23.9c-0.1,0-0.3-0.1-0.4-0.2c-1-0.5-2.1-0.8-3.2-0.8c-0.8,0-1.5,0.1-2.3,0.4
			c-0.3,0.1-0.6,0.2-0.9,0.2c0,0,0,0,0,0c-0.3,0-0.6-0.2-0.7-0.5c-0.2-0.5,0.2-1.1,0.5-1.4c0.7-0.6,1.6-0.7,2.5-0.7
			c0.1,0,0.1,0,0.2,0c0.9,0,1.8,0.1,2.7,0.4c0.9,0.3,1.6,1,2,1.9c0,0.1,0.1,0.2,0.1,0.4C447.5,23.8,447.3,23.9,447.2,23.9
			C447.2,23.9,447.2,23.9,447.2,23.9"/>
		<path class="st21" d="M424.9,31.9c-0.3-0.1-0.5-0.1-0.5-0.1c-0.8-1.4-0.4-9.5-0.2-12.2C424.2,23.4,424.5,27.7,424.9,31.9"/>
		<path class="st20" d="M427.9,28.6c-0.1,0-0.2,0-0.3-0.2l-0.2-0.4c-0.2-1,0.1-1.9,0.6-2.5c0.5-0.6,1.2-1.1,2-1.4
			c0.5-0.3,1.1-0.6,1.8-0.6c0.2,0,0.4,0,0.7,0.1c0.5,0.2,1,0.5,1.1,1c0.1,0.3-0.1,0.6-0.3,0.8c-0.2,0.1-0.6,0.2-0.8,0.2
			c-1.8,0.2-3.3,1.2-4.2,2.6c-0.1,0.1-0.2,0.2-0.3,0.3C428,28.6,428,28.6,427.9,28.6"/>
		<path class="st22" d="M432.9,32.5c-0.1,0-0.2,0-0.2,0c-0.5,0-1.1-0.1-1.6-0.1c0-0.1-0.1-0.3-0.1-0.4c-0.3-1.6,0.1-3,0.9-3.2
			c0.1,0,0.1,0,0.2,0c0.8,0,1.6,1.1,1.9,2.6c0.1,0.3,0.1,0.7,0.1,1C433.6,32.4,433.3,32.5,432.9,32.5"/>
		<path class="st22" d="M445.3,31.6c-0.8,0-1.6-1.1-1.9-2.6c-0.3-1.6,0.1-3,0.9-3.2c0,0,0.1,0,0.2,0c0.8,0,1.6,1.1,1.9,2.6
			c0.3,1.6-0.1,3-0.9,3.2C445.4,31.6,445.4,31.6,445.3,31.6"/>
		<path class="st16" d="M456.2,30.3c0.2-0.1,0.5-0.3,0.7-0.4c-0.1,0.1-0.3,0.2-0.5,0.3C456.3,30.2,456.3,30.2,456.2,30.3"/>
		<path class="st23" d="M427.1,32.2c-0.9-0.1-1.7-0.2-2.2-0.2c-0.5-4.3-0.7-8.5-0.7-12.3c0-0.6,0.1-0.9,0.1-0.9l7.2-0.5
			c-2.7,1.4-4.7,4-4.6,8.5C426.9,28.6,427,30.4,427.1,32.2 M457.1,29.7c-0.7-8.3-3.1-11.6-7.2-12.7l7.2-0.5l0.6,11.5
			C457.8,28.6,457.6,29.2,457.1,29.7"/>
		<path class="st14" d="M467.9,12.5c0,0-32.4,5-43.6,3.8l-0.1,2.7c0,0,22.3,0.3,44.7-4L467.9,12.5L467.9,12.5z"/>
		<path class="st24" d="M442.6,54c0,0,2,28.5,3.8,44.8c1.8,16.3,11,95.1,21.3,109.2"/>
		<path class="st18" d="M474.2,55.9c0,0-19,23.5-45.1,8.5"/>
		<polyline class="st15" points="442.6,150.3 440.8,148 428.8,156.7 430.6,159 442.6,150.3 		"/>
		<polygon class="st14" points="427.4,159.6 419.1,165.6 419.3,165.2 427.4,159.3 427.4,159.6 		"/>
		<polygon class="st16" points="428.1,159.7 427.3,159.7 427.3,159.7 427.2,159.6 427.2,159.6 427.5,158.8 428.9,157.5 429.3,157.9 
			429.6,158.3 429.9,158.7 428.1,159.7 		"/>
		<polyline class="st17" points="429.6,158.1 429.4,157.9 446,145.8 446.2,146.1 429.6,158.1 		"/>
		<polyline class="st25" points="436.4,154.4 435,152.5 435.7,152 437.2,153.8 436.4,154.4 		"/>
		<polyline class="st26" points="436.3,154.6 434.8,152.6 434.8,152.4 434.9,152.4 435.1,152.4 436.6,154.3 436.6,154.5 
			436.5,154.6 436.3,154.6 		"/>
		<polyline class="st26" points="437.2,153.9 435.6,152 435.7,151.8 435.7,151.7 435.9,151.8 437.5,153.7 437.4,153.9 437.4,154 
			437.2,153.9 		"/>
		<polyline class="st16" points="430.3,159.2 428.5,156.9 428.8,156.7 430.6,159 430.3,159.2 		"/>
		<polyline class="st27" points="430.4,158.8 428.9,156.9 434.8,152.7 436.3,154.5 430.4,158.8 		"/>
		<polyline class="st15" points="442.6,150.3 440.8,148 442.5,146.7 444,146.7 445.8,145.4 446.5,146.4 444.8,147.7 444.3,149 
			442.6,150.3 		"/>
		<polyline class="st28" points="442.6,150.3 442.6,150.3 443,150 442.1,148.9 446.2,145.9 446.5,146.4 444.8,147.7 444.3,149 
			442.6,150.3 		"/>
		<polygon class="st15" points="446.9,147.3 445,144.8 445,144.6 445.1,144.6 445.2,144.6 447.2,147.1 447.2,147.3 447.1,147.3 
			446.9,147.3 		"/>
		<polyline class="st29" points="430.3,155.7 430.3,155.6 430.4,155.6 430.4,155.6 430.3,155.7 		"/>
		<polyline class="st30" points="430.4,155.8 430.3,155.7 430.4,155.6 430.5,155.8 430.4,155.8 		"/>
		<polyline class="st31" points="430.9,156.5 430.4,155.8 430.5,155.8 431,156.4 430.9,156.5 		"/>
		<polyline class="st29" points="430.5,155.5 430.4,155.5 430.5,155.4 430.5,155.5 430.5,155.5 		"/>
		<polyline class="st30" points="430.6,155.7 430.5,155.5 430.5,155.5 430.7,155.6 430.6,155.7 		"/>
		<polyline class="st31" points="430.9,156 430.6,155.7 430.7,155.6 430.9,156 430.9,156 		"/>
		<polyline class="st29" points="430.6,155.4 430.6,155.4 430.7,155.3 430.7,155.4 430.6,155.4 		"/>
		<polyline class="st30" points="430.7,155.6 430.6,155.4 430.7,155.4 430.8,155.5 430.7,155.6 		"/>
		<polyline class="st31" points="431,155.9 430.7,155.6 430.8,155.5 431.1,155.9 431,155.9 		"/>
		<polyline class="st29" points="430.7,155.3 430.7,155.3 430.8,155.2 430.8,155.3 430.7,155.3 		"/>
		<polyline class="st30" points="430.9,155.5 430.7,155.3 430.8,155.3 431,155.4 430.9,155.5 		"/>
		<polyline class="st31" points="431.2,155.8 430.9,155.5 431,155.4 431.2,155.8 431.2,155.8 		"/>
		<polyline class="st29" points="430.9,155.2 430.9,155.2 430.9,155.1 431,155.2 430.9,155.2 		"/>
		<polyline class="st30" points="431,155.4 430.9,155.2 431,155.2 431.1,155.3 431,155.4 		"/>
		<polyline class="st31" points="431.3,155.7 431,155.4 431.1,155.3 431.4,155.7 431.3,155.7 		"/>
		<polyline class="st29" points="431.3,154.9 431.2,154.9 431.3,154.9 431.4,154.9 431.3,154.9 		"/>
		<polyline class="st30" points="431.4,155.1 431.3,154.9 431.4,154.9 431.5,155.1 431.4,155.1 		"/>
		<polyline class="st31" points="431.9,155.8 431.4,155.1 431.5,155.1 432,155.7 431.9,155.8 		"/>
		<polyline class="st29" points="431.4,154.8 431.4,154.8 431.5,154.8 431.5,154.8 431.4,154.8 		"/>
		<polyline class="st30" points="431.6,155 431.4,154.8 431.5,154.8 431.6,154.9 431.6,155 		"/>
		<polyline class="st31" points="431.8,155.3 431.6,155 431.6,154.9 431.9,155.3 431.8,155.3 		"/>
		<polyline class="st29" points="431.6,154.7 431.5,154.7 431.6,154.6 431.7,154.7 431.6,154.7 		"/>
		<polyline class="st30" points="431.7,154.9 431.6,154.7 431.7,154.7 431.8,154.8 431.7,154.9 		"/>
		<polyline class="st31" points="432,155.2 431.7,154.9 431.8,154.8 432.1,155.2 432,155.2 		"/>
		<polyline class="st29" points="431.7,154.6 431.7,154.6 431.8,154.5 431.8,154.6 431.7,154.6 		"/>
		<polyline class="st30" points="431.8,154.8 431.7,154.6 431.8,154.6 431.9,154.7 431.8,154.8 		"/>
		<polyline class="st31" points="432.1,155.1 431.8,154.8 431.9,154.7 432.2,155.1 432.1,155.1 		"/>
		<polyline class="st29" points="431.8,154.5 431.8,154.5 431.9,154.4 431.9,154.5 431.8,154.5 		"/>
		<polyline class="st30" points="432,154.7 431.8,154.5 431.9,154.5 432.1,154.6 432,154.7 		"/>
		<polyline class="st31" points="432.2,155 432,154.7 432.1,154.6 432.3,155 432.2,155 		"/>
		<polyline class="st29" points="432.3,154.2 432.3,154.2 432.4,154.1 432.4,154.1 432.3,154.2 		"/>
		<polyline class="st30" points="432.4,154.4 432.3,154.2 432.4,154.1 432.5,154.3 432.4,154.4 		"/>
		<polyline class="st31" points="432.9,155 432.4,154.4 432.5,154.3 433,155 432.9,155 		"/>
		<polyline class="st29" points="432.4,154.1 432.4,154.1 432.5,154 432.5,154 432.4,154.1 		"/>
		<polyline class="st30" points="432.6,154.3 432.4,154.1 432.5,154 432.7,154.2 432.6,154.3 		"/>
		<polyline class="st31" points="432.8,154.6 432.6,154.3 432.7,154.2 432.9,154.5 432.8,154.6 		"/>
		<polyline class="st29" points="432.6,154 432.6,154 432.7,153.9 432.7,153.9 432.6,154 		"/>
		<polyline class="st30" points="432.7,154.2 432.6,154 432.7,153.9 432.8,154.1 432.7,154.2 		"/>
		<polyline class="st31" points="433,154.5 432.7,154.2 432.8,154.1 433.1,154.4 433,154.5 		"/>
		<polyline class="st29" points="432.7,153.9 432.7,153.9 432.8,153.8 432.8,153.8 432.7,153.9 		"/>
		<polyline class="st30" points="432.9,154.1 432.7,153.9 432.8,153.8 433,154 432.9,154.1 		"/>
		<polyline class="st31" points="433.1,154.4 432.9,154.1 433,154 433.2,154.3 433.1,154.4 		"/>
		<polyline class="st29" points="432.9,153.8 432.8,153.8 432.9,153.7 433,153.7 432.9,153.8 		"/>
		<polyline class="st30" points="433,154 432.9,153.8 433,153.7 433.1,153.9 433,154 		"/>
		<polyline class="st31" points="433.3,154.3 433,154 433.1,153.9 433.4,154.2 433.3,154.3 		"/>
		<polyline class="st29" points="433.3,153.5 433.2,153.5 433.3,153.4 433.3,153.4 433.3,153.5 		"/>
		<polyline class="st30" points="433.4,153.7 433.3,153.5 433.3,153.4 433.5,153.6 433.4,153.7 		"/>
		<polyline class="st31" points="433.9,154.3 433.4,153.7 433.5,153.6 434,154.3 433.9,154.3 		"/>
		<polyline class="st29" points="433.4,153.4 433.4,153.4 433.5,153.3 433.5,153.3 433.4,153.4 		"/>
		<polyline class="st30" points="433.5,153.6 433.4,153.4 433.5,153.3 433.6,153.5 433.5,153.6 		"/>
		<polyline class="st31" points="433.8,153.9 433.5,153.6 433.6,153.5 433.9,153.8 433.8,153.9 		"/>
		<polyline class="st29" points="433.6,153.3 433.5,153.3 433.6,153.2 433.7,153.2 433.6,153.3 		"/>
		<polyline class="st30" points="433.7,153.5 433.6,153.3 433.7,153.2 433.8,153.4 433.7,153.5 		"/>
		<polyline class="st31" points="434,153.8 433.7,153.5 433.8,153.4 434,153.7 434,153.8 		"/>
		<polyline class="st29" points="433.7,153.2 433.7,153.2 433.8,153.1 433.8,153.1 433.7,153.2 		"/>
		<polyline class="st30" points="433.8,153.4 433.7,153.2 433.8,153.1 433.9,153.3 433.8,153.4 		"/>
		<polyline class="st31" points="434.1,153.7 433.8,153.4 433.9,153.3 434.2,153.6 434.1,153.7 		"/>
		<polyline class="st29" points="433.8,153.1 433.8,153.1 433.9,153 433.9,153 433.8,153.1 		"/>
		<polyline class="st30" points="434,153.2 433.8,153.1 433.9,153 434.1,153.2 434,153.2 		"/>
		<polyline class="st31" points="434.2,153.6 434,153.2 434.1,153.2 434.3,153.5 434.2,153.6 		"/>
		<polyline class="st29" points="434.4,152.7 434.4,152.7 434.4,152.6 434.5,152.6 434.4,152.7 		"/>
		<polyline class="st30" points="434.5,152.9 434.4,152.7 434.5,152.6 434.6,152.8 434.5,152.9 		"/>
		<polyline class="st31" points="435,153.5 434.5,152.9 434.6,152.8 435.1,153.5 435,153.5 		"/>
		<polyline class="st29" points="434.5,152.6 434.5,152.6 434.6,152.5 434.6,152.5 434.5,152.6 		"/>
		<polyline class="st30" points="434.7,152.7 434.5,152.6 434.6,152.5 434.8,152.7 434.7,152.7 		"/>
		<polyline class="st31" points="434.9,153.1 434.7,152.7 434.8,152.7 435,153 434.9,153.1 		"/>
		<polyline class="st29" points="434.7,152.5 434.7,152.4 434.8,152.4 434.8,152.4 434.7,152.5 		"/>
		<polyline class="st30" points="434.8,152.6 434.7,152.5 434.8,152.4 434.8,152.4 434.8,152.6 		"/>
		<polyline class="st26" points="435.1,153 434.8,152.6 434.8,152.4 435.2,152.9 435.1,153 		"/>
		<polyline class="st29" points="434.8,152.4 434.8,152.3 434.9,152.3 434.9,152.3 434.8,152.4 		"/>
		<polyline class="st30" points="434.8,152.4 434.8,152.4 434.9,152.3 435,152.4 434.9,152.4 434.8,152.4 		"/>
		<polyline class="st26" points="435.2,152.9 434.8,152.4 434.9,152.4 435,152.4 435.3,152.8 435.2,152.9 		"/>
		<polyline class="st29" points="435,152.3 434.9,152.2 435,152.2 435,152.2 435,152.3 		"/>
		<polyline class="st30" points="435.1,152.4 435.1,152.4 435,152.4 435,152.3 435,152.2 435.2,152.4 435.1,152.4 		"/>
		<polyline class="st32" points="435.4,152.8 435.1,152.4 435.2,152.4 435.5,152.7 435.4,152.8 		"/>
		<polyline class="st26" points="435.4,152.8 435,152.4 435.1,152.4 435.1,152.4 435.4,152.8 435.4,152.8 		"/>
		<polyline class="st29" points="435.3,152 435.3,152 435.4,151.9 435.4,151.9 435.3,152 		"/>
		<polyline class="st30" points="435.5,152.1 435.3,152 435.4,151.9 435.6,152.1 435.5,152.1 		"/>
		<polyline class="st32" points="436,152.8 435.5,152.1 435.6,152.1 436.1,152.7 436,152.8 		"/>
		<polyline class="st29" points="435.5,151.9 435.5,151.9 435.6,151.8 435.6,151.8 435.5,151.9 		"/>
		<polyline class="st30" points="435.6,152 435.5,151.9 435.6,151.8 435.6,151.9 435.6,152 435.6,152 435.6,152 		"/>
		<polyline class="st32" points="435.9,152.4 435.6,152 435.6,152 435.9,152.4 435.9,152.4 		"/>
		<polyline class="st26" points="435.9,152.4 435.6,152 435.6,152 435.6,151.9 436,152.3 435.9,152.4 		"/>
		<polyline class="st29" points="435.6,151.8 435.6,151.7 435.7,151.7 435.7,151.7 435.6,151.8 		"/>
		<polyline class="st30" points="435.7,151.8 435.6,151.8 435.7,151.7 435.8,151.7 435.7,151.7 435.7,151.8 		"/>
		<polyline class="st26" points="436.1,152.3 435.7,151.8 435.7,151.7 435.8,151.7 436.1,152.2 436.1,152.3 		"/>
		<polyline class="st29" points="435.8,151.7 435.8,151.6 435.9,151.6 435.9,151.6 435.8,151.7 		"/>
		<polyline class="st30" points="436.2,152.1 435.9,151.8 435.9,151.7 435.8,151.7 435.9,151.6 436.3,152.1 436.2,152.1 		"/>
		<polyline class="st26" points="436.2,152.2 435.9,151.7 435.9,151.8 436.2,152.1 436.2,152.2 		"/>
		<polyline class="st29" points="435.9,151.6 435.9,151.5 436,151.5 436,151.5 435.9,151.6 		"/>
		<polyline class="st30" points="436.3,152.1 435.9,151.6 436,151.5 436.4,152 436.3,152.1 		"/>
		<polyline class="st29" points="436.5,151.1 436.5,151.1 436.6,151.1 436.6,151.1 436.5,151.1 		"/>
		<polyline class="st30" points="437.2,152 436.5,151.1 436.6,151.1 437.2,151.9 437.2,152 		"/>
		<polyline class="st29" points="436.7,151 436.6,151 436.7,150.9 436.8,151 436.7,151 		"/>
		<polyline class="st30" points="437.1,151.5 436.7,151 436.8,151 437.2,151.5 437.1,151.5 		"/>
		<polyline class="st29" points="436.8,150.9 436.8,150.9 436.9,150.8 436.9,150.9 436.8,150.9 		"/>
		<polyline class="st30" points="437.2,151.4 436.8,150.9 436.9,150.9 437.3,151.4 437.2,151.4 		"/>
		<polyline class="st29" points="436.9,150.8 436.9,150.8 437,150.7 437,150.7 436.9,150.8 		"/>
		<polyline class="st30" points="437.4,151.3 436.9,150.8 437,150.7 437.4,151.3 437.4,151.3 		"/>
		<polyline class="st29" points="437.1,150.7 437.1,150.7 437.2,150.6 437.2,150.7 437.1,150.7 		"/>
		<polyline class="st30" points="437.5,151.2 437.1,150.7 437.2,150.7 437.6,151.2 437.5,151.2 		"/>
		<polyline class="st29" points="437.5,150.4 437.5,150.4 437.5,150.4 437.6,150.4 437.5,150.4 		"/>
		<polyline class="st30" points="438.1,151.3 437.5,150.4 437.6,150.4 438.2,151.2 438.1,151.3 		"/>
		<polyline class="st29" points="437.6,150.3 437.6,150.3 437.7,150.2 437.7,150.3 437.6,150.3 		"/>
		<polyline class="st30" points="438,150.8 437.6,150.3 437.7,150.3 438.1,150.8 438,150.8 		"/>
		<polyline class="st29" points="437.8,150.2 437.8,150.2 437.8,150.1 437.9,150.1 437.8,150.2 		"/>
		<polyline class="st30" points="438.2,150.7 437.8,150.2 437.9,150.1 438.3,150.7 438.2,150.7 		"/>
		<polyline class="st29" points="437.9,150.1 437.9,150.1 438,150 438,150.1 437.9,150.1 		"/>
		<polyline class="st30" points="438.3,150.6 437.9,150.1 438,150.1 438.4,150.6 438.3,150.6 		"/>
		<polyline class="st29" points="438.1,150 438,150 438.1,149.9 438.1,150 438.1,150 		"/>
		<polyline class="st30" points="438.5,150.5 438.1,150 438.1,150 438.5,150.5 438.5,150.5 		"/>
		<polyline class="st29" points="438.5,149.7 438.5,149.6 438.6,149.6 438.6,149.6 438.5,149.7 		"/>
		<polyline class="st30" points="439.2,150.5 438.5,149.7 438.6,149.6 439.3,150.4 439.2,150.5 		"/>
		<polyline class="st29" points="438.7,149.5 438.7,149.5 438.8,149.5 438.8,149.5 438.7,149.5 		"/>
		<polyline class="st30" points="439.1,150.1 438.7,149.5 438.8,149.5 439.2,150 439.1,150.1 		"/>
		<polyline class="st29" points="438.8,149.4 438.8,149.4 438.9,149.4 438.9,149.4 438.8,149.4 		"/>
		<polyline class="st30" points="439.2,150 438.8,149.4 438.9,149.4 439.3,149.9 439.2,150 		"/>
		<polyline class="st29" points="439,149.3 439,149.3 439.1,149.3 439.1,149.3 439,149.3 		"/>
		<polyline class="st30" points="439.4,149.8 439,149.3 439.1,149.3 439.5,149.8 439.4,149.8 		"/>
		<polyline class="st29" points="439.1,149.2 439.1,149.2 439.2,149.2 439.2,149.2 439.1,149.2 		"/>
		<polyline class="st30" points="439.5,149.7 439.1,149.2 439.2,149.2 439.6,149.7 439.5,149.7 		"/>
		<polyline class="st29" points="439.5,149 439.5,148.9 439.6,148.9 439.6,148.9 439.5,149 		"/>
		<polyline class="st30" points="440.2,149.8 439.5,149 439.6,148.9 440.3,149.7 440.2,149.8 		"/>
		<polyline class="st29" points="439.7,148.8 439.7,148.8 439.7,148.8 439.7,148.8 439.7,148.8 		"/>
		<polyline class="st30" points="440.1,149.4 439.7,148.8 439.7,148.8 440.2,149.3 440.1,149.4 		"/>
		<polyline class="st29" points="439.8,148.7 439.8,148.7 439.9,148.7 439.9,148.7 439.8,148.7 		"/>
		<polyline class="st30" points="440.2,149.2 439.8,148.7 439.9,148.7 440.3,149.2 440.2,149.2 		"/>
		<polyline class="st29" points="440,148.6 439.9,148.6 440,148.5 440,148.6 440,148.6 		"/>
		<polyline class="st30" points="440.4,149.1 440,148.6 440,148.6 440.4,149.1 440.4,149.1 		"/>
		<polyline class="st29" points="440.1,148.5 440.1,148.5 440.2,148.5 440.2,148.5 440.1,148.5 		"/>
		<polyline class="st30" points="440.5,149.1 440.1,148.5 440.2,148.5 440.6,149 440.5,149.1 		"/>
		<path class="st33" d="M442.6,150.3l-0.8-1l0,0L442.6,150.3L442.6,150.3 M441.6,149l-0.8-1l-0.1,0.1l0,0l0.5-0.3l0,0l-0.4,0.3
			L441.6,149L441.6,149"/>
		<path class="st34" d="M442.5,150.4l-0.8-1l0.1-0.1L442.5,150.4L442.5,150.4 M441.5,149.1l-0.8-1l0.1-0.1L441.5,149.1L441.5,149.1"
			/>
		<polyline class="st33" points="441.7,149.3 441.5,149.1 441.6,149 441.6,149 441.7,149.1 441.8,149.3 441.8,149.3 441.7,149.3 		
			"/>
		<polyline class="st34" points="441.7,149.1 441.6,149 440.8,148 441.2,147.7 442.1,148.9 441.7,149.1 		"/>
		<polyline class="st35" points="442.6,150.3 441.8,149.3 441.7,149.1 442.1,148.9 443,150 442.6,150.3 		"/>
		<polygon class="st15" points="443.4,151.8 439.5,146.9 439.5,146.7 439.6,146.7 439.8,146.7 443.6,151.6 443.6,151.8 443.5,151.8 
			443.4,151.8 		"/>
		<path class="st16" d="M482.4,123.1l16.9,23.8l-33.9,12c0,0-10.6,7.5-11.2,7.7c-0.6,0.2-3.1-0.1-3.7-2.3c0,0-4.2,0-3.3-3.1
			c0,0-3.6-0.8-3.3-3c0.4-2.3,1.7-2.8,1.7-2.8s-9.1,5.6-10,5c-1.5-0.9,1.2-3.1,5.4-6.4c4.2-3.3,8.6-7.1,7.3-7.6
			c-1.3-0.5-7.9-1.8-8.1-3c-0.5-2.9,14.3-0.8,16.3-0.3C458.5,143.7,482.4,123.1,482.4,123.1L482.4,123.1z"/>
		<path class="st36" d="M392.5,370.4c0-3.8-3.1-6.8-6.8-6.8c-3.8,0-6.8,3.1-6.8,6.8c0,3.8,3.1,6.8,6.8,6.8
			C389.5,377.2,392.5,374.2,392.5,370.4L392.5,370.4z"/>
		<path class="st36" d="M323.3,370.4c0-3.8-3.1-6.8-6.8-6.8c-3.8,0-6.8,3.1-6.8,6.8c0,3.8,3.1,6.8,6.8,6.8
			C320.2,377.2,323.3,374.2,323.3,370.4L323.3,370.4z"/>
		<path class="st36" d="M381.2,248.2h-56.7c-4,0-7.2,3.2-7.2,7.2v13.6h71.1v-13.6C388.4,251.5,385.2,248.2,381.2,248.2L381.2,248.2z
			"/>
		<polygon class="st17" points="389.3,260.4 316.4,260.4 316.4,270.5 389.3,270.5 389.3,260.4 		"/>
		<polygon class="st17" points="357,364.5 347,364.5 347,265.6 357,265.6 357,364.5 		"/>
		<path class="st17" d="M394.1,367.8h-85c0-4,3.2-7.1,7.1-7.1h70.8C390.9,360.6,394.1,363.8,394.1,367.8L394.1,367.8z"/>
		<polygon class="st12" points="413.9,360 412.1,314.2 428.6,313.7 425.2,361.6 413.9,360 		"/>
		<path class="st37" d="M413.9,355.6c0,0-6.6,11.3-5,20.3l49.8,2.2c0,0,3.5-9.4-7.7-12.3c-11.2-2.9-26.4-11.3-26.4-11.3
			S418.1,359.9,413.9,355.6L413.9,355.6z"/>
		<path class="st15" d="M408.9,375.9l49.8,2.2c0,0,0.9-2.3,0.4-5l-50.5-2.2C408.5,372.6,408.6,374.3,408.9,375.9L408.9,375.9z"/>
		<path class="st38" d="M424.4,357.3c0.5-0.8,1-1.6,1.7-2.2c1.1-0.8,2.5-1.1,3.8-1.2c1.2-0.1,2.3-0.1,3.5-0.1c1.5,0,3.1,0.2,4.3,1.1
			c0.4,0.3,0.7,0.7,0.6,1.2c-0.1,0.3-0.4,0.5-0.7,0.7c-1,0.4-2.2,0.2-3.3,0c-2.6-0.5-5.2-1.2-7.7-1.9c0.3,1.4,0.4,2.9,0.3,4.3
			c-0.1,1.3-0.4,2.7-1,3.9c-0.3,0.5-0.7,1-1.2,1.2c-0.5,0.3-1.2,0.3-1.7,0c-0.5-0.3-0.7-0.9-0.8-1.5c0-0.6,0.2-1.1,0.3-1.7
			C423.1,359.8,423.7,358.5,424.4,357.3L424.4,357.3z"/>
		<polygon class="st12" points="381.4,361.2 377.3,314.3 394.3,313.1 393,362.3 381.4,361.2 		"/>
		<path class="st37" d="M381.2,356.8c0,0-6.3,11.9-4.1,21.1l51.2-0.2c0,0,3.1-9.8-8.4-12.2c-11.6-2.4-27.7-10.3-27.7-10.3
			S385.7,361,381.2,356.8L381.2,356.8z"/>
		<path class="st15" d="M377,377.8l51.2-0.2c0,0,0.8-2.4,0.1-5.1l-52,0.2C376.5,374.4,376.7,376.2,377,377.8L377,377.8z"/>
		<path class="st39" d="M392,358c0.4-0.8,0.9-1.7,1.7-2.3c1.1-0.9,2.5-1.2,3.8-1.4c1.2-0.2,2.4-0.2,3.6-0.3c1.6,0,3.2,0.1,4.5,1
			c0.4,0.3,0.8,0.7,0.7,1.1c-0.1,0.4-0.4,0.6-0.7,0.7c-1,0.5-2.2,0.3-3.3,0.2c-2.7-0.4-5.4-1-8-1.6c0.4,1.4,0.5,2.9,0.5,4.4
			c0,1.4-0.2,2.8-0.9,4c-0.3,0.5-0.6,1-1.2,1.3c-0.5,0.3-1.2,0.4-1.7,0.1c-0.5-0.3-0.8-0.9-0.9-1.5c0-0.6,0.1-1.2,0.3-1.7
			C390.8,360.7,391.4,359.3,392,358L392,358z"/>
		<path class="st16" d="M320.8,207.8c0,0,3.6,39.4,7.6,41.4c4,2,53.5,16.9,53.5,16.9l-9,79.6c0,0,13.8,12.8,27.1,4.7l11.3-76.4
			l-5.3,75.8c0,0,12.8,6.3,26.2,2c0,0,14.1-83.6,6.5-103.8c-4.5-11.8-48.5-33.6-48.5-33.6l-4.8-15.6L320.8,207.8L320.8,207.8z"/>
		<path class="st40" d="M325,210.6c0,0,4.9,25.1,6.3,28.1c1.4,3,52.6,20.1,54.4,22.6c1.8,2.5-9.6,86.2-9.6,86.2 M410.5,279.1
			c0,0,1.3-22.9,0.2-26.8c-1.1-3.9-32.9-22.4-32.9-22.4s-12.7-7.5-30.1-0.4"/>
		<path class="st12" d="M393.4,126.5l21.1,35.6l41.7,15l-3.5,9.7c0,0-42.5-3.2-54.8-14.4c-5.4-4.9-23.4-31.9-23.4-31.9L393.4,126.5
			L393.4,126.5z"/>
		<polyline class="st40" points="369.8,227.3 367.7,215.3 374.9,212.1 377,222.8 372.4,227.6 		"/>
		<path class="st14" d="M344.1,104.9c0,0-30.1,11.1-33.6,14.7c-6.5,6.5-5.1,45.8-5.1,45.8l5.7,0.1l5,26.8l4.9,37.5l70-15.2
			l-8.1-58.5l4.4,8.2l24-9.3c0,0-16.9-34.5-22.4-39.2c-5.5-4.7-22.1-8.9-22.1-8.9L344.1,104.9L344.1,104.9z"/>
		<path class="st12" d="M306.6,165.3l25-2.4l2.7,32.6l28.1,39.4l-7.6,6.5c0,0-38.4-32-41.2-38.4
			C310.9,196.6,306.6,165.3,306.6,165.3L306.6,165.3z"/>
		<polyline class="st41" points="332.3,138.8 334,162.4 305.3,165.2 		"/>
		<path class="st12" d="M452.9,175.9c0,0,6.8-0.2,10.8,0.4c4,0.5,13.9,3.3,14.5,4.8c0.6,1.5-10.8-0.3-10.9,0.8
			c-0.2,1.1,15.9,9.6,15.2,10.9c-0.7,1.3-10.7-3.1-10.7-3.1s9.8,5.5,9.4,6.2c-0.4,0.7-11.4-3.5-11.4-3.5s8.9,5.9,7.6,6.9
			c-1.3,1-12.9-5.5-12.9-5.5s5.9,5.7,5.4,6.6c-0.5,0.9-21-14.6-21-14.6L452.9,175.9L452.9,175.9z"/>
		<path class="st12" d="M353.5,240.6c0,0,2.6,4.2,8.7,6.8c6.1,2.6,10.2,10.5,11.4,10.5c1.2,0-2.9-9.1-2.9-9.1s8.6,9.4,10.7,8.6
			c2.2-0.8-5.9-9.8-5.9-9.8s6.5,7.5,8.4,7.2c1.9-0.3-5.6-9.9-5.6-9.9s6.9,6.3,8.2,5.9c1.2-0.4-7.1-9.9-8-10.3
			c-1-0.4-4.1-2.1-4.1-2.1s4.2,1.1,4.8,0.3c0.5-0.8-7.5-4.1-17.3-4.1C352.3,234.5,353.5,240.6,353.5,240.6L353.5,240.6z"/>
		<path class="st12" d="M340.4,111.6c0,0-2.6-3.6-1.4-5.2c2.7-3.4,4.5-16.2,4.5-16.2l19.3,4c0,0-1.3,16.8-0.3,17.5
			c1.1,0.7,1.9,4.9-6.6,7.1C347.5,120.9,340.4,111.6,340.4,111.6L340.4,111.6z"/>
		<path class="st42" d="M343.8,89.3c0,0-0.3,1.4-0.5,3.1c4.6,19.8,15.9,16.3,18.9,15.1c0.1-4,0.6-13,0.6-13L343.8,89.3L343.8,89.3z"
			/>
		<path class="st12" d="M374.1,65.5c-2-2.9-4.9-5.1-8-6.5c-5.2-2.5-10.9-2.7-15.8,0.6c-4.1,2.7-6.1,6.8-7.1,10.8
			c-1.3,5.5-0.7,10.5-0.7,10.5c0.3,2.3,0.5,4.5,0.8,6.8c0.6,8,4.4,12.6,11.2,15c4.1,1.4,7.8,2.9,11.2-0.2c5.7-5,9.2-16.8,10.6-24.5
			C377.2,73.6,376.8,69.3,374.1,65.5L374.1,65.5z"/>
		<path class="st14" d="M359.3,91.4c0.4-0.3,0.9-0.3,1.4-0.2c0.2,0,0.5,0,0.7,0c0.6,0,1.1-0.2,1.6-0.5l0.3-0.3
			c0.2-0.3,0.1-0.6,0-0.8c-0.5-2.2-1.1-4.6-0.6-6.8l-0.4-0.1c-0.6,2.3,0,4.7,0.6,7c0,0.2,0.1,0.4,0,0.5l-0.2,0.2
			c-0.4,0.3-0.9,0.5-1.4,0.5c-0.2,0-0.4,0-0.6,0c-0.6,0-1.2-0.1-1.7,0.3L359.3,91.4L359.3,91.4z"/>
		<path class="st14" d="M344.3,80.6c0,0,5.7-3.8,8.8-13.7c0,0,4.8-0.2,7.6,0.9c2.8,1.1,5.5,4.6,11.4,6c5.8,1.4,9.6-2.2,9.6-2.2
			s-1.2-0.3-1.8-0.5c0,0,2.3-1.4,5.2-4.4c0,0-1.5-0.1-6.8-2.5c0,0,2-0.9,3.4-2.3c0,0-4.7-0.3-10.1-2.8c-5.4-2.5-12.5-5.7-16.7-4.3
			c-4.2,1.4-4.5,1.9-4.5,1.9s2.4-3.8,4.2-4.2c0,0-4.3,0.6-5.7,4.4c0,0-2.3-0.3-3.5-0.3c-1.2,0,2.6,1,2.6,1s-9.6,8.5-5.8,25.3
			L344.3,80.6L344.3,80.6z"/>
		<path class="st43" d="M374,85.3c0,0,2.8-1.3,3.5,0.3c0.8,1.6-1.2,6.2-5.4,5.1C372.1,90.7,372.1,88.2,374,85.3L374,85.3z"/>
		<path class="st14" d="M350.4,56.7c0,0,3.8-3.8,8.7-4.2c4.8-0.4,13,3.3,16.6,3c0,0-3.3,2.4-8.9,2.4c-5.6,0-10.2,0.8-10.2,0.8
			L350.4,56.7L350.4,56.7z"/>
		<path class="st14" d="M375.3,73.7c0,0,0,7.6-0.7,11.4c0,0,3.8-10,3.1-13.2C377.1,68.7,375.3,73.7,375.3,73.7L375.3,73.7z"/>
		<path class="st14" d="M353.3,75.5c-0.4,0.9,1.4,0.7,2.6,0.4c1.1-0.3,3.7,0.5,4.6,0.4c1-0.1,1.3-2.1-0.3-2.4
			C358.6,73.5,354.4,73.1,353.3,75.5L353.3,75.5z"/>
		<path class="st14" d="M374,80.3c0,1-1.6,0-2.5-0.7c-0.9-0.7-3.5-1.1-4.4-1.5c-0.8-0.5-0.3-2.4,1.3-2.1C370,76.3,374,77.6,374,80.3
			L374,80.3z"/>
		<path class="st44" d="M355.8,70.6c0.1-0.5-0.3-2.5-0.4-2.5c-0.2,0-1.2,1.7-1.2,2.2c-0.1,0.5,0.2,0.9,0.7,1
			C355.3,71.4,355.7,71.1,355.8,70.6L355.8,70.6z"/>
		<path class="st44" d="M374,77.4c0.1-0.4-0.2-2.2-0.3-2.2c-0.2,0-1,1.5-1.1,1.9c-0.1,0.4,0.2,0.8,0.6,0.9
			C373.6,78.1,374,77.8,374,77.4L374,77.4z"/>
		<path class="st44" d="M350.3,77.8c0-0.3-0.2-1.4-0.2-1.4c-0.1,0-0.7,1-0.7,1.3c0,0.3,0.1,0.5,0.4,0.5
			C350,78.2,350.2,78.1,350.3,77.8L350.3,77.8z"/>
		<path class="st45" d="M357.3,83.3c0,0-2.6,1.8-4.5-0.1 M365.7,85.3c0,0,2.1,2.5,4.5,1.1"/>
		<path class="st46" d="M345.8,81c0,0,1-3.5-3.3-4.1c-2.2-0.3-4.4,5.9,1.1,8.2C343.6,85.1,345.5,84.8,345.8,81L345.8,81z"/>
		<path class="st14" d="M357.3,80.5c0.1-0.4,0.2-0.7,0.2-1.1c-0.4-0.2-1.3-0.6-3.2,0.2l0,0.1c-0.4,1.6-0.1,3.2,0.8,3.4
			C355.9,83.3,356.9,82.1,357.3,80.5L357.3,80.5z"/>
		<path class="st14" d="M367,82.4c0-0.4,0.1-0.8,0.2-1.1c0.4-0.1,1.4-0.1,2.9,1.2l0,0.1c-0.2,1.7-1,3-1.9,2.9
			C367.4,85.5,366.8,84.1,367,82.4L367,82.4z"/>
		<path class="st14" d="M363.1,95.8c0,0-7,2.9-9.2-1.8L363.1,95.8L363.1,95.8z"/>
		<path class="st14" d="M185.2,109.6c-3.3,0-6.5-1.2-8.9-3.5c-3.2-3-4.6-7.8-3.6-12.1c0.4-1.7,1.1-3.3,1.9-4.8
			c0.6-1.4,1.3-2.9,1.7-4.4c0.6-2.3,0.5-4.8,0.4-7.3c-0.1-3-0.2-6.1,0.9-9c1.8-4.6,6.1-7.1,10.3-9.6c2.6-1.5,5.2-3.1,7.2-5.1
			c4-3.9,5.9-9.5,7.6-14.9c0.3-0.8,0.6-1.7,0.8-2.5c1.9-5.4,5.1-12.9,11.8-15.7c0.5-0.2,1.2,0,1.6,0.3c0.4,0.3,0.4,0.6,0.4,0.8
			c0,0.2-0.1,0.5-0.5,0.6l-0.4-1l-0.1,0.2l0,0.2c-0.1-0.1-0.4-0.2-0.6-0.2c-6.3,2.7-9.4,9.9-11.2,15.1c-0.3,0.8-0.6,1.7-0.8,2.5
			c-1.8,5.5-3.7,11.2-7.9,15.3c-2.1,2.1-4.8,3.7-7.4,5.2c-4.2,2.5-8.2,4.9-9.9,9.1c-1.1,2.7-1,5.5-0.8,8.5c0.1,2.5,0.2,5.1-0.5,7.6
			c-0.4,1.6-1.1,3.1-1.8,4.6c-0.7,1.5-1.4,3-1.8,4.6c-0.9,3.9,0.4,8.3,3.3,11c2.9,2.8,7.3,3.9,11.2,2.8l0.3,1
			C187.5,109.5,186.4,109.6,185.2,109.6L185.2,109.6z"/>
		<path class="st14" d="M176.7,95.7c-0.8,6.4,4.2,12.7,10.3,14.7c6.2,2,13,0.5,18.8-2.5c3.7-1.9,7.2-4.4,11.3-5.1
			c6.1-1,12.3,2.4,18.3,1c7-1.6,11-9.2,11.9-16.3c0.9-7.1-0.3-14.4,0.6-21.4c0.7-4.9,2.4-9.8,2.1-14.7c-0.1-2.1-0.6-4.1-1.1-6.1
			c-0.6-2.5-1.2-5-1.8-7.5c-1.1-4.6-2.3-9.4-5.1-13.3c-7.9-11.3-26.7-9.6-32.7,2.7c-4.6,9.5-3.3,20.4-11.9,28.2
			c-3.2,2.8-7.1,4.7-10.6,7.1c-4.3,3-7.4,7.1-7.7,12.4c-0.2,3.9,0.9,7.7,0.3,11.6C178.9,89.5,177.2,92.4,176.7,95.7L176.7,95.7z"/>
		<path class="st12" d="M257,356.6c-0.2-0.4-0.3-0.6-0.3-0.6l0-22.8l-13.4,2.5c0,0,1.7,13.3,2,20.2
			C249.2,355.5,253.3,355.9,257,356.6L257,356.6z"/>
		<path class="st47" d="M272.2,365.6c-12.3-1.6-15.2-9.5-15.2-9.5l0.4-7l-13.3,1.1c0.2,2.9,1.3,7.3,1.2,8.7
			c-0.5,4.7-4.2,15.2-1.7,18c0,0,34.8,1.9,38.4,1.3S284.6,367.2,272.2,365.6L272.2,365.6z"/>
		<path class="st15" d="M272.3,365.6c-0.3,0-0.5-0.1-0.8-0.1c-1.4,3.5-1.3,8.3-1.3,8.3l-27.3-0.2c0,1.4,0.2,2.6,0.9,3.3
			c0,0,34.8,1.9,38.4,1.3C285.6,377.5,284.6,367.2,272.3,365.6L272.3,365.6z"/>
		<path class="st15" d="M253.9,366.1c0.4-2-0.8-4-2.8-4.4c-2-0.4-4,0.8-4.4,2.8c-0.4,2,0.8,4,2.8,4.4
			C251.5,369.4,253.4,368.1,253.9,366.1L253.9,366.1z"/>
		<path class="st15" d="M258.5,351.3c-0.2,0.2-0.4,0.5-0.7,0.7l-0.1,0.2c1.5-0.2,2.9-0.7,4.1-1.6
			C260.5,350.4,259.3,350.7,258.5,351.3L258.5,351.3z M254.9,354c0.5,0.2,1,0.3,1.6,0.4c-0.1-0.3-0.2-0.6-0.3-0.9
			C255.7,353.8,255.3,353.9,254.9,354L254.9,354z M254.6,356.1l2.3,0.5c0-0.5-0.1-0.9-0.2-1.4C255.9,355.5,255.2,355.8,254.6,356.1
			L254.6,356.1z M255.3,358l1.7,0.2c0-0.3,0-0.5,0-0.8C256.4,357.5,255.8,357.7,255.3,358L255.3,358z M256.7,353.2
			c1.4,1.7,2.9,3.3,4.6,4.8c0.3,0.3,0.6,0.5,0.9,0.5c0.4-0.1,0.6-0.6,0.6-1.1c-0.1-0.7-0.5-1.4-1.4-2.1c-1.3-1-2.7-1.8-4.3-2.3
			L256.7,353.2L256.7,353.2z M254.1,369.9c-0.1-0.1-0.2-0.2-0.2-0.4c1.1-2.6,2.2-5.3,2.7-8.2c0-0.2,0.1-0.3,0.1-0.5
			c-0.4,0-0.8-0.1-1.3-0.1l-0.2-0.2l0.1-0.3l1.5-0.9c0-0.2,0-0.4,0-0.6l-2.6-0.3l-0.2-0.2l0.1-0.3c0.5-0.4,1.1-0.7,1.8-0.9l-2.4-0.5
			l-0.2-0.2l0.2-0.3c0.8-0.4,1.6-0.7,2.4-1c-0.8-0.2-1.5-0.4-2.3-0.8l-0.1-0.3c0-0.1,0.1-0.2,0.3-0.2l0,0h0c0.7,0,1.4-0.2,2-0.5
			l0-0.1l0-0.3l-0.1-0.3c0-0.1,0.2-0.2,0.3-0.2c0.3,0,0.6,0,0.9,0l0.1-0.1c0.2-0.2,0.3-0.3,0.4-0.5c0.2-0.3,0.4-0.6,0.7-0.8
			c1-0.9,2.6-1.2,4.3-0.7l0.2,0.2l-0.1,0.3c-1.3,1.1-3,1.8-4.7,2.1c1.3,0.5,2.6,1.2,3.7,2.1c1,0.8,1.5,1.6,1.6,2.5
			c0.1,0.7-0.3,1.6-1,1.7c-0.5,0.1-1-0.2-1.4-0.6c-1.4-1.2-2.7-2.6-3.9-4l0,0.2l0.2,0.3l-0.1,0.2c0.1,0.6,0.2,1.2,0.3,1.8l0.1,0.2
			l0,0.1c0,0.4,0,0.7,0,1.1l1.2,0.1l0.2,0.2l-0.1,0.3l-1.3,0.8c0,0.2,0,0.5-0.1,0.7c0.8,0,1.7-0.2,2.4-0.5l0.3,0.1l0,0.3l-1.7,1.8
			c1-0.1,2-0.4,3-0.8l0.3,0.1l0,0.3l-1.3,1.8c1-0.4,1.9-0.8,2.8-1.2l0.3,0.1l0,0.3l-1.3,2.1l2.2-1.6c0.1-0.1,0.3-0.1,0.4,0.1
			l-0.1,0.4l-3.3,2.5l-0.4,0l0-0.4l1.5-2.5c-0.9,0.4-1.9,0.8-2.8,1.2l-0.3-0.1V364l1.3-1.8c-1,0.3-2,0.5-3,0.6l-0.3-0.2l0.1-0.3
			l1.5-1.6c-0.6,0.1-1.1,0.2-1.7,0.2c0,0.2-0.1,0.4-0.1,0.6c-0.5,2.9-1.7,5.6-2.7,8.3l-0.3,0.2L254.1,369.9L254.1,369.9z"/>
		<path class="st12" d="M202.5,356.3c-0.2-0.4-0.3-0.6-0.3-0.6l1-22.8l-13.5,1.9c0,0,1.2,13.3,1.1,20.3
			C194.7,354.9,198.8,355.5,202.5,356.3L202.5,356.3z"/>
		<path class="st47" d="M217.3,366c-12.3-2.1-14.8-10.2-14.8-10.2l0.7-6.9l-13.3,0.5c0.1,2.9,1,7.4,0.8,8.7
			c-0.7,4.7-4.8,15-2.4,17.9c0,0,34.7,3.5,38.3,3C230.1,378.5,229.6,368.1,217.3,366L217.3,366z"/>
		<path class="st15" d="M217.3,366c-0.3-0.1-0.5-0.1-0.8-0.2c-1.5,3.4-1.7,8.2-1.7,8.2l-27.3-1.4c-0.1,1.4,0.1,2.7,0.7,3.4
			c0,0,34.7,3.5,38.3,3C230.1,378.5,229.6,368.1,217.3,366L217.3,366z"/>
		<path class="st15" d="M198.9,365.7c0.5-2-0.7-4-2.6-4.5c-2-0.5-4,0.7-4.5,2.6c-0.5,2,0.7,4,2.6,4.5
			C196.4,368.9,198.4,367.7,198.9,365.7L198.9,365.7z"/>
		<path class="st15" d="M204.3,351.1c-0.2,0.2-0.5,0.4-0.7,0.7l-0.2,0.2c1.5-0.1,2.9-0.6,4.1-1.4C206.2,350.3,205,350.5,204.3,351.1
			L204.3,351.1z M200.5,353.7c0.5,0.2,1,0.4,1.5,0.5c-0.1-0.3-0.2-0.6-0.3-0.9C201.3,353.5,200.9,353.6,200.5,353.7L200.5,353.7z
			 M200.1,355.7l2.3,0.6c0-0.5-0.1-0.9-0.2-1.4C201.5,355.2,200.8,355.4,200.1,355.7L200.1,355.7z M200.7,357.6l1.7,0.3
			c0-0.3,0-0.5,0-0.8C201.8,357.2,201.2,357.4,200.7,357.6L200.7,357.6z M202.3,352.9c1.3,1.8,2.8,3.4,4.3,4.9
			c0.3,0.3,0.6,0.5,0.9,0.5c0.4,0,0.6-0.6,0.6-1c-0.1-0.7-0.5-1.4-1.3-2.2c-1.2-1.1-2.7-1.9-4.2-2.4L202.3,352.9L202.3,352.9z
			 M199,369.5c-0.1-0.1-0.2-0.2-0.1-0.4c1.2-2.6,2.4-5.2,3.1-8.1c0-0.2,0.1-0.3,0.1-0.5c-0.4,0-0.9-0.1-1.3-0.2l-0.2-0.2l0.1-0.3
			l1.6-0.9c0-0.2,0-0.4,0.1-0.6l-2.6-0.4l-0.2-0.2l0.1-0.3c0.6-0.4,1.2-0.6,1.8-0.8l-2.4-0.6l-0.2-0.2l0.2-0.3
			c0.8-0.4,1.6-0.7,2.4-0.9c-0.8-0.2-1.5-0.5-2.2-0.9l-0.1-0.3c0-0.1,0.2-0.2,0.3-0.2l0,0h0c0.7,0,1.4-0.1,2.1-0.4l0,0l0-0.3
			l-0.1-0.3c0-0.2,0.2-0.2,0.3-0.2c0.3,0,0.6,0.1,0.9,0.1l0.1-0.1c0.2-0.2,0.3-0.3,0.5-0.5c0.2-0.3,0.5-0.5,0.8-0.8
			c1.1-0.9,2.7-1.1,4.4-0.5l0.2,0.2l-0.1,0.3c-1.3,1.1-3,1.7-4.7,1.9c1.3,0.5,2.5,1.3,3.6,2.2c1,0.9,1.5,1.7,1.5,2.5
			c0.1,0.7-0.4,1.5-1.1,1.6c-0.5,0-0.9-0.3-1.3-0.6c-1.3-1.3-2.6-2.7-3.7-4.1l0,0.2l0.2,0.3l-0.1,0.2c0.1,0.6,0.2,1.2,0.2,1.8l0,0.2
			l0,0.1c0,0.4,0,0.7,0,1.1l1.2,0.2l0.2,0.2l-0.1,0.3l-1.4,0.7c0,0.2-0.1,0.5-0.1,0.7c0.8,0,1.7-0.1,2.4-0.4l0.3,0.1l0,0.3l-1.8,1.7
			c1-0.1,2-0.3,3-0.7l0.3,0.1l0,0.3l-1.4,1.7c1-0.3,1.9-0.7,2.8-1.1l0.3,0.1l0,0.3l-1.4,2l2.3-1.5c0.1-0.1,0.3,0,0.4,0.1
			c0.1,0.1,0,0.3-0.1,0.4l-3.4,2.3l-0.3,0l0-0.3l1.7-2.4c-1,0.4-1.9,0.7-2.9,1l-0.3-0.1v-0.3l1.4-1.8c-1,0.3-2,0.4-3,0.5l-0.3-0.2
			l0.1-0.3l1.5-1.5c-0.6,0.1-1.1,0.2-1.7,0.2c0,0.2-0.1,0.4-0.1,0.6c-0.7,2.9-1.9,5.6-3.1,8.2l-0.3,0.2L199,369.5L199,369.5z"/>
		<path class="st48" d="M244.8,151.7c0,0,8.1,14.5,11.3,31.5c3.2,17,5.7,165.2,5.7,165.2s-9.6,5.7-23,0c0,0-6-80.7-6.4-82.5
			c-0.4-1.8-7.4-73.2-7.4-73.2l-7.4,82.1l-7.8,72.2c0,0-6.7,5.3-24.4,0l4.6-76.4c0,0-2.1-85.6,2.1-98c4.3-12.4,10.6-20.2,10.6-20.2
			L244.8,151.7L244.8,151.7z"/>
		<path class="st49" d="M225,192.8l-0.7-40.4 M191.6,175.2c0,0,20.4,1.1,23.9-22.3 M224.8,184.2l5-6.1v-26.3 M254.5,175.2
			c0,0-12.2,1.1-18.6-23.6"/>
		<path class="st50" d="M228.9,76.4c0,0,11.7,0.2,13.8-0.2C244.8,75.8,266,94,266,94s-8.3,4.2-14.3,12.5c0,0-1.7-0.8-2.5-1.5
			c1,4.4,1.5,6.7,1.2,8.3c-0.4,2.1-3.2,8.1-6.7,9.6l-2.5,15.9l5,14.9c0,0-23.7,7.4-47.1-1.1c0,0,4.2-12,4.2-16.3
			c0-4.3-3.5-28-3.5-28l-1,5.9l-19.9-4.3c0,0,9.6-28.1,14.6-29.9c4.9-1.8,15.9-3.5,15.9-3.5H228.9"/>
		<path class="st51" d="M218.4,120.5c-5.6,0-9.4-5-9.4-5c3,1.5,6.1,2.1,8.8,2.1c6.3,0,11-2.8,11-2.8
			C224.9,119.1,221.4,120.5,218.4,120.5"/>
		<path class="st11" d="M217.6,52.4c0,0-2.1,19.3-2.9,20.7c-0.8,1.4-9.8,4-9.8,4s20.1,17.7,33.6-0.7c0,0-9.1-0.1-9.4-1.3
			c-0.4-1.2-0.6-13.8-0.6-13.8L217.6,52.4L217.6,52.4z"/>
		<path class="st42" d="M220.2,54.4l2.9,2.4l5.5,5.6c0,1.4,0,5,0.1,7.4c-2.5-0.1-10.6-2-11.9-11.1c0.1-1.2,0.4-3.3,0.5-4.2
			L220.2,54.4L220.2,54.4z"/>
		<path class="st11" d="M196.8,113.6l-5.4,26.5l3,42.6l-7.4,1c0,0-9.6-43.6-8.6-49.4c1-5.8,4.4-23.7,4.4-23.7L196.8,113.6
			L196.8,113.6z"/>
		<path class="st11" d="M243.4,42.9c-2,17-11.7,22.3-15.6,21.8c-5-0.6-12.7-6.2-13-14c0,0-6-1.4-5.7-4.7c0.5-6.2,4.6-2,4.6-2
			s-3.6-22.7,13.8-23.6C238.9,19.7,245.3,26.6,243.4,42.9L243.4,42.9z"/>
		<path class="st14" d="M223.7,38.5c0.2-0.3,1-0.3,1.4-0.3c0.8-0.1,1.5,0,2.2,0.2c0.6,0.2,1.1,0.4,1.6,0.6c0.4,0.2,1,0.5,1.4,0.3
			c0.2-0.2,0.3-0.5,0.2-0.8c-0.3-0.6-1.3-0.8-1.9-1C226.8,37,224.8,36.9,223.7,38.5L223.7,38.5z"/>
		<path class="st14" d="M243,41.9c-0.1-0.4-0.8-0.6-1.2-0.8c-0.7-0.3-1.4-0.5-2.1-0.6c-0.6-0.1-1.2,0-1.7,0c-0.4,0-1.1,0.2-1.4-0.2
			c-0.2-0.2-0.1-0.6,0.1-0.8c0.5-0.5,1.5-0.4,2.1-0.3C240.6,39.3,242.5,39.9,243,41.9L243,41.9z"/>
		<path class="st42" d="M221.5,47.5c0.2-0.8,1.5-1.1,3-0.8c1.5,0.3,2.6,1.2,2.4,2c-0.2,0.8-1.5,1.1-3,0.8
			C222.4,49.1,221.3,48.2,221.5,47.5L221.5,47.5z"/>
		<path class="st42" d="M236.2,50.2c0.2-0.8,1.4-1.1,2.7-0.9c1.3,0.3,2.3,1.1,2.1,1.9c-0.2,0.8-1.4,1.2-2.7,0.9
			C236.9,51.8,236,50.9,236.2,50.2L236.2,50.2z"/>
		<path class="st14" d="M230.7,52.2c1.2,0.2,2.2-0.7,2.3-0.8l0.1-0.2c-0.8-3.7,0.5-7.4,0.6-7.4l-0.1-0.3l-0.3,0.1
			c-0.1,0.2-1.4,3.7-0.6,7.6c-0.3,0.2-1,0.7-1.7,0.6l-0.1,0l-0.3,0.2C230.4,52,230.5,52.2,230.7,52.2L230.7,52.2L230.7,52.2z"/>
		<path class="st14" d="M225.1,43.8c0.2-1.4,1.1-2.4,2-2.3c0.9,0.1,1.4,1.4,1.2,2.8c-0.2,1.4-1.1,2.4-2,2.3
			C225.4,46.4,224.9,45.2,225.1,43.8L225.1,43.8z"/>
		<path class="st14" d="M237.2,45.6c0.2-1.4,1.1-2.4,2-2.3c0.9,0.1,1.4,1.4,1.2,2.8c-0.2,1.4-1.1,2.4-2,2.3
			C237.5,48.3,237,47.1,237.2,45.6L237.2,45.6z"/>
		<path class="st14" d="M211.9,39.5l1.8,4.5c0,0,15.6-5.6,20.4-15.6c0,0,7.1,11.1,10.8,14.8c0,0,1.8-17-5.6-20.8
			c-7.4-3.8-17.8-6-22.6,0.1C211.8,28.5,211.9,39.5,211.9,39.5L211.9,39.5z"/>
		<path class="st42" d="M226,54.8l4-1.5l1.1,1.3l1.4-0.8l2.4,2.8c0,0-2,4.2-5.2,3.7C226,59.7,226,54.8,226,54.8L226,54.8z"/>
		<path class="st15" d="M226,54.8l8.9,1.8C234.9,56.5,229.5,61.8,226,54.8L226,54.8z"/>
		<path class="st11" d="M194.1,180.9c0,0,2.5,5.1,3.4,8.2c0.9,3.1,2.2,11.4,1.3,12.4c-0.9,0.9-3.3-8.1-4.2-7.9
			c-0.9,0.3-1.9,15-3,14.9c-1.2-0.1-1.2-9-1.2-9s-0.8,9.1-1.5,9c-0.7-0.1-1.2-9.6-1.2-9.6s-1.4,8.5-2.6,7.9
			c-1.1-0.6-0.2-11.4-0.2-11.4s-2.3,6.2-3.1,6.2c-0.8-0.1,4.7-20.7,4.7-20.7L194.1,180.9L194.1,180.9z"/>
		<path class="st17" d="M214.8,50.7c0.4,7.8,8.1,13.4,13,14c2.9,0.4,9.2-2.6,12.9-11.5C240.7,53.3,233.2,53.5,214.8,50.7z"/>
	</g>
</g>
</svg>
