<?xml version="1.0" encoding="utf-8"?>
<!-- Generator: Adobe Illustrator 22.1.0, SVG Export Plug-In . SVG Version: 6.00 Build 0)  -->
<svg version="1.1" id="Layer_1" xmlns="http://www.w3.org/2000/svg" xmlns:xlink="http://www.w3.org/1999/xlink" x="0px" y="0px"
	 width="391px" height="283px" viewBox="0 0 391 283" style="enable-background:new 0 0 391 283;" xml:space="preserve">
<style type="text/css">
	.st0{fill:#A4BEFF;}
	.st1{fill:#DBE6FF;}
	.st2{fill:none;stroke:#A4BEFF;stroke-width:0.7934;stroke-miterlimit:10;}
	.st3{fill:none;stroke:#FFFFFF;stroke-width:0.5346;stroke-linecap:round;stroke-linejoin:round;stroke-miterlimit:10;}
	.st4{fill:#5E71C7;}
	.st5{fill:#FCA19F;}
	.st6{fill:#EBF1FF;}
	.st7{fill:#B4C9FF;}
	.st8{fill:none;stroke:#242638;stroke-width:0.3115;stroke-linecap:round;stroke-linejoin:round;stroke-miterlimit:10;}
	.st9{fill:#FFFFFF;}
	.st10{fill:none;stroke:#563136;stroke-width:0.3115;stroke-linecap:round;stroke-linejoin:round;stroke-miterlimit:10;}
	.st11{fill:#563136;}
	.st12{fill:#FFF9F8;}
	.st13{fill:#F97070;}
	.st14{fill:#242638;}
	.st15{fill:#E03D3D;}
	.st16{fill:#333333;}
	.st17{fill:none;stroke:#242638;stroke-width:0.3108;stroke-miterlimit:10;}
	.st18{fill:#FFF0B3;}
	.st19{fill:#D0DCFF;}
	.st20{fill:none;stroke:#F97070;stroke-width:0.3074;stroke-linecap:round;stroke-linejoin:round;stroke-miterlimit:10;}
	.st21{fill:none;stroke:#D0DCFF;stroke-width:0.5697;stroke-linecap:round;stroke-linejoin:bevel;stroke-miterlimit:10;}
	.st22{fill:none;stroke:#F97070;stroke-width:0.3081;stroke-linecap:round;stroke-linejoin:round;stroke-miterlimit:10;}
	.st23{fill:none;stroke:#242638;stroke-width:0.2914;stroke-linecap:round;stroke-linejoin:round;stroke-miterlimit:10;}
	.st24{fill:#FD9997;}
	.st25{fill:#FC9E9C;}
	.st26{fill:none;stroke:#DD5B5B;stroke-width:0.2914;stroke-linecap:round;stroke-linejoin:round;stroke-miterlimit:10;}
</style>
<g>
	<g>
		<polygon class="st0" points="126,140.7 70.8,140.7 70.8,282.5 126,282.5 126,140.7 		"/>
		<polygon class="st1" points="125.7,188 70.8,188 70.8,202.4 125.7,202.4 125.7,188 		"/>
		<polygon class="st1" points="125.7,163.7 70.8,163.7 70.8,178 125.7,178 125.7,163.7 		"/>
		<polygon class="st0" points="89.8,160.2 88.2,160.2 88.2,237.2 89.8,237.2 89.8,160.2 		"/>
		<polygon class="st0" points="106.6,160.2 105,160.2 105,237.2 106.6,237.2 106.6,160.2 		"/>
		<polygon class="st1" points="125.7,216.4 70.8,216.4 70.8,230.7 125.7,230.7 125.7,216.4 		"/>
		<polygon class="st1" points="137.9,194.2 0,194.2 0,282.8 137.9,282.8 137.9,194.2 		"/>
		<path class="st2" d="M129.3,199.7h-5.8h-5.9v19.7h11.7V199.7L129.3,199.7z M123.4,219.4v-19.5 M258,203.6h-5.8h-5.9v19.7H258
			V203.6L258,203.6z M252.1,223.3v-19.5 M278.2,203.6h-5.8h-5.9v19.7h11.7V203.6L278.2,203.6z M272.2,223.3v-19.5 M298.2,203.6h-5.8
			h-5.9v19.7h11.7V203.6L298.2,203.6z M292.2,223.3v-19.5 M258,227.9h-5.8h-5.9v19.7H258V227.9L258,227.9z M252.1,247.7v-19.5
			 M278.2,227.9h-5.8h-5.9v19.7h11.7V227.9L278.2,227.9z M272.2,247.7v-19.5 M298.2,227.9h-5.8h-5.9v19.7h11.7V227.9L298.2,227.9z
			 M292.2,247.7v-19.5 M258,253.2h-5.8h-5.9v19.7H258V253.2L258,253.2z M252.1,272.9v-19.5 M278.2,253.2h-5.8h-5.9v19.7h11.7V253.2
			L278.2,253.2z M272.2,272.9v-19.5 M298.2,253.2h-5.8h-5.9v19.7h11.7V253.2L298.2,253.2z M292.2,272.9v-19.5 M332.7,238.4h-5.8
			h-5.9v19.7h11.7V238.4L332.7,238.4z M326.8,258.1v-19.5 M352.9,238.4h-5.8h-5.9v19.7h11.7V238.4L352.9,238.4z M347,258.1v-19.5
			 M372.9,238.4h-5.8h-5.9v19.7h11.7V238.4L372.9,238.4z M367,258.1v-19.5 M108.2,199.7h-5.8h-5.9v19.7h11.7V199.7L108.2,199.7z
			 M102.3,219.4v-19.5 M85.5,199.7h-5.8h-5.9v19.7h11.7V199.7L85.5,199.7z M79.6,219.4v-19.5 M64.4,199.7h-5.8h-5.9v19.7h11.7V199.7
			L64.4,199.7z M58.5,219.4v-19.5 M43.2,199.7h-5.8h-5.9v19.7h11.7V199.7L43.2,199.7z M37.3,219.4v-19.5 M22.1,199.7h-5.8h-5.9v19.7
			h11.7V199.7L22.1,199.7z M16.2,219.4v-19.5 M129.3,227.8h-5.8h-5.9v19.7h11.7V227.8L129.3,227.8z M123.4,247.5v-19.5 M108.2,227.8
			h-5.8h-5.9v19.7h11.7V227.8L108.2,227.8z M102.3,247.5v-19.5 M85.5,227.8h-5.8h-5.9v19.7h11.7V227.8L85.5,227.8z M79.6,247.5
			v-19.5 M64.4,227.8h-5.8h-5.9v19.7h11.7V227.8L64.4,227.8z M58.5,247.5v-19.5 M43.2,227.8h-5.8h-5.9v19.7h11.7V227.8L43.2,227.8z
			 M37.3,247.5v-19.5 M22.1,227.8h-5.8h-5.9v19.7h11.7V227.8L22.1,227.8z M16.2,247.5v-19.5 M129.3,256.1h-5.8h-5.9v19.7h11.7V256.1
			L129.3,256.1z M123.4,275.9v-19.5 M108.2,256.1h-5.8h-5.9v19.7h11.7V256.1L108.2,256.1z M102.3,275.9v-19.5 M85.5,256.1h-5.8h-5.9
			v19.7h11.7V256.1L85.5,256.1z M79.6,275.9v-19.5 M64.4,256.1h-5.8h-5.9v19.7h11.7V256.1L64.4,256.1z M58.5,275.9v-19.5
			 M43.2,256.1h-5.8h-5.9v19.7h11.7V256.1L43.2,256.1z M37.3,275.9v-19.5 M22.1,256.1h-5.8h-5.9v19.7h11.7V256.1L22.1,256.1z
			 M16.2,275.9v-19.5"/>
		<polygon class="st0" points="339.6,103.8 300.1,103.8 300.1,282.8 339.6,282.8 339.6,103.8 		"/>
		<polygon class="st0" points="390.8,59.5 335.6,59.5 335.6,282.6 390.8,282.6 390.8,59.5 		"/>
		<polygon class="st1" points="391,239.6 318.4,239.6 318.4,218.7 391,218.7 391,239.6 		"/>
		<polygon class="st1" points="391,270.6 316.6,270.6 316.6,249.7 391,249.7 391,270.6 		"/>
		<polygon class="st0" points="169.6,97.9 130.1,97.9 130.1,282.8 169.6,282.8 169.6,97.9 		"/>
		<polygon class="st0" points="220.8,50.8 165.6,50.8 165.6,282.7 220.8,282.7 220.8,50.8 		"/>
		<polygon class="st1" points="318.6,167.1 224.9,167.1 224.9,282.8 318.6,282.8 318.6,167.1 		"/>
		<path class="st0" d="M234.8,183.4L234.8,183.4c-2.3,0-4.2,1.4-4.2,3.1v96.4h8.3v-96.4C239,184.7,237.1,183.4,234.8,183.4
			L234.8,183.4z"/>
		<path class="st0" d="M249.1,183.4h-0.4c-2.2,0-4,1.4-4,3.2v96.2h8.3v-96.2C253.1,184.8,251.3,183.4,249.1,183.4L249.1,183.4z"/>
		<path class="st0" d="M264.5,183.4h-0.8c-2.1,0-3.8,1.5-3.8,3.4v96h8.3v-96C268.2,184.9,266.5,183.4,264.5,183.4L264.5,183.4z"/>
		<path class="st0" d="M309.1,183.4L309.1,183.4c2.3,0,4.2,1.7,4.2,3.7v95.7H305v-95.7C305,185,306.8,183.4,309.1,183.4L309.1,183.4
			z"/>
		<path class="st0" d="M294.8,183.4h0.4c2.2,0,3.9,1.6,3.9,3.5v96h-8.3v-96C290.9,184.9,292.6,183.4,294.8,183.4L294.8,183.4z"/>
		<path class="st0" d="M279.5,183.4h0.8c2.1,0,3.8,1.5,3.8,3.4v96h-8.3v-96C275.8,184.9,277.4,183.4,279.5,183.4L279.5,183.4z"/>
		<polygon class="st1" points="307.2,194.2 238.2,194.2 238.2,282.8 307.2,282.8 307.2,194.2 		"/>
		<polygon class="st1" points="220.9,84.8 165.4,84.8 165.4,63.9 220.9,63.9 220.9,84.8 		"/>
		<polygon class="st1" points="220.9,110.8 165.4,110.8 165.4,89.9 220.9,89.9 220.9,110.8 		"/>
		<polygon class="st1" points="220.9,137.8 165.4,137.8 165.4,116.9 220.9,116.9 220.9,137.8 		"/>
		<polygon class="st1" points="220.9,168.8 165.4,168.8 165.4,147.9 220.9,147.9 220.9,168.8 		"/>
		<polygon class="st0" points="205.4,59.6 202.9,59.6 202.9,173.5 205.4,173.5 205.4,59.6 		"/>
		<polygon class="st0" points="182.7,59.6 180.2,59.6 180.2,173.5 182.7,173.5 182.7,59.6 		"/>
		<polygon class="st1" points="391,93.6 335.5,93.6 335.5,72.7 391,72.7 391,93.6 		"/>
		<polygon class="st1" points="391,119.5 335.5,119.5 335.5,98.6 391,98.6 391,119.5 		"/>
		<polygon class="st1" points="391,146.6 316.6,146.6 316.6,125.7 391,125.7 391,146.6 		"/>
		<polygon class="st1" points="391,177.6 318.4,177.6 318.4,156.7 391,156.7 391,177.6 		"/>
		<polygon class="st1" points="391,208.6 316.6,208.6 316.6,187.7 391,187.7 391,208.6 		"/>
		<polygon class="st0" points="375.5,68.4 372.9,68.4 372.9,282.8 375.5,282.8 375.5,68.4 		"/>
		<polygon class="st0" points="352.8,68.4 350.2,68.4 350.2,282.8 352.8,282.8 352.8,68.4 		"/>
		<polygon class="st1" points="302.5,46.1 239.6,46.1 239.6,81.1 302.5,81.1 302.5,46.1 		"/>
		<polygon class="st0" points="318.6,170.9 224.9,170.9 224.9,175.5 318.6,175.5 318.6,170.9 		"/>
		<polygon class="st0" points="316.3,80.9 227,80.9 227,88.9 316.3,88.9 316.3,80.9 		"/>
		<path class="st0" d="M279.8,49.3L279.8,49.3c2.4,0,4.3,1.9,4.3,4.3v23.2h-8.6V53.5C275.5,51.2,277.4,49.3,279.8,49.3L279.8,49.3z"
			/>
		<path class="st0" d="M294.1,49.3L294.1,49.3c2.4,0,4.3,1.9,4.3,4.3v23.2h-8.6V53.5C289.8,51.2,291.7,49.3,294.1,49.3L294.1,49.3z"
			/>
		<path class="st0" d="M249.5,49.3L249.5,49.3c2.4,0,4.3,1.9,4.3,4.3v23.2h-8.6V53.5C245.2,51.2,247.1,49.3,249.5,49.3L249.5,49.3z"
			/>
		<path class="st0" d="M263.7,49.3L263.7,49.3c2.4,0,4.3,1.9,4.3,4.3v23.2h-8.6V53.5C259.5,51.2,261.4,49.3,263.7,49.3L263.7,49.3z"
			/>
		<polygon class="st1" points="313.5,88.7 230,88.7 230,167.6 313.5,167.6 313.5,88.7 		"/>
		<path class="st2" d="M250.9,95h-5.8h-5.9v19.7h11.7V95L250.9,95z M245,114.7V95.2 M269.1,95h-5.8h-5.9v19.7h11.7V95L269.1,95z
			 M263.2,114.7V95.2 M286.9,95h-5.8h-5.9v19.7h11.7V95L286.9,95z M281,114.7V95.2 M305.1,95h-5.8h-5.9v19.7h11.7V95L305.1,95z
			 M299.2,114.7V95.2 M250.9,119.2h-5.8h-5.9v19.7h11.7V119.2L250.9,119.2z M245,138.9v-19.5 M269.1,119.2h-5.8h-5.9v19.7h11.7
			V119.2L269.1,119.2z M263.2,138.9v-19.5 M286.9,119.2h-5.8h-5.9v19.7h11.7V119.2L286.9,119.2z M281,138.9v-19.5 M305.1,119.2h-5.8
			h-5.9v19.7h11.7V119.2L305.1,119.2z M299.2,138.9v-19.5 M250.9,142.8h-5.8h-5.9v19.7h11.7V142.8L250.9,142.8z M245,162.5V143
			 M269.1,142.8h-5.8h-5.9v19.7h11.7V142.8L269.1,142.8z M263.2,162.5V143 M286.9,142.8h-5.8h-5.9v19.7h11.7V142.8L286.9,142.8z
			 M281,162.5V143 M305.1,142.8h-5.8h-5.9v19.7h11.7V142.8L305.1,142.8z M299.2,162.5V143"/>
		<polygon class="st0" points="273,0.6 269.2,0.6 236.7,40.6 236.7,46.1 305.4,46.1 305.4,40.6 273,0.6 		"/>
		<path class="st3" d="M236.7,40.6h68.5 M271.6,0.3l12.5,40.2 M270.1,0.3l-12.5,40.2"/>
		<polygon class="st1" points="381.9,232.9 316.3,232.9 316.3,282.8 381.9,282.8 381.9,232.9 		"/>
	</g>
	<g>
		<path class="st4" d="M190.3,282.8l-2.9-29.6l6.3-64.7l1-12l40-3.6l11,7.6l-5.6,71.5l3.5,30.8h-20.2l-5.4-28.4l0-53.1l-2.7,0.2
			l-7.8,52.9l1.2,28.4H190.3z"/>
		<path class="st5" d="M70,282.8h11.7c-1.8-9.2-4.3-18.5-7-20.2v-36l-17,0.4l6.5,39.2L70,282.8z"/>
		<path class="st5" d="M52.7,282.8c0.5-7.6,0.6-14.7-0.3-18.1l10.3-35l-15.5-4.8c0,0-4.8,36-5,39.4c-0.1,1.3-0.1,9.4-0.2,18.5H52.7z
			"/>
		<polygon class="st6" points="250.8,137.8 195.3,137.8 195.3,116.9 250.8,116.9 250.8,137.8 		"/>
		<polygon class="st7" points="212.6,59.6 210.1,59.6 210.1,173.5 212.6,173.5 212.6,59.6 		"/>
		<polygon class="st7" points="68.9,160.2 67.3,160.2 67.3,237.2 68.9,237.2 68.9,160.2 		"/>
		<g>
			<polygon class="st4" points="336.1,282.8 352.3,282.8 354.1,276.1 355.1,282.8 372.4,282.8 371.9,268.5 367.6,218.6 339.9,218.5 
				340.2,262.9 			"/>
			<path class="st8" d="M354.1,276.1l-0.4-7.4l-13.5-41 M364.5,282.7 M349.6,219.9c0,0,13.2,46.5,13.7,49.6c0.2,1,0.7,6.5,1.2,13.3
				 M344.1,282.8 M349.3,255l-0.9,10.3l-4.3,17.5 M355.9,240.4c0,0,7.4-0.8,5.3-19 M340.8,228.3l6.4-1.3l3.9,16.5l-3.4,5.3"/>
			<path class="st9" d="M365.2,147.7c0,0-4.4-5.9-10.6-8.6c-6.2-2.7-5.9-0.8-6.5,0.4c-0.6,1.2-7.2,7.9-4.5,12.3
				c0,0-11.9,28.8-10.2,33.9c1.7,5.1,3.9,6.8,3.9,6.8s-3.6,16.7-1,18.9c2.6,2.2,2.6,2.2,2.6,2.2l0.4,6.2c0,0,19.1,5.3,28.6,1.9
				l1.7-2.8c0,0,6.1-2.5,2.9-14.6c-3.3-12.1-0.9-33.7-2.8-39.9c-1.9-6.2-4.1-10.3-4.1-10.3S367.5,149.6,365.2,147.7L365.2,147.7z"/>
			<path class="st5" d="M360.6,199.7l2.9,2.1l2,1c0,0-0.4,6.8-2.6,8.1l-3.2-3.6l-2.4-2.6L360.6,199.7L360.6,199.7z"/>
			<path class="st10" d="M337.1,192.5l18.2,14.8l6-8.7L347.5,183c0,0,7.4-15.2,6.8-20.2 M370.4,190.9l-5.9,0.7
				c0,0,4.3,17.8-4.4,21.2l-0.4,5.1 M338.8,213.6c0,0,15,4.5,30.8,5.3 M343.5,151.8c0,0,4.4-1.1,7.2,0.1c2.8,1.2,9.1,3.8,11.9,3.6
				 M342,155.5c0,0,2.5-0.6,5.4,0.1c2.1,0.5,4.5,1.7,6.2,4.4 M350.1,151.5l-2.8,4.1"/>
			<path class="st5" d="M364.3,138.5l-1.4,8.2l1.1,3.8c0,0-4.1-1.2-10.2-6.2l1-1.7l2.1-10.3L364.3,138.5L364.3,138.5z"/>
			<path class="st5" d="M352,126.6c-0.5-2.3-0.5-4.8,0.5-7.3c2.9-7.8,11.4-6.1,17.3-3c2.5,1.3,4.2,4.2,4.1,7.1
				c0,1.3-0.5,2.5-0.5,3.8c0,2.8,2,3.9,1.9,4.6c-0.1,0.4-1.1,1.3-1.4,1.1c-0.1,0-0.4,0.7-0.5,1c-0.2,1.6-0.6,3.6-1.4,4.9
				c-2.6,4.9-6.9,1.6-10.5-1.1C357.5,134.9,353.1,131.6,352,126.6L352,126.6z"/>
			<path class="st11" d="M372.3,124.3c-1-0.2-2-0.1-2.8,0.3c-0.2,0.1-0.3,0.2-0.4,0.4c-0.1,0.2-0.1,0.4,0.1,0.5
				c0.4-0.2,0.9-0.2,1.4-0.2c0.3,0,0.6,0,1,0.1c0.3,0,0.7,0,1-0.1c0.3-0.1,0.5-0.5,0.3-0.7C372.7,124.4,372.5,124.3,372.3,124.3
				L372.3,124.3z"/>
			<path class="st12" d="M373.5,134.7c-0.2,0-0.5,0-0.7-0.1c-0.9-0.2-1.8-0.4-2.7-0.7l-0.2,0l-0.1,0.2c0,0.2,0,0.4,0.1,0.6
				c0.4,1.4,1.5,2.6,2.9,3C373.1,136.7,373.3,135.7,373.5,134.7L373.5,134.7z"/>
			<path class="st13" d="M369.7,141.3c-2.1-0.6-7.8-5.2-7.7-9.5l-2.4,1.7c0,0,1.8,5,4.3,7.8c0.1-0.5,0.2-1.4,0.3-1.5
				C366.2,141.2,368.1,141.9,369.7,141.3L369.7,141.3z"/>
			<path class="st11" d="M356.3,135.4c0,0,5.7-1,7.2-5l1.8-0.7l3.7-11.8l-17.2,2.2c0,0-1.1,6.1,1,9.1
				C354.8,132.2,356.3,135.4,356.3,135.4L356.3,135.4z"/>
			<path class="st14" d="M372,127.9c0.1-0.9-0.2-1.6-0.7-1.7c-0.5-0.1-0.9,0.6-1,1.5c-0.1,0.9,0.2,1.6,0.7,1.7
				C371.5,129.4,371.9,128.7,372,127.9L372,127.9z"/>
			<path class="st10" d="M352.9,139.9c-2.4-0.5-3.8,3.4,11.1,10.6"/>
			<path class="st11" d="M352,121.1c0,0-1.9-3,0.5-6c2.4-2.9,1.9-0.3,1.9-0.3s2.2-2,5.9-2.1c3.7-0.1,12,3.6,13.1,3.8
				c1.2,0.1,2.8,0.4,2.8,0.4s-1.2,1.7-2.9,1.8l1.1,1.1c0,0-1.8,0.8-5.7-1.1l1.1,2.5c0,0-2.9-0.1-3.3-0.5
				C365.9,120.3,352,121.1,352,121.1L352,121.1z"/>
			<path class="st4" d="M364.4,128.9c0,0,7.3,2.9,10.7,2.2l0.5,1c0,0-3.3,9.7-6.6,9.5c-7.1-0.5-7.1-11.2-7.1-11.2l0.3,0.3
				c0,0,1,4.1,3.3,5.3c0,0,1.5-2,2-5l-4.1-2.1L364.4,128.9L364.4,128.9z"/>
			<path class="st5" d="M362,130.4c0.1,0.3,0.2,0.5,0.3,0.7c0.3,0.6,1,1.1,1.6,1c0.4-0.1,0.8-0.4,1-0.7c0.2-0.4,0.4-0.8,0.5-1.2
				c0-0.1,0.1-0.2,0-0.3c0-0.1-0.1-0.2-0.1-0.3c-0.3-0.4-0.6-0.8-1.1-1c-0.5-0.2-1.2-0.2-1.6,0.2C362.1,129.3,361.9,129.9,362,130.4
				L362,130.4z"/>
		</g>
		<path class="st5" d="M37.6,243.5c0,0.5,0.1,1,0.1,1.5c0,0.3,0.1,0.6,0.4,0.6c0.2,0,0.4-0.2,0.5-0.4c0.8-1.7,1.4-3.5,1.8-5.4
			c0.1,1.3,0.1,2.5,0.2,3.8c0.3,0.2,0.7-0.2,0.8-0.6c1-3.7,1.6-7.5,2-11.2c0-0.2,0-0.3,0-0.5c-0.1-0.2-0.2-0.3-0.4-0.4
			c-1.5-1.1-3.5-1.6-5.4-1.4c-0.7,2.5-1.4,4.9-2,7.4c-0.6,2.2-1.2,4.4-1.3,6.7c0.5-0.3,0.8-0.8,0.8-1.3c-0.2,0.9-0.2,1.8,0,2.7
			c0.4-0.2,0.6-0.6,0.8-0.9c-0.1,0.3-0.2,0.7-0.1,1c0.1,0.3,0.5,0.6,0.8,0.5c0.2-0.1,0.3-0.3,0.4-0.5
			C37.2,244.5,37.4,244,37.6,243.5L37.6,243.5z"/>
		<path class="st14" d="M60.8,159.4c-0.1-1.5-0.3-3.1-0.3-4.6c-0.1-2.2,0-4.4-0.2-6.5c-0.2-1.9-0.5-3.8-0.8-5.8
			c-0.5-2.7-0.9-5.4-1.4-8c-0.2-1.2-0.5-2.6-1.4-3.5c-0.2-0.2-0.4-0.4-0.7-0.4c-0.2-0.1-0.5,0-0.7,0c-1,0.2-2.1,0.4-2.7,1.3
			c-0.2,0.3-0.3,0.6-0.4,1c-0.3,0.8-0.5,1.6-0.7,2.4c-0.9,3.9,0.5,8,0.8,12c0.3,3.6-0.3,7.2-1.5,10.5c0.3-0.2,0.5-0.4,0.8-0.7
			c-0.1,0.4-0.1,0.8-0.2,1.1c1,0.4,2,0.6,3.1,0.7c0.4-0.5,0.7-1.1,0.8-1.7c0.1,0.7,0,1.3-0.3,2C56.8,159.7,58.8,159.7,60.8,159.4
			L60.8,159.4z"/>
		<path class="st5" d="M58,129.2c-3,0.3-5.3,3.4-5.9,6.4c-0.3,1.3-0.2,2.7-0.4,4.1c-0.1,0.8-1.4,6.9-0.8,9.7c1,4.3,1.2,4.6,9.7,3.5
			C73.1,151.2,80.8,126.8,58,129.2L58,129.2z"/>
		<path class="st14" d="M52.7,137.9c0,0,1.8-0.6,2.5-0.3c0.7,0.2,1.4,0.6,1.4,0.6s-1-1.4-1.4-1.5c-0.4-0.1-2.6,0.2-2.6,0.2
			S52.3,137.5,52.7,137.9L52.7,137.9z"/>
		<path class="st14" d="M54.4,140.3c0-0.9-0.3-1.7-0.7-1.7c-0.4,0-0.8,0.7-0.8,1.6c0,0.9,0.3,1.7,0.7,1.7
			C54.1,141.9,54.4,141.2,54.4,140.3L54.4,140.3z"/>
		<path class="st13" d="M53,143.2c0-0.5,0.7-0.9,1.6-1c0.9-0.1,1.7,0.3,1.7,0.8c0,0.5-0.7,0.9-1.6,1C53.8,144,53,143.7,53,143.2
			L53,143.2z"/>
		<path class="st5" d="M49.4,144.4c0,0.1,0.1,0.2,0.1,0.3c0.3,0.5,1.1,0.9,1.6,1.1c0.6-1.2,0.7-2.6,1-3.9c0.1-0.6,0.1-1.3-0.3-1.6
			c-0.4,1.4-1.2,2.7-2.1,3.7C49.5,144,49.4,144.2,49.4,144.4L49.4,144.4z"/>
		<path class="st5" d="M57.9,152.3c0,0,1.2,8.4,1.1,8.8c-0.1,0.4-0.7,1.4-0.7,1.4s5.4,2.1,8.8-1.5c0,0-0.1-2.3-0.5-2.9
			c-0.4-0.6-2.1-7.7-2.1-7.7L57.9,152.3L57.9,152.3z"/>
		<path class="st13" d="M61.7,147.2l0.5,5.2l-3.9,3c-0.1-0.8-0.2-1.6-0.3-2.2c-2.5,0.3-4,0.3-5,0C53.8,153.1,59.2,152.7,61.7,147.2
			L61.7,147.2z"/>
		<path class="st15" d="M53,147.3c-0.4,0-0.7,0-1.1-0.1c-0.2,0-0.4-0.1-0.6-0.1c-0.2,0-0.4,0.1-0.5,0.2c0,0.8,0,1.5,0.2,2
			c0,0.1,0,0.2,0.1,0.3c0.1,0.1,0.2,0.1,0.4,0.1c0.7,0,1.3-0.3,1.8-0.8c0.5-0.5,0.8-1.1,1-1.7v-0.1C53.8,147.3,53.4,147.3,53,147.3
			L53,147.3z"/>
		<path class="st16" d="M50.8,148.4l-0.1-0.1l0.1-0.1c0,0,2.1,0.3,3.3-1.2l0.1,0l0,0.1C53.1,148.8,50.9,148.5,50.8,148.4L50.8,148.4
			L50.8,148.4z"/>
		<polygon class="st9" points="68.5,159.9 66.6,155.6 58.4,157.7 58,160.7 53.9,164.6 51,204.2 67.4,205.6 71.3,161.1 68.5,159.9 		
			"/>
		<path class="st14" d="M76.8,200.7l-27,0.2L44,239.2c0,0,17,5.2,33.6,2.8L76.8,200.7L76.8,200.7z"/>
		<path class="st4" d="M68.5,159.9l-3.6,33l-4.9,0.6l0.3,8.7l4.1,0.3l-2.4,30l20.4,1.3l-0.8-30.3c0,0,6.2-0.2,6.8-1.8
			c0.6-1.6-7.3-37.2-7.3-37.2L68.5,159.9L68.5,159.9z"/>
		<polygon class="st4" points="58,160.7 51.7,231.1 45.1,230.7 43.7,235.5 36.1,232.6 44,201.5 46.3,167.4 58,160.7 		"/>
		<path class="st17" d="M64.9,192.9l16.6-1.8 M76.7,191.6l-2.8-14.8 M81.2,164.4c0,0-5.5,0.8-6.8,8 M76.2,162.5l-10,19.3
			 M70.4,173.8l2.7,8.5l-4,10.2 M45.1,230.7l-2.4-0.2l4.5-30.4l0.7-17.6l1.2-9.6 M52,164.1l4,16.6 M54.4,173.9l-4.1,10.9l3.6,19.2
			 M64.4,202.5l17.3,0.9"/>
		<path class="st14" d="M61.3,195.7c0-0.4,0.3-0.8,0.8-0.8c0.4,0,0.8,0.3,0.8,0.8c0,0.4-0.3,0.8-0.8,0.8
			C61.6,196.4,61.3,196.1,61.3,195.7L61.3,195.7z"/>
		<path class="st14" d="M37.8,231.1c0-0.4,0.3-0.8,0.8-0.8c0.4,0,0.8,0.3,0.8,0.8c0,0.4-0.3,0.8-0.8,0.8
			C38.1,231.9,37.8,231.6,37.8,231.1L37.8,231.1z"/>
		<path class="st14" d="M65.4,210.2c0-0.8,0.6-1.4,1.4-1.4c0.8,0,1.4,0.6,1.4,1.4c0,0.8-0.6,1.4-1.4,1.4
			C66,211.6,65.4,210.9,65.4,210.2L65.4,210.2z"/>
		<path class="st14" d="M64.8,219.2c0-0.8,0.6-1.4,1.4-1.4c0.8,0,1.4,0.6,1.4,1.4c0,0.8-0.6,1.4-1.4,1.4
			C65.4,220.6,64.8,219.9,64.8,219.2L64.8,219.2z"/>
		<path class="st17" d="M80.6,214l-10.2-0.1v3.2h10.2C80.6,217.1,80.8,213.8,80.6,214L80.6,214z M45.5,211.2l5.5,0.5l-0.4,2.7
			l-5.4-0.5"/>
		<polygon class="st14" points="45.5,203.1 43.9,186 54.2,185.8 53,203.1 45.5,203.1 		"/>
		<polygon class="st9" points="45,197.4 44.4,191.5 53.8,191.5 53.4,197.4 45,197.4 		"/>
		<polygon class="st18" points="42.8,184.5 55.3,184.5 55.3,186.8 42.8,186.8 42.8,184.5 		"/>
		<polygon class="st18" points="44.3,185.1 53.8,185.1 53.8,182.6 44.3,182.6 44.3,185.1 		"/>
		<path class="st17" d="M46.3,167.4c0,0,2,1.1,2.4,3.6"/>
		<path class="st5" d="M60,194.7l-2.7-0.1c0,0-1.7-2.8-3-4.3c-0.4-0.4-0.5,1.7-0.5,1.7l-0.3,2.2l-3.7,0.4l-5.2-2l-0.1-0.8
			c0,0-0.5,1.8-0.2,2.3c0.3,0.4,0.8,1.7,0.8,1.7l0.7,3.9l4.6,1.8l5.8-1.7h4.1L60,194.7L60,194.7z"/>
		<path class="st14" d="M74.5,139.9c-0.6-2.4-0.9-4.8-1.7-7.1c-0.3-0.8-0.6-1.5-1.1-2.1c-0.6-0.6-1.3-1-2.1-1.3
			c-2.4-0.9-5-1.1-7.6-1c-3,0-6.3,0.4-8.3,2.6c0.8,3.3,2.1,6.6,3.9,9.5c0.5,0.8,1.1,1.7,1.8,2.3c0.4,0.3,0.8,0.6,1.1,1
			c0.4,0.5,0.6,1.1,0.7,1.8c1.2,4.8,1.8,9.7,1.6,14.6c0.4-0.6,0.7-1.2,0.9-1.9c0.1,0.6,0.1,1.2,0.1,1.8c2.2-0.4,4.4-0.7,6.5-1.1
			c0.2,0,0.3-0.1,0.4-0.1c0.1-0.1,0.2-0.3,0.2-0.5c0.1-0.7,0.1-1.4,0-2c0.2,0.9,0.4,1.8,0.7,2.7c2.8,0.1,5.6-0.4,8.2-1.6
			c-0.1-1.2-0.4-2.5-0.9-3.6c0.8,0.8,1.5,1.8,1.8,2.9c0.4,0.1,0.7-0.2,0.8-0.6c0.1-0.4-0.1-0.7-0.3-1.1
			C78.9,150.1,75.9,145.3,74.5,139.9L74.5,139.9z"/>
		<path class="st19" d="M50.1,143.4c0,0,4.2,1.2,9-0.9l0.1,0.4c0,0-2,0.9-2.7,1c0,0,0.7,4.7,1.8,5.9c0,0,2.1-1,3.4-2.1l0.1,0.4
			c0,0-1.6,4.5-7,5.4c0,0-3.8,1.4-5.4-7.7c-0.1-0.7,0-1.4,0.5-1.9L50.1,143.4L50.1,143.4z"/>
		<path class="st5" d="M62.4,143.7c-0.1,0.3-0.3,0.5-0.5,0.7c-0.5,0.5-1.2,0.9-1.9,0.7c-0.4-0.2-0.7-0.6-0.9-1
			c-0.2-0.4-0.2-0.9-0.2-1.4c0-0.1,0-0.2,0.1-0.3c0-0.1,0.1-0.2,0.2-0.2c0.4-0.3,0.8-0.7,1.3-0.8c0.6-0.1,1.3,0.1,1.6,0.6
			C62.6,142.5,62.7,143.2,62.4,143.7L62.4,143.7z"/>
		<path class="st5" d="M190.6,118.8c0,0-25.6,13.4-32.6,8.2c-7-5.2-5-11.8,16.6-40.6l6.8,1.9l-10.8,24.2l14.8-6.9L190.6,118.8
			L190.6,118.8z"/>
		<path class="st5" d="M174.5,86.6c0,0,4.7-7.9,5.9-8.6c1.2-0.8,3.5-0.1,3.5-0.1s2.2,0.5,3.4,0.5c1.2-0.1,3.8-0.2,4.1,0.9
			c0.3,1-1.3,4.1-1.3,4.1s1.7-0.9,2.5-0.8c0.8,0.1-0.1,4.4-13.5,8.6L174.5,86.6L174.5,86.6z"/>
		<path class="st20" d="M181.6,79.4c0,0-0.6,5.4,0.3,5.6c0.9,0.2,1.4-3,1.4-3s-0.5,4.1,0.4,4.1c0.9,0,1.8-4.1,1.8-4.1
			s-0.7,3.4-0.1,3.6c0.5,0.2,3.1-4.6,3.1-4.6s-1.3,3.5-0.8,3.9c0.6,0.4,3.4-3,3.6-5.3 M170.5,112.5c0,0-3.2,6.2-3.5,6.7"/>
		<path class="st21" d="M244.6,191.1l-13.5-14.2l-14.7,0.2 M215.3,201.4l-1.1-2.1l-0.2-22.2l-13.3,0.4l-7.1,11"/>
		<path class="st14" d="M205.6,94.2c0,0-7.1,1.5-10.5,1.9c-3.3,0.4-19.4,14-21.1,14l6.5,16.4c0,0,8.3-3.2,9-3c3.4,0.9,7.2,33,7.2,33
			l-3.9,25.5c0,0,18.4,16.6,55.2-0.3l-1.1-40.2l0.6-11.6c0,0,3-33.6-5.5-35.1c-8.5-1.5-26.5-0.7-26.5-0.7L205.6,94.2L205.6,94.2z"/>
		<path class="st5" d="M251.9,107.4l15.9,32.6c0.6,1.2,0.6,2.7,0,3.9c-1.1,2.4-3.5,6.1-7.2,6.4c-5.6,0.4-40.6-14.2-40.6-14.2
			l3.8-6.5l25.6,4.3L236,118L251.9,107.4L251.9,107.4z"/>
		<path class="st14" d="M174.8,66.9l9.3,2.5c0.2,0.1,0.4-0.1,0.4-0.3c0.1-0.2-0.1-0.4-0.3-0.4l-9.3-2.5c-0.2-0.1-0.4,0.1-0.4,0.3
			C174.5,66.7,174.6,66.8,174.8,66.9L174.8,66.9z"/>
		<path class="st14" d="M179.8,58.4l7.4,6.2c0.2,0.1,0.4,0.1,0.5,0c0.1-0.1,0.1-0.4,0-0.5l-7.4-6.2c-0.2-0.1-0.4-0.1-0.5,0
			C179.6,58,179.7,58.2,179.8,58.4L179.8,58.4z"/>
		<path class="st14" d="M174.4,74.8l9.6-0.2c0.2,0,0.4-0.2,0.4-0.4c0-0.2-0.2-0.4-0.4-0.3l-9.6,0.2c-0.2,0-0.4,0.2-0.3,0.4
			C174,74.7,174.2,74.9,174.4,74.8L174.4,74.8z"/>
		<path class="st5" d="M227,130.6c0,0-3.2-4.5-5.5-6.4c-2.3-2-8.7-6.3-9.8-5.9c-1.1,0.4,5.5,6,4.9,6.6c-0.6,0.6-13.2-4.3-13.6-3.3
			c-0.4,1,7,4.5,7,4.5s-7.9-2.9-8.1-2.3c-0.2,0.6,7.6,4.7,7.6,4.7s-7.7-2.1-7.6-0.9c0.1,1.2,9.4,4.6,9.4,4.6s-6.1-0.6-6.4,0.2
			c-0.3,0.7,18.5,4.7,18.5,4.7L227,130.6L227,130.6z"/>
		<polygon class="st14" points="243.9,95.7 256.8,114.3 241,126.4 230.5,113.7 243.9,95.7 		"/>
		<path class="st22" d="M249.7,133.7c8.2,1.1,7.5,1,10.8,2.1"/>
		<path class="st5" d="M226.5,94.1c0,0-3-1.6-4.3-2.7c-2.5-2.1-5.6-12.7-5.6-12.7l-14,4.6c0,0,2.2,10.3,1.5,10.9
			c-0.7,0.6-0.9,5.9,5.6,6.8C216.2,101.9,226.5,94.1,226.5,94.1L226.5,94.1z"/>
		<path class="st13" d="M216.4,78c0,0,0.4,1.3,0.7,2c-1.8,15.1-10.5,13.6-12.8,13c-0.2-2.9-1.6-9.5-1.6-9.5L216.4,78L216.4,78z"/>
		<g>
			<defs>
				<path id="SVGID_39_" d="M196.9,57.7c1.9-1.9,4.3-3.1,6.7-3.7c4.2-1.1,8.4-0.5,11.6,2.5c2.6,2.5,3.6,5.9,3.8,8.9
					c0.3,4.2-0.9,7.8-0.9,7.8c-0.5,1.6-1,3.3-1.5,4.9c-1.5,5.8-4.7,9.5-9.9,10.3c-3.2,0.5-6.4,0.2-8.5-2.4
					c-3.5-4.4-4.5-13.6-4.5-19.4C193.6,63.3,194.4,60.2,196.9,57.7L196.9,57.7z"/>
			</defs>
			<use xlink:href="#SVGID_39_"  style="overflow:visible;fill:#FCA19F;"/>
			<clipPath id="SVGID_1_">
				<use xlink:href="#SVGID_39_"  style="overflow:visible;"/>
			</clipPath>
		</g>
		<path class="st14" d="M204.3,78.7c-0.2-0.3-0.6-0.3-1-0.4c-0.2,0-0.3,0-0.5-0.1c-0.4-0.1-0.8-0.3-1.1-0.6
			c-0.1-0.1-0.1-0.1-0.2-0.2c-0.1-0.2,0-0.5,0.1-0.6c0.7-1.6,1.4-3.2,1.3-4.9l0.3,0c0.1,1.8-0.6,3.4-1.3,5.1
			c-0.1,0.1-0.1,0.3-0.1,0.4l0.1,0.1c0.3,0.3,0.6,0.4,1,0.5c0.2,0,0.3,0.1,0.5,0.1c0.4,0.1,0.9,0.1,1.2,0.5L204.3,78.7L204.3,78.7z"
			/>
		<path class="st14" d="M216.8,72.8c0,0-3.7-3.5-4.7-11.3c0,0-3.5-0.8-5.7-0.4c-2.2,0.5-4.7,2.6-9.2,2.9c-4.5,0.2-6.8-2.9-6.8-2.9
			s0.9,0,1.4-0.1c0,0-1.5-1.4-3.3-3.9c0,0,1.1,0.1,5.4-0.9c0,0-1.4-0.9-2.2-2.2c0,0,3.5,0.4,7.8-0.7c4.3-1.1,9.9-2.5,12.8-0.9
			c2.9,1.6,3.1,2,3.1,2s-1.2-3.1-2.5-3.7c0,0,3.1,1,3.6,4c0,0,1.7,0.1,2.6,0.3c0.9,0.2-2.1,0.4-2.1,0.4s6,7.6,0.9,19.4L216.8,72.8
			L216.8,72.8z"/>
		<path class="st14" d="M200.9,82.5c-0.1-0.1-0.2-0.2-0.2-0.3c-0.2-0.5-0.1-1,0.2-1.4c0.3-0.4,0.8-0.6,1.3-0.6
			c0.4,0,0.7,0.2,1.1,0.3c0.7,0.1,1.4,0,2.1-0.2c0.9-0.3,1.9-0.6,2.8-0.2c0.4,0.2,0.7,0.4,1,0.8c0.3,0.4,0.4,0.9,0.2,1.3
			c-0.1,0.3-0.5,0.6-0.8,0.7c-0.3,0.1-0.5,0.3-0.8,0.3c-0.7,0.1-1.3-0.2-1.9-0.4c-0.6-0.2-1.2-0.4-1.9-0.3c-0.3,0-0.6,0.2-1,0.2
			c-0.6,0.1-1.1,0.1-1.7,0C201.1,82.7,201,82.6,200.9,82.5L200.9,82.5z"/>
		<path class="st23" d="M210.4,69.9l-3.3,1.7l3.7,0.1 M196.5,70.6l3.5,1.2l-3.6,0.6"/>
		<path class="st24" d="M215.8,71.6c0,0,1.9-2,3.3-1.2c1.5,0.8,2,4.8-2.4,5.8C216.8,76.2,215.6,74.4,215.8,71.6L215.8,71.6z"/>
		<path class="st25" d="M194.3,72.3c0,0-1.9-1.3-2.6-0.2c-0.8,1.1,0.1,4.7,3.3,4.4C195,76.5,195.3,74.7,194.3,72.3L194.3,72.3z"/>
		<path class="st14" d="M215.5,54.4c0,0-2.3-3.3-5.8-4.2c-3.5-1-10,0.7-12.6,0c0,0,2.1,2.2,6.2,2.9c4.1,0.7,7.4,2,7.4,2L215.5,54.4
			L215.5,54.4z"/>
		<path class="st14" d="M194.9,63.6c0,0-1,5.6-1,8.5c0,0-1.5-7.9-0.6-10.1C194.3,59.7,194.9,63.6,194.9,63.6L194.9,63.6z"/>
		<path class="st14" d="M212,67.8c0.4,0.7-1,0.6-1.9,0.4c-0.9-0.2-2.7,0.5-3.4,0.5c-0.7,0-1.1-1.5,0.1-1.8
			C207.9,66.5,211,66,212,67.8L212,67.8z"/>
		<path class="st14" d="M195.7,68.4c-0.3,0.7,1.1,0.5,1.9,0.3c0.9-0.2,2.8,0.3,3.5,0.3c0.7-0.1,1-1.6-0.3-1.8
			C199.6,66.8,196.5,66.5,195.7,68.4L195.7,68.4z"/>
		<path class="st6" d="M209.7,63.9c0-0.3,0.5-1.8,0.6-1.8c0.1,0,0.6,1.4,0.6,1.8s-0.3,0.6-0.6,0.6C210,64.6,209.7,64.3,209.7,63.9
			L209.7,63.9z"/>
		<path class="st6" d="M195.4,66.5c0-0.3,0.5-1.6,0.6-1.6c0.1,0,0.5,1.3,0.5,1.6s-0.2,0.5-0.5,0.5C195.6,67,195.4,66.8,195.4,66.5
			L195.4,66.5z"/>
		<path class="st6" d="M214.2,77c0-0.3,0.4-1.3,0.5-1.3c0.1,0,0.5,1,0.5,1.3c0,0.3-0.2,0.5-0.5,0.5C214.4,77.4,214.2,77.2,214.2,77
			L214.2,77z"/>
		<path class="st6" d="M212.8,69.9c0-0.2,0.3-1,0.4-1c0.1,0,0.4,0.8,0.4,1c0,0.2-0.2,0.4-0.4,0.4C213,70.3,212.8,70.1,212.8,69.9
			L212.8,69.9z"/>
		<path class="st9" d="M200.9,80.8c0.3-0.4,0.8-0.6,1.3-0.6c0.4,0,0.7,0.2,1.1,0.3c0.7,0.1,1.4,0,2.1-0.2c0.9-0.3,1.9-0.6,2.8-0.2
			c0.2,0.1,0.4,0.2,0.5,0.3C208.2,80.6,205,82.6,200.9,80.8L200.9,80.8z"/>
		<path class="st26" d="M207.1,72.6c0,0,1.7,1.3,3.2,1.1 M200.4,72.5c0,0-1.1,1.3-3.3,1.5"/>
		<polygon class="st9" points="209.3,119.7 197.1,109.1 202.3,109.9 194.5,101.6 207.8,112.5 202.7,112.2 209.3,119.7 		"/>
		<polygon class="st9" points="199.3,122.6 189.7,117 193.3,116.8 186.9,112.3 197.4,117.9 193.9,118.3 199.3,122.6 		"/>
		<polygon class="st9" points="213.2,116.6 219.5,107.3 216.1,108.8 219.9,101.8 213,111.5 216.3,110.4 213.2,116.6 		"/>
	</g>
</g>
</svg>
