<?xml version="1.0" encoding="utf-8"?>
<!-- Generator: Adobe Illustrator 22.1.0, SVG Export Plug-In . SVG Version: 6.00 Build 0)  -->
<svg version="1.1" id="Layer_1" xmlns="http://www.w3.org/2000/svg" xmlns:xlink="http://www.w3.org/1999/xlink" x="0px" y="0px"
	 width="600.1px" height="434.1px" viewBox="0 0 600.1 434.1" style="enable-background:new 0 0 600.1 434.1;" xml:space="preserve"
	>
<style type="text/css">
	.st0{fill:#B4C9FF;}
	.st1{fill:#EBF1FF;}
	.st2{fill:none;stroke:#B4C9FF;stroke-width:0.7934;stroke-miterlimit:10;}
	.st3{fill:none;stroke:#FFFFFF;stroke-width:0.5346;stroke-linecap:round;stroke-linejoin:round;stroke-miterlimit:10;}
	.st4{fill:#97A5FF;}
	.st5{fill:#FCA19F;}
	.st6{fill:none;stroke:#FCE6A3;stroke-width:0.2706;stroke-linecap:round;stroke-linejoin:round;stroke-miterlimit:10;}
	.st7{fill:#FCE6A3;}
	.st8{fill:none;stroke:#242638;stroke-width:0.325;stroke-miterlimit:10;}
	.st9{fill:#F7C8DE;}
	.st10{fill:#242638;}
	.st11{fill:#FFFFFF;}
	.st12{fill:#FFF0B3;}
	.st13{fill:#F97070;}
	.st14{fill:#1E183F;}
	.st15{fill:#EFABCE;}
	.st16{fill:#FFC359;}
	.st17{fill:none;stroke:#2773BF;stroke-width:0.2269;stroke-linecap:round;stroke-linejoin:round;stroke-miterlimit:10;}
	.st18{fill:#FFF9F8;}
	.st19{fill:#5E71C7;}
	.st20{fill:none;stroke:#333333;stroke-width:0.2144;stroke-linecap:round;stroke-miterlimit:10;}
	.st21{fill:none;stroke:#FFF9F8;stroke-width:0.2269;stroke-linecap:round;stroke-linejoin:round;stroke-miterlimit:10;}
	.st22{fill:none;stroke:#242638;stroke-width:0.2706;stroke-linecap:round;stroke-linejoin:round;stroke-miterlimit:10;}
	.st23{fill:#333333;}
	.st24{fill:none;stroke:#C3E6FF;stroke-width:0.2269;stroke-linecap:round;stroke-linejoin:round;stroke-miterlimit:10;}
	.st25{fill:none;stroke:#D0DCFF;stroke-width:0.5412;stroke-linecap:round;stroke-linejoin:bevel;stroke-miterlimit:10;}
</style>
<g>
	<g>
		<polygon class="st0" points="193.3,215.8 108.7,215.8 108.7,433.5 193.3,433.5 193.3,215.8 		"/>
		<polygon class="st1" points="192.9,288.5 108.7,288.5 108.7,310.5 192.9,310.5 192.9,288.5 		"/>
		<polygon class="st1" points="192.9,251.1 108.7,251.1 108.7,273.1 192.9,273.1 192.9,251.1 		"/>
		<polygon class="st0" points="137.9,245.7 135.4,245.7 135.4,364 137.9,364 137.9,245.7 		"/>
		<polygon class="st0" points="163.6,245.7 161.1,245.7 161.1,364 163.6,364 163.6,245.7 		"/>
		<polygon class="st1" points="192.9,332 108.7,332 108.7,354 192.9,354 192.9,332 		"/>
		<polygon class="st1" points="211.6,297.9 0,297.9 0,434 211.6,434 211.6,297.9 		"/>
		<path class="st2" d="M198.5,306.3h-8.9h-9v30.2h17.9V306.3L198.5,306.3z M189.4,336.6v-30 M396,312.4h-8.9h-9v30.2H396V312.4
			L396,312.4z M386.9,342.6v-30 M426.9,312.4H418h-9v30.2h17.9V312.4L426.9,312.4z M417.9,342.6v-30 M457.6,312.4h-8.9h-9v30.2h17.9
			V312.4L457.6,312.4z M448.6,342.6v-30 M396,349.7h-8.9h-9v30.2H396V349.7L396,349.7z M386.9,380v-30 M426.9,349.7H418h-9v30.2
			h17.9V349.7L426.9,349.7z M417.9,380v-30 M457.6,349.7h-8.9h-9v30.2h17.9V349.7L457.6,349.7z M448.6,380v-30 M396,388.5h-8.9h-9
			v30.2H396V388.5L396,388.5z M386.9,418.7v-30 M426.9,388.5H418h-9v30.2h17.9V388.5L426.9,388.5z M417.9,418.7v-30 M457.6,388.5
			h-8.9h-9v30.2h17.9V388.5L457.6,388.5z M448.6,418.7v-30 M510.7,365.8h-8.9h-9v30.2h17.9V365.8L510.7,365.8z M501.7,396v-30
			 M541.7,365.8h-8.9h-9v30.2h17.9V365.8L541.7,365.8z M532.7,396v-30 M572.4,365.8h-8.9h-9v30.2h17.9V365.8L572.4,365.8z
			 M563.4,396v-30 M166.1,306.3h-8.9h-9v30.2h17.9V306.3L166.1,306.3z M157,336.6v-30 M131.3,306.3h-8.9h-9v30.2h17.9V306.3
			L131.3,306.3z M122.2,336.6v-30 M98.9,306.3H90h-9v30.2h17.9V306.3L98.9,306.3z M89.8,336.6v-30 M66.3,306.3h-8.9h-9v30.2h17.9
			V306.3L66.3,306.3z M57.2,336.6v-30 M33.9,306.3H25h-9v30.2h17.9V306.3L33.9,306.3z M24.8,336.6v-30 M198.5,349.5h-8.9h-9v30.2
			h17.9V349.5L198.5,349.5z M189.4,379.7v-30 M166.1,349.5h-8.9h-9v30.2h17.9V349.5L166.1,349.5z M157,379.7v-30 M131.3,349.5h-8.9
			h-9v30.2h17.9V349.5L131.3,349.5z M122.2,379.7v-30 M98.9,349.5H90h-9v30.2h17.9V349.5L98.9,349.5z M89.8,379.7v-30 M66.3,349.5
			h-8.9h-9v30.2h17.9V349.5L66.3,349.5z M57.2,379.7v-30 M33.9,349.5H25h-9v30.2h17.9V349.5L33.9,349.5z M24.8,379.7v-30 M198.5,393
			h-8.9h-9v30.2h17.9V393L198.5,393z M189.4,423.3v-30 M166.1,393h-8.9h-9v30.2h17.9V393L166.1,393z M157,423.3v-30 M131.3,393h-8.9
			h-9v30.2h17.9V393L131.3,393z M122.2,423.3v-30 M98.9,393H90h-9v30.2h17.9V393L98.9,393z M89.8,423.3v-30 M66.3,393h-8.9h-9v30.2
			h17.9V393L66.3,393z M57.2,423.3v-30 M33.9,393H25h-9v30.2h17.9V393L33.9,393z M24.8,423.3v-30"/>
		<polygon class="st0" points="521.2,159.2 460.7,159.2 460.7,434 521.2,434 521.2,159.2 		"/>
		<polygon class="st0" points="599.8,91.2 515.2,91.2 515.2,433.6 599.8,433.6 599.8,91.2 		"/>
		<polygon class="st1" points="600.1,367.6 488.7,367.6 488.7,335.5 600.1,335.5 600.1,367.6 		"/>
		<polygon class="st1" points="600.1,415.2 485.9,415.2 485.9,383.1 600.1,383.1 600.1,415.2 		"/>
		<polygon class="st0" points="260.3,150.1 199.7,150.1 199.7,434 260.3,434 260.3,150.1 		"/>
		<polygon class="st0" points="338.8,77.8 254.2,77.8 254.2,433.7 338.8,433.7 338.8,77.8 		"/>
		<polygon class="st1" points="489,256.4 345.2,256.4 345.2,434 489,434 489,256.4 		"/>
		<path class="st0" d="M360.5,281.3L360.5,281.3c-3.5,0-6.4,2.1-6.4,4.7v148h12.8V286C366.8,283.4,364,281.3,360.5,281.3
			L360.5,281.3z"/>
		<path class="st0" d="M382.4,281.3h-0.6c-3.4,0-6.1,2.2-6.1,4.9V434h12.8V286.2C388.5,283.5,385.8,281.3,382.4,281.3L382.4,281.3z"
			/>
		<path class="st0" d="M405.9,281.3h-1.2c-3.2,0-5.8,2.3-5.8,5.2v147.4h12.8V286.5C411.7,283.6,409.1,281.3,405.9,281.3L405.9,281.3
			z"/>
		<path class="st0" d="M474.5,281.3L474.5,281.3c3.5,0,6.4,2.6,6.4,5.7V434h-12.8V287.1C468.1,283.9,471,281.3,474.5,281.3
			L474.5,281.3z"/>
		<path class="st0" d="M452.5,281.3h0.6c3.3,0,6.1,2.4,6.1,5.4V434h-12.8V286.7C446.5,283.7,449.2,281.3,452.5,281.3L452.5,281.3z"
			/>
		<path class="st0" d="M429,281.3h1.2c3.2,0,5.8,2.3,5.8,5.2v147.4h-12.8V286.5C423.3,283.6,425.9,281.3,429,281.3L429,281.3z"/>
		<polygon class="st1" points="471.6,297.9 365.7,297.9 365.7,434 471.6,434 471.6,297.9 		"/>
		<polygon class="st1" points="339.1,130.1 253.9,130.1 253.9,98 339.1,98 339.1,130.1 		"/>
		<polygon class="st1" points="339.1,169.9 253.9,169.9 253.9,137.8 339.1,137.8 339.1,169.9 		"/>
		<polygon class="st1" points="339.1,211.4 253.9,211.4 253.9,179.3 339.1,179.3 339.1,211.4 		"/>
		<polygon class="st1" points="339.1,259 253.9,259 253.9,226.9 339.1,226.9 339.1,259 		"/>
		<polygon class="st0" points="315.3,91.3 311.5,91.3 311.5,266.1 315.3,266.1 315.3,91.3 		"/>
		<polygon class="st0" points="280.5,91.3 276.6,91.3 276.6,266.1 280.5,266.1 280.5,91.3 		"/>
		<polygon class="st1" points="600.1,143.5 514.9,143.5 514.9,111.4 600.1,111.4 600.1,143.5 		"/>
		<polygon class="st1" points="600.1,183.3 514.9,183.3 514.9,151.2 600.1,151.2 600.1,183.3 		"/>
		<polygon class="st1" points="600.1,224.8 485.9,224.8 485.9,192.7 600.1,192.7 600.1,224.8 		"/>
		<polygon class="st1" points="600.1,272.4 488.7,272.4 488.7,240.3 600.1,240.3 600.1,272.4 		"/>
		<polygon class="st1" points="600.1,320 485.9,320 485.9,287.9 600.1,287.9 600.1,320 		"/>
		<polygon class="st0" points="576.3,104.8 572.4,104.8 572.4,434 576.3,434 576.3,104.8 		"/>
		<polygon class="st0" points="541.5,104.8 537.6,104.8 537.6,434 541.5,434 541.5,104.8 		"/>
		<polygon class="st1" points="464.4,70.6 367.7,70.6 367.7,124.4 464.4,124.4 464.4,70.6 		"/>
		<polygon class="st0" points="489,262.1 345.2,262.1 345.2,269.2 489,269.2 489,262.1 		"/>
		<polygon class="st0" points="485.5,124.1 348.5,124.1 348.5,136.3 485.5,136.3 485.5,124.1 		"/>
		<path class="st0" d="M429.5,75.5L429.5,75.5c3.6,0,6.6,2.9,6.6,6.6v35.6h-13.1V82C422.9,78.4,425.8,75.5,429.5,75.5L429.5,75.5z"
			/>
		<path class="st0" d="M451.4,75.5L451.4,75.5c3.6,0,6.6,2.9,6.6,6.6v35.6h-13.1V82C444.8,78.4,447.7,75.5,451.4,75.5L451.4,75.5z"
			/>
		<path class="st0" d="M382.9,75.5L382.9,75.5c3.6,0,6.6,2.9,6.6,6.6v35.6h-13.1V82C376.4,78.4,379.3,75.5,382.9,75.5L382.9,75.5z"
			/>
		<path class="st0" d="M404.8,75.5L404.8,75.5c3.6,0,6.6,2.9,6.6,6.6v35.6h-13.1V82C398.2,78.4,401.2,75.5,404.8,75.5L404.8,75.5z"
			/>
		<polygon class="st1" points="481.2,136 353,136 353,257.1 481.2,257.1 481.2,136 		"/>
		<path class="st2" d="M385.1,145.7h-8.9h-9v30.2h17.9V145.7L385.1,145.7z M376.1,176v-30 M413.1,145.7h-8.9h-9v30.2h17.9V145.7
			L413.1,145.7z M404,176v-30 M440.3,145.7h-8.9h-9v30.2h17.9V145.7L440.3,145.7z M431.3,176v-30 M468.3,145.7h-8.9h-9v30.2h17.9
			V145.7L468.3,145.7z M459.2,176v-30 M385.1,182.8h-8.9h-9V213h17.9V182.8L385.1,182.8z M376.1,213.1v-30 M413.1,182.8h-8.9h-9V213
			h17.9V182.8L413.1,182.8z M404,213.1v-30 M440.3,182.8h-8.9h-9V213h17.9V182.8L440.3,182.8z M431.3,213.1v-30 M468.3,182.8h-8.9
			h-9V213h17.9V182.8L468.3,182.8z M459.2,213.1v-30 M385.1,219.1h-8.9h-9v30.2h17.9V219.1L385.1,219.1z M376.1,249.3v-30
			 M413.1,219.1h-8.9h-9v30.2h17.9V219.1L413.1,219.1z M404,249.3v-30 M440.3,219.1h-8.9h-9v30.2h17.9V219.1L440.3,219.1z
			 M431.3,249.3v-30 M468.3,219.1h-8.9h-9v30.2h17.9V219.1L468.3,219.1z M459.2,249.3v-30"/>
		<polygon class="st0" points="419,0.7 413.2,0.7 363.3,62.2 363.3,70.7 468.8,70.7 468.8,62.2 419,0.7 		"/>
		<path class="st3" d="M363.3,62.2h105.2 M416.9,0.3L436,61.9 M414.6,0.3l-19.1,61.7"/>
		<polygon class="st1" points="586.1,357.4 485.5,357.4 485.5,434 586.1,434 586.1,357.4 		"/>
	</g>
	<g>
		<g>
			<path class="st4" d="M181.8,433.9l-1.4-37.9l-5-30.3c0,0,0,25.2-1.1,37.6c-0.5,5-6.5,17.5-13.5,30.6h-30.5l14.8-38.4
				c0,0-9.5-64.5-6.7-81.9c2.8-17.4,53.8-9,53.8-9s15.1,62.8,16.8,84.1c0.7,8.9,0.1,27.1-0.8,45.1H181.8z"/>
			<path class="st5" d="M260.5,238.6c0.7-1,1-2.2,0.8-3.4c-1.9,0.3-3.4,1.7-5,2.7c-3.4,2.1-7.6,2.7-11.4,1.7
				c1.2-1.6,2.5-3.2,3.7-4.8c-4,0-7.8,1.7-11,4.1c-3.2,2.4-5.8,5.5-8.4,8.5c-0.3,0.3-0.6,0.7-0.6,1.1c-0.1,0.5,0.2,0.9,0.4,1.3
				c1.2,1.9,2.6,3.7,4.2,5.3c2-1.9,4.1-3.9,6.8-4.5c1.7-0.4,3.4-0.3,5.1-0.2c3.1,0.2,6.3,0.1,9.3-0.7c3-0.8,5.8-2.6,7.5-5.2
				c-2.2,0.4-4.3,1-6.3,1.8c3.4-2.3,7.1-5.2,7.4-9.3C262,237.3,261.1,237.8,260.5,238.6L260.5,238.6z"/>
			<path class="st6" d="M162.9,160.6c10.1,1,19.8,5.3,27.4,12.1c2.9,2.6,5.6,5.7,6.9,9.3c1.4,3.7,1.3,8-1,11.3
				c-1.6,2.3-4.2,4.1-4.5,6.9c-0.2,2.1,1.2,4.1,2.5,5.7c5.3,6.3,12.3,12.2,13.4,20.4c0.7,5.6-1.6,11.3-5.3,15.5
				c-3.7,4.2-8.8,7.1-14,9.2"/>
			<path class="st7" d="M142.4,247.7c-2.9-2-6.9-0.8-10.4-1c-4.8-0.3-9.1-3.6-11.5-7.8c-2.4-4.2-2.9-9.3-2.3-14.1
				c1-8.3,5.8-16.4,13.4-19.7c2.7-1.2,5.7-1.8,7.8-3.8c3.5-3.4,3-9.1,1.9-13.9c-1.8-8.5,0.7-16.7,7.8-22.2c9.9-7.7,22.4-5,32.1,1.5
				c8.3,5.5,15.9,15.9,8.8,25.5c-1.8,2.4-4.5,4.2-5.6,7c-1.1,2.8-0.5,6,0.9,8.6c1.4,2.6,3.5,4.8,5.3,7.1c5.1,6.2,9.4,14.1,7.9,22
				c-0.9,4.9-4,9.1-7.9,12.2c-3.9,3-8.6,4.9-13.4,6c-7.2,1.7-14.9,2-22.2,0.7c-3.2-0.6-6.6-1.5-8.9-3.9
				C144.9,250.5,144,248.8,142.4,247.7L142.4,247.7z"/>
			<path class="st8" d="M136.9,433.9 M136.9,433.9c7.4-18,15.6-38.3,15.9-40.1c0.6-3.4-9-75.7-9-75.7l26.1,2.2l5.3,45.4 M156.5,322
				c5.9,15.4-9.5,19.3-9.5,19.3 M179.2,321.4c1.1,26.1-5.3,27.8-5.3,27.8"/>
			<path class="st9" d="M167.6,219.3c0,0,20.9,0.4,23.9,3.7c3,3.4,9.4,37.8,9.4,37.8s16.4-15.7,28-13.5l6.4,7.1
				c0,0-18.7,43-44.5,36.6l5.2,21.7l-18.7,16.5c0,0-48.6,2.2-49.7-35.5c-1.1-37.8,1.1-65.8,8.2-69.5
				C142.9,220.5,167.6,219.3,167.6,219.3L167.6,219.3z"/>
			<polygon class="st10" points="202.6,332.4 205.4,301.8 187,301.4 189.1,332.4 202.6,332.4 			"/>
			<polygon class="st11" points="203.5,322.1 204.5,311.6 187.7,311.6 188.4,322.1 203.5,322.1 			"/>
			<polygon class="st12" points="207.3,299.2 185,299.2 185,303.3 207.3,303.3 207.3,299.2 			"/>
			<polygon class="st12" points="204.6,300.2 187.7,300.2 187.7,295.8 204.6,295.8 204.6,300.2 			"/>
			<path class="st5" d="M179.8,316.4h2.3c0,0,2.5-4.3,4.8-6.9c0.6-0.7,0.8,3,0.8,3l0.6,4l6.6,0.7l9.3-3.6l0.2-1.2c0,0,1,3.1,0.5,3.9
				c-0.5,0.8-1.4,3.1-1.4,3.1l-0.9,4.3c-0.3,1.5-1.3,2.7-2.7,3.3l-3.5,1.5c-1.6,0.7-3.3,0.8-4.9,0.3l-7.8-2.3l-6.2-0.7L179.8,316.4
				L179.8,316.4z"/>
			<path class="st8" d="M148.6,248.5c-0.6,5.6,4.2,40.1,4.2,40.1c14.6,8.1,27.2,26.6,27.2,26.6l-3.6,13.7 M185.7,235.9
				c0.8,8.7,6.2,11.8,6.7,17.1c0.6,5.3-4.2,11.5-4.2,11.5l2.6,26.6"/>
			<path class="st5" d="M156,196.2c0,0,0.7,19.8,0.1,21.4c-0.6,1.6-5.1,3.5-4.8,3.1c0.2-0.3,18.5,11,25.6-0.9c0,0-5.5-1.2-6.1-2.3
				c-0.6-1.2-2.6-13.8-2.6-13.8L156,196.2L156,196.2z"/>
			<path class="st13" d="M159,197.9l3.2,2l6.4,4.9c0.2,1.4,0.7,4,1.1,6.4c-2.8-0.3-9.4-1.9-13.5-9.3c0-1.2-0.1-2.2-0.1-3.1
				L159,197.9L159,197.9z"/>
			<path class="st5" d="M181.2,180.3c1.4,17.6-7.4,25-11.4,25.3c-5.1,0.4-14-3.7-16-11.5c0,0-6.3-0.2-6.7-3.7c-0.7-6.4,4.2-3,4.2-3
				s-9.2-15.9,7.1-23.5C164.9,160.8,179.8,163.4,181.2,180.3L181.2,180.3z"/>
			<path class="st14" d="M160.6,181.2c0.2-0.4,1-0.5,1.3-0.6c0.7-0.2,1.5-0.3,2.3-0.2c0.6,0,1.2,0.2,1.8,0.3c0.4,0.1,1.1,0.3,1.4,0
				c0.2-0.2,0.2-0.6,0-0.8c-0.4-0.5-1.5-0.6-2.1-0.7C163.5,179,161.5,179.3,160.6,181.2L160.6,181.2z"/>
			<path class="st14" d="M180.8,180.7c-0.2-0.4-1-0.4-1.3-0.5c-0.8-0.2-1.5-0.3-2.3-0.2c-0.6,0.1-1.2,0.2-1.8,0.3
				c-0.4,0.1-1.1,0.4-1.4,0.1c-0.2-0.2-0.2-0.6,0-0.8c0.4-0.6,1.4-0.7,2.1-0.8C177.9,178.6,179.9,178.9,180.8,180.7L180.8,180.7z"/>
			<path class="st13" d="M159.9,189.3c0-0.8,1.3-1.4,2.9-1.4c1.6,0,2.9,0.7,2.8,1.5c0,0.8-1.3,1.4-2.9,1.4
				C161.2,190.8,159.9,190.1,159.9,189.3L159.9,189.3z"/>
			<path class="st13" d="M175.4,189.1c0-0.8,1.2-1.5,2.6-1.4c1.4,0,2.5,0.7,2.5,1.5c0,0.8-1.2,1.5-2.6,1.4
				C176.5,190.6,175.3,189.9,175.4,189.1L175.4,189.1z"/>
			<path class="st14" d="M170.2,192.3c1.2,0,2.1-1.2,2.1-1.2l0-0.2c-1.6-3.6-0.9-7.6-0.9-7.6l-0.2-0.3l-0.3,0.2c0,0.2-0.7,4,0.9,7.8
				c-0.2,0.3-0.9,0.9-1.7,0.9l-0.1,0l-0.2,0.2l0.2,0.3L170.2,192.3L170.2,192.3z"/>
			<path class="st14" d="M162.8,184.9c-0.1-1.5,0.6-2.7,1.5-2.7c0.9,0,1.8,1.1,1.8,2.6c0.1,1.5-0.6,2.7-1.6,2.7
				C163.7,187.5,162.9,186.3,162.8,184.9L162.8,184.9z"/>
			<path class="st14" d="M175.5,184.3c-0.1-1.5,0.6-2.7,1.5-2.7c0.9-0.1,1.7,1.1,1.8,2.6c0.1,1.5-0.6,2.7-1.6,2.7
				C176.4,187,175.5,185.8,175.5,184.3L175.5,184.3z"/>
			<path class="st13" d="M165.9,195.8l3.6-1.8l1.4,1.1l1.3-1.1l3.2,1.8c0,0-1.2,4.6-4.5,4.8C166.9,200.8,165.9,195.8,165.9,195.8
				L165.9,195.8z"/>
			<path class="st11" d="M165.9,195.8l9.4,0C175.4,195.8,171,202.2,165.9,195.8L165.9,195.8z"/>
			<path class="st7" d="M145.1,175.1c-0.2,1.4,0.1,2.7,0.5,4c1.3,4,3.8,8.2,7.6,10c4.6-5.7,8.4-13.2,9.9-20.4
				c5.2-0.1,10.2,2.5,14,6.1c3.8,3.6,6.6,8,9.2,12.6c1.8-9.6-3.8-20.1-12.9-24c-9-3.9-20.5-0.7-26.3,7.2
				C146.1,171.9,145.3,173.4,145.1,175.1L145.1,175.1z"/>
			<path class="st15" d="M176.3,255.4c0,0-6.6,7.6-21.2,4.1C155.1,259.4,169.7,270.7,176.3,255.4L176.3,255.4z"/>
			<polygon class="st16" points="147.1,192.7 155.4,192.7 151.4,202.2 147.1,192.7 			"/>
			<path class="st14" d="M181.2,189c0,0-11,2.6-25.1-0.7c0,0-1.1,7.7,1.6,12.6c0,0,6.8,5.8,12.4,4.8
				C175.6,204.8,180.1,198.3,181.2,189L181.2,189z"/>
			<polygon class="st14" points="156,188.3 150.1,186.9 150.8,187.6 156.1,189.6 156,188.3 			"/>
			<path class="st14" d="M157.6,201c0,0-2-2.3-2.9-4.7c0,0,1.9,2.9,3,3.8L157.6,201L157.6,201z"/>
		</g>
		<g>
			<path class="st7" d="M455.6,433.8c6.5-28.6,19.6-86.3,19.6-86.3l52.3,6.9l5,79.3H455.6z"/>
			<path class="st17" d="M485.9,350.9l1.2,82.8 M513.3,434 M513.3,434l-5.4-74.5"/>
			<path class="st17" d="M486.3,387.1c0,0-5.2-9.9-5.2-12.6s0.5-25.9,0.5-25.9"/>
			<line class="st17" x1="486.7" y1="408.5" x2="480.8" y2="434"/>
			<path class="st5" d="M425.9,260.2c-0.6,0.8-1.2,1.7-1.4,2.7c-0.4,2.1,1.1,4,2.8,5.2c3.4,2.6,7.8,3.4,12,4.2
				c1.1,0.2,2.2,0.5,2.9,1.2c0.5,0.5,0.9,1.1,1.2,1.7c1.1,2.1,2.3,4.3,3.4,6.4c3.4-0.5,6.5-2.5,8.3-5.4c-1.7-5.3-3.6-10.8-8-14.1
				c-1.5-1.1-3.3-2-5.1-2.8c-3.4-1.6-6.8-3.1-10.2-4.7c-0.5-0.2-1.1-0.5-1.6-0.3c-0.3,0.1-0.6,0.5-0.8,0.8
				C428.2,256.9,427,258.5,425.9,260.2L425.9,260.2z"/>
			<path class="st10" d="M499.3,254.1c0,0-13.3,3.2-14.9,6.5c-1.6,3.2-11.7,41.2-11.7,41.2l-15.6-30.2l-13.9,12.3
				c0,0,19.1,49.6,24.3,50.3L462,366c0,0,18.2,11.4,51.6,9.4c33.4-1.9,28.8-4.2,28.8-4.2s-2.3-101.2-15.9-109.9
				c-13.6-8.8-19.2-8.4-19.2-8.4L499.3,254.1L499.3,254.1z"/>
			<path class="st18" d="M496,256.8l-17.1,26.5c0,0-5.8,14.3-1.3,20.1l-2.9,46.7l10.7,1c0,0-2.3-70.4,24.6-94.7L496,256.8L496,256.8
				z"/>
			<path class="st5" d="M497.5,239.6c0,0,1.4,12.4-0.1,14.9c-0.7,1.1-5.6,8.4-5.6,8.4s23.3-2.6,21.4-8.5c-1.8-5.9-2-21-2-21
				L497.5,239.6L497.5,239.6z"/>
			<path class="st5" d="M524.9,220.1c1.8-4.3,2.5-9,1.6-14.1c-2.9-16-20.1-15.4-32.5-11.5c-5.3,1.7-9.5,6.7-10.4,12.3
				c-0.4,2.5-0.1,5-0.3,7.5c-0.1,1.5-0.5,3.1-1.2,4.4c-0.4,0.8-0.9,1.6-4.2,3.8c-0.6,0.4,2.1,3.2,2.8,3.1c0.3,0,0.3,1,0.2,1.8
				c-0.1,3,0,6.1,0.9,9c3.4,10.2,12.9,6.4,20.8,2.4C511.6,234.2,521.1,229.3,524.9,220.1L524.9,220.1z"/>
			<path class="st10" d="M486.5,209.1c1.8-0.3,3.7,0.1,5.3,1c0.3,0.2,0.6,0.4,0.8,0.7c0.1,0.3,0.1,0.7-0.2,0.9
				c-0.7-0.5-1.8-0.5-2.7-0.5c-0.6,0-1.2,0-1.8,0c-0.6,0-1.3,0-1.9-0.3c-0.5-0.3-0.9-0.9-0.5-1.4
				C485.6,209.3,486.1,209.2,486.5,209.1L486.5,209.1z"/>
			<path class="st13" d="M487.7,242.5c0,0,4.9,1.3,10.2-1.6l0.2,3c0,0,9.1-5.8,13.3-12.6l-8.9-4.5
				C502.3,226.8,500.5,239.9,487.7,242.5L487.7,242.5z"/>
			<path class="st10" d="M531.1,199c-0.3-2.4-1.7-4.7-3.7-6c-2.5-1.7-5.5-2-8.5-2.1c-9.6-0.4-19.3,0.8-28.6,3.5
				c-0.5,0.1-1,0.3-1.3,0.7c-0.3,0.4-0.3,0.9-0.3,1.3c0.2,9.2,3.5,18.3,9.4,25.3c2.1,2.5,4.6,5.1,4.3,8.3c-0.1,1.1-0.5,2.1-0.6,3.1
				c-0.3,2.7,1.3,5.1,2.5,7.5c1.1,2.4,1.8,5.6-0.1,7.6c7,2,14.3-0.5,21.2-3c4.3-1.5,8.6-3.1,12.9-4.6c1.4-0.5,2.9-1.1,4-2.1
				c1.1-1.1,1.6-2.8,0.9-4.2c-0.8-1.3-2.6-1.8-3.4-3c-1.4-2.1,0.3-4.8,1.8-6.8c1.4-1.9,2.7-4.1,2.7-6.5c0-4.4-4.2-7.5-8.1-9.6
				c-1.5-0.8-3.2-1.7-4.1-3.2C530.9,203.5,531.4,201.2,531.1,199L531.1,199z"/>
			<path class="st10" d="M489.7,215.8c0.1-1.8-0.7-3.4-1.7-3.4c-1,0-1.8,1.4-1.9,3.3c-0.1,1.8,0.7,3.4,1.7,3.4
				C488.7,219.1,489.6,217.7,489.7,215.8L489.7,215.8z"/>
			<path class="st10" d="M513.3,252.2c0,0-6.5,6.7-9.5,11.2c-3,4.5-16.6,49.1-18,77c-1.3,27.9-1.9,34.6-1.9,34.6l21.4-1.1l-9.1-80
				l22.3-37.2L513.3,252.2L513.3,252.2z"/>
			<polygon class="st11" points="489.5,319.4 555.6,319.4 555.6,398.1 489.5,398.1 489.5,319.4 			"/>
			<polygon class="st19" points="489.5,328.7 555.6,328.7 555.6,335.8 489.5,335.8 489.5,328.7 			"/>
			<polygon class="st19" points="489.5,344.9 555.6,344.9 555.6,352.1 489.5,352.1 489.5,344.9 			"/>
			<polygon class="st19" points="489.5,361.6 555.6,361.6 555.6,368.7 489.5,368.7 489.5,361.6 			"/>
			<polygon class="st19" points="489.5,377.8 555.6,377.8 555.6,384.9 489.5,384.9 489.5,377.8 			"/>
			<path class="st11" d="M543.1,323.1l2.5-0.5c-1.3-6.5-13.2-63.6-26.6-63.6c-13.4,0-23.2,57.2-24.3,63.7l2.5,0.4
				c3.9-23.8,13.4-61.5,21.8-61.5C527.5,261.6,538.3,299.3,543.1,323.1L543.1,323.1z"/>
			<path class="st5" d="M515.8,379c-0.5,5.4-0.9,10.9-1.3,16.3c-0.3,5.7-0.6,11.6,1.3,17c1.5-3.5,1.8-7.4,2.1-11.3
				c1.1,4.5,1.6,9.1,1.3,13.7c-0.1,1.1-0.1,2.4,0.7,3.1c0.8,0.8,2.6,0,2.1-1c-0.5,0.9,1,1.9,1.9,1.3c0.9-0.6,1.1-1.8,1.1-2.9
				c0.1,1.3,0.9,2.6,2.2,3c2.5-4.6,3.3-10.2,2.2-15.3c0.9,2.8,1.3,5.7,1.3,8.7c0,0.9,0.4,2.2,1.3,1.9c0.6-0.2,0.7-0.9,0.7-1.5
				c0.1-2.3,0.2-4.7-0.2-7c-0.5-3-1.8-5.8-2.8-8.7c-1.5-4.5-2.3-9.2-2.3-13.9c-2.3-1.1-3.9-2.7-6.2-3.8
				C519.8,378.1,516,377.3,515.8,379L515.8,379z"/>
			<polygon class="st10" points="499.4,218.8 499.5,218.2 490.3,216.5 490.2,217.1 499.4,218.8 			"/>
			<line class="st20" x1="467.5" y1="334.2" x2="472.7" y2="301.8"/>
			<path class="st21" d="M510,245.6c1.5-1.1,1.8-3.3,1.1-5.1c-0.7-1.8-2-3.1-3.2-4.6c-1.2-1.4-2.4-3-2.6-4.9
				c-0.3-2.7,1.6-5.3,1.4-8.1c-0.2-2.3-1.7-4.2-3.5-5.6c-1.8-1.4-3.9-2.5-5.5-4.1c-2.7-2.5-4.1-6.1-5.4-9.5
				c-1.1-2.9-2.1-5.9-2.3-9.1 M516.5,246.4c2.2-1.2,3.1-4,2.7-6.4c-0.4-2.4-1.9-4.6-3.7-6.3c-1.2-1.2-2.6-2.3-3.2-3.8
				c-0.9-2.1-0.2-4.4-0.3-6.7c-0.2-4-2.9-7.3-5.9-9.9c-3-2.6-6.5-4.6-9.1-7.6c-2.7-3.1-4.5-7.2-4.7-11.4"/>
			<path class="st22" d="M521.2,191.6c2.5,0,5,0.6,7,1.9c2.1,1.3,3.7,3.5,4.1,5.9c0.2,1.3,0.1,2.6,0.5,3.8c0.9,2.2,3.4,3.2,5.5,4.3
				c3,1.5,5.7,3.8,7.3,6.8c1.5,3,1.8,6.8,0.1,9.7c-0.6,1.1-1.3,2-1.9,3.1c-0.5,1.1-0.8,2.4-0.3,3.5c0.5,1,1.5,1.6,2.3,2.4
				c1.3,1.6,1.3,3.9,1.1,6"/>
			<polygon class="st23" points="432.5,273.9 422.4,242.5 438.2,242 448.3,270.5 432.5,273.9 			"/>
			<polygon class="st18" points="432.6,271.5 423.6,243.4 437.6,242.9 446.7,268.4 432.6,271.5 			"/>
			<path class="st24" d="M427.3,245.3l9.8-0.5 M427.3,248.6l9.8-0.5 M430.4,251.7l9.8-0.5"/>
			<path class="st5" d="M449.7,261.7c-0.6-1.6-1.2-3.3-2.4-4.6c-1.3-1.3-3-2.1-4.7-2.7c-1-0.4-2-0.8-2.9-1.2c-0.3-0.1-0.6-0.2-0.8,0
				l-0.1,0.4c0,1.1,0.7,2.1,1.5,2.8c0.9,0.7,1.8,1.2,2.7,1.9c0.9,0.8,1.7,1.9,2.4,2.8c1.7,2.3,3.7,4.3,5.9,6.1
				C450.8,265.4,450.3,263.5,449.7,261.7L449.7,261.7z"/>
			<path class="st5" d="M428.6,252.8c1-0.6,1.9-1.1,2.9-1.7c0.3,2.1,0,4.2-0.9,6.1c-0.8,1.6-2.1,3.2-1.9,5.1c0.1,1,0.6,2,0,2.8
				c-0.4,0.5-1.1,0.7-1.8,0.7c-0.7,0-1.3-0.2-2,0c-1.3-3.6-1.1-7.5-0.8-11.3c0.1-0.5,0.1-1,0.3-1.5c0.2-0.4,0.5-0.8,0.9-1.2
				c1.3-1.5,2.7-3,4.6-3.8c0.3-0.1,0.6-0.2,0.9,0l0,0.8C430.2,250.2,429.5,251.6,428.6,252.8L428.6,252.8z"/>
			<path class="st13" d="M481,228.9c0,0-1.1-1.1-0.1-1.7c1.1-0.7,7.4,1.6,7.4,1.6s-0.2,5.8-6.6,6.7c0,0-1.1-0.7-0.3-1.8
				C482.1,232.6,481,228.9,481,228.9L481,228.9z"/>
			<path class="st18" d="M480.9,228.8c0.5,0.1,1,0.1,1.5,0.1c1.8-0.1,3.6-0.1,5.5-0.2l0.4,0.1l0,0.3c-0.1,0.3-0.2,0.6-0.3,0.9
				c-1.1,2.2-3.9,3.9-6.7,4.1C480.9,232.4,480.9,230.5,480.9,228.8L480.9,228.8z"/>
			<path class="st19" d="M501.2,220.4c0,0-14.1,2.5-20.4-0.4l-2.5,2.2c-0.4,0.3-0.6,0.9-0.5,1.4c0.5,3.7,2.9,18.5,8.6,19.5
				c14,2.3,17.8-18.6,17.8-18.6l-1.5,0.2c0,0-1.9,7.9-6.9,9.1c0,0-1.9-4.5-1.5-10.6l8.9-2.1L501.2,220.4L501.2,220.4z"/>
			<path class="st10" d="M487,209.9c-1.5,0-2.7,2.7-2.7,5.9c0,3.2,1.2,5.9,2.7,5.9c1.5,0,2.7-2.7,2.7-5.9
				C489.8,212.6,488.5,209.9,487,209.9L487,209.9z M487,222.4c-1.9,0-3.3-2.9-3.3-6.5c0-3.7,1.5-6.6,3.3-6.6c1.9,0,3.3,2.9,3.3,6.6
				C490.4,219.5,488.9,222.4,487,222.4L487,222.4z"/>
			<path class="st5" d="M504.4,224.2c-0.2,0.5-0.5,0.9-0.8,1.3c-0.9,1-2.2,1.8-3.5,1.4c-0.8-0.3-1.4-0.9-1.7-1.7
				c-0.3-0.8-0.4-1.6-0.5-2.5l0.1-0.6l0.4-0.5c0.7-0.7,1.4-1.3,2.4-1.5c1.1-0.3,2.3,0.1,3.1,0.9
				C504.5,221.9,504.8,223.2,504.4,224.2L504.4,224.2z"/>
			<path class="st10" d="M511.6,301.4c0,0,4.1,43.8,4.1,45.1s-2.1,41.3-2.1,41.3l15,0.8c0,0,7.7-40.5,7.5-48.5
				c-0.3-8-1.5-43.3-1.5-43.3L511.6,301.4L511.6,301.4z"/>
			<polygon class="st10" points="483.7,215.8 483,215.7 483.2,214.8 484.1,215 483.7,215.8 			"/>
		</g>
	</g>
	<g>
		<polygon class="st19" points="333.9,434 337.6,346.1 341.3,345.9 350.5,434 378.9,434 378.2,415.3 379.2,317.5 364.1,307 
			309.4,312 308,328.4 308.2,434 		"/>
		<polyline class="st25" points="377.7,332 359.2,312.6 339.1,312.9 		"/>
		<polyline class="st25" points="337.6,346.1 336.2,343.2 335.9,312.9 317.7,313.3 308,328.4 		"/>
		<path class="st5" d="M386.2,312.9c0,0-2.6,11.2-2.9,14.1c-0.2,2.9-0.3,11.9,0.6,12.4c0.9,0.5,2.8-10.9,2.8-10.9s3.6,8.4,2.9,11.7
			c-0.6,3.4-0.7,9.2,0.3,9.6c1,0.4,3.6-10.9,3.6-10.9s-1.3,10.2-0.2,10.8c1.1,0.7,3.8-11.3,3.8-11.3s-1,9.8,0,10.1
			c1,0.3,3-11.4,3.2-13.9c0.2-2.5-4.2-19.9-4.2-19.9L386.2,312.9L386.2,312.9z"/>
		<polygon class="st5" points="307.6,233.7 297.9,273.9 293.7,320.6 284.2,322.2 282.1,273.1 292.7,218.7 307.6,233.7 		"/>
		<polygon class="st5" points="394,205.6 402.3,257.4 396.2,315.4 386.3,314.2 384.2,255.3 376.6,213.5 394,205.6 		"/>
		<path class="st10" d="M354.9,182.2c0,0,28.5,6.5,35.2,13.6c8.3,8.8,14.2,47.3,14.2,47.3s-13.7,4.3-24.4,2.8l-2.1-13.5l3.8,87.8
			c0,0-23.5,12.3-77.4-0.3l2.9-80.8l-1.7,7.6c0,0-16.3-3.6-23.1-8.1c0,0,9.9-40.4,25.9-46.1c9.6-3.4,27.3-6.8,27.3-6.8L354.9,182.2"
			/>
		<path class="st5" d="M352.1,162.6l2.4,23c0,0-1,11.8-14.4,11.9c-13,0.1-10.5-11.7-10.5-11.7l1.5-3.8l1.2-13.3L352.1,162.6
			L352.1,162.6z"/>
		<path class="st13" d="M352.6,166.6l-0.3-3.3l-6,1.2l-5.9,1.8l-8.3,6l-0.8,9C335,181.4,348,183.5,352.6,166.6L352.6,166.6z"/>
		<path class="st5" d="M294.2,318c0,0,2.6,11.2,2.9,14.1c0.2,2.9,0.3,11.9-0.6,12.4c-0.9,0.5-2.8-10.9-2.8-10.9s-3.6,8.4-2.9,11.7
			c0.6,3.4,0.7,9.2-0.3,9.6c-1,0.4-3.6-11-3.6-11s1.3,10.2,0.2,10.8c-1.1,0.7-3.9-11.3-3.9-11.3s1,9.8,0,10.1
			c-1,0.3-3-11.4-3.2-13.9c-0.2-2.5,4.2-19.9,4.2-19.9L294.2,318L294.2,318z"/>
		<path class="st5" d="M355,156.4c0,0,7.1-19.6-8.2-26.6c-6.9-3.2-24,0.8-24.8,14.8c-0.6,10.2,0.8,30.8,11,32.1
			c10.7,1.3,16.8-3.9,19.8-13.6L355,156.4L355,156.4z"/>
		<path class="st10" d="M336,163.2c-0.3-0.4-0.8-0.5-1.4-0.6c-0.2,0-0.5-0.1-0.7-0.1c-0.6-0.1-1.1-0.5-1.5-0.9
			c-0.1-0.1-0.2-0.2-0.2-0.3c-0.1-0.3,0-0.7,0.1-0.8c1-2.1,2.1-4.3,2-6.7l0.4,0c0.1,2.4-1,4.7-2.1,6.9c-0.1,0.2-0.2,0.4-0.1,0.5
			l0.1,0.2c0.3,0.4,0.8,0.6,1.3,0.8c0.2,0.1,0.4,0.1,0.6,0.1c0.6,0.1,1.3,0.2,1.6,0.7L336,163.2L336,163.2z"/>
		<path class="st10" d="M327.5,153.3c0.1-1.7,0.9-3.1,1.8-3.1c0.9,0,1.5,1.5,1.5,3.2c-0.1,1.7-0.9,3.1-1.8,3.1
			C328.1,156.5,327.4,155,327.5,153.3L327.5,153.3z"/>
		<path class="st10" d="M341.2,153.7c0.1-1.7,0.9-3.1,1.8-3.1c0.9,0,1.5,1.5,1.5,3.2c-0.1,1.7-0.9,3.1-1.8,3.1
			C341.8,156.9,341.1,155.5,341.2,153.7L341.2,153.7z"/>
		<path class="st10" d="M353.3,155.8c0,0-4.8-5-5.8-15.6c0,0-4.7-1.3-7.8-0.8c-3.1,0.5-6.6,3.4-12.7,3.5c-6.1,0.1-9.1-4.3-9.1-4.3
			s1.2,0,1.9-0.1c0,0-1.9-1.9-4.3-5.5c0,0,1.5,0.2,7.4-1c0,0-1.8-1.3-2.9-3.1c0,0,4.8,0.7,10.7-0.6c5.9-1.3,13.7-3,17.6-0.6
			c3.9,2.4,4.1,2.9,4.1,2.9s-1.5-4.3-3.3-5.1c0,0,4.2,1.5,4.7,5.6c0,0,2.4,0.2,3.6,0.5c1.2,0.3-2.9,0.4-2.9,0.4s7.8,10.6,0.3,26.6
			L353.3,155.8L353.3,155.8z"/>
		<path class="st5" d="M352.1,154c0,0,2.7-2.7,4.6-1.5c2,1.2,2.5,6.7-3.5,7.8C353.2,160.3,351.6,157.9,352.1,154L352.1,154z"/>
		<path class="st5" d="M322.7,154c0,0-2.5-1.9-3.6-0.4c-1.1,1.4-0.1,6.4,4.3,6.2C323.4,159.7,323.9,157.3,322.7,154L322.7,154z"/>
		<path class="st10" d="M352.5,130.5c0,0-3-4.6-7.7-6.1c-4.7-1.5-13.7,0.5-17.2-0.6c0,0,2.8,3.2,8.4,4.3c5.6,1.2,10,3.1,10,3.1
			L352.5,130.5L352.5,130.5z"/>
		<path class="st10" d="M323.9,142c0,0-1.6,7.6-1.8,11.6c0,0-1.6-10.8-0.3-13.9C323.2,136.7,323.9,142,323.9,142L323.9,142z"/>
		<path class="st10" d="M347,148.7c0.5,0.9-1.4,0.7-2.6,0.5c-1.2-0.3-3.7,0.6-4.7,0.5c-1-0.1-1.4-2.1,0.3-2.5
			C341.6,146.7,345.8,146.2,347,148.7L347,148.7z"/>
		<path class="st10" d="M324.7,148.7c-0.5,0.9,1.4,0.7,2.6,0.5c1.2-0.3,3.8,0.6,4.7,0.5c1-0.1,1.4-2.1-0.3-2.5
			C330.1,146.7,325.9,146.2,324.7,148.7L324.7,148.7z"/>
		<ellipse class="st11" cx="335.4" cy="168" rx="3.9" ry="1.6"/>
	</g>
</g>
</svg>
